<?xml version="1.0" encoding="UTF-8" standalone="no"?><!DOCTYPE svg PUBLIC "-//W3C//DTD SVG 1.1//EN" "http://www.w3.org/Graphics/SVG/1.1/DTD/svg11.dtd"><svg width="100%" height="100%" viewBox="0 0 32 32" version="1.1" xmlns="http://www.w3.org/2000/svg" xmlns:xlink="http://www.w3.org/1999/xlink" xml:space="preserve" xmlns:serif="http://www.serif.com/" style="fill-rule:evenodd;clip-rule:evenodd;"><path d="M9.143,17.989c1.902,-1.571 4.342,-2.514 7,-2.514c2.658,-0 5.097,0.943 7,2.514l-0,11.986l-14,-0l-0,-11.986Z" style="fill:url(#_Radial1);fill-rule:nonzero;"/><path d="M9.143,17.989c1.902,-1.571 4.342,-2.514 7,-2.514c2.658,-0 5.097,0.943 7,2.514l-0,11.986l-14,-0l-0,-11.986Z" style="fill:url(#_Radial2);fill-rule:nonzero;"/><path d="M9.143,17.989c1.902,-1.571 4.342,-2.514 7,-2.514c2.658,-0 5.097,0.943 7,2.514l-0,11.986l-14,-0l-0,-11.986Z" style="fill:url(#_Radial3);fill-rule:nonzero;"/><path d="M9.143,17.989c1.902,-1.571 4.342,-2.514 7,-2.514c2.658,-0 5.097,0.943 7,2.514l-0,11.986l-14,-0l-0,-11.986Z" style="fill:url(#_Radial4);fill-rule:nonzero;"/><g><path d="M17.101,20.81c1.172,-0.436 1.967,-1.288 1.967,-2.267c0,-1.424 -1.683,-2.579 -3.759,-2.579c-2.075,0 -3.758,1.155 -3.758,2.579c-0,0.979 0.795,1.831 1.967,2.267c-0.389,0.437 -0.404,0.981 -0.404,1.486c-0.003,0.217 -0.01,0.621 -0.013,0.924c-0.003,0.177 0.151,0.312 0.322,0.267c0.381,-0.101 0.909,-0.316 1.264,-0.706c0.378,-0.415 0.565,-0.814 0.622,-1.433c0.058,0.619 0.245,1.018 0.622,1.433c0.356,0.39 0.883,0.605 1.265,0.706c0.17,0.045 0.324,-0.09 0.322,-0.267c-0.003,-0.303 -0.01,-0.707 -0.013,-0.924c-0,-0.505 -0.015,-1.049 -0.404,-1.486Z" style="fill:#b693a1;fill-rule:nonzero;"/></g><ellipse cx="16.143" cy="17.314" rx="4.489" ry="3.08" style="fill:url(#_Linear5);"/><ellipse cx="16.143" cy="17.314" rx="4.489" ry="3.08" style="fill:url(#_Radial6);"/><g><ellipse cx="16.142" cy="17.066" rx="3.844" ry="2.219" style="fill:none;stroke:url(#_Linear7);stroke-width:0.5px;"/></g><g><path d="M14.064,19.957c0.824,-0.789 1.717,-0.938 2.058,-0.891c0.133,1.793 -0.012,2.528 -0.723,3.309c-0.424,0.467 -1.054,0.723 -1.509,0.843c-0.204,0.054 -0.388,-0.107 -0.385,-0.318c0.004,-0.362 0.012,-0.844 0.016,-1.103c-0,-0.629 0.019,-1.309 0.543,-1.84Z" style="fill:url(#_Radial8);fill-rule:nonzero;"/><path d="M14.064,19.957c0.824,-0.789 1.717,-0.938 2.058,-0.891c0.133,1.793 -0.012,2.528 -0.723,3.309c-0.424,0.467 -1.054,0.723 -1.509,0.843c-0.204,0.054 -0.388,-0.107 -0.385,-0.318c0.004,-0.362 0.012,-0.844 0.016,-1.103c-0,-0.629 0.019,-1.309 0.543,-1.84Z" style="fill:url(#_Radial9);fill-rule:nonzero;"/></g><g><path d="M18.221,19.957c-0.824,-0.789 -1.717,-0.938 -2.058,-0.891c-0.133,1.793 0.011,2.528 0.722,3.309c0.425,0.467 1.055,0.723 1.51,0.843c0.204,0.054 0.388,-0.107 0.385,-0.318c-0.004,-0.362 -0.012,-0.844 -0.016,-1.103c0,-0.629 -0.019,-1.309 -0.543,-1.84Z" style="fill:url(#_Radial10);fill-rule:nonzero;"/><path d="M18.221,19.957c-0.824,-0.789 -1.717,-0.938 -2.058,-0.891c-0.133,1.793 0.011,2.528 0.722,3.309c0.425,0.467 1.055,0.723 1.51,0.843c0.204,0.054 0.388,-0.107 0.385,-0.318c-0.004,-0.362 -0.012,-0.844 -0.016,-1.103c0,-0.629 -0.019,-1.309 -0.543,-1.84Z" style="fill:url(#_Linear11);fill-rule:nonzero;"/><path d="M18.221,19.957c-0.824,-0.789 -1.717,-0.938 -2.058,-0.891c-0.133,1.793 0.011,2.528 0.722,3.309c0.425,0.467 1.055,0.723 1.51,0.843c0.204,0.054 0.388,-0.107 0.385,-0.318c-0.004,-0.362 -0.012,-0.844 -0.016,-1.103c0,-0.629 -0.019,-1.309 -0.543,-1.84Z" style="fill:url(#_Radial12);fill-rule:nonzero;"/></g><path d="M5.143,26.475c-0.02,-3.41 1.582,-6.47 4,-8.5l-0,11.98l-3.98,0.02l-0.02,-3.5Z" style="fill:url(#_Radial13);fill-rule:nonzero;"/><g><path d="M15.413,19.097c0.182,-0.058 0.432,-0.109 0.729,-0.109c0.297,-0 0.546,0.051 0.729,0.109c0.185,0.059 0.277,0.251 0.236,0.441c-0.061,0.287 -0.143,0.528 -0.222,0.714c-0.105,0.248 -0.34,0.415 -0.608,0.426c-0.121,0.005 -0.149,0.005 -0.27,0c-0.268,-0.011 -0.503,-0.178 -0.608,-0.426c-0.079,-0.186 -0.161,-0.427 -0.223,-0.714c-0.04,-0.19 0.052,-0.382 0.237,-0.441Z" style="fill:url(#_Linear14);fill-rule:nonzero;"/><path d="M15.413,19.097c0.182,-0.058 0.432,-0.109 0.729,-0.109c0.297,-0 0.546,0.051 0.729,0.109c0.185,0.059 0.277,0.251 0.236,0.441c-0.061,0.287 -0.143,0.528 -0.222,0.714c-0.105,0.248 -0.34,0.415 -0.608,0.426c-0.121,0.005 -0.149,0.005 -0.27,0c-0.268,-0.011 -0.503,-0.178 -0.608,-0.426c-0.079,-0.186 -0.161,-0.427 -0.223,-0.714c-0.04,-0.19 0.052,-0.382 0.237,-0.441Z" style="fill:url(#_Radial15);fill-rule:nonzero;"/></g><path d="M4.589,29.975l8.844,-0l-2.031,-5.805c-0.602,-1.791 -0.32,-3.533 -4.61,-2.954c-2.718,0.333 -4.203,3.217 -3.156,6.123l0.953,2.636Z" style="fill:url(#_Linear16);fill-rule:nonzero;"/><path d="M4.589,29.975l8.844,-0l-2.031,-5.805c-0.602,-1.791 -0.32,-3.533 -4.61,-2.954c-2.718,0.333 -4.203,3.217 -3.156,6.123l0.953,2.636Z" style="fill:url(#_Linear17);fill-rule:nonzero;"/><g><path d="M5.636,29.975l8.844,-0l-2.031,-5.852c-0.602,-1.805 -2.022,-3.296 -4.61,-2.977c-2.718,0.336 -4.203,3.243 -3.156,6.172l0.953,2.657Z" style="fill:url(#_Linear18);fill-rule:nonzero;"/></g><g><path d="M8.312,25.293c0.685,-0 1.24,-0.555 1.24,-1.24c0,-0.685 -0.555,-1.24 -1.24,-1.24c-0.685,-0 -1.24,0.555 -1.24,1.24c0,0.685 0.555,1.24 1.24,1.24Z" style="fill:#f99e93;fill-rule:nonzero;"/></g><g><path d="M11.32,28.315c0.685,-0.001 1.24,-0.556 1.24,-1.241c0,-0.684 -0.555,-1.24 -1.24,-1.24c-0.685,0 -1.24,0.556 -1.24,1.24c0,0.685 0.555,1.24 1.24,1.24Z" style="fill:#f99e93;fill-rule:nonzero;"/></g><g><path d="M7.309,29.175c0.684,-0 1.24,-0.555 1.24,-1.24c-0,-0.685 -0.556,-1.24 -1.24,-1.24c-0.685,-0 -1.24,0.555 -1.24,1.24c-0,0.685 0.555,1.24 1.24,1.24Z" style="fill:#f99e93;fill-rule:nonzero;"/></g><g><path d="M8.383,25.215c0.684,-0 1.24,-0.555 1.24,-1.24c-0,-0.685 -0.556,-1.24 -1.24,-1.24c-0.685,-0 -1.24,0.555 -1.24,1.24c-0,0.684 0.555,1.24 1.24,1.24Z" style="fill:url(#_Radial19);fill-rule:nonzero;"/></g><path d="M8.383,25.215c0.684,-0 1.24,-0.555 1.24,-1.24c-0,-0.685 -0.556,-1.24 -1.24,-1.24c-0.685,-0 -1.24,0.555 -1.24,1.24c-0,0.684 0.555,1.24 1.24,1.24Z" style="fill:url(#_Radial20);fill-rule:nonzero;"/><g><path d="M11.383,28.264c0.684,-0 1.24,-0.555 1.24,-1.24c-0,-0.685 -0.556,-1.24 -1.24,-1.24c-0.685,-0 -1.24,0.555 -1.24,1.24c-0,0.684 0.555,1.24 1.24,1.24Z" style="fill:url(#_Radial21);fill-rule:nonzero;"/></g><g><path d="M7.383,29.105c0.684,-0 1.24,-0.556 1.24,-1.241c-0,-0.684 -0.556,-1.239 -1.24,-1.239c-0.685,-0 -1.24,0.555 -1.24,1.239c-0,0.685 0.555,1.241 1.24,1.241Z" style="fill:url(#_Radial22);fill-rule:nonzero;"/></g><path d="M7.383,29.105c0.684,-0 1.24,-0.556 1.24,-1.241c-0,-0.684 -0.556,-1.239 -1.24,-1.239c-0.685,-0 -1.24,0.555 -1.24,1.239c-0,0.685 0.555,1.241 1.24,1.241Z" style="fill:url(#_Radial23);fill-rule:nonzero;"/><path d="M16.142,18.394c-1.05,-0 -1.909,-0.507 -1.909,-1.291l0,-2.692c0,-1.11 0.86,-2.017 1.909,-2.017c1.05,-0 1.91,0.907 1.91,2.017l-0,2.692c-0,0.796 -0.86,1.291 -1.91,1.291Z" style="fill:url(#_Radial24);fill-rule:nonzero;"/><path d="M16.142,18.394c-1.05,-0 -1.909,-0.507 -1.909,-1.291l0,-2.692c0,-1.11 0.86,-2.017 1.909,-2.017c1.05,-0 1.91,0.907 1.91,2.017l-0,2.692c-0,0.796 -0.86,1.291 -1.91,1.291Z" style="fill:url(#_Radial25);fill-rule:nonzero;"/><path d="M27.734,23.019c0.532,-0 0.967,0.435 0.967,0.967l0,2.214l-1.934,0l0,-2.214c0.01,-0.532 0.435,-0.967 0.967,-0.967Z" style="fill:url(#_Radial26);fill-rule:nonzero;"/><path d="M27.734,23.019c0.532,-0 0.967,0.435 0.967,0.967l0,2.214l-1.934,0l0,-2.214c0.01,-0.532 0.435,-0.967 0.967,-0.967Z" style="fill:url(#_Radial27);fill-rule:nonzero;"/><path d="M23.143,29.975l-0,-12c2.44,2.023 4,5.078 4,8.494l-0,3.506l-4,-0Z" style="fill:url(#_Radial28);fill-rule:nonzero;"/><path d="M23.143,29.975l-0,-12c2.44,2.023 4,5.078 4,8.494l-0,3.506l-4,-0Z" style="fill:url(#_Linear29);fill-rule:nonzero;"/><path d="M23.143,29.975l-0,-12c2.44,2.023 4,5.078 4,8.494l-0,3.506l-4,-0Z" style="fill:url(#_Linear30);fill-rule:nonzero;"/><path d="M25.378,20.725c-0.048,-0 -0.089,0.034 -0.098,0.082c-0.23,1.338 -0.199,2.695 -0.107,4.134l0.61,4.304c0.041,0.28 0.286,0.5 0.571,0.5c0.296,-0 0.541,-0.21 0.572,-0.5l0.63,-4.351c0.061,-1.492 0.092,-2.752 -0.137,-4.087c-0.008,-0.048 -0.05,-0.082 -0.098,-0.082l-1.943,-0Z" style="fill:url(#_Radial31);fill-rule:nonzero;"/><path d="M25.378,20.725c-0.048,-0 -0.089,0.034 -0.098,0.082c-0.23,1.338 -0.199,2.695 -0.107,4.134l0.61,4.304c0.041,0.28 0.286,0.5 0.571,0.5c0.296,-0 0.541,-0.21 0.572,-0.5l0.63,-4.351c0.061,-1.492 0.092,-2.752 -0.137,-4.087c-0.008,-0.048 -0.05,-0.082 -0.098,-0.082l-1.943,-0Z" style="fill:url(#_Linear32);fill-rule:nonzero;"/><g><path d="M27.277,20.725c0.061,-0 0.107,-0.054 0.098,-0.114c-0.099,-0.662 -0.234,-1.262 -0.432,-1.876l-1.2,-0c-0.207,0.609 -0.343,1.315 -0.415,1.878c-0.008,0.059 0.038,0.112 0.098,0.112l1.851,-0Z" style="fill:url(#_Linear33);fill-rule:nonzero;"/><path d="M27.277,20.725c0.061,-0 0.107,-0.054 0.098,-0.114c-0.099,-0.662 -0.234,-1.262 -0.432,-1.876l-1.2,-0c-0.207,0.609 -0.343,1.315 -0.415,1.878c-0.008,0.059 0.038,0.112 0.098,0.112l1.851,-0Z" style="fill:url(#_Radial34);fill-rule:nonzero;"/><path d="M27.277,20.725c0.061,-0 0.107,-0.054 0.098,-0.114c-0.099,-0.662 -0.234,-1.262 -0.432,-1.876l-1.2,-0c-0.207,0.609 -0.343,1.315 -0.415,1.878c-0.008,0.059 0.038,0.112 0.098,0.112l1.851,-0Z" style="fill:url(#_Radial35);fill-rule:nonzero;"/><path d="M27.277,20.725c0.061,-0 0.107,-0.054 0.098,-0.114c-0.099,-0.662 -0.234,-1.262 -0.432,-1.876l-1.2,-0c-0.207,0.609 -0.343,1.315 -0.415,1.878c-0.008,0.059 0.038,0.112 0.098,0.112l1.851,-0Z" style="fill:url(#_Linear36);fill-rule:nonzero;"/></g><path d="M25.169,16.58l0.685,-0.093c0.322,0 0.735,0.472 0.735,0.794c-0,0.473 0.136,0.55 0.609,0.55c0.454,0.011 0.86,0.001 0.907,-0.436c0.003,0.039 0.005,0.078 0.005,0.117c-0,0.893 -0.721,1.613 -1.613,1.613c-0.892,-0 -1.613,-0.72 -1.613,-1.613c0,-0.269 0.065,-0.516 0.183,-0.742c0.01,-0.021 0.091,-0.169 0.102,-0.19Z" style="fill:url(#_Radial37);fill-rule:nonzero;"/><g><path d="M28.293,14.9c-0.065,-0.054 -0.14,-0.075 -0.215,-0.075c-1.248,0.082 -2.375,0.649 -2.978,1.739c-0.036,0.064 0.012,0.142 0.086,0.142l0.634,-0c0.322,-0 0.58,0.258 0.58,0.581c0,0.473 0.366,0.881 0.839,0.881c0.473,0.011 0.849,-0.365 0.871,-0.828c-0,-0.053 -0.011,-0.107 -0.022,-0.161l0,-0.011c-0.161,-0.699 -0.053,-1.29 0.28,-1.881c0.064,-0.129 0.032,-0.29 -0.075,-0.387Z" style="fill:url(#_Radial38);fill-rule:nonzero;"/><path d="M28.293,14.9c-0.065,-0.054 -0.14,-0.075 -0.215,-0.075c-1.248,0.082 -2.375,0.649 -2.978,1.739c-0.036,0.064 0.012,0.142 0.086,0.142l0.634,-0c0.322,-0 0.58,0.258 0.58,0.581c0,0.473 0.366,0.881 0.839,0.881c0.473,0.011 0.849,-0.365 0.871,-0.828c-0,-0.053 -0.011,-0.107 -0.022,-0.161l0,-0.011c-0.161,-0.699 -0.053,-1.29 0.28,-1.881c0.064,-0.129 0.032,-0.29 -0.075,-0.387Z" style="fill:url(#_Radial39);fill-rule:nonzero;"/><path d="M28.293,14.9c-0.065,-0.054 -0.14,-0.075 -0.215,-0.075c-1.248,0.082 -2.375,0.649 -2.978,1.739c-0.036,0.064 0.012,0.142 0.086,0.142l0.634,-0c0.322,-0 0.58,0.258 0.58,0.581c0,0.473 0.366,0.881 0.839,0.881c0.473,0.011 0.849,-0.365 0.871,-0.828c-0,-0.053 -0.011,-0.107 -0.022,-0.161l0,-0.011c-0.161,-0.699 -0.053,-1.29 0.28,-1.881c0.064,-0.129 0.032,-0.29 -0.075,-0.387Z" style="fill:url(#_Radial40);fill-rule:nonzero;"/><path d="M28.293,14.9c-0.065,-0.054 -0.14,-0.075 -0.215,-0.075c-1.248,0.082 -2.375,0.649 -2.978,1.739c-0.036,0.064 0.012,0.142 0.086,0.142l0.634,-0c0.322,-0 0.58,0.258 0.58,0.581c0,0.473 0.366,0.881 0.839,0.881c0.473,0.011 0.849,-0.365 0.871,-0.828c-0,-0.053 -0.011,-0.107 -0.022,-0.161l0,-0.011c-0.161,-0.699 -0.053,-1.29 0.28,-1.881c0.064,-0.129 0.032,-0.29 -0.075,-0.387Z" style="fill:url(#_Radial41);fill-rule:nonzero;"/></g><g><path d="M24.005,25.3c-0,-0.401 0.325,-0.732 0.726,-0.732l2.77,0c0.663,0 1.2,0.538 1.2,1.2l0,3.207c0,0.552 -0.447,1 -1,1l-2.97,-0c-0.401,-0 -0.726,-0.331 -0.726,-0.732c-0,-0.287 0.166,-0.538 0.407,-0.657c-0.241,-0.12 -0.407,-0.371 -0.407,-0.657c-0,-0.287 0.166,-0.538 0.407,-0.658c-0.241,-0.119 -0.407,-0.37 -0.407,-0.657c-0,-0.286 0.166,-0.537 0.407,-0.657c-0.241,-0.119 -0.407,-0.37 -0.407,-0.657Z" style="fill:url(#_Linear42);fill-rule:nonzero;"/><path d="M24.005,25.3c-0,-0.401 0.325,-0.732 0.726,-0.732l2.77,0c0.663,0 1.2,0.538 1.2,1.2l0,3.207c0,0.552 -0.447,1 -1,1l-2.97,-0c-0.401,-0 -0.726,-0.331 -0.726,-0.732c-0,-0.287 0.166,-0.538 0.407,-0.657c-0.241,-0.12 -0.407,-0.371 -0.407,-0.657c-0,-0.287 0.166,-0.538 0.407,-0.658c-0.241,-0.119 -0.407,-0.37 -0.407,-0.657c-0,-0.286 0.166,-0.537 0.407,-0.657c-0.241,-0.119 -0.407,-0.37 -0.407,-0.657Z" style="fill:url(#_Radial43);fill-rule:nonzero;"/><path d="M24.005,25.3c-0,-0.401 0.325,-0.732 0.726,-0.732l2.77,0c0.663,0 1.2,0.538 1.2,1.2l0,3.207c0,0.552 -0.447,1 -1,1l-2.97,-0c-0.401,-0 -0.726,-0.331 -0.726,-0.732c-0,-0.287 0.166,-0.538 0.407,-0.657c-0.241,-0.12 -0.407,-0.371 -0.407,-0.657c-0,-0.287 0.166,-0.538 0.407,-0.658c-0.241,-0.119 -0.407,-0.37 -0.407,-0.657c-0,-0.286 0.166,-0.537 0.407,-0.657c-0.241,-0.119 -0.407,-0.37 -0.407,-0.657Z" style="fill:url(#_Radial44);fill-rule:nonzero;"/><path d="M24.005,25.3c-0,-0.401 0.325,-0.732 0.726,-0.732l2.77,0c0.663,0 1.2,0.538 1.2,1.2l0,3.207c0,0.552 -0.447,1 -1,1l-2.97,-0c-0.401,-0 -0.726,-0.331 -0.726,-0.732c-0,-0.287 0.166,-0.538 0.407,-0.657c-0.241,-0.12 -0.407,-0.371 -0.407,-0.657c-0,-0.287 0.166,-0.538 0.407,-0.658c-0.241,-0.119 -0.407,-0.37 -0.407,-0.657c-0,-0.286 0.166,-0.537 0.407,-0.657c-0.241,-0.119 -0.407,-0.37 -0.407,-0.657Z" style="fill:url(#_Radial45);fill-rule:nonzero;"/><path d="M24.005,25.3c-0,-0.401 0.325,-0.732 0.726,-0.732l2.77,0c0.663,0 1.2,0.538 1.2,1.2l0,3.207c0,0.552 -0.447,1 -1,1l-2.97,-0c-0.401,-0 -0.726,-0.331 -0.726,-0.732c-0,-0.287 0.166,-0.538 0.407,-0.657c-0.241,-0.12 -0.407,-0.371 -0.407,-0.657c-0,-0.287 0.166,-0.538 0.407,-0.658c-0.241,-0.119 -0.407,-0.37 -0.407,-0.657c-0,-0.286 0.166,-0.537 0.407,-0.657c-0.241,-0.119 -0.407,-0.37 -0.407,-0.657Z" style="fill:url(#_Radial46);fill-rule:nonzero;"/></g><path d="M24.005,25.3c-0,-0.401 0.325,-0.732 0.726,-0.732l2.77,0c0.663,0 1.2,0.538 1.2,1.2l0,3.207c0,0.552 -0.447,1 -1,1l-2.97,-0c-0.401,-0 -0.726,-0.331 -0.726,-0.732c-0,-0.287 0.166,-0.538 0.407,-0.657c-0.241,-0.12 -0.407,-0.371 -0.407,-0.657c-0,-0.287 0.166,-0.538 0.407,-0.658c-0.241,-0.119 -0.407,-0.37 -0.407,-0.657c-0,-0.286 0.166,-0.537 0.407,-0.657c-0.241,-0.119 -0.407,-0.37 -0.407,-0.657Z" style="fill:url(#_Linear47);fill-rule:nonzero;"/><g><path d="M24.525,25.952l1.797,0" style="fill:none;fill-rule:nonzero;stroke:url(#_Linear48);stroke-width:0.1px;stroke-linecap:round;"/></g><g><path d="M24.447,27.257l1.797,0" style="fill:none;fill-rule:nonzero;stroke:url(#_Linear49);stroke-width:0.1px;stroke-linecap:round;"/></g><g><path d="M24.525,28.562l1.797,-0" style="fill:none;fill-rule:nonzero;stroke:url(#_Linear50);stroke-width:0.1px;stroke-linecap:round;"/></g><path d="M21.028,12.145c0.335,-0.01 0.649,-0.124 0.905,-0.308l-0,0.931c-0,0.893 -0.533,1.689 -1.341,2.019c0.17,-0.363 0.287,-0.758 0.346,-1.18l0.09,-1.462Z" style="fill:url(#_Radial51);fill-rule:nonzero;"/><path d="M11.305,12.145c-0.335,-0.01 -0.649,-0.124 -0.904,-0.308l-0,0.931c-0,0.893 0.532,1.689 1.341,2.019c-0.171,-0.363 -0.288,-0.758 -0.346,-1.18l-0.091,-1.462Z" style="fill:url(#_Radial52);fill-rule:nonzero;"/><g><path d="M11.342,13.66c0.257,1.953 1.918,3.406 3.885,3.406l1.887,0c1.967,0 3.628,-1.453 3.886,-3.406c0.118,-1.883 0.236,-3.759 0.324,-5.642c-0.011,-0.767 -0.615,-1.4 -1.379,-1.432l-1.4,-0c-0.955,-0 -1.82,-0.563 -2.212,-1.443c-0.101,-0.252 -0.345,-0.418 -0.615,-0.418l-1.273,-0c-1.846,-0 -3.342,1.512 -3.342,3.379c0,1.86 0.117,3.691 0.239,5.556Z" style="fill:url(#_Radial53);fill-rule:nonzero;"/></g><path d="M11.342,13.66c0.257,1.953 1.918,3.406 3.885,3.406l1.887,0c1.967,0 3.628,-1.453 3.886,-3.406c0.118,-1.883 0.236,-3.759 0.324,-5.642c-0.011,-0.767 -0.615,-1.4 -1.379,-1.432l-1.4,-0c-0.955,-0 -1.82,-0.563 -2.212,-1.443c-0.101,-0.252 -0.345,-0.418 -0.615,-0.418l-1.273,-0c-1.846,-0 -3.342,1.512 -3.342,3.379c0,1.86 0.117,3.691 0.239,5.556Z" style="fill:url(#_Linear54);fill-rule:nonzero;"/><path d="M11.342,13.66c0.257,1.953 1.918,3.406 3.885,3.406l1.887,0c1.967,0 3.628,-1.453 3.886,-3.406c0.118,-1.883 0.236,-3.759 0.324,-5.642c-0.011,-0.767 -0.615,-1.4 -1.379,-1.432l-1.4,-0c-0.955,-0 -1.82,-0.563 -2.212,-1.443c-0.101,-0.252 -0.345,-0.418 -0.615,-0.418l-1.273,-0c-1.846,-0 -3.342,1.512 -3.342,3.379c0,1.86 0.117,3.691 0.239,5.556Z" style="fill:url(#_Radial55);fill-rule:nonzero;"/><path d="M11.342,13.66c0.257,1.953 1.918,3.406 3.885,3.406l1.887,0c1.967,0 3.628,-1.453 3.886,-3.406c0.118,-1.883 0.236,-3.759 0.324,-5.642c-0.011,-0.767 -0.615,-1.4 -1.379,-1.432l-1.4,-0c-0.955,-0 -1.82,-0.563 -2.212,-1.443c-0.101,-0.252 -0.345,-0.418 -0.615,-0.418l-1.273,-0c-1.846,-0 -3.342,1.512 -3.342,3.379c0,1.86 0.117,3.691 0.239,5.556Z" style="fill:url(#_Radial56);fill-rule:nonzero;"/><path d="M11.342,13.66c0.257,1.953 1.918,3.406 3.885,3.406l1.887,0c1.967,0 3.628,-1.453 3.886,-3.406c0.118,-1.883 0.236,-3.759 0.324,-5.642c-0.011,-0.767 -0.615,-1.4 -1.379,-1.432l-1.4,-0c-0.955,-0 -1.82,-0.563 -2.212,-1.443c-0.101,-0.252 -0.345,-0.418 -0.615,-0.418l-1.273,-0c-1.846,-0 -3.342,1.512 -3.342,3.379c0,1.86 0.117,3.691 0.239,5.556Z" style="fill:url(#_Radial57);fill-rule:nonzero;"/><path d="M11.342,13.66c0.257,1.953 1.918,3.406 3.885,3.406l1.887,0c1.967,0 3.628,-1.453 3.886,-3.406c0.118,-1.883 0.236,-3.759 0.324,-5.642c-0.011,-0.767 -0.615,-1.4 -1.379,-1.432l-1.4,-0c-0.955,-0 -1.82,-0.563 -2.212,-1.443c-0.101,-0.252 -0.345,-0.418 -0.615,-0.418l-1.273,-0c-1.846,-0 -3.342,1.512 -3.342,3.379c0,1.86 0.117,3.691 0.239,5.556Z" style="fill:url(#_Linear58);fill-rule:nonzero;"/><g><path d="M15.765,10.372l-0.591,1.838c-0.101,0.378 0.142,0.756 0.485,0.756l0.732,0c0.343,0 0.585,-0.384 0.484,-0.756l-0.494,-1.838c-0.107,-0.408 -0.505,-0.408 -0.616,-0Z" style="fill:#d69790;fill-rule:nonzero;"/></g><g><path d="M15.784,10.181l-0.531,1.838c-0.109,0.378 0.152,0.756 0.521,0.756l0.786,0c0.369,0 0.629,-0.383 0.52,-0.756l-0.531,-1.838c-0.114,-0.407 -0.645,-0.407 -0.765,-0Z" style="fill:#f6bfab;fill-rule:nonzero;"/><path d="M15.784,10.181l-0.531,1.838c-0.109,0.378 0.152,0.756 0.521,0.756l0.786,0c0.369,0 0.629,-0.383 0.52,-0.756l-0.531,-1.838c-0.114,-0.407 -0.645,-0.407 -0.765,-0Z" style="fill:url(#_Linear59);fill-rule:nonzero;"/><path d="M15.784,10.181l-0.531,1.838c-0.109,0.378 0.152,0.756 0.521,0.756l0.786,0c0.369,0 0.629,-0.383 0.52,-0.756l-0.531,-1.838c-0.114,-0.407 -0.645,-0.407 -0.765,-0Z" style="fill:url(#_Radial60);fill-rule:nonzero;"/><path d="M15.784,10.181l-0.531,1.838c-0.109,0.378 0.152,0.756 0.521,0.756l0.786,0c0.369,0 0.629,-0.383 0.52,-0.756l-0.531,-1.838c-0.114,-0.407 -0.645,-0.407 -0.765,-0Z" style="fill:url(#_Linear61);fill-rule:nonzero;"/><path d="M15.784,10.181l-0.531,1.838c-0.109,0.378 0.152,0.756 0.521,0.756l0.786,0c0.369,0 0.629,-0.383 0.52,-0.756l-0.531,-1.838c-0.114,-0.407 -0.645,-0.407 -0.765,-0Z" style="fill:url(#_Radial62);fill-rule:nonzero;"/><path d="M15.784,10.181l-0.531,1.838c-0.109,0.378 0.152,0.756 0.521,0.756l0.786,0c0.369,0 0.629,-0.383 0.52,-0.756l-0.531,-1.838c-0.114,-0.407 -0.645,-0.407 -0.765,-0Z" style="fill:url(#_Linear63);fill-rule:nonzero;"/></g><path d="M21.089,12.236c0.065,-1.064 0.129,-2.127 0.184,-3.191c0.756,0.132 1.33,0.791 1.33,1.585c0,0.857 -0.67,1.557 -1.514,1.606Z" style="fill:url(#_Linear64);fill-rule:nonzero;"/><path d="M21.089,12.236c0.065,-1.064 0.129,-2.127 0.184,-3.191c0.756,0.132 1.33,0.791 1.33,1.585c0,0.857 -0.67,1.557 -1.514,1.606Z" style="fill:url(#_Radial65);fill-rule:nonzero;"/><path d="M21.089,12.236c0.065,-1.064 0.129,-2.127 0.184,-3.191c0.756,0.132 1.33,0.791 1.33,1.585c0,0.857 -0.67,1.557 -1.514,1.606Z" style="fill:url(#_Radial66);fill-rule:nonzero;"/><path d="M21.089,12.236c0.065,-1.064 0.129,-2.127 0.184,-3.191c0.756,0.132 1.33,0.791 1.33,1.585c0,0.857 -0.67,1.557 -1.514,1.606Z" style="fill:url(#_Radial67);fill-rule:nonzero;"/><path d="M11.122,9.036c-0.781,0.11 -1.392,0.782 -1.392,1.594c0,0.859 0.673,1.561 1.521,1.607c-0.065,-1.069 -0.108,-2.132 -0.129,-3.201Z" style="fill:url(#_Linear68);fill-rule:nonzero;"/><path d="M11.122,9.036c-0.781,0.11 -1.392,0.782 -1.392,1.594c0,0.859 0.673,1.561 1.521,1.607c-0.065,-1.069 -0.108,-2.132 -0.129,-3.201Z" style="fill:url(#_Radial69);fill-rule:nonzero;"/><g><path d="M11.081,9.697c-0.426,0.096 -0.745,0.477 -0.745,0.932c-0,0.485 0.361,0.885 0.829,0.947c-0.035,-0.626 -0.064,-1.252 -0.084,-1.879Z" style="fill:url(#_Radial70);fill-rule:nonzero;"/></g><g><path d="M21.172,11.592c0.039,-0.634 0.076,-1.269 0.111,-1.903c0.471,0.059 0.836,0.461 0.836,0.948c-0,0.525 -0.423,0.95 -0.947,0.955Z" style="fill:url(#_Linear71);fill-rule:nonzero;"/></g><path d="M20.632,6.934c0.182,0.151 0.604,0.549 0.604,1.08c-0,0.323 -0.02,0.719 -0.039,1.039c0.182,0.032 0.304,0.074 0.47,0.155c0.002,-0.293 0.044,-0.701 0.139,-0.989c0.049,-0.147 0.104,-0.281 0.157,-0.409c0.158,-0.382 0.296,-0.715 0.167,-1.189l-1.499,0l0,0.313Z" style="fill:url(#_Radial72);fill-rule:nonzero;"/><path d="M20.632,6.934c0.182,0.151 0.604,0.549 0.604,1.08c-0,0.323 -0.02,0.719 -0.039,1.039c0.182,0.032 0.304,0.074 0.47,0.155c0.002,-0.293 0.044,-0.701 0.139,-0.989c0.049,-0.147 0.104,-0.281 0.157,-0.409c0.158,-0.382 0.296,-0.715 0.167,-1.189l-1.499,0l0,0.313Z" style="fill:url(#_Radial73);fill-rule:nonzero;"/><path d="M11.578,6.901l-0.402,0.961c-0.088,0.267 -0.061,0.679 -0.061,1.179c-0.206,0.027 -0.372,0.093 -0.537,0.176l0.001,-0.5c-0,-0.15 -0,-0.312 -0.155,-0.775c-0.014,-0.042 -0.027,-0.082 -0.04,-0.121c-0.172,-0.509 -0.273,-0.811 -0.122,-1.301l1.316,0.381Z" style="fill:url(#_Linear74);fill-rule:nonzero;"/><path d="M11.578,6.901l-0.402,0.961c-0.088,0.267 -0.061,0.679 -0.061,1.179c-0.206,0.027 -0.372,0.093 -0.537,0.176l0.001,-0.5c-0,-0.15 -0,-0.312 -0.155,-0.775c-0.014,-0.042 -0.027,-0.082 -0.04,-0.121c-0.172,-0.509 -0.273,-0.811 -0.122,-1.301l1.316,0.381Z" style="fill:url(#_Radial75);fill-rule:nonzero;"/><path d="M8.641,5.835c0,-0.45 0.345,-0.983 0.735,-1.213c1.816,-1.269 5.569,-2.66 8.778,-2.594c2.737,0.149 4.324,1.636 4.424,4.156c0.019,0.491 -0.534,0.791 -0.934,0.791l-11.745,-0c-0.685,-0 -1.258,-0.43 -1.258,-1.14Z" style="fill:url(#_Linear76);fill-rule:nonzero;"/><path d="M8.641,5.835c0,-0.45 0.345,-0.983 0.735,-1.213c1.816,-1.269 5.569,-2.66 8.778,-2.594c2.737,0.149 4.324,1.636 4.424,4.156c0.019,0.491 -0.534,0.791 -0.934,0.791l-11.745,-0c-0.685,-0 -1.258,-0.43 -1.258,-1.14Z" style="fill:url(#_Radial77);fill-rule:nonzero;"/><path d="M8.641,5.835c0,-0.45 0.345,-0.983 0.735,-1.213c1.816,-1.269 5.569,-2.66 8.778,-2.594c2.737,0.149 4.324,1.636 4.424,4.156c0.019,0.491 -0.534,0.791 -0.934,0.791l-11.745,-0c-0.685,-0 -1.258,-0.43 -1.258,-1.14Z" style="fill:url(#_Linear78);fill-rule:nonzero;"/><g><path d="M19.941,2.789c2.009,0.773 2.24,2.385 2.366,3.36c-3.464,-0.783 -5.749,-1.177 -7.035,-1.405c-0.31,-0.055 -0.423,-0.419 -0.179,-0.617c1.12,-0.911 3.161,-1.987 4.848,-1.338Z" style="fill:url(#_Radial79);fill-rule:nonzero;"/></g><g><path d="M12.65,4.726c-0.973,-0.093 -2.504,0.103 -3.147,0.213c-0.174,0.135 -0.479,0.54 -0.309,1.081c0.169,0.541 0.572,0.65 0.753,0.637c3.302,-0.637 3.92,-1.815 2.703,-1.931Z" style="fill:url(#_Radial80);fill-rule:nonzero;"/><g><path d="M15.186,8.602c0.185,0.074 0.343,0.187 0.469,0.33c0.082,0.094 0.198,0.156 0.323,0.151c0.169,-0.006 0.358,-0.007 0.559,0.001c0.125,0.006 0.242,-0.057 0.324,-0.151c0.126,-0.144 0.285,-0.257 0.47,-0.331c0.067,-0.029 0.184,-0.072 0.472,-0.126c0.174,-0.032 0.589,-0.05 0.869,-0.056c0.289,-0.007 0.6,-0.007 0.832,-0.007l0.106,0.001c0.398,-0 0.791,0.125 0.947,0.219c0.35,0.178 0.675,0.518 0.698,1.104c0.001,0.008 0.002,0.017 0.002,0.026c0.028,0.9 -0.532,2.188 -1.957,2.541c-0.1,0.024 -0.198,0.043 -0.297,0.056c-0.005,0.001 -0.01,0.001 -0.015,0.002c-1.442,0.135 -2.394,-1.084 -2.441,-2.409c-0.004,-0.11 -0.088,-0.202 -0.197,-0.204c-0.063,-0.001 -0.123,-0.001 -0.182,-0.001c-0.11,0.002 -0.194,0.095 -0.198,0.204c-0.047,1.326 -1,2.545 -2.441,2.41c-0.005,-0.001 -0.01,-0.001 -0.015,-0.002c-0.099,-0.013 -0.197,-0.032 -0.297,-0.056c-1.426,-0.353 -1.985,-1.641 -1.957,-2.541c0,-0.009 0.001,-0.018 0.002,-0.026c0.023,-0.586 0.348,-0.926 0.698,-1.104c0.156,-0.094 0.549,-0.219 0.947,-0.219l0.106,-0.001c0.232,0 0.543,0 0.832,0.007c0.28,0.006 0.695,0.024 0.869,0.056c0.288,0.054 0.405,0.097 0.472,0.126Zm-3.451,0.837c0.083,-0.204 0.239,-0.371 0.448,-0.497c0.117,-0.071 0.401,-0.194 0.724,-0.194l0.104,0c0.467,-0 1.231,-0.001 1.517,0.053c0.277,0.051 0.367,0.089 0.405,0.106c0.158,0.062 0.295,0.163 0.399,0.293l0.115,0.607c0.027,-0.005 0.061,-0.01 0.1,-0.016c-0,0.006 -0,0.011 -0,0.017l-0,0.01c0.06,1.411 -1.014,2.26 -2.018,2.166c-0.089,-0.012 -0.176,-0.028 -0.263,-0.05c-1.058,-0.262 -1.503,-1.095 -1.587,-1.833c-0.013,-0.114 -0.018,-0.225 -0.015,-0.332l0.001,-0.003l0,0l0,-0.003c0.005,-0.117 0.029,-0.225 0.07,-0.324Zm5.235,0.354c0,0.005 0,0.01 0,0.015l0,0.01c-0.06,1.411 1.014,2.26 2.018,2.166c0.089,-0.012 0.176,-0.028 0.263,-0.05c1.058,-0.262 1.503,-1.095 1.587,-1.833c0.013,-0.114 0.018,-0.225 0.015,-0.332l-0.001,-0.003l-0,0l-0,-0.003c-0.005,-0.117 -0.029,-0.225 -0.07,-0.324c-0.083,-0.204 -0.239,-0.371 -0.448,-0.497c-0.117,-0.071 -0.401,-0.194 -0.724,-0.194l-0.104,0c-0.467,-0 -1.231,-0.001 -1.517,0.053c-0.277,0.051 -0.367,0.089 -0.405,0.106c-0.164,0.064 -0.305,0.171 -0.411,0.308l-0.092,0.594c-0.037,-0.005 -0.074,-0.011 -0.111,-0.016Z" style="fill:url(#_Radial81);"/><path d="M15.186,8.602c0.185,0.074 0.343,0.187 0.469,0.33c0.082,0.094 0.198,0.156 0.323,0.151c0.169,-0.006 0.358,-0.007 0.559,0.001c0.125,0.006 0.242,-0.057 0.324,-0.151c0.126,-0.144 0.285,-0.257 0.47,-0.331c0.067,-0.029 0.184,-0.072 0.472,-0.126c0.174,-0.032 0.589,-0.05 0.869,-0.056c0.289,-0.007 0.6,-0.007 0.832,-0.007l0.106,0.001c0.398,-0 0.791,0.125 0.947,0.219c0.35,0.178 0.675,0.518 0.698,1.104c0.001,0.008 0.002,0.017 0.002,0.026c0.028,0.9 -0.532,2.188 -1.957,2.541c-0.1,0.024 -0.198,0.043 -0.297,0.056c-0.005,0.001 -0.01,0.001 -0.015,0.002c-1.442,0.135 -2.394,-1.084 -2.441,-2.409c-0.004,-0.11 -0.088,-0.202 -0.197,-0.204c-0.063,-0.001 -0.123,-0.001 -0.182,-0.001c-0.11,0.002 -0.194,0.095 -0.198,0.204c-0.047,1.326 -1,2.545 -2.441,2.41c-0.005,-0.001 -0.01,-0.001 -0.015,-0.002c-0.099,-0.013 -0.197,-0.032 -0.297,-0.056c-1.426,-0.353 -1.985,-1.641 -1.957,-2.541c0,-0.009 0.001,-0.018 0.002,-0.026c0.023,-0.586 0.348,-0.926 0.698,-1.104c0.156,-0.094 0.549,-0.219 0.947,-0.219l0.106,-0.001c0.232,0 0.543,0 0.832,0.007c0.28,0.006 0.695,0.024 0.869,0.056c0.288,0.054 0.405,0.097 0.472,0.126Zm-3.451,0.837c0.083,-0.204 0.239,-0.371 0.448,-0.497c0.117,-0.071 0.401,-0.194 0.724,-0.194l0.104,0c0.467,-0 1.231,-0.001 1.517,0.053c0.277,0.051 0.367,0.089 0.405,0.106c0.158,0.062 0.295,0.163 0.399,0.293l0.115,0.607c0.027,-0.005 0.061,-0.01 0.1,-0.016c-0,0.006 -0,0.011 -0,0.017l-0,0.01c0.06,1.411 -1.014,2.26 -2.018,2.166c-0.089,-0.012 -0.176,-0.028 -0.263,-0.05c-1.058,-0.262 -1.503,-1.095 -1.587,-1.833c-0.013,-0.114 -0.018,-0.225 -0.015,-0.332l0.001,-0.003l0,0l0,-0.003c0.005,-0.117 0.029,-0.225 0.07,-0.324Zm5.235,0.354c0,0.005 0,0.01 0,0.015l0,0.01c-0.06,1.411 1.014,2.26 2.018,2.166c0.089,-0.012 0.176,-0.028 0.263,-0.05c1.058,-0.262 1.503,-1.095 1.587,-1.833c0.013,-0.114 0.018,-0.225 0.015,-0.332l-0.001,-0.003l-0,0l-0,-0.003c-0.005,-0.117 -0.029,-0.225 -0.07,-0.324c-0.083,-0.204 -0.239,-0.371 -0.448,-0.497c-0.117,-0.071 -0.401,-0.194 -0.724,-0.194l-0.104,0c-0.467,-0 -1.231,-0.001 -1.517,0.053c-0.277,0.051 -0.367,0.089 -0.405,0.106c-0.164,0.064 -0.305,0.171 -0.411,0.308l-0.092,0.594c-0.037,-0.005 -0.074,-0.011 -0.111,-0.016Z" style="fill:url(#_Radial82);"/><path d="M15.186,8.602c0.185,0.074 0.343,0.187 0.469,0.33c0.082,0.094 0.198,0.156 0.323,0.151c0.169,-0.006 0.358,-0.007 0.559,0.001c0.125,0.006 0.242,-0.057 0.324,-0.151c0.126,-0.144 0.285,-0.257 0.47,-0.331c0.067,-0.029 0.184,-0.072 0.472,-0.126c0.174,-0.032 0.589,-0.05 0.869,-0.056c0.289,-0.007 0.6,-0.007 0.832,-0.007l0.106,0.001c0.398,-0 0.791,0.125 0.947,0.219c0.35,0.178 0.675,0.518 0.698,1.104c0.001,0.008 0.002,0.017 0.002,0.026c0.028,0.9 -0.532,2.188 -1.957,2.541c-0.1,0.024 -0.198,0.043 -0.297,0.056c-0.005,0.001 -0.01,0.001 -0.015,0.002c-1.442,0.135 -2.394,-1.084 -2.441,-2.409c-0.004,-0.11 -0.088,-0.202 -0.197,-0.204c-0.063,-0.001 -0.123,-0.001 -0.182,-0.001c-0.11,0.002 -0.194,0.095 -0.198,0.204c-0.047,1.326 -1,2.545 -2.441,2.41c-0.005,-0.001 -0.01,-0.001 -0.015,-0.002c-0.099,-0.013 -0.197,-0.032 -0.297,-0.056c-1.426,-0.353 -1.985,-1.641 -1.957,-2.541c0,-0.009 0.001,-0.018 0.002,-0.026c0.023,-0.586 0.348,-0.926 0.698,-1.104c0.156,-0.094 0.549,-0.219 0.947,-0.219l0.106,-0.001c0.232,0 0.543,0 0.832,0.007c0.28,0.006 0.695,0.024 0.869,0.056c0.288,0.054 0.405,0.097 0.472,0.126Zm-3.451,0.837c0.083,-0.204 0.239,-0.371 0.448,-0.497c0.117,-0.071 0.401,-0.194 0.724,-0.194l0.104,0c0.467,-0 1.231,-0.001 1.517,0.053c0.277,0.051 0.367,0.089 0.405,0.106c0.158,0.062 0.295,0.163 0.399,0.293l0.115,0.607c0.027,-0.005 0.061,-0.01 0.1,-0.016c-0,0.006 -0,0.011 -0,0.017l-0,0.01c0.06,1.411 -1.014,2.26 -2.018,2.166c-0.089,-0.012 -0.176,-0.028 -0.263,-0.05c-1.058,-0.262 -1.503,-1.095 -1.587,-1.833c-0.013,-0.114 -0.018,-0.225 -0.015,-0.332l0.001,-0.003l0,0l0,-0.003c0.005,-0.117 0.029,-0.225 0.07,-0.324Zm5.235,0.354c0,0.005 0,0.01 0,0.015l0,0.01c-0.06,1.411 1.014,2.26 2.018,2.166c0.089,-0.012 0.176,-0.028 0.263,-0.05c1.058,-0.262 1.503,-1.095 1.587,-1.833c0.013,-0.114 0.018,-0.225 0.015,-0.332l-0.001,-0.003l-0,0l-0,-0.003c-0.005,-0.117 -0.029,-0.225 -0.07,-0.324c-0.083,-0.204 -0.239,-0.371 -0.448,-0.497c-0.117,-0.071 -0.401,-0.194 -0.724,-0.194l-0.104,0c-0.467,-0 -1.231,-0.001 -1.517,0.053c-0.277,0.051 -0.367,0.089 -0.405,0.106c-0.164,0.064 -0.305,0.171 -0.411,0.308l-0.092,0.594c-0.037,-0.005 -0.074,-0.011 -0.111,-0.016Z" style="fill:url(#_Radial83);"/><path d="M12.183,8.942c0.117,-0.071 0.401,-0.194 0.724,-0.194c0.033,0 0.068,0 0.104,0c0.467,-0 1.231,-0.001 1.517,0.053c0.277,0.051 0.367,0.089 0.405,0.106c0.36,0.141 0.614,0.491 0.614,0.901l-0,0.01c0.06,1.411 -1.014,2.26 -2.018,2.166c-0.089,-0.012 -0.176,-0.028 -0.263,-0.05c-1.223,-0.302 -1.626,-1.368 -1.601,-2.168l0,0c0.013,-0.357 0.206,-0.636 0.518,-0.824Z" style="fill:url(#_Radial84);fill-rule:nonzero;"/><path d="M12.183,8.942c0.117,-0.071 0.401,-0.194 0.724,-0.194c0.033,0 0.068,0 0.104,0c0.467,-0 1.231,-0.001 1.517,0.053c0.277,0.051 0.367,0.089 0.405,0.106c0.36,0.141 0.614,0.491 0.614,0.901l-0,0.01c0.06,1.411 -1.014,2.26 -2.018,2.166c-0.089,-0.012 -0.176,-0.028 -0.263,-0.05c-1.223,-0.302 -1.626,-1.368 -1.601,-2.168l0,0c0.013,-0.357 0.206,-0.636 0.518,-0.824Z" style="fill:url(#_Radial85);fill-rule:nonzero;"/><path d="M12.183,8.942c0.117,-0.071 0.401,-0.194 0.724,-0.194c0.033,0 0.068,0 0.104,0c0.467,-0 1.231,-0.001 1.517,0.053c0.277,0.051 0.367,0.089 0.405,0.106c0.36,0.141 0.614,0.491 0.614,0.901l-0,0.01c0.06,1.411 -1.014,2.26 -2.018,2.166c-0.089,-0.012 -0.176,-0.028 -0.263,-0.05c-1.223,-0.302 -1.626,-1.368 -1.601,-2.168l0,0c0.013,-0.357 0.206,-0.636 0.518,-0.824Z" style="fill:url(#_Radial86);fill-rule:nonzero;"/><path d="M12.183,8.942c0.117,-0.071 0.401,-0.194 0.724,-0.194c0.033,0 0.068,0 0.104,0c0.467,-0 1.231,-0.001 1.517,0.053c0.277,0.051 0.367,0.089 0.405,0.106c0.36,0.141 0.614,0.491 0.614,0.901l-0,0.01c0.06,1.411 -1.014,2.26 -2.018,2.166c-0.089,-0.012 -0.176,-0.028 -0.263,-0.05c-1.223,-0.302 -1.626,-1.368 -1.601,-2.168l0,0c0.013,-0.357 0.206,-0.636 0.518,-0.824Z" style="fill:url(#_Radial87);fill-rule:nonzero;"/><path d="M14.356,9.2c0.248,-0.121 0.573,0.035 0.725,0.348c0.151,0.312 0.073,0.664 -0.176,0.784c-0.248,0.121 -0.573,-0.035 -0.724,-0.347c-0.152,-0.313 -0.073,-0.664 0.175,-0.785Z" style="fill:url(#_Linear88);"/><path d="M20.334,8.942c-0.117,-0.071 -0.401,-0.194 -0.724,-0.194c-0.033,0 -0.068,0 -0.104,0c-0.467,-0 -1.231,-0.001 -1.517,0.053c-0.277,0.051 -0.367,0.089 -0.405,0.106c-0.36,0.141 -0.614,0.491 -0.614,0.901l0,0.01c-0.06,1.411 1.014,2.26 2.018,2.166c0.089,-0.012 0.176,-0.028 0.263,-0.05c1.223,-0.302 1.626,-1.368 1.601,-2.168l-0,0c-0.013,-0.357 -0.206,-0.636 -0.518,-0.824Z" style="fill:url(#_Radial89);fill-rule:nonzero;"/><path d="M20.334,8.942c-0.117,-0.071 -0.401,-0.194 -0.724,-0.194c-0.033,0 -0.068,0 -0.104,0c-0.467,-0 -1.231,-0.001 -1.517,0.053c-0.277,0.051 -0.367,0.089 -0.405,0.106c-0.36,0.141 -0.614,0.491 -0.614,0.901l0,0.01c-0.06,1.411 1.014,2.26 2.018,2.166c0.089,-0.012 0.176,-0.028 0.263,-0.05c1.223,-0.302 1.626,-1.368 1.601,-2.168l-0,0c-0.013,-0.357 -0.206,-0.636 -0.518,-0.824Z" style="fill:url(#_Radial90);fill-rule:nonzero;"/><path d="M20.334,8.942c-0.117,-0.071 -0.401,-0.194 -0.724,-0.194c-0.033,0 -0.068,0 -0.104,0c-0.467,-0 -1.231,-0.001 -1.517,0.053c-0.277,0.051 -0.367,0.089 -0.405,0.106c-0.36,0.141 -0.614,0.491 -0.614,0.901l0,0.01c-0.06,1.411 1.014,2.26 2.018,2.166c0.089,-0.012 0.176,-0.028 0.263,-0.05c1.223,-0.302 1.626,-1.368 1.601,-2.168l-0,0c-0.013,-0.357 -0.206,-0.636 -0.518,-0.824Z" style="fill:url(#_Radial91);fill-rule:nonzero;"/><path d="M20.334,8.942c-0.117,-0.071 -0.401,-0.194 -0.724,-0.194c-0.033,0 -0.068,0 -0.104,0c-0.467,-0 -1.231,-0.001 -1.517,0.053c-0.277,0.051 -0.367,0.089 -0.405,0.106c-0.36,0.141 -0.614,0.491 -0.614,0.901l0,0.01c-0.06,1.411 1.014,2.26 2.018,2.166c0.089,-0.012 0.176,-0.028 0.263,-0.05c1.223,-0.302 1.626,-1.368 1.601,-2.168l-0,0c-0.013,-0.357 -0.206,-0.636 -0.518,-0.824Z" style="fill:url(#_Radial92);fill-rule:nonzero;"/><path d="M19.725,9.2c0.249,-0.121 0.574,0.035 0.725,0.348c0.152,0.312 0.073,0.664 -0.175,0.784c-0.249,0.121 -0.573,-0.035 -0.725,-0.347c-0.152,-0.313 -0.073,-0.664 0.175,-0.785Z" style="fill:url(#_Linear93);"/></g><path d="M14.211,14.123c0,-0 0.524,0.541 1.683,0.484" style="fill:none;fill-rule:nonzero;stroke:url(#_Radial94);stroke-width:0.64px;stroke-linecap:round;stroke-linejoin:round;"/></g><defs><radialGradient id="_Radial1" cx="0" cy="0" r="1" gradientUnits="userSpaceOnUse" gradientTransform="matrix(-4.0203e-15,-10.5008,14.4291,-5.52428e-15,19.8141,29.9746)"><stop offset="0" style="stop-color:#c6a0e4;stop-opacity:1"/><stop offset="0.57" style="stop-color:#d7bedc;stop-opacity:1"/><stop offset="1" style="stop-color:#d7bedc;stop-opacity:1"/></radialGradient><radialGradient id="_Radial2" cx="0" cy="0" r="1" gradientUnits="userSpaceOnUse" gradientTransform="matrix(6.25665,1.2745,-1.23055,6.0409,8.30495,19.5124)"><stop offset="0" style="stop-color:#c1b3bb;stop-opacity:1"/><stop offset="1" style="stop-color:#c1b3bb;stop-opacity:0"/></radialGradient><radialGradient id="_Radial3" cx="0" cy="0" r="1" gradientUnits="userSpaceOnUse" gradientTransform="matrix(-6.6815,-14.4999,16.7459,-7.71641,19.2348,29.9746)"><stop offset="0" style="stop-color:#c3aebd;stop-opacity:0"/><stop offset="0.56" style="stop-color:#c3aebd;stop-opacity:0"/><stop offset="1" style="stop-color:#afa1a1;stop-opacity:1"/></radialGradient><radialGradient id="_Radial4" cx="0" cy="0" r="1" gradientUnits="userSpaceOnUse" gradientTransform="matrix(-5.19005e-15,13.5561,-3.36712,-1.28913e-15,23.1426,21.2118)"><stop offset="0" style="stop-color:#e9dfee;stop-opacity:1"/><stop offset="1" style="stop-color:#d5c0de;stop-opacity:0"/></radialGradient><linearGradient id="_Linear5" x1="0" y1="0" x2="1" y2="0" gradientUnits="userSpaceOnUse" gradientTransform="matrix(4.4688,0,0,4.4688,15.1113,17.8787)"><stop offset="0" style="stop-color:#d42045;stop-opacity:1"/><stop offset="1" style="stop-color:#f22749;stop-opacity:1"/></linearGradient><radialGradient id="_Radial6" cx="0" cy="0" r="1" gradientUnits="userSpaceOnUse" gradientTransform="matrix(-1.5075e-15,3.9375,-5.90625,-2.26125e-15,16.1426,16.7225)"><stop offset="0" style="stop-color:#a92f4c;stop-opacity:0"/><stop offset="0.69" style="stop-color:#a92f4c;stop-opacity:0"/><stop offset="1" style="stop-color:#a92f4c;stop-opacity:1"/></radialGradient><linearGradient id="_Linear7" x1="0" y1="0" x2="1" y2="0" gradientUnits="userSpaceOnUse" gradientTransform="matrix(6.5894,0,0,6.5894,13.1616,17.6913)"><stop offset="0" style="stop-color:#cf316b;stop-opacity:1"/><stop offset="1" style="stop-color:#f4527c;stop-opacity:1"/></linearGradient><radialGradient id="_Radial8" cx="0" cy="0" r="1" gradientUnits="userSpaceOnUse" gradientTransform="matrix(-1.7572,2.90491,-1.50727,-0.911757,15.3532,20.8269)"><stop offset="0" style="stop-color:#d2418b;stop-opacity:1"/><stop offset="0.31" style="stop-color:#d2418b;stop-opacity:1"/><stop offset="0.83" style="stop-color:#c33c63;stop-opacity:1"/><stop offset="1" style="stop-color:#c33c63;stop-opacity:1"/></radialGradient><radialGradient id="_Radial9" cx="0" cy="0" r="1" gradientUnits="userSpaceOnUse" gradientTransform="matrix(0.664673,1.71789,-0.878046,0.339727,15.502,19.4258)"><stop offset="0" style="stop-color:#c01b54;stop-opacity:1"/><stop offset="0.43" style="stop-color:#c01b54;stop-opacity:1"/><stop offset="1" style="stop-color:#c01b54;stop-opacity:0"/></radialGradient><radialGradient id="_Radial10" cx="0" cy="0" r="1" gradientUnits="userSpaceOnUse" gradientTransform="matrix(1.84375,3.59375,-1.71742,0.881113,17.8926,20.0976)"><stop offset="0" style="stop-color:#e2457f;stop-opacity:1"/><stop offset="0.41" style="stop-color:#e2457f;stop-opacity:1"/><stop offset="1" style="stop-color:#c02b72;stop-opacity:1"/></radialGradient><linearGradient id="_Linear11" x1="0" y1="0" x2="1" y2="0" gradientUnits="userSpaceOnUse" gradientTransform="matrix(0.9005,1.7265,-1.7265,0.9005,16.5488,19.0586)"><stop offset="0" style="stop-color:#e73a62;stop-opacity:1"/><stop offset="0.11" style="stop-color:#e73a62;stop-opacity:1"/><stop offset="1" style="stop-color:#e73a62;stop-opacity:0"/></linearGradient><radialGradient id="_Radial12" cx="0" cy="0" r="1" gradientUnits="userSpaceOnUse" gradientTransform="matrix(0.669067,0.718751,-0.436418,0.406251,18.1113,20.5508)"><stop offset="0" style="stop-color:#ed577d;stop-opacity:1"/><stop offset="1" style="stop-color:#ed577d;stop-opacity:0"/></radialGradient><radialGradient id="_Radial13" cx="0" cy="0" r="1" gradientUnits="userSpaceOnUse" gradientTransform="matrix(2.34386,-4.13248,1.67477,0.949899,6.79872,21.7911)"><stop offset="0" style="stop-color:#b0aaae;stop-opacity:1"/><stop offset="0.34" style="stop-color:#b0aaae;stop-opacity:1"/><stop offset="1" style="stop-color:#989295;stop-opacity:1"/></radialGradient><linearGradient id="_Linear14" x1="0" y1="0" x2="1" y2="0" gradientUnits="userSpaceOnUse" gradientTransform="matrix(8.73357e-17,-1.4263,1.4263,8.73357e-17,16.3424,20.4141)"><stop offset="0" style="stop-color:#ca225e;stop-opacity:1"/><stop offset="0.51" style="stop-color:#d83864;stop-opacity:1"/><stop offset="1" style="stop-color:#d72a4d;stop-opacity:1"/></linearGradient><radialGradient id="_Radial15" cx="0" cy="0" r="1" gradientUnits="userSpaceOnUse" gradientTransform="matrix(-0.44275,1.19364,-0.363279,-0.134749,17.1166,19.4882)"><stop offset="0" style="stop-color:#e44c6d;stop-opacity:1"/><stop offset="1" style="stop-color:#e44c6d;stop-opacity:0"/></radialGradient><linearGradient id="_Linear16" x1="0" y1="0" x2="1" y2="0" gradientUnits="userSpaceOnUse" gradientTransform="matrix(5.43229e-16,8.8716,-8.8716,5.43229e-16,8.36591,21.103)"><stop offset="0" style="stop-color:#d6a87f;stop-opacity:1"/><stop offset="0.39" style="stop-color:#e0ad88;stop-opacity:1"/><stop offset="1" style="stop-color:#e2a291;stop-opacity:1"/></linearGradient><linearGradient id="_Linear17" x1="0" y1="0" x2="1" y2="0" gradientUnits="userSpaceOnUse" gradientTransform="matrix(2.29621e-17,-0.375,0.375,2.29621e-17,5.3457,29.9746)"><stop offset="0" style="stop-color:#dd929a;stop-opacity:1"/><stop offset="1" style="stop-color:#dd929a;stop-opacity:0"/></linearGradient><linearGradient id="_Linear18" x1="0" y1="0" x2="1" y2="0" gradientUnits="userSpaceOnUse" gradientTransform="matrix(5.43229e-16,8.8716,-8.8716,5.43229e-16,9.4129,21.103)"><stop offset="0" style="stop-color:#ffcdab;stop-opacity:1"/><stop offset="1" style="stop-color:#ffc8a9;stop-opacity:1"/></linearGradient><radialGradient id="_Radial19" cx="0" cy="0" r="1" gradientUnits="userSpaceOnUse" gradientTransform="matrix(-0.26001,1.96875,-1.77418,-0.234313,8.64258,23.3163)"><stop offset="0" style="stop-color:#ff54ab;stop-opacity:1"/><stop offset="0.48" style="stop-color:#ff54ab;stop-opacity:1"/><stop offset="1" style="stop-color:#f52884;stop-opacity:1"/></radialGradient><radialGradient id="_Radial20" cx="0" cy="0" r="1" gradientUnits="userSpaceOnUse" gradientTransform="matrix(1.35938,-1.10938,1.26491,1.54997,8.0332,24.3007)"><stop offset="0" style="stop-color:#ff5aaa;stop-opacity:0"/><stop offset="0.57" style="stop-color:#ff5aaa;stop-opacity:0"/><stop offset="1" style="stop-color:#ff87c1;stop-opacity:1"/></radialGradient><radialGradient id="_Radial21" cx="0" cy="0" r="1" gradientUnits="userSpaceOnUse" gradientTransform="matrix(1.23999,2.33168,-1.89085,1.00556,11.3826,25.7837)"><stop offset="0" style="stop-color:#5eccf3;stop-opacity:1"/><stop offset="0.23" style="stop-color:#5eccf3;stop-opacity:1"/><stop offset="1" style="stop-color:#4a96ee;stop-opacity:1"/></radialGradient><radialGradient id="_Radial22" cx="0" cy="0" r="1" gradientUnits="userSpaceOnUse" gradientTransform="matrix(-1.68749,1.75001,-1.35675,-1.30828,8.29883,27.0975)"><stop offset="0" style="stop-color:#68faa7;stop-opacity:1"/><stop offset="0.22" style="stop-color:#68faa7;stop-opacity:1"/><stop offset="1" style="stop-color:#4fdda1;stop-opacity:1"/></radialGradient><radialGradient id="_Radial23" cx="0" cy="0" r="1" gradientUnits="userSpaceOnUse" gradientTransform="matrix(1.80811,-0.984375,1.04155,1.91313,6.81445,28.3632)"><stop offset="0" style="stop-color:#67ffa4;stop-opacity:0"/><stop offset="0.82" style="stop-color:#67ffa4;stop-opacity:0"/><stop offset="1" style="stop-color:#67ffa4;stop-opacity:1"/></radialGradient><radialGradient id="_Radial24" cx="0" cy="0" r="1" gradientUnits="userSpaceOnUse" gradientTransform="matrix(-6.53537e-16,1.707,-2.70976,-1.03745e-15,16.1426,17.0956)"><stop offset="0" style="stop-color:#ce7180;stop-opacity:1"/><stop offset="0.3" style="stop-color:#d6807d;stop-opacity:1"/><stop offset="0.54" style="stop-color:#d6807d;stop-opacity:1"/><stop offset="0.86" style="stop-color:#c06776;stop-opacity:1"/><stop offset="1" style="stop-color:#c06776;stop-opacity:1"/></radialGradient><radialGradient id="_Radial25" cx="0" cy="0" r="1" gradientUnits="userSpaceOnUse" gradientTransform="matrix(4.11096,1.03857,-0.613701,2.42921,14.2334,16.5664)"><stop offset="0" style="stop-color:#a84f50;stop-opacity:0"/><stop offset="0.83" style="stop-color:#a84f50;stop-opacity:0"/><stop offset="0.95" style="stop-color:#a84f50;stop-opacity:1"/><stop offset="1" style="stop-color:#a84f50;stop-opacity:1"/></radialGradient><radialGradient id="_Radial26" cx="0" cy="0" r="1" gradientUnits="userSpaceOnUse" gradientTransform="matrix(-2.13534,1.02198,-1.00268,-2.09502,29.2386,23.9435)"><stop offset="0" style="stop-color:#fbc4a9;stop-opacity:1"/><stop offset="0.52" style="stop-color:#fbc4a9;stop-opacity:1"/><stop offset="1" style="stop-color:#eda886;stop-opacity:1"/></radialGradient><radialGradient id="_Radial27" cx="0" cy="0" r="1" gradientUnits="userSpaceOnUse" gradientTransform="matrix(0.8125,-0.546875,0.419088,0.622645,28.5787,23.3531)"><stop offset="0" style="stop-color:#ffdfc5;stop-opacity:1"/><stop offset="0.13" style="stop-color:#ffdfc5;stop-opacity:1"/><stop offset="1" style="stop-color:#f7ceb9;stop-opacity:0"/><stop offset="1" style="stop-color:#ffdfc5;stop-opacity:0"/></radialGradient><radialGradient id="_Radial28" cx="0" cy="0" r="1" gradientUnits="userSpaceOnUse" gradientTransform="matrix(-2.46773e-15,6.44558,-1.78271,-6.82523e-16,25.1426,23.529)"><stop offset="0" style="stop-color:#e5dfed;stop-opacity:1"/><stop offset="0.23" style="stop-color:#e5dfed;stop-opacity:1"/><stop offset="1" style="stop-color:#cfcbd2;stop-opacity:1"/></radialGradient><linearGradient id="_Linear29" x1="0" y1="0" x2="1" y2="0" gradientUnits="userSpaceOnUse" gradientTransform="matrix(1.9697,-0.1545,0.1545,1.9697,22.9424,24.6104)"><stop offset="0" style="stop-color:#ab95b9;stop-opacity:1"/><stop offset="1" style="stop-color:#cfc7d3;stop-opacity:0"/></linearGradient><linearGradient id="_Linear30" x1="0" y1="0" x2="1" y2="0" gradientUnits="userSpaceOnUse" gradientTransform="matrix(1.51354e-16,-2.4718,2.4718,1.51354e-16,23.8307,30.674)"><stop offset="0" style="stop-color:#aa8bc0;stop-opacity:1"/><stop offset="1" style="stop-color:#aa8bc0;stop-opacity:0"/></linearGradient><radialGradient id="_Radial31" cx="0" cy="0" r="1" gradientUnits="userSpaceOnUse" gradientTransform="matrix(-2.30911e-15,6.03125,-1.25369,-4.79984e-16,27.0176,21.785)"><stop offset="0" style="stop-color:#8e5e5c;stop-opacity:1"/><stop offset="0.13" style="stop-color:#8e5e5c;stop-opacity:1"/><stop offset="1" style="stop-color:#7a424b;stop-opacity:1"/></radialGradient><linearGradient id="_Linear32" x1="0" y1="0" x2="1" y2="0" gradientUnits="userSpaceOnUse" gradientTransform="matrix(5.13739e-18,0.0839,-0.0839,5.13739e-18,26.3529,20.7246)"><stop offset="0" style="stop-color:#603a3e;stop-opacity:1"/><stop offset="1" style="stop-color:#603a3e;stop-opacity:0"/></linearGradient><linearGradient id="_Linear33" x1="0" y1="0" x2="1" y2="0" gradientUnits="userSpaceOnUse" gradientTransform="matrix(1.4771,0,0,1.4771,26.353,19.3788)"><stop offset="0" style="stop-color:#9689a5;stop-opacity:1"/><stop offset="1" style="stop-color:#bab5c0;stop-opacity:1"/></linearGradient><radialGradient id="_Radial34" cx="0" cy="0" r="1" gradientUnits="userSpaceOnUse" gradientTransform="matrix(-1.61654e-15,4.22231,-0.546875,-2.09375e-16,26.6895,18.7346)"><stop offset="0" style="stop-color:#c2b7cb;stop-opacity:1"/><stop offset="1" style="stop-color:#c2b7cb;stop-opacity:0"/></radialGradient><radialGradient id="_Radial35" cx="0" cy="0" r="1" gradientUnits="userSpaceOnUse" gradientTransform="matrix(-0.0357207,0.550781,-0.839662,-0.054456,26.3887,18.8163)"><stop offset="0" style="stop-color:#97769c;stop-opacity:1"/><stop offset="0.51" style="stop-color:#97769c;stop-opacity:1"/><stop offset="1" style="stop-color:#97769c;stop-opacity:0"/></radialGradient><linearGradient id="_Linear36" x1="0" y1="0" x2="1" y2="0" gradientUnits="userSpaceOnUse" gradientTransform="matrix(3.71068e-18,-0.0606,0.0606,3.71068e-18,26.502,20.7246)"><stop offset="0" style="stop-color:#6e5a7e;stop-opacity:1"/><stop offset="1" style="stop-color:#6e5a7e;stop-opacity:0"/></linearGradient><radialGradient id="_Radial37" cx="0" cy="0" r="1" gradientUnits="userSpaceOnUse" gradientTransform="matrix(-1.38869,-2.63745,3.16971,-1.66894,27.2323,19.125)"><stop offset="0" style="stop-color:#eba287;stop-opacity:1"/><stop offset="0.18" style="stop-color:#eba287;stop-opacity:1"/><stop offset="1" style="stop-color:#e3966a;stop-opacity:1"/></radialGradient><radialGradient id="_Radial38" cx="0" cy="0" r="1" gradientUnits="userSpaceOnUse" gradientTransform="matrix(-1.93983,1.15587,-1.30374,-2.188,27.7629,17.0125)"><stop offset="0" style="stop-color:#4cc6ef;stop-opacity:1"/><stop offset="1" style="stop-color:#3e9fe4;stop-opacity:1"/></radialGradient><radialGradient id="_Radial39" cx="0" cy="0" r="1" gradientUnits="userSpaceOnUse" gradientTransform="matrix(-2.63173,-1.09371,1.14297,-2.75026,28.6561,16.9065)"><stop offset="0" style="stop-color:#499da3;stop-opacity:0"/><stop offset="0.63" style="stop-color:#499da3;stop-opacity:0"/><stop offset="1" style="stop-color:#499da3;stop-opacity:1"/></radialGradient><radialGradient id="_Radial40" cx="0" cy="0" r="1" gradientUnits="userSpaceOnUse" gradientTransform="matrix(0.680351,0.403171,-0.645395,1.0891,28.6719,15.6118)"><stop offset="0" style="stop-color:#45a5d4;stop-opacity:1"/><stop offset="0.64" style="stop-color:#45a5d4;stop-opacity:1"/><stop offset="1" style="stop-color:#45a5d4;stop-opacity:0"/></radialGradient><radialGradient id="_Radial41" cx="0" cy="0" r="1" gradientUnits="userSpaceOnUse" gradientTransform="matrix(-1.0009,1.09031,-0.166555,-0.152897,28.4009,14.7361)"><stop offset="0" style="stop-color:#4ecdee;stop-opacity:1"/><stop offset="1" style="stop-color:#4ecdee;stop-opacity:0"/></radialGradient><linearGradient id="_Linear42" x1="0" y1="0" x2="1" y2="0" gradientUnits="userSpaceOnUse" gradientTransform="matrix(-4.381,5.36518e-16,-5.36518e-16,-4.381,28.3859,28.0371)"><stop offset="0" style="stop-color:#ffdec2;stop-opacity:1"/><stop offset="0.15" style="stop-color:#ffdec2;stop-opacity:1"/><stop offset="0.86" style="stop-color:#eeb6a5;stop-opacity:1"/><stop offset="1" style="stop-color:#eeb6a5;stop-opacity:1"/></linearGradient><radialGradient id="_Radial43" cx="0" cy="0" r="1" gradientUnits="userSpaceOnUse" gradientTransform="matrix(-3.06938e-16,0.801703,-1.47311,-5.6399e-16,26.6556,25.2792)"><stop offset="0" style="stop-color:#ffd1bb;stop-opacity:1"/><stop offset="0.11" style="stop-color:#ffd1bb;stop-opacity:1"/><stop offset="1" style="stop-color:#ffd1bb;stop-opacity:0"/></radialGradient><radialGradient id="_Radial44" cx="0" cy="0" r="1" gradientUnits="userSpaceOnUse" gradientTransform="matrix(-3.29018e-16,0.859375,-1.57908,-6.04562e-16,26.6556,26.5737)"><stop offset="0" style="stop-color:#ffd1bb;stop-opacity:1"/><stop offset="0.11" style="stop-color:#ffd1bb;stop-opacity:1"/><stop offset="1" style="stop-color:#ffd1bb;stop-opacity:0"/></radialGradient><radialGradient id="_Radial45" cx="0" cy="0" r="1" gradientUnits="userSpaceOnUse" gradientTransform="matrix(-2.75178e-16,0.71875,-1.32068,-5.05631e-16,26.6556,27.8237)"><stop offset="0" style="stop-color:#ffd1bb;stop-opacity:1"/><stop offset="0.11" style="stop-color:#ffd1bb;stop-opacity:1"/><stop offset="1" style="stop-color:#ffd1bb;stop-opacity:0"/></radialGradient><radialGradient id="_Radial46" cx="0" cy="0" r="1" gradientUnits="userSpaceOnUse" gradientTransform="matrix(-3.06047e-16,0.799377,-1.8787,-7.19273e-16,26.6556,29.1752)"><stop offset="0" style="stop-color:#ffd1bb;stop-opacity:1"/><stop offset="0.19" style="stop-color:#ffd1bb;stop-opacity:1"/><stop offset="1" style="stop-color:#ffd1bb;stop-opacity:0"/></radialGradient><linearGradient id="_Linear47" x1="0" y1="0" x2="1" y2="0" gradientUnits="userSpaceOnUse" gradientTransform="matrix(-2.4062,2.94675e-16,-2.94675e-16,-2.4062,29.0631,28.3217)"><stop offset="0" style="stop-color:#ffdfbf;stop-opacity:1"/><stop offset="1" style="stop-color:#ffdfbf;stop-opacity:0"/></linearGradient><linearGradient id="_Linear48" x1="0" y1="0" x2="1" y2="0" gradientUnits="userSpaceOnUse" gradientTransform="matrix(1.7092,0,0,1.7092,24.5249,26.0305)"><stop offset="0" style="stop-color:#ca8b73;stop-opacity:1"/><stop offset="1" style="stop-color:#ca8b73;stop-opacity:0"/></linearGradient><linearGradient id="_Linear49" x1="0" y1="0" x2="1" y2="0" gradientUnits="userSpaceOnUse" gradientTransform="matrix(1.7092,0,0,1.7092,24.4468,27.3352)"><stop offset="0" style="stop-color:#ca8b73;stop-opacity:1"/><stop offset="1" style="stop-color:#ca8b73;stop-opacity:0"/></linearGradient><linearGradient id="_Linear50" x1="0" y1="0" x2="1" y2="0" gradientUnits="userSpaceOnUse" gradientTransform="matrix(1.7092,0,0,1.7092,24.5249,28.6399)"><stop offset="0" style="stop-color:#ca8b73;stop-opacity:1"/><stop offset="1" style="stop-color:#ca8b73;stop-opacity:0"/></linearGradient><radialGradient id="_Radial51" cx="0" cy="0" r="1" gradientUnits="userSpaceOnUse" gradientTransform="matrix(0.748774,2.01953,-2.39905,0.889488,20.92,11.8369)"><stop offset="0" style="stop-color:#313131;stop-opacity:1"/><stop offset="0.21" style="stop-color:#313131;stop-opacity:1"/><stop offset="1" style="stop-color:#1a161e;stop-opacity:1"/></radialGradient><radialGradient id="_Radial52" cx="0" cy="0" r="1" gradientUnits="userSpaceOnUse" gradientTransform="matrix(1.47646,0.46403,-1.43156,4.55498,10.1102,12.3273)"><stop offset="0" style="stop-color:#564943;stop-opacity:1"/><stop offset="0.75" style="stop-color:#1e191c;stop-opacity:1"/><stop offset="1" style="stop-color:#1e191c;stop-opacity:1"/></radialGradient><radialGradient id="_Radial53" cx="0" cy="0" r="1" gradientUnits="userSpaceOnUse" gradientTransform="matrix(-5.22784,-4.00303e-15,7.08132e-15,-9.248,18.9744,10.8954)"><stop offset="0" style="stop-color:#ffdcc0;stop-opacity:1"/><stop offset="1" style="stop-color:#d6a195;stop-opacity:1"/></radialGradient><linearGradient id="_Linear54" x1="0" y1="0" x2="1" y2="0" gradientUnits="userSpaceOnUse" gradientTransform="matrix(-4.3526,5.3304e-16,-5.3304e-16,-4.3526,21.3239,12.5809)"><stop offset="0" style="stop-color:#ffd6ba;stop-opacity:1"/><stop offset="1" style="stop-color:#ffd6ba;stop-opacity:0"/></linearGradient><radialGradient id="_Radial55" cx="0" cy="0" r="1" gradientUnits="userSpaceOnUse" gradientTransform="matrix(-4.83487e-15,12.6284,-16.4587,-6.30133e-15,16.7501,4.72461)"><stop offset="0" style="stop-color:#d29299;stop-opacity:0"/><stop offset="0.79" style="stop-color:#d29299;stop-opacity:0"/><stop offset="0.95" style="stop-color:#d29299;stop-opacity:1"/><stop offset="1" style="stop-color:#ce728c;stop-opacity:1"/></radialGradient><radialGradient id="_Radial56" cx="0" cy="0" r="1" gradientUnits="userSpaceOnUse" gradientTransform="matrix(-8.49597,0.536308,-1.36999,-21.7029,19.5995,11.8835)"><stop offset="0" style="stop-color:#e6ad97;stop-opacity:0"/><stop offset="0.84" style="stop-color:#e6ad97;stop-opacity:0"/><stop offset="1" style="stop-color:#e6ad97;stop-opacity:1"/></radialGradient><radialGradient id="_Radial57" cx="0" cy="0" r="1" gradientUnits="userSpaceOnUse" gradientTransform="matrix(-1.74316,2.88295,-2.38011,-1.43912,18.5938,5.91646)"><stop offset="0" style="stop-color:#f6c3b0;stop-opacity:1"/><stop offset="0.08" style="stop-color:#f6c3b0;stop-opacity:1"/><stop offset="1" style="stop-color:#f6c3b0;stop-opacity:0"/></radialGradient><linearGradient id="_Linear58" x1="0" y1="0" x2="1" y2="0" gradientUnits="userSpaceOnUse" gradientTransform="matrix(4.78378e-17,0.78125,-0.78125,4.78378e-17,16.2137,6.66548)"><stop offset="0" style="stop-color:#d19293;stop-opacity:1"/><stop offset="1" style="stop-color:#d19293;stop-opacity:0"/></linearGradient><linearGradient id="_Linear59" x1="0" y1="0" x2="1" y2="0" gradientUnits="userSpaceOnUse" gradientTransform="matrix(-0.8382,0.0349,-0.0349,-0.8382,17.0049,11.5704)"><stop offset="0" style="stop-color:#ffdfc7;stop-opacity:1"/><stop offset="0.36" style="stop-color:#ffdfc7;stop-opacity:1"/><stop offset="1" style="stop-color:#ffdfc7;stop-opacity:0"/></linearGradient><radialGradient id="_Radial60" cx="0" cy="0" r="1" gradientUnits="userSpaceOnUse" gradientTransform="matrix(-9.34561e-17,0.244102,-0.767179,-2.9372e-16,16.6329,12.2562)"><stop offset="0" style="stop-color:#ffddc7;stop-opacity:1"/><stop offset="1" style="stop-color:#ffddc7;stop-opacity:0"/></radialGradient><linearGradient id="_Linear61" x1="0" y1="0" x2="1" y2="0" gradientUnits="userSpaceOnUse" gradientTransform="matrix(2.84669e-17,-0.4649,0.4649,2.84669e-17,16.1667,12.7095)"><stop offset="0" style="stop-color:#d89793;stop-opacity:1"/><stop offset="1" style="stop-color:#d89793;stop-opacity:0"/></linearGradient><radialGradient id="_Radial62" cx="0" cy="0" r="1" gradientUnits="userSpaceOnUse" gradientTransform="matrix(-1.52115,0.697432,-1.12083,-2.4446,16.7492,11.6866)"><stop offset="0" style="stop-color:#d3968c;stop-opacity:0"/><stop offset="0.71" style="stop-color:#d3968c;stop-opacity:0"/><stop offset="1" style="stop-color:#d3968c;stop-opacity:1"/></radialGradient><linearGradient id="_Linear63" x1="0" y1="0" x2="1" y2="0" gradientUnits="userSpaceOnUse" gradientTransform="matrix(4.13692e-17,0.67561,-0.67561,4.13692e-17,16.1667,9.87549)"><stop offset="0" style="stop-color:#e8bba8;stop-opacity:1"/><stop offset="1" style="stop-color:#e8bba8;stop-opacity:0"/></linearGradient><linearGradient id="_Linear64" x1="0" y1="0" x2="1" y2="0" gradientUnits="userSpaceOnUse" gradientTransform="matrix(-1.2068,2.1762,-2.1762,-1.2068,22.603,10.06)"><stop offset="0" style="stop-color:#ffd6bd;stop-opacity:1"/><stop offset="1" style="stop-color:#f0b8a6;stop-opacity:1"/></linearGradient><radialGradient id="_Radial65" cx="0" cy="0" r="1" gradientUnits="userSpaceOnUse" gradientTransform="matrix(0.628548,2.24327,-2.14025,0.599684,20.7844,9.99293)"><stop offset="0" style="stop-color:#ce978e;stop-opacity:0"/><stop offset="0.86" style="stop-color:#ce978e;stop-opacity:0"/><stop offset="1" style="stop-color:#ce978e;stop-opacity:1"/></radialGradient><radialGradient id="_Radial66" cx="0" cy="0" r="1" gradientUnits="userSpaceOnUse" gradientTransform="matrix(0.787783,-1.0811,0.906179,0.660317,21.1448,10.5377)"><stop offset="0" style="stop-color:#f7b99c;stop-opacity:1"/><stop offset="0.66" style="stop-color:#f7b99c;stop-opacity:1"/><stop offset="1" style="stop-color:#f7b99c;stop-opacity:0"/></radialGradient><radialGradient id="_Radial67" cx="0" cy="0" r="1" gradientUnits="userSpaceOnUse" gradientTransform="matrix(0.586996,-1.55042,2.07158,0.784309,21.2588,10.7101)"><stop offset="0" style="stop-color:#ebbb9d;stop-opacity:0"/><stop offset="0.8" style="stop-color:#ebbb9d;stop-opacity:0"/><stop offset="1" style="stop-color:#ebbb9d;stop-opacity:1"/></radialGradient><linearGradient id="_Linear68" x1="0" y1="0" x2="1" y2="0" gradientUnits="userSpaceOnUse" gradientTransform="matrix(1.4582,-0.1273,0.1273,1.4582,10.3169,10.764)"><stop offset="0" style="stop-color:#d19787;stop-opacity:1"/><stop offset="1" style="stop-color:#c9887d;stop-opacity:1"/></linearGradient><radialGradient id="_Radial69" cx="0" cy="0" r="1" gradientUnits="userSpaceOnUse" gradientTransform="matrix(-1.61316,-0.1971,0.211577,-1.73165,11.2511,10.6367)"><stop offset="0" style="stop-color:#e8af99;stop-opacity:0"/><stop offset="0.78" style="stop-color:#e8af99;stop-opacity:0"/><stop offset="1" style="stop-color:#e8af99;stop-opacity:1"/></radialGradient><radialGradient id="_Radial70" cx="0" cy="0" r="1" gradientUnits="userSpaceOnUse" gradientTransform="matrix(-0.916477,0.157315,-0.193033,-1.12456,11.2522,10.6367)"><stop offset="0" style="stop-color:#c18472;stop-opacity:1"/><stop offset="1" style="stop-color:#ca8b7a;stop-opacity:1"/></radialGradient><linearGradient id="_Linear71" x1="0" y1="0" x2="1" y2="0" gradientUnits="userSpaceOnUse" gradientTransform="matrix(1.16546e-16,1.90334,-1.90334,1.16546e-16,21.6456,9.68896)"><stop offset="0" style="stop-color:#f9bb9e;stop-opacity:1"/><stop offset="1" style="stop-color:#f6bba0;stop-opacity:1"/></linearGradient><radialGradient id="_Radial72" cx="0" cy="0" r="1" gradientUnits="userSpaceOnUse" gradientTransform="matrix(0.10988,2.06825,-0.270497,0.0143707,21.6851,6.57628)"><stop offset="0" style="stop-color:#4c484a;stop-opacity:1"/><stop offset="0.09" style="stop-color:#4c484a;stop-opacity:1"/><stop offset="0.98" style="stop-color:#444041;stop-opacity:1"/><stop offset="1" style="stop-color:#444041;stop-opacity:1"/></radialGradient><radialGradient id="_Radial73" cx="0" cy="0" r="1" gradientUnits="userSpaceOnUse" gradientTransform="matrix(0.774839,2.11719,-0.88881,0.325283,20.6315,6.93565)"><stop offset="0" style="stop-color:#2a1c30;stop-opacity:1"/><stop offset="0.5" style="stop-color:#2a1c30;stop-opacity:1"/><stop offset="1" style="stop-color:#2a1c30;stop-opacity:0"/></radialGradient><linearGradient id="_Linear74" x1="0" y1="0" x2="1" y2="0" gradientUnits="userSpaceOnUse" gradientTransform="matrix(-0.9876,1.20946e-16,-1.20946e-16,-0.9876,11.317,7.3417)"><stop offset="0" style="stop-color:#27172c;stop-opacity:1"/><stop offset="0.48" style="stop-color:#27172c;stop-opacity:1"/><stop offset="1" style="stop-color:#423b39;stop-opacity:1"/></linearGradient><radialGradient id="_Radial75" cx="0" cy="0" r="1" gradientUnits="userSpaceOnUse" gradientTransform="matrix(-6.72224e-16,1.75581,-0.266507,-1.02034e-16,10.7056,6.80869)"><stop offset="0" style="stop-color:#534f4e;stop-opacity:1"/><stop offset="1" style="stop-color:#534f4e;stop-opacity:0"/></radialGradient><linearGradient id="_Linear76" x1="0" y1="0" x2="1" y2="0" gradientUnits="userSpaceOnUse" gradientTransform="matrix(0.8383,4.94921,-4.94921,0.8383,15.6097,2.02539)"><stop offset="0" style="stop-color:#352b40;stop-opacity:1"/><stop offset="1" style="stop-color:#3f334f;stop-opacity:1"/></linearGradient><radialGradient id="_Radial77" cx="0" cy="0" r="1" gradientUnits="userSpaceOnUse" gradientTransform="matrix(-1.02026e-15,2.66487,-5.81608,-2.22673e-15,15.6097,6.57429)"><stop offset="0" style="stop-color:#41225a;stop-opacity:1"/><stop offset="1" style="stop-color:#41225a;stop-opacity:0"/></radialGradient><linearGradient id="_Linear78" x1="0" y1="0" x2="1" y2="0" gradientUnits="userSpaceOnUse" gradientTransform="matrix(2.00922e-17,-0.32813,0.32813,2.00922e-17,17.1667,6.92773)"><stop offset="0" style="stop-color:#481b64;stop-opacity:1"/><stop offset="1" style="stop-color:#481b64;stop-opacity:0"/></linearGradient><radialGradient id="_Radial79" cx="0" cy="0" r="1" gradientUnits="userSpaceOnUse" gradientTransform="matrix(8.99875,0,0,2.97087,15.5868,4.37022)"><stop offset="0" style="stop-color:#66606e;stop-opacity:1"/><stop offset="1" style="stop-color:#66606e;stop-opacity:0"/></radialGradient><radialGradient id="_Radial80" cx="0" cy="0" r="1" gradientUnits="userSpaceOnUse" gradientTransform="matrix(-6.50769,1.06206,-0.365534,-2.23978,12.8254,5.3964)"><stop offset="0" style="stop-color:#66606e;stop-opacity:1"/><stop offset="1" style="stop-color:#66606e;stop-opacity:0"/></radialGradient><radialGradient id="_Radial81" cx="0" cy="0" r="1" gradientUnits="userSpaceOnUse" gradientTransform="matrix(0.795319,4.03937,-8.3705,1.64808,17.9746,8.63068)"><stop offset="0" style="stop-color:#5f5b9b;stop-opacity:1"/><stop offset="1" style="stop-color:#5c3085;stop-opacity:1"/></radialGradient><radialGradient id="_Radial82" cx="0" cy="0" r="1" gradientUnits="userSpaceOnUse" gradientTransform="matrix(0.381919,1.80665,-2.02959,0.429049,18.9008,10.3925)"><stop offset="0" style="stop-color:#77579c;stop-opacity:1"/><stop offset="0.78" style="stop-color:#77579c;stop-opacity:1"/><stop offset="0.94" style="stop-color:#77579c;stop-opacity:0"/><stop offset="1" style="stop-color:#77579c;stop-opacity:0"/></radialGradient><radialGradient id="_Radial83" cx="0" cy="0" r="1" gradientUnits="userSpaceOnUse" gradientTransform="matrix(-0.847633,-1.31855,0.967889,-0.622209,18.2258,10.0539)"><stop offset="0" style="stop-color:#4e3d92;stop-opacity:1"/><stop offset="0.77" style="stop-color:#4e3d92;stop-opacity:1"/><stop offset="1" style="stop-color:#534687;stop-opacity:0"/></radialGradient><radialGradient id="_Radial84" cx="0" cy="0" r="1" gradientUnits="userSpaceOnUse" gradientTransform="matrix(-1.04646,1.68481,-1.91399,-1.1888,14.4795,9.73994)"><stop offset="0" style="stop-color:#4c3d70;stop-opacity:1"/><stop offset="1" style="stop-color:#361c5d;stop-opacity:1"/></radialGradient><radialGradient id="_Radial85" cx="0" cy="0" r="1" gradientUnits="userSpaceOnUse" gradientTransform="matrix(0.125576,2.51152,-3.72944,0.186472,14.0714,9.79226)"><stop offset="0" style="stop-color:#5b2b84;stop-opacity:0"/><stop offset="0.65" style="stop-color:#5b2b84;stop-opacity:0"/><stop offset="1" style="stop-color:#5b2b84;stop-opacity:1"/></radialGradient><radialGradient id="_Radial86" cx="0" cy="0" r="1" gradientUnits="userSpaceOnUse" gradientTransform="matrix(-0.638346,-3.80913,3.77214,-0.632147,13.5063,12.3247)"><stop offset="0" style="stop-color:#2e1d57;stop-opacity:0"/><stop offset="0.86" style="stop-color:#2e1d57;stop-opacity:0"/><stop offset="1" style="stop-color:#20143d;stop-opacity:1"/></radialGradient><radialGradient id="_Radial87" cx="0" cy="0" r="1" gradientUnits="userSpaceOnUse" gradientTransform="matrix(-0.544157,2.51152,-2.35711,-0.510702,13.8307,9.54111)"><stop offset="0" style="stop-color:#2e1d57;stop-opacity:0"/><stop offset="0.87" style="stop-color:#2e1d57;stop-opacity:0"/><stop offset="1" style="stop-color:#20143d;stop-opacity:0.6"/></radialGradient><linearGradient id="_Linear88" x1="0" y1="0" x2="1" y2="0" gradientUnits="userSpaceOnUse" gradientTransform="matrix(0.0423942,1.15633,-1.15633,0.0423942,14.6307,9.26457)"><stop offset="0" style="stop-color:#fff;stop-opacity:1"/><stop offset="0.97" style="stop-color:#fff;stop-opacity:0"/><stop offset="1" style="stop-color:#fff;stop-opacity:0"/></linearGradient><radialGradient id="_Radial89" cx="0" cy="0" r="1" gradientUnits="userSpaceOnUse" gradientTransform="matrix(-1.15113,1.8941,-2.84509,-1.72909,19.1572,9.6039)"><stop offset="0" style="stop-color:#4c3d70;stop-opacity:1"/><stop offset="1" style="stop-color:#361c5d;stop-opacity:1"/></radialGradient><radialGradient id="_Radial90" cx="0" cy="0" r="1" gradientUnits="userSpaceOnUse" gradientTransform="matrix(-0.125576,2.51152,-3.72944,-0.186472,18.4456,9.79226)"><stop offset="0" style="stop-color:#5b2b84;stop-opacity:0"/><stop offset="0.65" style="stop-color:#5b2b84;stop-opacity:0"/><stop offset="1" style="stop-color:#5b2b84;stop-opacity:1"/></radialGradient><radialGradient id="_Radial91" cx="0" cy="0" r="1" gradientUnits="userSpaceOnUse" gradientTransform="matrix(0.738421,-3.35917,3.32653,0.731246,18.9106,11.8747)"><stop offset="0" style="stop-color:#2e1d57;stop-opacity:0"/><stop offset="0.86" style="stop-color:#2e1d57;stop-opacity:0"/><stop offset="1" style="stop-color:#20143d;stop-opacity:1"/></radialGradient><radialGradient id="_Radial92" cx="0" cy="0" r="1" gradientUnits="userSpaceOnUse" gradientTransform="matrix(0.544162,2.51152,-2.35711,0.510706,18.6862,9.54111)"><stop offset="0" style="stop-color:#2e1d57;stop-opacity:0"/><stop offset="0.87" style="stop-color:#2e1d57;stop-opacity:0"/><stop offset="1" style="stop-color:#20143d;stop-opacity:0.6"/></radialGradient><linearGradient id="_Linear93" x1="0" y1="0" x2="1" y2="0" gradientUnits="userSpaceOnUse" gradientTransform="matrix(0.0423942,1.15633,-1.15633,0.0423942,20.0001,9.26457)"><stop offset="0" style="stop-color:#fff;stop-opacity:1"/><stop offset="0.97" style="stop-color:#fff;stop-opacity:0"/><stop offset="1" style="stop-color:#fff;stop-opacity:0"/></linearGradient><radialGradient id="_Radial94" cx="0" cy="0" r="1" gradientUnits="userSpaceOnUse" gradientTransform="matrix(0.150752,3.0908,-5.97537,0.291445,15.85,13.7071)"><stop offset="0" style="stop-color:#2e1529;stop-opacity:1"/><stop offset="0.15" style="stop-color:#2e1529;stop-opacity:1"/><stop offset="0.28" style="stop-color:#503a4a;stop-opacity:1"/><stop offset="0.34" style="stop-color:#4b2744;stop-opacity:1"/><stop offset="1" style="stop-color:#4b2744;stop-opacity:1"/></radialGradient></defs></svg>