<svg viewBox="0 0 32 32" xmlns="http://www.w3.org/2000/svg" fill-rule="evenodd" clip-rule="evenodd" stroke-linejoin="round" stroke-miterlimit="2"><g fill-rule="nonzero"><g><path d="M22.83 13.77H21.7c-4.275.084-9.228 12.901-9.228 12.901 0 .58.47 1.06 1.06 1.06l17.492-.056c.58 0 1.06-.47 1.06-1.06 0 0-5.427-12.743-9.254-12.845z" fill="url(#a)" transform="translate(2.468 -.144) matrix(.40493 0 0 1.39337 14.64 -8.935)"/><path d="M22.83 13.77H21.7c-3.985-.084-9.228 12.892-9.228 12.892 0 .58.47 1.06 1.06 1.06l17.516-.093c.58 0 1.06-.47 1.06-1.06 0 0-5.821-12.715-9.278-12.799z" fill="url(#b)" transform="translate(2.468 -.144) matrix(.40493 0 0 1.39337 14.64 -8.935)"/><path d="M22.83 13.77H21.7c-4.302-.065-9.278 12.883-9.278 12.883 0 .58.47 1.06 1.06 1.06l17.513-.056c.58 0 1.06-.47 1.06-1.06 0 0-5.24-12.762-9.225-12.827z" fill="url(#c)" transform="translate(2.468 -.144) matrix(.40493 0 0 1.39337 14.64 -8.935)"/><path d="M22.83 13.77H21.7a5.16 5.16 0 00-5.16 5.16v7.76c0 .58.47 1.06 1.06 1.06h9.33c.58 0 1.06-.47 1.06-1.06v-7.76a5.16 5.16 0 00-5.16-5.16z" fill="url(#d)" transform="translate(2.468 -.144) matrix(.40493 0 0 1.39337 14.64 -8.935)"/><path d="M22.83 13.77H21.7c-4.011.009-9.384 12.827-9.384 12.827 0 .58.47 1.06 1.06 1.06l17.543-.009c.58 0 1.06-.47 1.06-1.06 0 0-5.402-12.771-9.149-12.818z" fill="url(#e)" transform="translate(2.468 -.144) matrix(.40493 0 0 1.39337 14.64 -8.935)"/><path d="M22.83 13.77H21.7c-4.064.019-9.278 12.836-9.278 12.836 0 .58.47 1.06 1.06 1.06l17.577-.009c.58 0 1.06-.47 1.06-1.06 0 0-5.357-12.743-9.289-12.827z" fill="url(#f)" transform="translate(2.468 -.144) matrix(.40493 0 0 1.39337 14.64 -8.935)"/></g><g><path d="M19.55 13.81c0 1.49 1.21 2.7 2.7 2.7 1.49 0 2.7-1.21 2.7-2.7v-1.76h-5.41v1.76h.01z" transform="translate(2.468 -.144) matrix(1.5443 0 0 1.62017 -12.292 -5.764) translate(-1.41 -5.584) scale(1.1119)" fill="url(#g)"/><path d="M24.96 12.05c0-1.5-1.21-2.71-2.7-2.71-1.49 0-2.7 1.21-2.7 2.7v.01h5.4z" transform="translate(2.468 -.144) matrix(1.5443 0 0 1.62017 -12.292 -5.764) translate(-1.41 -5.584) scale(1.1119)" fill="url(#h)"/><path d="M24.96 12.05c0-1.5-1.21-2.71-2.7-2.71-1.49 0-2.7 1.21-2.7 2.7v.01h5.4z" transform="translate(2.468 -.144) matrix(1.5443 0 0 1.62017 -12.292 -5.764) translate(-1.41 -5.584) scale(1.1119)" fill="url(#i)"/><path d="M24.96 12.05c0-1.5-1.21-2.71-2.7-2.71-1.49 0-2.7 1.21-2.7 2.7v.01h5.4z" transform="translate(2.468 -.144) matrix(1.5443 0 0 1.62017 -12.292 -5.764) translate(-1.41 -5.584) scale(1.1119)" fill="url(#j)"/><path d="M21.14 14.34c-.28 0-.5-.22-.5-.5v-.4c0-.28.22-.5.5-.5s.5.22.5.5v.41c0 .27-.22.49-.5.49z" transform="translate(2.468 -.144) matrix(1.5443 0 0 1.62017 -12.292 -5.764) translate(-1.41 -5.584) scale(1.1119)" fill="url(#k)"/><path d="M21.14 14.34c-.28 0-.5-.22-.5-.5v-.4c0-.28.22-.5.5-.5s.5.22.5.5v.41c0 .27-.22.49-.5.49z" transform="translate(2.468 -.144) matrix(1.5443 0 0 1.62017 -12.292 -5.764) translate(-1.41 -5.584) scale(1.1119)" fill="url(#l)"/><path d="M23.39 14.34c-.28 0-.5-.22-.5-.5v-.4c0-.28.22-.5.5-.5s.5.22.5.5v.41c0 .27-.22.49-.5.49z" transform="translate(2.468 -.144) matrix(1.5443 0 0 1.62017 -12.292 -5.764) translate(-1.41 -5.584) scale(1.1119)" fill="url(#m)"/><path d="M23.39 14.34c-.28 0-.5-.22-.5-.5v-.4c0-.28.22-.5.5-.5s.5.22.5.5v.41c0 .27-.22.49-.5.49z" transform="translate(2.468 -.144) matrix(1.5443 0 0 1.62017 -12.292 -5.764) translate(-1.41 -5.584) scale(1.1119)" fill="url(#n)"/></g></g><g fill-rule="nonzero"><g><path d="M22.83 13.77H21.7c-4.275.084-9.228 12.901-9.228 12.901 0 .58.47 1.06 1.06 1.06l17.492-.056c.58 0 1.06-.47 1.06-1.06 0 0-5.427-12.743-9.254-12.845z" fill="url(#o)" transform="translate(-7.626 .013) matrix(.40493 0 0 1.39337 14.572 -8.908)"/><path d="M22.83 13.77H21.7c-3.985-.084-9.228 12.892-9.228 12.892 0 .58.47 1.06 1.06 1.06l17.516-.093c.58 0 1.06-.47 1.06-1.06 0 0-5.821-12.715-9.278-12.799z" fill="url(#p)" transform="translate(-7.626 .013) matrix(.40493 0 0 1.39337 14.572 -8.908)"/><path d="M22.83 13.77H21.7c-4.302-.065-9.278 12.883-9.278 12.883 0 .58.47 1.06 1.06 1.06l17.513-.056c.58 0 1.06-.47 1.06-1.06 0 0-5.24-12.762-9.225-12.827z" fill="url(#q)" transform="translate(-7.626 .013) matrix(.40493 0 0 1.39337 14.572 -8.908)"/><path d="M22.83 13.77H21.7a5.16 5.16 0 00-5.16 5.16v7.76c0 .58.47 1.06 1.06 1.06h9.33c.58 0 1.06-.47 1.06-1.06v-7.76a5.16 5.16 0 00-5.16-5.16z" fill="url(#r)" transform="translate(-7.626 .013) matrix(.40493 0 0 1.39337 14.572 -8.908)"/><path d="M22.83 13.77H21.7c-4.011.009-9.384 12.827-9.384 12.827 0 .58.47 1.06 1.06 1.06l17.543-.009c.58 0 1.06-.47 1.06-1.06 0 0-5.402-12.771-9.149-12.818z" fill="url(#s)" transform="translate(-7.626 .013) matrix(.40493 0 0 1.39337 14.572 -8.908)"/><path d="M22.83 13.77H21.7c-4.064.019-9.278 12.836-9.278 12.836 0 .58.47 1.06 1.06 1.06l17.577-.009c.58 0 1.06-.47 1.06-1.06 0 0-5.357-12.743-9.289-12.827z" fill="url(#t)" transform="translate(-7.626 .013) matrix(.40493 0 0 1.39337 14.572 -8.908)"/></g><g><path d="M19.55 13.81c0 1.49 1.21 2.7 2.7 2.7 1.49 0 2.7-1.21 2.7-2.7v-1.76h-5.41v1.76h.01z" transform="translate(-7.626 .013) matrix(1.4929 0 0 1.56624 -11.274 -5.465) translate(-1.41 -5.584) scale(1.1119)" fill="url(#u)"/><path d="M24.96 12.05c0-1.5-1.21-2.71-2.7-2.71-1.49 0-2.7 1.21-2.7 2.7v.01h5.4z" transform="translate(-7.626 .013) matrix(1.4929 0 0 1.56624 -11.274 -5.465) translate(-1.41 -5.584) scale(1.1119)" fill="url(#v)"/><path d="M24.96 12.05c0-1.5-1.21-2.71-2.7-2.71-1.49 0-2.7 1.21-2.7 2.7v.01h5.4z" transform="translate(-7.626 .013) matrix(1.4929 0 0 1.56624 -11.274 -5.465) translate(-1.41 -5.584) scale(1.1119)" fill="url(#w)"/><path d="M24.96 12.05c0-1.5-1.21-2.71-2.7-2.71-1.49 0-2.7 1.21-2.7 2.7v.01h5.4z" transform="translate(-7.626 .013) matrix(1.4929 0 0 1.56624 -11.274 -5.465) translate(-1.41 -5.584) scale(1.1119)" fill="url(#x)"/><path d="M21.14 14.34c-.28 0-.5-.22-.5-.5v-.4c0-.28.22-.5.5-.5s.5.22.5.5v.41c0 .27-.22.49-.5.49z" transform="translate(-7.626 .013) matrix(1.4929 0 0 1.56624 -11.274 -5.465) translate(-1.41 -5.584) scale(1.1119)" fill="url(#y)"/><path d="M21.14 14.34c-.28 0-.5-.22-.5-.5v-.4c0-.28.22-.5.5-.5s.5.22.5.5v.41c0 .27-.22.49-.5.49z" transform="translate(-7.626 .013) matrix(1.4929 0 0 1.56624 -11.274 -5.465) translate(-1.41 -5.584) scale(1.1119)" fill="url(#z)"/><path d="M23.39 14.34c-.28 0-.5-.22-.5-.5v-.4c0-.28.22-.5.5-.5s.5.22.5.5v.41c0 .27-.22.49-.5.49z" transform="translate(-7.626 .013) matrix(1.4929 0 0 1.56624 -11.274 -5.465) translate(-1.41 -5.584) scale(1.1119)" fill="url(#A)"/><path d="M23.39 14.34c-.28 0-.5-.22-.5-.5v-.4c0-.28.22-.5.5-.5s.5.22.5.5v.41c0 .27-.22.49-.5.49z" transform="translate(-7.626 .013) matrix(1.4929 0 0 1.56624 -11.274 -5.465) translate(-1.41 -5.584) scale(1.1119)" fill="url(#B)"/></g></g><g fill-rule="nonzero"><g><path d="M22.83 13.77H21.7c-4.275.084-9.228 12.901-9.228 12.901 0 .58.47 1.06 1.06 1.06l17.492-.056c.58 0 1.06-.47 1.06-1.06 0 0-5.427-12.743-9.254-12.845z" fill="url(#C)" transform="translate(-17.79 -.032) matrix(.40493 0 0 1.39337 14.399 -8.895)"/><path d="M22.83 13.77H21.7c-3.985-.084-9.228 12.892-9.228 12.892 0 .58.47 1.06 1.06 1.06l17.516-.093c.58 0 1.06-.47 1.06-1.06 0 0-5.821-12.715-9.278-12.799z" fill="url(#D)" transform="translate(-17.79 -.032) matrix(.40493 0 0 1.39337 14.399 -8.895)"/><path d="M22.83 13.77H21.7c-4.302-.065-9.278 12.883-9.278 12.883 0 .58.47 1.06 1.06 1.06l17.513-.056c.58 0 1.06-.47 1.06-1.06 0 0-5.24-12.762-9.225-12.827z" fill="url(#E)" transform="translate(-17.79 -.032) matrix(.40493 0 0 1.39337 14.399 -8.895)"/><path d="M22.83 13.77H21.7a5.16 5.16 0 00-5.16 5.16v7.76c0 .58.47 1.06 1.06 1.06h9.33c.58 0 1.06-.47 1.06-1.06v-7.76a5.16 5.16 0 00-5.16-5.16z" fill="url(#F)" transform="translate(-17.79 -.032) matrix(.40493 0 0 1.39337 14.399 -8.895)"/><path d="M22.83 13.77H21.7c-4.011.009-9.384 12.827-9.384 12.827 0 .58.47 1.06 1.06 1.06l17.543-.009c.58 0 1.06-.47 1.06-1.06 0 0-5.402-12.771-9.149-12.818z" fill="url(#G)" transform="translate(-17.79 -.032) matrix(.40493 0 0 1.39337 14.399 -8.895)"/><path d="M22.83 13.77H21.7c-4.064.019-9.278 12.836-9.278 12.836 0 .58.47 1.06 1.06 1.06l17.577-.009c.58 0 1.06-.47 1.06-1.06 0 0-5.357-12.743-9.289-12.827z" fill="url(#H)" transform="translate(-17.79 -.032) matrix(.40493 0 0 1.39337 14.399 -8.895)"/></g><g><path d="M19.55 13.81c0 1.49 1.21 2.7 2.7 2.7 1.49 0 2.7-1.21 2.7-2.7v-1.76h-5.41v1.76h.01z" transform="translate(-17.79 -.032) matrix(1.47182 0 0 1.54413 -10.926 -5.44) translate(-1.41 -5.584) scale(1.1119)" fill="url(#I)"/><path d="M24.96 12.05c0-1.5-1.21-2.71-2.7-2.71-1.49 0-2.7 1.21-2.7 2.7v.01h5.4z" transform="translate(-17.79 -.032) matrix(1.47182 0 0 1.54413 -10.926 -5.44) translate(-1.41 -5.584) scale(1.1119)" fill="url(#J)"/><path d="M24.96 12.05c0-1.5-1.21-2.71-2.7-2.71-1.49 0-2.7 1.21-2.7 2.7v.01h5.4z" transform="translate(-17.79 -.032) matrix(1.47182 0 0 1.54413 -10.926 -5.44) translate(-1.41 -5.584) scale(1.1119)" fill="url(#K)"/><path d="M24.96 12.05c0-1.5-1.21-2.71-2.7-2.71-1.49 0-2.7 1.21-2.7 2.7v.01h5.4z" transform="translate(-17.79 -.032) matrix(1.47182 0 0 1.54413 -10.926 -5.44) translate(-1.41 -5.584) scale(1.1119)" fill="url(#L)"/><path d="M21.14 14.34c-.28 0-.5-.22-.5-.5v-.4c0-.28.22-.5.5-.5s.5.22.5.5v.41c0 .27-.22.49-.5.49z" transform="translate(-17.79 -.032) matrix(1.47182 0 0 1.54413 -10.926 -5.44) translate(-1.41 -5.584) scale(1.1119)" fill="url(#M)"/><path d="M21.14 14.34c-.28 0-.5-.22-.5-.5v-.4c0-.28.22-.5.5-.5s.5.22.5.5v.41c0 .27-.22.49-.5.49z" transform="translate(-17.79 -.032) matrix(1.47182 0 0 1.54413 -10.926 -5.44) translate(-1.41 -5.584) scale(1.1119)" fill="url(#N)"/><path d="M23.39 14.34c-.28 0-.5-.22-.5-.5v-.4c0-.28.22-.5.5-.5s.5.22.5.5v.41c0 .27-.22.49-.5.49z" transform="translate(-17.79 -.032) matrix(1.47182 0 0 1.54413 -10.926 -5.44) translate(-1.41 -5.584) scale(1.1119)" fill="url(#O)"/><path d="M23.39 14.34c-.28 0-.5-.22-.5-.5v-.4c0-.28.22-.5.5-.5s.5.22.5.5v.41c0 .27-.22.49-.5.49z" transform="translate(-17.79 -.032) matrix(1.47182 0 0 1.54413 -10.926 -5.44) translate(-1.41 -5.584) scale(1.1119)" fill="url(#P)"/></g></g><defs><radialGradient id="b" cx="0" cy="0" r="1" gradientUnits="userSpaceOnUse" gradientTransform="matrix(1.58178 4.03103 -7.49501 2.94105 18.53 13.77)"><stop offset="0" stop-color="rgb(123,89,181)"/><stop offset="1" stop-color="rgb(123,89,181)" stop-opacity="0"/></radialGradient><radialGradient id="d" cx="0" cy="0" r="1" gradientUnits="userSpaceOnUse" gradientTransform="matrix(-2.52836 1.27977 -1.2033 -2.37729 22.007 14.547)"><stop offset="0" stop-color="rgb(94,49,171)"/><stop offset=".64" stop-color="rgb(94,49,171)"/><stop offset="1" stop-color="rgb(94,49,171)" stop-opacity="0"/></radialGradient><radialGradient id="g" cx="0" cy="0" r="1" gradientUnits="userSpaceOnUse" gradientTransform="matrix(0 4.46 -5.70418 0 23.173 12.05)"><stop offset="0" stop-color="rgb(253,244,211)"/><stop offset=".01" stop-color="rgb(253,244,211)"/><stop offset="1" stop-color="rgb(237,198,192)"/></radialGradient><radialGradient id="h" cx="0" cy="0" r="1" gradientUnits="userSpaceOnUse" gradientTransform="matrix(0 -1.625 1.71385 0 23.278 12.156)"><stop offset="0" stop-color="rgb(118,108,130)"/><stop offset="1" stop-color="rgb(79,60,98)"/></radialGradient><radialGradient id="j" cx="0" cy="0" r="1" gradientUnits="userSpaceOnUse" gradientTransform="matrix(2.5625 .3825 -.89799 6.01598 19.125 10.313)"><stop offset="0" stop-color="rgb(112,104,122)"/><stop offset="1" stop-color="rgb(112,104,122)" stop-opacity="0"/></radialGradient><radialGradient id="l" cx="0" cy="0" r="1" gradientUnits="userSpaceOnUse" gradientTransform="matrix(0 .88645 -.3572 0 21.282 13.292)"><stop offset="0" stop-color="rgb(105,93,119)"/><stop offset="1" stop-color="rgb(105,93,119)" stop-opacity="0"/></radialGradient><radialGradient id="n" cx="0" cy="0" r="1" gradientUnits="userSpaceOnUse" gradientTransform="matrix(0 .88645 -.3572 0 23.532 13.292)"><stop offset="0" stop-color="rgb(105,93,119)"/><stop offset="1" stop-color="rgb(105,93,119)" stop-opacity="0"/></radialGradient><radialGradient id="p" cx="0" cy="0" r="1" gradientUnits="userSpaceOnUse" gradientTransform="matrix(1.58178 4.03103 -7.49501 2.94105 18.53 13.77)"><stop offset="0" stop-color="rgb(181,89,101)"/><stop offset="1" stop-color="rgb(181,89,101)" stop-opacity="0"/></radialGradient><radialGradient id="r" cx="0" cy="0" r="1" gradientUnits="userSpaceOnUse" gradientTransform="matrix(-2.52836 1.27977 -1.2033 -2.37729 22.007 14.547)"><stop offset="0" stop-color="rgb(171,49,64)"/><stop offset=".64" stop-color="rgb(171,49,64)"/><stop offset="1" stop-color="rgb(171,49,64)" stop-opacity="0"/></radialGradient><radialGradient id="u" cx="0" cy="0" r="1" gradientUnits="userSpaceOnUse" gradientTransform="matrix(0 4.46 -5.70418 0 23.173 12.05)"><stop offset="0" stop-color="rgb(253,244,211)"/><stop offset=".01" stop-color="rgb(253,244,211)"/><stop offset="1" stop-color="rgb(237,198,192)"/></radialGradient><radialGradient id="v" cx="0" cy="0" r="1" gradientUnits="userSpaceOnUse" gradientTransform="matrix(0 -1.625 1.71385 0 23.278 12.156)"><stop offset="0" stop-color="rgb(118,108,130)"/><stop offset="1" stop-color="rgb(79,60,98)"/></radialGradient><radialGradient id="x" cx="0" cy="0" r="1" gradientUnits="userSpaceOnUse" gradientTransform="matrix(2.5625 .3825 -.89799 6.01598 19.125 10.313)"><stop offset="0" stop-color="rgb(112,104,122)"/><stop offset="1" stop-color="rgb(112,104,122)" stop-opacity="0"/></radialGradient><radialGradient id="z" cx="0" cy="0" r="1" gradientUnits="userSpaceOnUse" gradientTransform="matrix(0 .88645 -.3572 0 21.282 13.292)"><stop offset="0" stop-color="rgb(105,93,119)"/><stop offset="1" stop-color="rgb(105,93,119)" stop-opacity="0"/></radialGradient><radialGradient id="B" cx="0" cy="0" r="1" gradientUnits="userSpaceOnUse" gradientTransform="matrix(0 .88645 -.3572 0 23.532 13.292)"><stop offset="0" stop-color="rgb(105,93,119)"/><stop offset="1" stop-color="rgb(105,93,119)" stop-opacity="0"/></radialGradient><radialGradient id="D" cx="0" cy="0" r="1" gradientUnits="userSpaceOnUse" gradientTransform="matrix(1.58178 4.03103 -7.49501 2.94105 18.53 13.77)"><stop offset="0" stop-color="rgb(89,181,130)"/><stop offset="1" stop-color="rgb(89,181,130)" stop-opacity="0"/></radialGradient><radialGradient id="F" cx="0" cy="0" r="1" gradientUnits="userSpaceOnUse" gradientTransform="matrix(-2.52836 1.27977 -1.2033 -2.37729 22.007 14.547)"><stop offset="0" stop-color="rgb(49,171,104)"/><stop offset=".64" stop-color="rgb(49,171,104)"/><stop offset="1" stop-color="rgb(49,171,104)" stop-opacity="0"/></radialGradient><radialGradient id="I" cx="0" cy="0" r="1" gradientUnits="userSpaceOnUse" gradientTransform="matrix(0 4.46 -5.70418 0 23.173 12.05)"><stop offset="0" stop-color="rgb(253,244,211)"/><stop offset=".01" stop-color="rgb(253,244,211)"/><stop offset="1" stop-color="rgb(237,198,192)"/></radialGradient><radialGradient id="J" cx="0" cy="0" r="1" gradientUnits="userSpaceOnUse" gradientTransform="matrix(0 -1.625 1.71385 0 23.278 12.156)"><stop offset="0" stop-color="rgb(118,108,130)"/><stop offset="1" stop-color="rgb(79,60,98)"/></radialGradient><radialGradient id="L" cx="0" cy="0" r="1" gradientUnits="userSpaceOnUse" gradientTransform="matrix(2.5625 .3825 -.89799 6.01598 19.125 10.313)"><stop offset="0" stop-color="rgb(112,104,122)"/><stop offset="1" stop-color="rgb(112,104,122)" stop-opacity="0"/></radialGradient><radialGradient id="N" cx="0" cy="0" r="1" gradientUnits="userSpaceOnUse" gradientTransform="matrix(0 .88645 -.3572 0 21.282 13.292)"><stop offset="0" stop-color="rgb(105,93,119)"/><stop offset="1" stop-color="rgb(105,93,119)" stop-opacity="0"/></radialGradient><radialGradient id="P" cx="0" cy="0" r="1" gradientUnits="userSpaceOnUse" gradientTransform="matrix(0 .88645 -.3572 0 23.532 13.292)"><stop offset="0" stop-color="rgb(105,93,119)"/><stop offset="1" stop-color="rgb(105,93,119)" stop-opacity="0"/></radialGradient><linearGradient id="a" x1="0" y1="0" x2="1" y2="0" gradientUnits="userSpaceOnUse" gradientTransform="matrix(8 0 0 8 17.597 24.96)"><stop offset="0" stop-color="rgb(128,76,219)"/><stop offset="1" stop-color="rgb(145,93,236)"/></linearGradient><linearGradient id="c" x1="0" y1="0" x2="1" y2="0" gradientUnits="userSpaceOnUse" gradientTransform="translate(16.03 23.873) scale(2.8064)"><stop offset="0" stop-color="rgb(135,100,195)"/><stop offset="1" stop-color="rgb(135,100,195)" stop-opacity="0"/></linearGradient><linearGradient id="e" x1="0" y1="0" x2="1" y2="0" gradientUnits="userSpaceOnUse" gradientTransform="rotate(-90 25.531 2.875) scale(1.8125)"><stop offset="0" stop-color="rgb(91,43,173)"/><stop offset="1" stop-color="rgb(91,43,173)" stop-opacity="0"/></linearGradient><linearGradient id="f" x1="0" y1="0" x2="1" y2="0" gradientUnits="userSpaceOnUse" gradientTransform="rotate(180 14.297 12.172) scale(2.25)"><stop offset="0" stop-color="rgb(127,79,211)"/><stop offset="1" stop-color="rgb(127,79,211)" stop-opacity="0"/></linearGradient><linearGradient id="i" x1="0" y1="0" x2="1" y2="0" gradientUnits="userSpaceOnUse" gradientTransform="rotate(-90 17.478 -5.38) scale(.2071)"><stop offset="0" stop-color="rgb(70,52,93)"/><stop offset="1" stop-color="rgb(70,52,93)" stop-opacity="0"/></linearGradient><linearGradient id="k" x1="0" y1="0" x2="1" y2="0" gradientUnits="userSpaceOnUse" gradientTransform="rotate(90 4.1 17.036) scale(1.4084)"><stop offset="0" stop-color="rgb(76,63,86)"/><stop offset=".01" stop-color="rgb(76,63,86)"/><stop offset="1" stop-color="rgb(50,31,67)"/></linearGradient><linearGradient id="m" x1="0" y1="0" x2="1" y2="0" gradientUnits="userSpaceOnUse" gradientTransform="rotate(90 5.226 18.161) scale(1.4084)"><stop offset="0" stop-color="rgb(76,63,86)"/><stop offset=".01" stop-color="rgb(76,63,86)"/><stop offset="1" stop-color="rgb(50,31,67)"/></linearGradient><linearGradient id="o" x1="0" y1="0" x2="1" y2="0" gradientUnits="userSpaceOnUse" gradientTransform="matrix(8 0 0 8 17.597 24.96)"><stop offset="0" stop-color="rgb(219,76,102)"/><stop offset="1" stop-color="rgb(236,93,146)"/></linearGradient><linearGradient id="q" x1="0" y1="0" x2="1" y2="0" gradientUnits="userSpaceOnUse" gradientTransform="translate(16.03 23.873) scale(2.8064)"><stop offset="0" stop-color="rgb(195,100,114)"/><stop offset="1" stop-color="rgb(195,100,114)" stop-opacity="0"/></linearGradient><linearGradient id="s" x1="0" y1="0" x2="1" y2="0" gradientUnits="userSpaceOnUse" gradientTransform="rotate(-90 25.531 2.875) scale(1.8125)"><stop offset="0" stop-color="rgb(173,43,98)"/><stop offset="1" stop-color="rgb(173,43,98)" stop-opacity="0"/></linearGradient><linearGradient id="t" x1="0" y1="0" x2="1" y2="0" gradientUnits="userSpaceOnUse" gradientTransform="rotate(180 14.297 12.172) scale(2.25)"><stop offset="0" stop-color="rgb(211,79,138)"/><stop offset="1" stop-color="rgb(211,79,138)" stop-opacity="0"/></linearGradient><linearGradient id="w" x1="0" y1="0" x2="1" y2="0" gradientUnits="userSpaceOnUse" gradientTransform="rotate(-90 17.478 -5.38) scale(.2071)"><stop offset="0" stop-color="rgb(70,52,93)"/><stop offset="1" stop-color="rgb(70,52,93)" stop-opacity="0"/></linearGradient><linearGradient id="y" x1="0" y1="0" x2="1" y2="0" gradientUnits="userSpaceOnUse" gradientTransform="rotate(90 4.1 17.036) scale(1.4084)"><stop offset="0" stop-color="rgb(76,63,86)"/><stop offset=".01" stop-color="rgb(76,63,86)"/><stop offset="1" stop-color="rgb(50,31,67)"/></linearGradient><linearGradient id="A" x1="0" y1="0" x2="1" y2="0" gradientUnits="userSpaceOnUse" gradientTransform="rotate(90 5.226 18.161) scale(1.4084)"><stop offset="0" stop-color="rgb(76,63,86)"/><stop offset=".01" stop-color="rgb(76,63,86)"/><stop offset="1" stop-color="rgb(50,31,67)"/></linearGradient><linearGradient id="C" x1="0" y1="0" x2="1" y2="0" gradientUnits="userSpaceOnUse" gradientTransform="matrix(8 0 0 8 17.597 24.96)"><stop offset="0" stop-color="rgb(26,127,71)"/><stop offset="1" stop-color="rgb(18,152,78)"/></linearGradient><linearGradient id="E" x1="0" y1="0" x2="1" y2="0" gradientUnits="userSpaceOnUse" gradientTransform="translate(16.03 23.873) scale(2.8064)"><stop offset="0" stop-color="rgb(54,139,92)"/><stop offset="1" stop-color="rgb(62,159,106)" stop-opacity="0"/></linearGradient><linearGradient id="G" x1="0" y1="0" x2="1" y2="0" gradientUnits="userSpaceOnUse" gradientTransform="rotate(-90 25.531 2.875) scale(1.8125)"><stop offset="0" stop-color="rgb(43,173,102)"/><stop offset="1" stop-color="rgb(43,173,102)" stop-opacity="0"/></linearGradient><linearGradient id="H" x1="0" y1="0" x2="1" y2="0" gradientUnits="userSpaceOnUse" gradientTransform="rotate(180 14.297 12.172) scale(2.25)"><stop offset="0" stop-color="rgb(39,156,92)"/><stop offset="1" stop-color="rgb(41,162,95)" stop-opacity="0"/></linearGradient><linearGradient id="K" x1="0" y1="0" x2="1" y2="0" gradientUnits="userSpaceOnUse" gradientTransform="rotate(-90 17.478 -5.38) scale(.2071)"><stop offset="0" stop-color="rgb(70,52,93)"/><stop offset="1" stop-color="rgb(70,52,93)" stop-opacity="0"/></linearGradient><linearGradient id="M" x1="0" y1="0" x2="1" y2="0" gradientUnits="userSpaceOnUse" gradientTransform="rotate(90 4.1 17.036) scale(1.4084)"><stop offset="0" stop-color="rgb(76,63,86)"/><stop offset=".01" stop-color="rgb(76,63,86)"/><stop offset="1" stop-color="rgb(50,31,67)"/></linearGradient><linearGradient id="O" x1="0" y1="0" x2="1" y2="0" gradientUnits="userSpaceOnUse" gradientTransform="rotate(90 5.226 18.161) scale(1.4084)"><stop offset="0" stop-color="rgb(76,63,86)"/><stop offset=".01" stop-color="rgb(76,63,86)"/><stop offset="1" stop-color="rgb(50,31,67)"/></linearGradient></defs></svg>