<svg viewBox="0 0 32 32" xmlns="http://www.w3.org/2000/svg" fill-rule="evenodd" clip-rule="evenodd" stroke-linecap="round"><path d="M4.716 14.013h22.328v1.653a7.5 7.5 0 01-7.5 7.5h-7.328a7.5 7.5 0 01-7.5-7.5v-1.653z" fill="url(#a)" fill-rule="nonzero"/><path d="M15.289 20.399L2.6 13.917a1.1 1.1 0 01.002-1.96L15.29 5.512a1.303 1.303 0 011.179 0l12.689 6.459a1.1 1.1 0 01.001 1.961L16.471 20.4a1.3 1.3 0 01-1.182-.001z" fill="url(#b)" fill-rule="nonzero"/><path d="M16.419 19.263l12.469-6.594" fill="none" stroke="url(#c)" stroke-width="0.7px"/><path d="M23.137 17.325l-1.407.717v-.5c0-.667-.087-1.168-.945-1.581l-5.573-2.914a.734.734 0 01-.309-.975.698.698 0 01.951-.316l5.574 2.913a3.23 3.23 0 011.709 2.656z" fill="url(#d)" fill-rule="nonzero"/><path d="M23.646 16.742l-1.407.717v-.5c0-.667-.087-1.168-.945-1.581l-5.574-2.914a.733.733 0 01-.308-.975.7.7 0 01.951-.317l5.573 2.914a3.228 3.228 0 011.71 2.656z" fill="url(#e)" fill-rule="nonzero"/><path d="M15.414 11.168a.725.725 0 01.975-.316l5.714 2.913a3.226 3.226 0 011.76 2.873v5.844a.726.726 0 01-1.45 0v-5.844c0-.667-.375-1.278-.969-1.581l-5.714-2.913a.725.725 0 01-.316-.976z" fill="url(#f)"/><path d="M15.414 11.168a.725.725 0 01.975-.316l5.714 2.913a3.226 3.226 0 011.76 2.873v5.844a.726.726 0 01-1.45 0v-5.844c0-.667-.375-1.278-.969-1.581l-5.714-2.913a.725.725 0 01-.316-.976z" fill="url(#g)"/><path d="M15.414 11.168a.725.725 0 01.975-.316l5.714 2.913a3.226 3.226 0 011.76 2.873v5.844a.726.726 0 01-1.45 0v-5.844c0-.667-.375-1.278-.969-1.581l-5.714-2.913a.725.725 0 01-.316-.976z" fill="url(#h)"/><path d="M15.414 11.168a.725.725 0 01.975-.316l5.714 2.913a3.226 3.226 0 011.76 2.873v5.844a.726.726 0 01-1.45 0v-5.844c0-.667-.375-1.278-.969-1.581l-5.714-2.913a.725.725 0 01-.316-.976z" fill="url(#i)"/><path d="M22.419 22.474c-.649.266-.949.823-.949 1.43a1.668 1.668 0 103.335 0c0-.607-.355-1.149-.941-1.43h-1.445z" fill="url(#j)" fill-rule="nonzero"/><path d="M22.419 22.474c-.649.266-.949.823-.949 1.43a1.668 1.668 0 103.335 0c0-.607-.355-1.149-.941-1.43h-1.445z" fill="url(#k)" fill-rule="nonzero"/><path d="M22.419 22.474c-.649.266-.949.823-.949 1.43a1.668 1.668 0 103.335 0c0-.607-.355-1.149-.941-1.43h-1.445z" fill="url(#l)" fill-rule="nonzero"/><path d="M21.226 27.647l.638-2.649h2.527l.652 2.626a1.992 1.992 0 11-3.817.023z" fill="rgb(255,157,78)" fill-rule="nonzero"/><path d="M21.226 27.647l.638-2.649h2.527l.652 2.626a1.992 1.992 0 11-3.817.023z" fill="url(#m)" fill-rule="nonzero"/><path d="M21.226 27.647l.638-2.649h2.527l.652 2.626a1.992 1.992 0 11-3.817.023z" fill="url(#n)" fill-rule="nonzero"/><path d="M21.226 27.647l.638-2.649h2.527l.652 2.626a1.992 1.992 0 11-3.817.023z" fill="url(#o)" fill-rule="nonzero"/><defs><linearGradient id="a" x1="0" y1="0" x2="1" y2="0" gradientUnits="userSpaceOnUse" gradientTransform="matrix(-20 0 0 -20 25.95 18.59)"><stop offset="0" stop-color="rgb(104,81,139)"/><stop offset="0" stop-color="rgb(104,81,139)"/><stop offset=".44" stop-color="rgb(80,54,120)"/><stop offset=".91" stop-color="rgb(53,37,78)"/><stop offset="1" stop-color="rgb(53,37,78)"/></linearGradient><linearGradient id="b" x1="0" y1="0" x2="1" y2="0" gradientUnits="userSpaceOnUse" gradientTransform="rotate(180 14.096 6.478) scale(20.9296)"><stop offset="0" stop-color="rgb(101,86,118)"/><stop offset="1" stop-color="rgb(45,38,53)"/></linearGradient><linearGradient id="c" x1="0" y1="0" x2="1" y2="0" gradientUnits="userSpaceOnUse" gradientTransform="matrix(12.1875 -7 7 12.1875 17.762 19.263)"><stop offset="0" stop-color="rgb(110,95,133)"/><stop offset="1" stop-color="rgb(154,141,167)"/></linearGradient><linearGradient id="d" x1="0" y1="0" x2="1" y2="0" gradientUnits="userSpaceOnUse" gradientTransform="scale(8.2876) rotate(39.289 -1.18 3.745)"><stop offset="0" stop-color="rgb(60,45,66)"/><stop offset="1" stop-color="rgb(61,44,67)" stop-opacity="0"/></linearGradient><linearGradient id="e" x1="0" y1="0" x2="1" y2="0" gradientUnits="userSpaceOnUse" gradientTransform="scale(6.7335) rotate(41.489 -1.222 4.282)"><stop offset="0" stop-color="rgb(44,26,32)"/><stop offset="1" stop-color="rgb(76,35,80)"/></linearGradient><linearGradient id="f" x1="0" y1="0" x2="1" y2="0" gradientUnits="userSpaceOnUse" gradientTransform="scale(13.4227) rotate(62.85 -.044 1.472)"><stop offset="0" stop-color="rgb(211,165,67)"/><stop offset="1" stop-color="rgb(255,186,98)"/></linearGradient><linearGradient id="h" x1="0" y1="0" x2="1" y2="0" gradientUnits="userSpaceOnUse" gradientTransform="matrix(-1.1971 .0898 -.0898 -1.1971 24.273 18.215)"><stop offset="0" stop-color="rgb(255,213,116)"/><stop offset="1" stop-color="rgb(255,213,116)" stop-opacity="0"/></linearGradient><linearGradient id="i" x1="0" y1="0" x2="1" y2="0" gradientUnits="userSpaceOnUse" gradientTransform="rotate(117.714 7.02 13.334) scale(.9973)"><stop offset="0" stop-color="rgb(255,213,116)"/><stop offset="1" stop-color="rgb(255,213,116)" stop-opacity="0"/></linearGradient><linearGradient id="m" x1="0" y1="0" x2="1" y2="0" gradientUnits="userSpaceOnUse" gradientTransform="rotate(9.256 -159.722 145.59) scale(1.5361)"><stop offset="0" stop-color="rgb(209,112,71)"/><stop offset="1" stop-color="rgb(209,112,71)" stop-opacity="0"/></linearGradient><radialGradient id="g" cx="0" cy="0" r="1" gradientUnits="userSpaceOnUse" gradientTransform="matrix(3.47163 1.76574 -1.10075 2.16418 15.684 10.463)"><stop offset="0" stop-color="rgb(208,167,69)"/><stop offset="1" stop-color="rgb(208,167,69)" stop-opacity="0"/></radialGradient><radialGradient id="j" cx="0" cy="0" r="1" gradientUnits="userSpaceOnUse" gradientTransform="matrix(-1.5263 1.40661 -1.51482 -1.64372 24.154 23.392)"><stop offset="0" stop-color="rgb(255,204,108)"/><stop offset="1" stop-color="rgb(244,144,65)"/></radialGradient><radialGradient id="k" cx="0" cy="0" r="1" gradientUnits="userSpaceOnUse" gradientTransform="matrix(-3.44037 -1.42864 1.14909 -2.76717 24.44 24.29)"><stop offset="0" stop-color="rgb(178,93,65)" stop-opacity="0"/><stop offset=".6" stop-color="rgb(178,93,65)" stop-opacity="0"/><stop offset=".91" stop-color="rgb(178,93,65)"/><stop offset="1" stop-color="rgb(178,93,65)"/></radialGradient><radialGradient id="l" cx="0" cy="0" r="1" gradientUnits="userSpaceOnUse" gradientTransform="matrix(2.24498 -.34987 .17007 1.09131 21.845 25.076)"><stop offset="0" stop-color="rgb(253,128,94)"/><stop offset="1" stop-color="rgb(253,128,94)" stop-opacity="0"/></radialGradient><radialGradient id="n" cx="0" cy="0" r="1" gradientUnits="userSpaceOnUse" gradientTransform="matrix(0 4.37335 -1.34116 0 24.09 24.727)"><stop offset="0" stop-color="rgb(255,188,110)"/><stop offset=".57" stop-color="rgb(255,188,110)"/><stop offset="1" stop-color="rgb(255,188,110)" stop-opacity="0"/></radialGradient><radialGradient id="o" cx="0" cy="0" r="1" gradientUnits="userSpaceOnUse" gradientTransform="matrix(.58311 -2.60156 3.00404 .67332 22.4 30.2)"><stop offset="0" stop-color="rgb(255,105,126)"/><stop offset=".17" stop-color="rgb(255,105,126)"/><stop offset="1" stop-color="rgb(255,105,126)" stop-opacity="0"/></radialGradient></defs></svg>