<svg viewBox="0 0 200 154" xmlns="http://www.w3.org/2000/svg" fill-rule="evenodd" clip-rule="evenodd" stroke-linejoin="round" stroke-miterlimit="2"><path d="M17.756 140.183C6.203 127.913 0 114.15 0 91.84 0 52.583 27.559 17.397 67.635 0l10.016 15.456C40.245 35.691 32.931 61.95 30.015 78.504c6.023-3.118 13.908-4.206 21.637-3.488C71.886 76.889 87.836 93.5 87.836 114.15c0 21.536-17.722 39.257-39.258 39.257-12.035 0-23.543-5.496-30.822-13.224zm112.164 0c-11.553-12.27-17.756-26.033-17.756-48.343 0-39.257 27.559-74.443 67.635-91.84l10.017 15.456c-37.407 20.235-44.72 46.493-47.637 63.048 6.024-3.118 13.909-4.206 21.637-3.488C184.05 76.889 200 93.5 200 114.15c0 21.536-17.721 39.257-39.257 39.257-12.036 0-23.544-5.496-30.823-13.224z" fill="#d6d6d6" fill-rule="nonzero"/></svg>
