<?xml version="1.0" encoding="UTF-8" standalone="no"?><!DOCTYPE svg PUBLIC "-//W3C//DTD SVG 1.1//EN" "http://www.w3.org/Graphics/SVG/1.1/DTD/svg11.dtd"><svg width="100%" height="100%" viewBox="0 0 32 32" version="1.1" xmlns="http://www.w3.org/2000/svg" xmlns:xlink="http://www.w3.org/1999/xlink" xml:space="preserve" xmlns:serif="http://www.serif.com/" style="fill-rule:evenodd;clip-rule:evenodd;"><g><g><g><path d="M30.525,5.811c-0,-1.165 -0.99,-2.111 -2.211,-2.111l-24.628,0c-1.221,0 -2.211,0.946 -2.211,2.111l0,19.495c0,1.166 0.99,2.113 2.211,2.113l24.628,-0c1.221,-0 2.211,-0.947 2.211,-2.113l-0,-19.495Z" style="fill:#cac9e5;"/><path d="M30.525,5.811c-0,-1.165 -0.99,-2.111 -2.211,-2.111l-24.628,0c-1.221,0 -2.211,0.946 -2.211,2.111l0,19.495c0,1.166 0.99,2.113 2.211,2.113l24.628,-0c1.221,-0 2.211,-0.947 2.211,-2.113l-0,-19.495Z" style="fill:url(#_Linear1);"/></g><g><path d="M30.525,6.713l-29.05,0l0,-1.263c0,-0.966 0.743,-1.75 1.657,-1.75l25.736,0c0.914,0 1.657,0.784 1.657,1.75l-0,1.263Z" style="fill:url(#_Linear2);"/><path d="M30.525,6.713l-29.05,0l0,-1.263c0,-0.966 0.743,-1.75 1.657,-1.75l25.736,0c0.914,0 1.657,0.784 1.657,1.75l-0,1.263Z" style="fill:url(#_Linear3);"/><path d="M30.525,6.713l-29.05,0l0,-1.263c0,-0.966 0.743,-1.75 1.657,-1.75l25.736,0c0.914,0 1.657,0.784 1.657,1.75l-0,1.263Z" style="fill:url(#_Radial4);"/><path d="M29.623,6.281c-0.016,-1.431 0.125,-1.761 -4.68,-1.785l-10.273,-0" style="fill:none;fill-rule:nonzero;stroke:url(#_Radial5);stroke-width:0.79px;"/></g><g><path d="M8.052,5.3c0,0.387 -0.297,0.701 -0.664,0.701c-0.366,0 -0.665,-0.314 -0.665,-0.701c0,-0.388 0.299,-0.702 0.665,-0.702c0.367,0 0.664,0.314 0.664,0.702Z" style="fill:url(#_Radial6);fill-rule:nonzero;"/><path d="M8.052,5.3c0,0.387 -0.297,0.701 -0.664,0.701c-0.366,0 -0.665,-0.314 -0.665,-0.701c0,-0.388 0.299,-0.702 0.665,-0.702c0.367,0 0.664,0.314 0.664,0.702Z" style="fill:url(#_Linear7);fill-rule:nonzero;"/><path d="M8.052,5.3c0,0.387 -0.297,0.701 -0.664,0.701c-0.366,0 -0.665,-0.314 -0.665,-0.701c0,-0.388 0.299,-0.702 0.665,-0.702c0.367,0 0.664,0.314 0.664,0.702Z" style="fill:url(#_Radial8);fill-rule:nonzero;"/><path d="M8.052,5.3c0,0.387 -0.297,0.701 -0.664,0.701c-0.366,0 -0.665,-0.314 -0.665,-0.701c0,-0.388 0.299,-0.702 0.665,-0.702c0.367,0 0.664,0.314 0.664,0.702Z" style="fill:url(#_Radial9);fill-rule:nonzero;"/><path d="M8.052,5.3c0,0.387 -0.297,0.701 -0.664,0.701c-0.366,0 -0.665,-0.314 -0.665,-0.701c0,-0.388 0.299,-0.702 0.665,-0.702c0.367,0 0.664,0.314 0.664,0.702Z" style="fill:url(#_Radial10);fill-rule:nonzero;"/></g><g><path d="M6.184,5.306c0,0.388 -0.297,0.702 -0.663,0.702c-0.367,-0 -0.665,-0.314 -0.665,-0.702c0,-0.388 0.298,-0.702 0.665,-0.702c0.366,-0 0.663,0.314 0.663,0.702Z" style="fill:url(#_Radial11);fill-rule:nonzero;"/><path d="M6.184,5.306c0,0.388 -0.297,0.702 -0.663,0.702c-0.367,-0 -0.665,-0.314 -0.665,-0.702c0,-0.388 0.298,-0.702 0.665,-0.702c0.366,-0 0.663,0.314 0.663,0.702Z" style="fill:url(#_Linear12);fill-rule:nonzero;"/><path d="M6.184,5.306c0,0.388 -0.297,0.702 -0.663,0.702c-0.367,-0 -0.665,-0.314 -0.665,-0.702c0,-0.388 0.298,-0.702 0.665,-0.702c0.366,-0 0.663,0.314 0.663,0.702Z" style="fill:url(#_Radial13);fill-rule:nonzero;"/><path d="M6.184,5.306c0,0.388 -0.297,0.702 -0.663,0.702c-0.367,-0 -0.665,-0.314 -0.665,-0.702c0,-0.388 0.298,-0.702 0.665,-0.702c0.366,-0 0.663,0.314 0.663,0.702Z" style="fill:url(#_Radial14);fill-rule:nonzero;"/><path d="M6.184,5.306c0,0.388 -0.297,0.702 -0.663,0.702c-0.367,-0 -0.665,-0.314 -0.665,-0.702c0,-0.388 0.298,-0.702 0.665,-0.702c0.366,-0 0.663,0.314 0.663,0.702Z" style="fill:url(#_Radial15);fill-rule:nonzero;"/></g><g><path d="M4.317,5.306c-0,0.388 -0.297,0.702 -0.665,0.702c-0.367,-0 -0.664,-0.314 -0.664,-0.702c-0,-0.388 0.297,-0.702 0.664,-0.702c0.368,-0 0.665,0.314 0.665,0.702Z" style="fill:url(#_Radial16);fill-rule:nonzero;"/><path d="M4.317,5.306c-0,0.388 -0.297,0.702 -0.665,0.702c-0.367,-0 -0.664,-0.314 -0.664,-0.702c-0,-0.388 0.297,-0.702 0.664,-0.702c0.368,-0 0.665,0.314 0.665,0.702Z" style="fill:url(#_Linear17);fill-rule:nonzero;"/><path d="M4.317,5.306c-0,0.388 -0.297,0.702 -0.665,0.702c-0.367,-0 -0.664,-0.314 -0.664,-0.702c-0,-0.388 0.297,-0.702 0.664,-0.702c0.368,-0 0.665,0.314 0.665,0.702Z" style="fill:url(#_Radial18);fill-rule:nonzero;"/><path d="M4.317,5.306c-0,0.388 -0.297,0.702 -0.665,0.702c-0.367,-0 -0.664,-0.314 -0.664,-0.702c-0,-0.388 0.297,-0.702 0.664,-0.702c0.368,-0 0.665,0.314 0.665,0.702Z" style="fill:url(#_Radial19);fill-rule:nonzero;"/><path d="M4.317,5.306c-0,0.388 -0.297,0.702 -0.665,0.702c-0.367,-0 -0.664,-0.314 -0.664,-0.702c-0,-0.388 0.297,-0.702 0.664,-0.702c0.368,-0 0.665,0.314 0.665,0.702Z" style="fill:url(#_Radial20);fill-rule:nonzero;"/></g></g><g><g><path d="M16.188,28.656c7.544,-0 11.315,-5.184 11.315,-11.578c-0,-6.394 -3.771,-11.578 -11.315,-11.578c-7.545,-0 -11.314,5.184 -11.314,11.578c-0,6.394 3.769,11.578 11.314,11.578Z" style="fill:url(#_Radial21);fill-rule:nonzero;"/><path d="M16.188,28.656c7.544,-0 11.315,-5.184 11.315,-11.578c-0,-6.394 -3.771,-11.578 -11.315,-11.578c-7.545,-0 -11.314,5.184 -11.314,11.578c-0,6.394 3.769,11.578 11.314,11.578Z" style="fill:url(#_Radial22);fill-rule:nonzero;"/><path d="M16.188,28.656c7.544,-0 11.315,-5.184 11.315,-11.578c-0,-6.394 -3.771,-11.578 -11.315,-11.578c-7.545,-0 -11.314,5.184 -11.314,11.578c-0,6.394 3.769,11.578 11.314,11.578Z" style="fill:url(#_Radial23);fill-rule:nonzero;"/><path d="M16.188,28.656c7.544,-0 11.315,-5.184 11.315,-11.578c-0,-6.394 -3.771,-11.578 -11.315,-11.578c-7.545,-0 -11.314,5.184 -11.314,11.578c-0,6.394 3.769,11.578 11.314,11.578Z" style="fill:url(#_Radial24);fill-rule:nonzero;"/><path d="M16.188,28.656c7.544,-0 11.315,-5.184 11.315,-11.578c-0,-6.394 -3.771,-11.578 -11.315,-11.578c-7.545,-0 -11.314,5.184 -11.314,11.578c-0,6.394 3.769,11.578 11.314,11.578Z" style="fill:url(#_Radial25);fill-rule:nonzero;"/><path d="M16.188,28.656c7.544,-0 11.315,-5.184 11.315,-11.578c-0,-6.394 -3.771,-11.578 -11.315,-11.578c-7.545,-0 -11.314,5.184 -11.314,11.578c-0,6.394 3.769,11.578 11.314,11.578Z" style="fill:url(#_Radial26);fill-rule:nonzero;"/><path d="M16.188,28.656c7.544,-0 11.315,-5.184 11.315,-11.578c-0,-6.394 -3.771,-11.578 -11.315,-11.578c-7.545,-0 -11.314,5.184 -11.314,11.578c-0,6.394 3.769,11.578 11.314,11.578Z" style="fill:url(#_Radial27);fill-rule:nonzero;"/><path d="M16.188,28.656c7.544,-0 11.315,-5.184 11.315,-11.578c-0,-6.394 -3.771,-11.578 -11.315,-11.578c-7.545,-0 -11.314,5.184 -11.314,11.578c-0,6.394 3.769,11.578 11.314,11.578Z" style="fill:url(#_Radial28);fill-rule:nonzero;"/><path d="M16.189,25.35c-7.274,-0 -7.274,-7.444 -7.274,-7.444l14.547,-0c0,-0 0,7.444 -7.273,7.444Z" style="fill:url(#_Radial29);fill-rule:nonzero;"/><path d="M9.722,18.32l0,-0.414l12.933,-0l-0,0.414c-0,0.456 -0.362,0.826 -0.809,0.826l-11.315,0c-0.447,0 -0.809,-0.37 -0.809,-0.826Z" style="fill:url(#_Linear30);fill-rule:nonzero;"/></g><g><path d="M13.46,8.178c0.437,0.179 0.813,0.454 1.111,0.8c0.194,0.227 0.469,0.379 0.764,0.367c0.401,-0.016 0.848,-0.019 1.324,0.002c0.296,0.014 0.574,-0.138 0.769,-0.367c0.298,-0.347 0.674,-0.623 1.112,-0.802c0.16,-0.069 0.436,-0.173 1.118,-0.304c0.413,-0.078 1.396,-0.123 2.059,-0.137c0.685,-0.016 1.421,-0.016 1.971,-0.015l0.25,0c0.943,0 1.874,0.304 2.242,0.532c0.831,0.432 1.599,1.255 1.655,2.675c0.002,0.02 0.003,0.042 0.004,0.064c0.065,2.181 -1.259,5.302 -4.634,6.157c-0.238,0.061 -0.471,0.104 -0.705,0.137c-0.011,0.001 -0.022,0.003 -0.034,0.004c-3.416,0.327 -5.671,-2.626 -5.782,-5.839c-0.009,-0.265 -0.208,-0.49 -0.467,-0.495c-0.149,-0.002 -0.293,-0.002 -0.431,-0.001c-0.26,0.004 -0.46,0.229 -0.47,0.496c-0.11,3.212 -2.367,6.166 -5.782,5.839c-0.012,-0.001 -0.023,-0.003 -0.034,-0.004c-0.234,-0.033 -0.467,-0.076 -0.705,-0.137c-3.375,-0.855 -4.699,-3.976 -4.634,-6.157c0.001,-0.022 0.002,-0.044 0.005,-0.064c0.055,-1.42 0.823,-2.243 1.654,-2.675c0.368,-0.228 1.299,-0.532 2.242,-0.532l0.25,0c0.55,-0.001 1.286,-0.001 1.971,0.015c0.663,0.014 1.646,0.059 2.059,0.137c0.682,0.131 0.958,0.235 1.118,0.304Zm-8.175,2.028c0.198,-0.493 0.566,-0.898 1.061,-1.203c0.279,-0.172 0.952,-0.469 1.716,-0.469l0.247,-0.001c1.105,-0 2.914,-0.002 3.592,0.127c0.657,0.126 0.869,0.217 0.96,0.257c0.373,0.15 0.698,0.397 0.945,0.71l0.271,1.473c0.065,-0.012 0.145,-0.026 0.238,-0.039l-0,0.066c0.142,3.417 -2.401,5.477 -4.781,5.249c-0.21,-0.03 -0.415,-0.068 -0.622,-0.12c-2.506,-0.635 -3.558,-2.657 -3.759,-4.445c-0.031,-0.275 -0.041,-0.545 -0.034,-0.804l0.001,-0.007l0,0l0.001,-0.007c0.011,-0.283 0.068,-0.546 0.164,-0.787Zm12.4,0.86l0,0.061c-0.142,3.417 2.401,5.477 4.781,5.249c0.21,-0.03 0.415,-0.068 0.622,-0.12c2.506,-0.635 3.558,-2.657 3.759,-4.445c0.031,-0.275 0.041,-0.545 0.034,-0.804l-0.001,-0.007l-0,0l-0.001,-0.007c-0.011,-0.283 -0.068,-0.546 -0.164,-0.787c-0.198,-0.493 -0.566,-0.898 -1.061,-1.203c-0.279,-0.172 -0.952,-0.469 -1.716,-0.469l-0.247,-0.001c-1.105,-0 -2.914,-0.002 -3.592,0.127c-0.657,0.126 -0.869,0.217 -0.96,0.257c-0.387,0.156 -0.723,0.416 -0.973,0.747l-0.217,1.44c-0.088,-0.013 -0.176,-0.026 -0.264,-0.038Z" style="fill:url(#_Radial31);"/><path d="M13.46,8.178c0.437,0.179 0.813,0.454 1.111,0.8c0.194,0.227 0.469,0.379 0.764,0.367c0.401,-0.016 0.848,-0.019 1.324,0.002c0.296,0.014 0.574,-0.138 0.769,-0.367c0.298,-0.347 0.674,-0.623 1.112,-0.802c0.16,-0.069 0.436,-0.173 1.118,-0.304c0.413,-0.078 1.396,-0.123 2.059,-0.137c0.685,-0.016 1.421,-0.016 1.971,-0.015l0.25,0c0.943,0 1.874,0.304 2.242,0.532c0.831,0.432 1.599,1.255 1.655,2.675c0.002,0.02 0.003,0.042 0.004,0.064c0.065,2.181 -1.259,5.302 -4.634,6.157c-0.238,0.061 -0.471,0.104 -0.705,0.137c-0.011,0.001 -0.022,0.003 -0.034,0.004c-3.416,0.327 -5.671,-2.626 -5.782,-5.839c-0.009,-0.265 -0.208,-0.49 -0.467,-0.495c-0.149,-0.002 -0.293,-0.002 -0.431,-0.001c-0.26,0.004 -0.46,0.229 -0.47,0.496c-0.11,3.212 -2.367,6.166 -5.782,5.839c-0.012,-0.001 -0.023,-0.003 -0.034,-0.004c-0.234,-0.033 -0.467,-0.076 -0.705,-0.137c-3.375,-0.855 -4.699,-3.976 -4.634,-6.157c0.001,-0.022 0.002,-0.044 0.005,-0.064c0.055,-1.42 0.823,-2.243 1.654,-2.675c0.368,-0.228 1.299,-0.532 2.242,-0.532l0.25,0c0.55,-0.001 1.286,-0.001 1.971,0.015c0.663,0.014 1.646,0.059 2.059,0.137c0.682,0.131 0.958,0.235 1.118,0.304Zm-8.175,2.028c0.198,-0.493 0.566,-0.898 1.061,-1.203c0.279,-0.172 0.952,-0.469 1.716,-0.469l0.247,-0.001c1.105,-0 2.914,-0.002 3.592,0.127c0.657,0.126 0.869,0.217 0.96,0.257c0.373,0.15 0.698,0.397 0.945,0.71l0.271,1.473c0.065,-0.012 0.145,-0.026 0.238,-0.039l-0,0.066c0.142,3.417 -2.401,5.477 -4.781,5.249c-0.21,-0.03 -0.415,-0.068 -0.622,-0.12c-2.506,-0.635 -3.558,-2.657 -3.759,-4.445c-0.031,-0.275 -0.041,-0.545 -0.034,-0.804l0.001,-0.007l0,0l0.001,-0.007c0.011,-0.283 0.068,-0.546 0.164,-0.787Zm12.4,0.86l0,0.061c-0.142,3.417 2.401,5.477 4.781,5.249c0.21,-0.03 0.415,-0.068 0.622,-0.12c2.506,-0.635 3.558,-2.657 3.759,-4.445c0.031,-0.275 0.041,-0.545 0.034,-0.804l-0.001,-0.007l-0,0l-0.001,-0.007c-0.011,-0.283 -0.068,-0.546 -0.164,-0.787c-0.198,-0.493 -0.566,-0.898 -1.061,-1.203c-0.279,-0.172 -0.952,-0.469 -1.716,-0.469l-0.247,-0.001c-1.105,-0 -2.914,-0.002 -3.592,0.127c-0.657,0.126 -0.869,0.217 -0.96,0.257c-0.387,0.156 -0.723,0.416 -0.973,0.747l-0.217,1.44c-0.088,-0.013 -0.176,-0.026 -0.264,-0.038Z" style="fill:url(#_Radial32);"/><path d="M13.46,8.178c0.437,0.179 0.813,0.454 1.111,0.8c0.194,0.227 0.469,0.379 0.764,0.367c0.401,-0.016 0.848,-0.019 1.324,0.002c0.296,0.014 0.574,-0.138 0.769,-0.367c0.298,-0.347 0.674,-0.623 1.112,-0.802c0.16,-0.069 0.436,-0.173 1.118,-0.304c0.413,-0.078 1.396,-0.123 2.059,-0.137c0.685,-0.016 1.421,-0.016 1.971,-0.015l0.25,0c0.943,0 1.874,0.304 2.242,0.532c0.831,0.432 1.599,1.255 1.655,2.675c0.002,0.02 0.003,0.042 0.004,0.064c0.065,2.181 -1.259,5.302 -4.634,6.157c-0.238,0.061 -0.471,0.104 -0.705,0.137c-0.011,0.001 -0.022,0.003 -0.034,0.004c-3.416,0.327 -5.671,-2.626 -5.782,-5.839c-0.009,-0.265 -0.208,-0.49 -0.467,-0.495c-0.149,-0.002 -0.293,-0.002 -0.431,-0.001c-0.26,0.004 -0.46,0.229 -0.47,0.496c-0.11,3.212 -2.367,6.166 -5.782,5.839c-0.012,-0.001 -0.023,-0.003 -0.034,-0.004c-0.234,-0.033 -0.467,-0.076 -0.705,-0.137c-3.375,-0.855 -4.699,-3.976 -4.634,-6.157c0.001,-0.022 0.002,-0.044 0.005,-0.064c0.055,-1.42 0.823,-2.243 1.654,-2.675c0.368,-0.228 1.299,-0.532 2.242,-0.532l0.25,0c0.55,-0.001 1.286,-0.001 1.971,0.015c0.663,0.014 1.646,0.059 2.059,0.137c0.682,0.131 0.958,0.235 1.118,0.304Zm-8.175,2.028c0.198,-0.493 0.566,-0.898 1.061,-1.203c0.279,-0.172 0.952,-0.469 1.716,-0.469l0.247,-0.001c1.105,-0 2.914,-0.002 3.592,0.127c0.657,0.126 0.869,0.217 0.96,0.257c0.373,0.15 0.698,0.397 0.945,0.71l0.271,1.473c0.065,-0.012 0.145,-0.026 0.238,-0.039l-0,0.066c0.142,3.417 -2.401,5.477 -4.781,5.249c-0.21,-0.03 -0.415,-0.068 -0.622,-0.12c-2.506,-0.635 -3.558,-2.657 -3.759,-4.445c-0.031,-0.275 -0.041,-0.545 -0.034,-0.804l0.001,-0.007l0,0l0.001,-0.007c0.011,-0.283 0.068,-0.546 0.164,-0.787Zm12.4,0.86l0,0.061c-0.142,3.417 2.401,5.477 4.781,5.249c0.21,-0.03 0.415,-0.068 0.622,-0.12c2.506,-0.635 3.558,-2.657 3.759,-4.445c0.031,-0.275 0.041,-0.545 0.034,-0.804l-0.001,-0.007l-0,0l-0.001,-0.007c-0.011,-0.283 -0.068,-0.546 -0.164,-0.787c-0.198,-0.493 -0.566,-0.898 -1.061,-1.203c-0.279,-0.172 -0.952,-0.469 -1.716,-0.469l-0.247,-0.001c-1.105,-0 -2.914,-0.002 -3.592,0.127c-0.657,0.126 -0.869,0.217 -0.96,0.257c-0.387,0.156 -0.723,0.416 -0.973,0.747l-0.217,1.44c-0.088,-0.013 -0.176,-0.026 -0.264,-0.038Z" style="fill:url(#_Radial33);"/><path d="M6.346,9.003c0.279,-0.172 0.952,-0.469 1.716,-0.469c0.078,-0 0.161,-0 0.247,-0.001c1.105,-0 2.914,-0.002 3.592,0.127c0.657,0.126 0.869,0.217 0.96,0.257c0.851,0.343 1.454,1.192 1.454,2.184l-0,0.026c0.142,3.417 -2.401,5.477 -4.781,5.249c-0.21,-0.03 -0.415,-0.068 -0.622,-0.12c-2.897,-0.735 -3.851,-3.318 -3.792,-5.256l0,0c0.032,-0.866 0.488,-1.541 1.226,-1.997Z" style="fill:url(#_Radial34);fill-rule:nonzero;"/><path d="M6.346,9.003c0.279,-0.172 0.952,-0.469 1.716,-0.469c0.078,-0 0.161,-0 0.247,-0.001c1.105,-0 2.914,-0.002 3.592,0.127c0.657,0.126 0.869,0.217 0.96,0.257c0.851,0.343 1.454,1.192 1.454,2.184l-0,0.026c0.142,3.417 -2.401,5.477 -4.781,5.249c-0.21,-0.03 -0.415,-0.068 -0.622,-0.12c-2.897,-0.735 -3.851,-3.318 -3.792,-5.256l0,0c0.032,-0.866 0.488,-1.541 1.226,-1.997Z" style="fill:url(#_Radial35);fill-rule:nonzero;"/><path d="M6.346,9.003c0.279,-0.172 0.952,-0.469 1.716,-0.469c0.078,-0 0.161,-0 0.247,-0.001c1.105,-0 2.914,-0.002 3.592,0.127c0.657,0.126 0.869,0.217 0.96,0.257c0.851,0.343 1.454,1.192 1.454,2.184l-0,0.026c0.142,3.417 -2.401,5.477 -4.781,5.249c-0.21,-0.03 -0.415,-0.068 -0.622,-0.12c-2.897,-0.735 -3.851,-3.318 -3.792,-5.256l0,0c0.032,-0.866 0.488,-1.541 1.226,-1.997Z" style="fill:url(#_Radial36);fill-rule:nonzero;"/><path d="M6.346,9.003c0.279,-0.172 0.952,-0.469 1.716,-0.469c0.078,-0 0.161,-0 0.247,-0.001c1.105,-0 2.914,-0.002 3.592,0.127c0.657,0.126 0.869,0.217 0.96,0.257c0.851,0.343 1.454,1.192 1.454,2.184l-0,0.026c0.142,3.417 -2.401,5.477 -4.781,5.249c-0.21,-0.03 -0.415,-0.068 -0.622,-0.12c-2.897,-0.735 -3.851,-3.318 -3.792,-5.256l0,0c0.032,-0.866 0.488,-1.541 1.226,-1.997Z" style="fill:url(#_Radial37);fill-rule:nonzero;"/><path d="M11.494,9.628c0.589,-0.292 1.358,0.086 1.717,0.842c0.359,0.758 0.173,1.61 -0.416,1.902c-0.588,0.292 -1.357,-0.086 -1.717,-0.843c-0.359,-0.757 -0.172,-1.609 0.416,-1.901Z" style="fill:url(#_Linear38);"/><path d="M25.654,9.003c-0.279,-0.172 -0.952,-0.469 -1.716,-0.469c-0.078,-0 -0.161,-0 -0.247,-0.001c-1.105,-0 -2.914,-0.002 -3.592,0.127c-0.657,0.126 -0.869,0.217 -0.96,0.257c-0.851,0.343 -1.454,1.192 -1.454,2.184l0,0.026c-0.142,3.417 2.401,5.477 4.781,5.249c0.21,-0.03 0.415,-0.068 0.622,-0.12c2.897,-0.735 3.851,-3.318 3.792,-5.256l-0,0c-0.032,-0.866 -0.488,-1.541 -1.226,-1.997Z" style="fill:url(#_Radial39);fill-rule:nonzero;"/><path d="M25.654,9.003c-0.279,-0.172 -0.952,-0.469 -1.716,-0.469c-0.078,-0 -0.161,-0 -0.247,-0.001c-1.105,-0 -2.914,-0.002 -3.592,0.127c-0.657,0.126 -0.869,0.217 -0.96,0.257c-0.851,0.343 -1.454,1.192 -1.454,2.184l0,0.026c-0.142,3.417 2.401,5.477 4.781,5.249c0.21,-0.03 0.415,-0.068 0.622,-0.12c2.897,-0.735 3.851,-3.318 3.792,-5.256l-0,0c-0.032,-0.866 -0.488,-1.541 -1.226,-1.997Z" style="fill:url(#_Radial40);fill-rule:nonzero;"/><path d="M25.654,9.003c-0.279,-0.172 -0.952,-0.469 -1.716,-0.469c-0.078,-0 -0.161,-0 -0.247,-0.001c-1.105,-0 -2.914,-0.002 -3.592,0.127c-0.657,0.126 -0.869,0.217 -0.96,0.257c-0.851,0.343 -1.454,1.192 -1.454,2.184l0,0.026c-0.142,3.417 2.401,5.477 4.781,5.249c0.21,-0.03 0.415,-0.068 0.622,-0.12c2.897,-0.735 3.851,-3.318 3.792,-5.256l-0,0c-0.032,-0.866 -0.488,-1.541 -1.226,-1.997Z" style="fill:url(#_Radial41);fill-rule:nonzero;"/><path d="M25.654,9.003c-0.279,-0.172 -0.952,-0.469 -1.716,-0.469c-0.078,-0 -0.161,-0 -0.247,-0.001c-1.105,-0 -2.914,-0.002 -3.592,0.127c-0.657,0.126 -0.869,0.217 -0.96,0.257c-0.851,0.343 -1.454,1.192 -1.454,2.184l0,0.026c-0.142,3.417 2.401,5.477 4.781,5.249c0.21,-0.03 0.415,-0.068 0.622,-0.12c2.897,-0.735 3.851,-3.318 3.792,-5.256l-0,0c-0.032,-0.866 -0.488,-1.541 -1.226,-1.997Z" style="fill:url(#_Radial42);fill-rule:nonzero;"/><path d="M24.212,9.628c0.588,-0.292 1.357,0.086 1.716,0.842c0.36,0.758 0.174,1.61 -0.415,1.902c-0.588,0.292 -1.358,-0.086 -1.717,-0.843c-0.359,-0.757 -0.173,-1.609 0.416,-1.901Z" style="fill:url(#_Linear43);"/></g></g></g><defs><linearGradient id="_Linear1" x1="0" y1="0" x2="1" y2="-0.000234908" gradientUnits="userSpaceOnUse" gradientTransform="matrix(0.00984606,-3.51153,3.67646,0.00940433,19.5259,27.4184)"><stop offset="0" style="stop-color:#ce9af8;stop-opacity:1"/><stop offset="0.5" style="stop-color:#d7affa;stop-opacity:0.45"/><stop offset="1" style="stop-color:#dfc0fc;stop-opacity:0"/></linearGradient><linearGradient id="_Linear2" x1="0" y1="0" x2="1" y2="0" gradientUnits="userSpaceOnUse" gradientTransform="matrix(27.2148,0,0,28.7551,1.13419,6.80352)"><stop offset="0" style="stop-color:#377af3;stop-opacity:1"/><stop offset="0.79" style="stop-color:#2ea6ff;stop-opacity:1"/><stop offset="1" style="stop-color:#2ea6ff;stop-opacity:1"/></linearGradient><linearGradient id="_Linear3" x1="0" y1="0" x2="1" y2="0" gradientUnits="userSpaceOnUse" gradientTransform="matrix(6.55066e-17,1.13035,-1.0698,6.92142e-17,16,3.69954)"><stop offset="0" style="stop-color:#2d9eee;stop-opacity:1"/><stop offset="1" style="stop-color:#2d9eee;stop-opacity:0"/></linearGradient><radialGradient id="_Radial4" cx="0" cy="0" r="1" gradientUnits="userSpaceOnUse" gradientTransform="matrix(-20.4835,-2.00948,2.06669,-6.43017,21.9587,7.71856)"><stop offset="0" style="stop-color:#3955e1;stop-opacity:0"/><stop offset="0.76" style="stop-color:#3955e1;stop-opacity:0"/><stop offset="0.99" style="stop-color:#3d41a8;stop-opacity:1"/><stop offset="1" style="stop-color:#3d41a8;stop-opacity:1"/></radialGradient><radialGradient id="_Radial5" cx="0" cy="0" r="1" gradientUnits="userSpaceOnUse" gradientTransform="matrix(-9.07173,2.2436,-6.71516,-6.26686,32.2757,4.49523)"><stop offset="0" style="stop-color:#55d9ff;stop-opacity:1"/><stop offset="1" style="stop-color:#55d9ff;stop-opacity:0"/></radialGradient><radialGradient id="_Radial6" cx="0" cy="0" r="1" gradientUnits="userSpaceOnUse" gradientTransform="matrix(-0.851156,1.06542,-1.00835,-0.89933,7.77633,4.93644)"><stop offset="0" style="stop-color:#5ae68d;stop-opacity:1"/><stop offset="0.19" style="stop-color:#5ae68d;stop-opacity:1"/><stop offset="0.84" style="stop-color:#43a684;stop-opacity:1"/><stop offset="1" style="stop-color:#43a684;stop-opacity:1"/></radialGradient><linearGradient id="_Linear7" x1="0" y1="0" x2="1" y2="0" gradientUnits="userSpaceOnUse" gradientTransform="matrix(1.88861e-17,0.325891,-0.308434,1.99551e-17,7.38821,4.59801)"><stop offset="0" style="stop-color:#5ed284;stop-opacity:1"/><stop offset="1" style="stop-color:#5ed284;stop-opacity:0"/></linearGradient><radialGradient id="_Radial8" cx="0" cy="0" r="1" gradientUnits="userSpaceOnUse" gradientTransform="matrix(-0.504167,0.507642,-0.517744,-0.574055,7.80005,5.03671)"><stop offset="0" style="stop-color:#6ffca5;stop-opacity:1"/><stop offset="0.18" style="stop-color:#6ffca5;stop-opacity:1"/><stop offset="1" style="stop-color:#65e6a7;stop-opacity:0"/></radialGradient><radialGradient id="_Radial9" cx="0" cy="0" r="1" gradientUnits="userSpaceOnUse" gradientTransform="matrix(-0.91344,-7.39022e-16,7.26684e-16,-1.00274,7.60135,5.29993)"><stop offset="0" style="stop-color:#64cb85;stop-opacity:0"/><stop offset="0.62" style="stop-color:#64cb85;stop-opacity:0"/><stop offset="0.95" style="stop-color:#a4e4b7;stop-opacity:1"/><stop offset="1" style="stop-color:#a4e4b7;stop-opacity:1"/></radialGradient><radialGradient id="_Radial10" cx="0" cy="0" r="1" gradientUnits="userSpaceOnUse" gradientTransform="matrix(-4.03083e-16,1.11242,-1.09079,-4.41256e-16,7.38821,4.94897)"><stop offset="0" style="stop-color:#4a9795;stop-opacity:0"/><stop offset="0.73" style="stop-color:#4a9795;stop-opacity:0"/><stop offset="1" style="stop-color:#718cad;stop-opacity:1"/></radialGradient><radialGradient id="_Radial11" cx="0" cy="0" r="1" gradientUnits="userSpaceOnUse" gradientTransform="matrix(-0.851156,1.06542,-1.00835,-0.89933,5.90839,4.94222)"><stop offset="0" style="stop-color:#e6c35a;stop-opacity:1"/><stop offset="0.19" style="stop-color:#e6c35a;stop-opacity:1"/><stop offset="0.84" style="stop-color:#a68d43;stop-opacity:1"/><stop offset="1" style="stop-color:#a68d43;stop-opacity:1"/></radialGradient><linearGradient id="_Linear12" x1="0" y1="0" x2="1" y2="0" gradientUnits="userSpaceOnUse" gradientTransform="matrix(1.88861e-17,0.325891,-0.308434,1.99551e-17,5.52028,4.60379)"><stop offset="0" style="stop-color:#d2b55e;stop-opacity:1"/><stop offset="1" style="stop-color:#d2b55e;stop-opacity:1"/></linearGradient><radialGradient id="_Radial13" cx="0" cy="0" r="1" gradientUnits="userSpaceOnUse" gradientTransform="matrix(-0.504167,0.507642,-0.517744,-0.574055,5.93212,5.0425)"><stop offset="0" style="stop-color:#fcd96f;stop-opacity:1"/><stop offset="0.18" style="stop-color:#fcd96f;stop-opacity:1"/><stop offset="1" style="stop-color:#e6c665;stop-opacity:1"/></radialGradient><radialGradient id="_Radial14" cx="0" cy="0" r="1" gradientUnits="userSpaceOnUse" gradientTransform="matrix(-0.91344,-7.39022e-16,7.26684e-16,-1.00274,5.73342,5.30572)"><stop offset="0" style="stop-color:#cbb164;stop-opacity:0"/><stop offset="0.62" style="stop-color:#cbb164;stop-opacity:0"/><stop offset="0.95" style="stop-color:#e4d4a4;stop-opacity:0"/><stop offset="1" style="stop-color:#e4d4a4;stop-opacity:0"/></radialGradient><radialGradient id="_Radial15" cx="0" cy="0" r="1" gradientUnits="userSpaceOnUse" gradientTransform="matrix(-4.03083e-16,1.11242,-1.09079,-4.41256e-16,5.52028,4.95476)"><stop offset="0" style="stop-color:#4a9795;stop-opacity:0"/><stop offset="0.73" style="stop-color:#4a9795;stop-opacity:0"/><stop offset="1" style="stop-color:#718cad;stop-opacity:1"/></radialGradient><radialGradient id="_Radial16" cx="0" cy="0" r="1" gradientUnits="userSpaceOnUse" gradientTransform="matrix(-0.851156,1.06542,-1.00835,-0.89933,4.04047,4.94222)"><stop offset="0" style="stop-color:#e65a5a;stop-opacity:1"/><stop offset="0.19" style="stop-color:#e65a5a;stop-opacity:1"/><stop offset="0.84" style="stop-color:#a64343;stop-opacity:1"/><stop offset="1" style="stop-color:#a64343;stop-opacity:1"/></radialGradient><linearGradient id="_Linear17" x1="0" y1="0" x2="1" y2="0" gradientUnits="userSpaceOnUse" gradientTransform="matrix(1.88861e-17,0.325891,-0.308434,1.99551e-17,3.65235,4.60379)"><stop offset="0" style="stop-color:#d25e5e;stop-opacity:1"/><stop offset="1" style="stop-color:#d25e5e;stop-opacity:1"/></linearGradient><radialGradient id="_Radial18" cx="0" cy="0" r="1" gradientUnits="userSpaceOnUse" gradientTransform="matrix(-0.504167,0.507642,-0.517744,-0.574055,4.0642,5.0425)"><stop offset="0" style="stop-color:#fc6f6f;stop-opacity:1"/><stop offset="0.18" style="stop-color:#fc6f6f;stop-opacity:1"/><stop offset="1" style="stop-color:#e66565;stop-opacity:1"/></radialGradient><radialGradient id="_Radial19" cx="0" cy="0" r="1" gradientUnits="userSpaceOnUse" gradientTransform="matrix(-0.91344,-7.39022e-16,7.26684e-16,-1.00274,3.86549,5.30572)"><stop offset="0" style="stop-color:#cb6464;stop-opacity:0"/><stop offset="0.62" style="stop-color:#cb6464;stop-opacity:0"/><stop offset="0.95" style="stop-color:#e4a4a4;stop-opacity:1"/><stop offset="1" style="stop-color:#e4a4a4;stop-opacity:1"/></radialGradient><radialGradient id="_Radial20" cx="0" cy="0" r="1" gradientUnits="userSpaceOnUse" gradientTransform="matrix(-4.03083e-16,1.11242,-1.09079,-4.41256e-16,3.65235,4.95476)"><stop offset="0" style="stop-color:#4a9795;stop-opacity:0"/><stop offset="0.73" style="stop-color:#4a9795;stop-opacity:0"/><stop offset="1" style="stop-color:#718cad;stop-opacity:1"/></radialGradient><radialGradient id="_Radial21" cx="0" cy="0" r="1" gradientUnits="userSpaceOnUse" gradientTransform="matrix(-20.6102,22.7439,-22.2267,-21.0898,23.8669,11.2898)"><stop offset="0" style="stop-color:#fff478;stop-opacity:1"/><stop offset="0.47" style="stop-color:#ffb02e;stop-opacity:1"/><stop offset="1" style="stop-color:#f70a8d;stop-opacity:1"/></radialGradient><radialGradient id="_Radial22" cx="0" cy="0" r="1" gradientUnits="userSpaceOnUse" gradientTransform="matrix(-21.0144,23.9845,-23.4391,-21.5034,23.8669,11.2898)"><stop offset="0" style="stop-color:#fff478;stop-opacity:1"/><stop offset="0.47" style="stop-color:#ffb02e;stop-opacity:1"/><stop offset="1" style="stop-color:#f70a8d;stop-opacity:1"/></radialGradient><radialGradient id="_Radial23" cx="0" cy="0" r="1" gradientUnits="userSpaceOnUse" gradientTransform="matrix(-2.82887,14.4734,-18.1161,-3.70756,16.1886,14.1845)"><stop offset="0" style="stop-color:#f59639;stop-opacity:0"/><stop offset="0.79" style="stop-color:#f59639;stop-opacity:0"/><stop offset="0.97" style="stop-color:#ff7dce;stop-opacity:1"/><stop offset="1" style="stop-color:#ff7dce;stop-opacity:1"/></radialGradient><radialGradient id="_Radial24" cx="0" cy="0" r="1" gradientUnits="userSpaceOnUse" gradientTransform="matrix(-23.4391,23.9845,-23.4391,-23.9845,17.8051,15.4251)"><stop offset="0" style="stop-color:#000;stop-opacity:0"/><stop offset="0.31" style="stop-color:#000;stop-opacity:0"/><stop offset="1" style="stop-color:#000;stop-opacity:0.6"/></radialGradient><radialGradient id="_Radial25" cx="0" cy="0" r="1" gradientUnits="userSpaceOnUse" gradientTransform="matrix(4.84945,22.7439,-22.2267,4.96229,16.1886,17.9062)"><stop offset="0" style="stop-color:#7d6133;stop-opacity:0"/><stop offset="0.51" style="stop-color:#7d6133;stop-opacity:0"/><stop offset="1" style="stop-color:#715b32;stop-opacity:1"/></radialGradient><radialGradient id="_Radial26" cx="0" cy="0" r="1" gradientUnits="userSpaceOnUse" gradientTransform="matrix(6.06183,9.09754,-6.44441,4.49617,16.5927,17.4927)"><stop offset="0" style="stop-color:#ffb849;stop-opacity:1"/><stop offset="1" style="stop-color:#ffb847;stop-opacity:0"/></radialGradient><radialGradient id="_Radial27" cx="0" cy="0" r="1" gradientUnits="userSpaceOnUse" gradientTransform="matrix(9.29479,1.6541,-1.61649,9.51107,19.8257,18.7333)"><stop offset="0" style="stop-color:#ffa64b;stop-opacity:1"/><stop offset="0.9" style="stop-color:#ffae46;stop-opacity:0"/><stop offset="1" style="stop-color:#ffae46;stop-opacity:0"/></radialGradient><radialGradient id="_Radial28" cx="0" cy="0" r="1" gradientUnits="userSpaceOnUse" gradientTransform="matrix(34.3504,33.9091,-33.138,35.1496,17.401,16.2521)"><stop offset="0" style="stop-color:#000;stop-opacity:0"/><stop offset="0.19" style="stop-color:#000;stop-opacity:0"/><stop offset="1" style="stop-color:#000;stop-opacity:0.4"/></radialGradient><radialGradient id="_Radial29" cx="0" cy="0" r="1" gradientUnits="userSpaceOnUse" gradientTransform="matrix(-3.40386e-15,-9.09756,17.7814,-6.96613e-15,16.1886,27.0038)"><stop offset="0" style="stop-color:#f70a8d;stop-opacity:1"/><stop offset="1" style="stop-color:#89029c;stop-opacity:1"/></radialGradient><linearGradient id="_Linear30" x1="0" y1="0" x2="1" y2="0" gradientUnits="userSpaceOnUse" gradientTransform="matrix(7.4236e-17,1.24058,-1.21237,7.59633e-17,16.1886,17.9062)"><stop offset="0" style="stop-color:#d5a8fe;stop-opacity:1"/><stop offset="1" style="stop-color:#fff;stop-opacity:1"/></linearGradient><radialGradient id="_Radial31" cx="0" cy="0" r="1" gradientUnits="userSpaceOnUse" gradientTransform="matrix(1.88373,9.78993,-19.8257,3.99434,20.0647,8.24802)"><stop offset="0" style="stop-color:#5f5b9b;stop-opacity:1"/><stop offset="1" style="stop-color:#5c3085;stop-opacity:1"/></radialGradient><radialGradient id="_Radial32" cx="0" cy="0" r="1" gradientUnits="userSpaceOnUse" gradientTransform="matrix(0.904582,4.37865,-4.80712,1.03986,22.2585,12.518)"><stop offset="0" style="stop-color:#77579c;stop-opacity:1"/><stop offset="0.78" style="stop-color:#77579c;stop-opacity:1"/><stop offset="0.94" style="stop-color:#77579c;stop-opacity:0"/><stop offset="1" style="stop-color:#77579c;stop-opacity:0"/></radialGradient><radialGradient id="_Radial33" cx="0" cy="0" r="1" gradientUnits="userSpaceOnUse" gradientTransform="matrix(-2.00763,-3.19568,2.29246,-1.50801,20.6596,11.6974)"><stop offset="0" style="stop-color:#4e3d92;stop-opacity:1"/><stop offset="0.77" style="stop-color:#4e3d92;stop-opacity:1"/><stop offset="1" style="stop-color:#534687;stop-opacity:0"/></radialGradient><radialGradient id="_Radial34" cx="0" cy="0" r="1" gradientUnits="userSpaceOnUse" gradientTransform="matrix(-2.47856,4.08337,-4.53331,-2.88122,11.7865,10.9365)"><stop offset="0" style="stop-color:#4c3d70;stop-opacity:1"/><stop offset="1" style="stop-color:#361c5d;stop-opacity:1"/></radialGradient><radialGradient id="_Radial35" cx="0" cy="0" r="1" gradientUnits="userSpaceOnUse" gradientTransform="matrix(0.297429,6.087,-8.83324,0.451938,10.8199,11.0633)"><stop offset="0" style="stop-color:#5b2b84;stop-opacity:0"/><stop offset="0.65" style="stop-color:#5b2b84;stop-opacity:0"/><stop offset="1" style="stop-color:#5b2b84;stop-opacity:1"/></radialGradient><radialGradient id="_Radial36" cx="0" cy="0" r="1" gradientUnits="userSpaceOnUse" gradientTransform="matrix(-1.51193,-9.23193,8.93439,-1.53209,9.48148,17.201)"><stop offset="0" style="stop-color:#2e1d57;stop-opacity:0"/><stop offset="0.86" style="stop-color:#2e1d57;stop-opacity:0"/><stop offset="1" style="stop-color:#20143d;stop-opacity:1"/></radialGradient><radialGradient id="_Radial37" cx="0" cy="0" r="1" gradientUnits="userSpaceOnUse" gradientTransform="matrix(-1.28884,6.087,-5.58286,-1.23775,10.2498,10.4546)"><stop offset="0" style="stop-color:#2e1d57;stop-opacity:0"/><stop offset="0.87" style="stop-color:#2e1d57;stop-opacity:0"/><stop offset="1" style="stop-color:#20143d;stop-opacity:0.6"/></radialGradient><linearGradient id="_Linear38" x1="0" y1="0" x2="1" y2="-0.0017236" gradientUnits="userSpaceOnUse" gradientTransform="matrix(0.100412,2.80252,-2.73879,0.102748,12.1447,9.78433)"><stop offset="0" style="stop-color:#fff;stop-opacity:1"/><stop offset="0.97" style="stop-color:#fff;stop-opacity:0"/><stop offset="1" style="stop-color:#fff;stop-opacity:0"/></linearGradient><radialGradient id="_Radial39" cx="0" cy="0" r="1" gradientUnits="userSpaceOnUse" gradientTransform="matrix(-2.72647,4.59059,-6.73865,-4.19068,22.8657,10.6068)"><stop offset="0" style="stop-color:#4c3d70;stop-opacity:1"/><stop offset="1" style="stop-color:#361c5d;stop-opacity:1"/></radialGradient><radialGradient id="_Radial40" cx="0" cy="0" r="1" gradientUnits="userSpaceOnUse" gradientTransform="matrix(-0.297429,6.087,-8.83324,-0.451938,21.1801,11.0633)"><stop offset="0" style="stop-color:#5b2b84;stop-opacity:0"/><stop offset="0.65" style="stop-color:#5b2b84;stop-opacity:0"/><stop offset="1" style="stop-color:#5b2b84;stop-opacity:1"/></radialGradient><radialGradient id="_Radial41" cx="0" cy="0" r="1" gradientUnits="userSpaceOnUse" gradientTransform="matrix(1.74897,-8.14139,7.87896,1.77227,22.2815,16.1105)"><stop offset="0" style="stop-color:#2e1d57;stop-opacity:0"/><stop offset="0.86" style="stop-color:#2e1d57;stop-opacity:0"/><stop offset="1" style="stop-color:#20143d;stop-opacity:1"/></radialGradient><radialGradient id="_Radial42" cx="0" cy="0" r="1" gradientUnits="userSpaceOnUse" gradientTransform="matrix(1.28885,6.087,-5.58286,1.23776,21.7502,10.4546)"><stop offset="0" style="stop-color:#2e1d57;stop-opacity:0"/><stop offset="0.87" style="stop-color:#2e1d57;stop-opacity:0"/><stop offset="1" style="stop-color:#20143d;stop-opacity:0.6"/></radialGradient><linearGradient id="_Linear43" x1="0" y1="0" x2="1" y2="-0.0017236" gradientUnits="userSpaceOnUse" gradientTransform="matrix(0.100412,2.80252,-2.73879,0.102748,24.8621,9.78433)"><stop offset="0" style="stop-color:#fff;stop-opacity:1"/><stop offset="0.97" style="stop-color:#fff;stop-opacity:0"/><stop offset="1" style="stop-color:#fff;stop-opacity:0"/></linearGradient></defs></svg>