<svg viewBox="0 0 32 32" xmlns="http://www.w3.org/2000/svg" fill-rule="evenodd" clip-rule="evenodd" stroke-linejoin="round" stroke-miterlimit="2"><path d="M20.74 29.96h-9.28c-4.02 0-7.29-3.26-7.29-7.29v-2.88h23.85v2.88a7.27 7.27 0 01-7.28 7.29z" fill="url(#a)" fill-rule="nonzero"/><path d="M20.74 29.96h-9.28c-4.02 0-7.29-3.26-7.29-7.29v-2.88h23.85v2.88a7.27 7.27 0 01-7.28 7.29z" fill="url(#b)" fill-rule="nonzero"/><path d="M22.02 11.06h-12A8.02 8.02 0 002 19.08a8.02 8.02 0 008.02 8.02h12a8.02 8.02 0 008.02-8.02 8.02 8.02 0 00-8.02-8.02z" fill="url(#c)" fill-rule="nonzero"/><path d="M22.02 11.06h-12A8.02 8.02 0 002 19.08a8.02 8.02 0 008.02 8.02h12a8.02 8.02 0 008.02-8.02 8.02 8.02 0 00-8.02-8.02z" fill="url(#d)" fill-rule="nonzero"/><path d="M22.02 11.06h-12A8.02 8.02 0 002 19.08a8.02 8.02 0 008.02 8.02h12a8.02 8.02 0 008.02-8.02 8.02 8.02 0 00-8.02-8.02z" fill="url(#e)" fill-rule="nonzero"/><path d="M22.02 11.06h-12A8.02 8.02 0 002 19.08a8.02 8.02 0 008.02 8.02h12a8.02 8.02 0 008.02-8.02 8.02 8.02 0 00-8.02-8.02z" fill="url(#f)" fill-rule="nonzero"/><path d="M22.02 11.06h-12A8.02 8.02 0 002 19.08a8.02 8.02 0 008.02 8.02h12a8.02 8.02 0 008.02-8.02 8.02 8.02 0 00-8.02-8.02z" fill="url(#g)" fill-rule="nonzero"/><path d="M22.02 13.28c3.2 0 5.8 2.6 5.8 5.8 0 3.2-2.6 5.8-5.8 5.8h-12c-3.2 0-5.8-2.6-5.8-5.8 0-3.2 2.6-5.8 5.8-5.8h12" fill="url(#h)" fill-rule="nonzero"/><path d="M22.02 13.28c3.2 0 5.8 2.6 5.8 5.8 0 3.2-2.6 5.8-5.8 5.8h-12c-3.2 0-5.8-2.6-5.8-5.8 0-3.2 2.6-5.8 5.8-5.8h12" fill="url(#i)" fill-rule="nonzero"/><path d="M5.088 15.54c-.353 1.16.392 2.32 1.613 2.32h11.651c1.22 0 2.118-1.17 1.755-2.32 0 0-12.779-7.199-15.019 0z" fill="url(#j)" fill-rule="nonzero"/><path d="M13.31 10c-3.54 0-6.53 2.33-7.52 5.54-.35 1.16.53 2.32 1.74 2.32h11.55c1.21 0 2.1-1.17 1.74-2.32A7.863 7.863 0 0013.31 10z" fill="#efebf4" fill-rule="nonzero"/><path d="M13.31 10c-3.54 0-6.53 2.33-7.52 5.54-.35 1.16.53 2.32 1.74 2.32h11.55c1.21 0 2.1-1.17 1.74-2.32A7.863 7.863 0 0013.31 10z" fill="url(#k)" fill-rule="nonzero"/><path d="M13.31 10c-3.54 0-6.53 2.33-7.52 5.54-.35 1.16.53 2.32 1.74 2.32h11.55c1.21 0 2.1-1.17 1.74-2.32A7.863 7.863 0 0013.31 10z" fill="url(#l)" fill-rule="nonzero"/><path d="M13.31 10c-3.54 0-6.53 2.33-7.52 5.54-.35 1.16.53 2.32 1.74 2.32h11.55c1.21 0 2.1-1.17 1.74-2.32A7.863 7.863 0 0013.31 10z" fill="url(#m)" fill-rule="nonzero"/><path d="M13.31 10c-3.54 0-6.53 2.33-7.52 5.54-.35 1.16.53 2.32 1.74 2.32h11.55c1.21 0 2.1-1.17 1.74-2.32A7.863 7.863 0 0013.31 10z" fill="url(#n)" fill-rule="nonzero"/><path d="M23.583 17.05c-.99 0-2.06.616-2.196 1.117-.039.142-.019.395.571.395h3.258c.325 0 .557-.099.514-.333-.133-.736-1.156-1.179-2.147-1.179z" fill="#b31818" fill-rule="nonzero"/><path d="M23.734 16.734c-1.021 0-2.019.858-2.159 1.399-.04.155-.019.429.589.429h3.36c.336 0 .574-.107.531-.361-.138-.797-1.299-1.467-2.321-1.467z" fill="url(#o)" fill-rule="nonzero"/><path d="M23.734 16.734c-1.021 0-2.019.858-2.159 1.399-.04.155-.019.429.589.429h3.36c.336 0 .574-.107.531-.361-.138-.797-1.299-1.467-2.321-1.467z" fill="url(#p)" fill-rule="nonzero"/><path d="M23.734 16.734c-1.021 0-2.019.858-2.159 1.399-.04.155-.019.429.589.429h3.36c.336 0 .574-.107.531-.361-.138-.797-1.299-1.467-2.321-1.467z" fill="url(#q)" fill-rule="nonzero"/><path d="M23.983 17.727c.413-.013 1.464.177 1.907.343-.4-.55-1.469-.843-2.016-.843-.313 0-.303.512.109.5z" fill="url(#r)" fill-rule="nonzero"/><path d="M20.912 22.305c-.99 0-2.06.617-2.196 1.117-.039.143-.019.396.571.396h3.258c.325 0 .556-.099.514-.333-.133-.737-1.157-1.18-2.147-1.18z" fill="#b31818" fill-rule="nonzero"/><path d="M21.063 21.99c-1.022 0-2.019.857-2.159 1.399-.04.155-.02.429.588.429h3.361c.335 0 .574-.107.53-.361-.137-.798-1.299-1.467-2.32-1.467z" fill="url(#s)" fill-rule="nonzero"/><path d="M21.063 21.99c-1.022 0-2.019.857-2.159 1.399-.04.155-.02.429.588.429h3.361c.335 0 .574-.107.53-.361-.137-.798-1.299-1.467-2.32-1.467z" fill="url(#t)" fill-rule="nonzero"/><path d="M21.063 21.99c-1.022 0-2.019.857-2.159 1.399-.04.155-.02.429.588.429h3.361c.335 0 .574-.107.53-.361-.137-.798-1.299-1.467-2.32-1.467z" fill="url(#u)" fill-rule="nonzero"/><path d="M21.312 22.982c.412-.012 1.463.177 1.906.344-.4-.55-1.469-.844-2.016-.844-.312 0-.303.513.11.5z" fill="url(#v)" fill-rule="nonzero"/><path d="M16.045 18.877c-.99 0-2.06.617-2.196 1.117-.039.143-.019.396.571.396h3.258c.325 0 .557-.099.514-.333-.133-.737-1.156-1.18-2.147-1.18z" fill="#b31818" fill-rule="nonzero"/><path d="M16.196 18.562c-1.021 0-2.019.857-2.159 1.399-.04.155-.019.429.589.429h3.36c.336 0 .574-.107.531-.361-.138-.798-1.299-1.467-2.321-1.467z" fill="url(#w)" fill-rule="nonzero"/><path d="M16.196 18.562c-1.021 0-2.019.857-2.159 1.399-.04.155-.019.429.589.429h3.36c.336 0 .574-.107.531-.361-.138-.798-1.299-1.467-2.321-1.467z" fill="url(#x)" fill-rule="nonzero"/><path d="M16.196 18.562c-1.021 0-2.019.857-2.159 1.399-.04.155-.019.429.589.429h3.36c.336 0 .574-.107.531-.361-.138-.798-1.299-1.467-2.321-1.467z" fill="url(#y)" fill-rule="nonzero"/><path d="M16.445 19.554c.413-.012 1.464.177 1.906.344-.4-.55-1.468-.844-2.015-.844-.313 0-.303.513.109.5z" fill="url(#z)" fill-rule="nonzero"/><path d="M9.709 21.791c-.99 0-2.06.617-2.196 1.117-.039.143-.019.396.571.396h3.258c.325 0 .557-.099.514-.333-.133-.737-1.156-1.18-2.147-1.18z" fill="#b31818" fill-rule="nonzero"/><path d="M9.86 21.476c-1.021 0-2.019.857-2.159 1.399-.04.155-.019.429.589.429h3.36c.336 0 .574-.107.531-.361-.138-.798-1.299-1.467-2.321-1.467z" fill="url(#A)" fill-rule="nonzero"/><path d="M9.86 21.476c-1.021 0-2.019.857-2.159 1.399-.04.155-.019.429.589.429h3.36c.336 0 .574-.107.531-.361-.138-.798-1.299-1.467-2.321-1.467z" fill="url(#B)" fill-rule="nonzero"/><path d="M9.86 21.476c-1.021 0-2.019.857-2.159 1.399-.04.155-.019.429.589.429h3.36c.336 0 .574-.107.531-.361-.138-.798-1.299-1.467-2.321-1.467z" fill="url(#C)" fill-rule="nonzero"/><path d="M10.109 22.468c.413-.012 1.464.177 1.907.344-.4-.55-1.469-.844-2.016-.844-.313 0-.303.513.109.5z" fill="url(#D)" fill-rule="nonzero"/><path d="M12.146 10.918a.286.286 0 01.395.083l.413.632a.287.287 0 01-.479.313l-.413-.632a.286.286 0 01.084-.396z" fill="#dcdadd" fill-rule="nonzero"/><path d="M15.25 11.531a.286.286 0 01.396-.082l.749.478a.287.287 0 01-.314.478l-.75-.478a.286.286 0 01-.081-.396z" fill="#e3e1e4" fill-rule="nonzero"/><path d="M12.719 13.281a.287.287 0 01.393.095l.436.693a.286.286 0 11-.488.298l-.436-.693a.285.285 0 01.095-.393z" fill="#dbd5df" fill-rule="nonzero"/><path d="M16.227 13.758a.286.286 0 01.19.357l-.257.833a.286.286 0 01-.547-.167l.257-.833a.286.286 0 01.357-.19z" fill="#d7d1da" fill-rule="nonzero"/><path d="M15.033 15.857a.286.286 0 01-.16.372l-.81.321a.287.287 0 01-.212-.532l.811-.32a.285.285 0 01.371.159z" fill="#c0abb3" fill-rule="nonzero"/><path d="M18.352 14.933a.286.286 0 01.296.275l.031.872a.286.286 0 01-.572.021l-.03-.871a.286.286 0 01.275-.297z" fill="#d0c5ca" fill-rule="nonzero"/><path d="M10.2 15.399a.285.285 0 01.394-.087l.734.471a.286.286 0 01-.308.482l-.733-.471a.286.286 0 01-.088-.395z" fill="#cdbbc5" fill-rule="nonzero"/><path d="M11.541 18.68c.262.149.325.322.374.385.109.144.086.425-.156.479-.395.089-.102-.35-.452-.542-.349-.191-.554.279-.706-.206-.062-.2.089-.295.213-.322.166-.036.529.094.727.206zM8.035 19.881c.262.148.325.321.374.385.109.143.086.424-.156.479-.395.089-.102-.351-.452-.542-.349-.192-.554.278-.706-.207-.062-.199.089-.294.213-.321.166-.036.529.093.727.206zM5.383 18.961c.227-.198.411-.201.488-.225.171-.056.429.058.4.305-.046.402-.365-.019-.661.247-.296.267.08.616-.428.599-.209-.008-.249-.182-.233-.308.021-.169.263-.468.434-.618zM16.665 22.465c.227-.199.411-.201.487-.226.171-.056.429.059.401.305-.047.402-.365-.019-.661.248-.296.266.08.615-.428.598-.209-.007-.249-.182-.234-.308.021-.168.263-.467.435-.617zM12.736 23.383c.227-.198.411-.201.487-.225.172-.056.429.058.401.305-.046.402-.365-.019-.661.247-.296.267.08.616-.428.599-.209-.007-.249-.182-.233-.308.021-.169.263-.468.434-.618zM11.023 20.408c.227-.199.411-.201.487-.226.171-.056.429.059.401.305-.047.402-.365-.019-.661.248-.297.266.079.615-.428.598-.209-.007-.249-.182-.234-.308.021-.168.263-.467.435-.617zM14.241 21.532c.255.162.308.338.353.404.102.149.064.429-.181.47-.398.068-.083-.355-.422-.565-.339-.21-.569.249-.694-.243-.052-.203.104-.29.23-.31.167-.028.522.121.714.244zM21.353 20.43c.227-.198.411-.201.488-.225.171-.056.429.058.4.305-.046.402-.365-.019-.661.247-.296.267.08.616-.428.599-.209-.007-.249-.182-.233-.308.021-.169.263-.468.434-.618zM20.391 19.524c-.257.157-.439.128-.518.14-.178.026-.413-.131-.343-.369.114-.388.356.081.693-.132.337-.212.026-.62.523-.517.205.043.215.221.178.343-.049.163-.338.416-.533.535zM25.445 15.749c-.257.157-.439.128-.519.139-.178.026-.412-.13-.343-.369.114-.388.357.081.694-.131.337-.212.026-.62.523-.517.205.042.214.221.178.343-.049.162-.339.416-.533.535zM25.382 19.809c.214.212.23.396.26.47.067.167-.029.432-.277.421-.404-.018-.006-.365-.293-.642s-.608.123-.627-.385c-.008-.209.164-.261.291-.254.169.009.484.229.646.39zM23.141 15.072c.26.152.32.326.368.391.107.145.079.426-.164.476-.396.083-.096-.352-.443-.549-.346-.197-.559.27-.703-.218-.059-.2.094-.293.219-.318.166-.033.526.102.723.218z" fill="#662802"/><path d="M10.492 12.2a.287.287 0 01.219.34l-.186.852a.285.285 0 01-.559-.12l.186-.852a.286.286 0 01.34-.22z" fill="#d6d2d9" fill-rule="nonzero"/><path d="M8.722 14.286a.286.286 0 01-.151.375l-.804.338a.286.286 0 11-.223-.526l.803-.339a.286.286 0 01.375.152z" fill="#c3bec8" fill-rule="nonzero"/><g fill-rule="nonzero"><path d="M29.047 19.25c0-2.188-.656-4.938-2.563-6.219 1.641.422 3.344 2.813 3.344 6.094 0 4.963-3.344 7.156-10.234 6.813 9-.813 9.453-4.5 9.453-6.688z" fill="url(#E)"/><path d="M29.047 19.25c0-2.188-.656-4.938-2.563-6.219 1.641.422 3.344 2.813 3.344 6.094 0 4.963-3.344 7.156-10.234 6.813 9-.813 9.453-4.5 9.453-6.688z" fill="url(#F)"/></g><defs><radialGradient id="b" cx="0" cy="0" r="1" gradientUnits="userSpaceOnUse" gradientTransform="matrix(0 4.12496 -12.75 0 18.5 24.875)"><stop offset="0" stop-color="#8d79a9"/><stop offset=".48" stop-color="#8d79a9"/><stop offset=".76" stop-color="#8e7aaa" stop-opacity="0"/><stop offset="1" stop-color="#8e7aaa" stop-opacity="0"/></radialGradient><radialGradient id="d" cx="0" cy="0" r="1" gradientUnits="userSpaceOnUse" gradientTransform="matrix(.1875 11.4375 -17.467 .28635 19.438 18.063)"><stop offset="0" stop-color="#888786" stop-opacity="0"/><stop offset=".92" stop-color="#888786" stop-opacity="0"/><stop offset="1" stop-color="#8e8c8d"/></radialGradient><radialGradient id="e" cx="0" cy="0" r="1" gradientUnits="userSpaceOnUse" gradientTransform="matrix(-.125 7.6875 -8.3465 -.13572 9.188 8.125)"><stop offset="0" stop-color="#847e80"/><stop offset="1" stop-color="#a39fa2" stop-opacity="0"/></radialGradient><radialGradient id="f" cx="0" cy="0" r="1" gradientUnits="userSpaceOnUse" gradientTransform="matrix(-1.5 6.875 -8.08315 -1.7636 21.813 18.25)"><stop offset="0" stop-color="#a69490"/><stop offset=".74" stop-color="#a69490"/><stop offset=".84" stop-color="#c1bec1"/><stop offset=".94" stop-color="#d0cfd1" stop-opacity="0"/><stop offset="1" stop-color="#d0cfd1" stop-opacity="0"/></radialGradient><radialGradient id="g" cx="0" cy="0" r="1" gradientUnits="userSpaceOnUse" gradientTransform="matrix(-.3125 3.75 -11.7142 -.97617 7.563 28.188)"><stop offset="0" stop-color="#a59ab7"/><stop offset=".86" stop-color="#a396b6" stop-opacity="0"/><stop offset="1" stop-color="#a396b6" stop-opacity="0"/></radialGradient><radialGradient id="i" cx="0" cy="0" r="1" gradientUnits="userSpaceOnUse" gradientTransform="matrix(.125 9.23247 -13.5273 .18315 14.938 19.08)"><stop offset="0" stop-color="#c54f2d" stop-opacity="0"/><stop offset=".91" stop-color="#c54f2d" stop-opacity="0"/><stop offset=".95" stop-color="#5e2715"/><stop offset="1" stop-color="#562413"/></radialGradient><radialGradient id="k" cx="0" cy="0" r="1" gradientUnits="userSpaceOnUse" gradientTransform="matrix(0 5.875 -11.3526 0 13.307 16.813)"><stop offset="0" stop-color="#e7ddea"/><stop offset="1" stop-color="#e8e0ec" stop-opacity="0"/></radialGradient><radialGradient id="l" cx="0" cy="0" r="1" gradientUnits="userSpaceOnUse" gradientTransform="matrix(-.03125 3.34375 -17.5236 -.16378 15.469 18.031)"><stop offset="0" stop-color="#c3867e"/><stop offset=".77" stop-color="#c38680" stop-opacity="0"/><stop offset="1" stop-color="#c38680" stop-opacity="0"/></radialGradient><radialGradient id="m" cx="0" cy="0" r="1" gradientUnits="userSpaceOnUse" gradientTransform="matrix(-17.6875 8.875 -7.52378 -14.9946 15.063 18.625)"><stop offset="0" stop-color="#cbc9cb" stop-opacity="0"/><stop offset=".48" stop-color="#cbc9cb" stop-opacity="0"/><stop offset=".57" stop-color="#b3b1b2"/><stop offset="1" stop-color="#b3b1b2"/></radialGradient><radialGradient id="n" cx="0" cy="0" r="1" gradientUnits="userSpaceOnUse" gradientTransform="matrix(-1.8125 3.93 -8.61303 -3.9723 18.875 13.93)"><stop offset="0" stop-color="#fcfbfc"/><stop offset=".64" stop-color="#fcfbfc" stop-opacity="0"/><stop offset="1" stop-color="#fcfbfc" stop-opacity="0"/></radialGradient><radialGradient id="p" cx="0" cy="0" r="1" gradientUnits="userSpaceOnUse" gradientTransform="matrix(-.03125 .91014 -2.85843 -.09815 24.375 18.738)"><stop offset="0" stop-color="#ac0000"/><stop offset=".37" stop-color="#9a0000"/><stop offset="1" stop-color="#ff8826" stop-opacity="0"/></radialGradient><radialGradient id="q" cx="0" cy="0" r="1" gradientUnits="userSpaceOnUse" gradientTransform="matrix(.71875 .91406 -7.04644 5.54078 20.844 17.648)"><stop offset="0" stop-color="#c63333"/><stop offset=".42" stop-color="#c63d33"/><stop offset="1" stop-color="#c78d34" stop-opacity="0"/></radialGradient><radialGradient id="t" cx="0" cy="0" r="1" gradientUnits="userSpaceOnUse" gradientTransform="matrix(-.03125 .91014 -2.85843 -.09815 21.704 23.994)"><stop offset="0" stop-color="#ac0000"/><stop offset=".37" stop-color="#9a0000"/><stop offset="1" stop-color="#ff8826" stop-opacity="0"/></radialGradient><radialGradient id="u" cx="0" cy="0" r="1" gradientUnits="userSpaceOnUse" gradientTransform="matrix(.71875 .91406 -7.04644 5.54078 18.172 22.904)"><stop offset="0" stop-color="#c63333"/><stop offset=".42" stop-color="#c63d33"/><stop offset="1" stop-color="#c78d34" stop-opacity="0"/></radialGradient><radialGradient id="x" cx="0" cy="0" r="1" gradientUnits="userSpaceOnUse" gradientTransform="matrix(-.03125 .91014 -2.85843 -.09815 16.837 20.566)"><stop offset="0" stop-color="#ac0000"/><stop offset=".37" stop-color="#9a0000"/><stop offset="1" stop-color="#ff8826" stop-opacity="0"/></radialGradient><radialGradient id="y" cx="0" cy="0" r="1" gradientUnits="userSpaceOnUse" gradientTransform="matrix(.71875 .91406 -7.04644 5.54078 13.306 19.476)"><stop offset="0" stop-color="#c63333"/><stop offset=".42" stop-color="#c63d33"/><stop offset="1" stop-color="#c78d34" stop-opacity="0"/></radialGradient><radialGradient id="B" cx="0" cy="0" r="1" gradientUnits="userSpaceOnUse" gradientTransform="matrix(-.03125 .91014 -2.85843 -.09815 10.5 23.48)"><stop offset="0" stop-color="#ac0000"/><stop offset=".37" stop-color="#9a0000"/><stop offset="1" stop-color="#ff8826" stop-opacity="0"/></radialGradient><radialGradient id="C" cx="0" cy="0" r="1" gradientUnits="userSpaceOnUse" gradientTransform="matrix(.71875 .91406 -7.04644 5.54078 6.97 22.39)"><stop offset="0" stop-color="#c63333"/><stop offset=".42" stop-color="#c63d33"/><stop offset="1" stop-color="#c78d34" stop-opacity="0"/></radialGradient><radialGradient id="E" cx="0" cy="0" r="1" gradientUnits="userSpaceOnUse" gradientTransform="matrix(-4.31253 8.01561 -9.08093 -4.88569 29.125 19.297)"><stop offset="0" stop-color="#fffeff"/><stop offset="1" stop-color="#fdfbfe" stop-opacity="0"/></radialGradient><radialGradient id="F" cx="0" cy="0" r="1" gradientUnits="userSpaceOnUse" gradientTransform="matrix(-4.50002 3.06246 -2.2004 -3.23329 25.688 24.313)"><stop offset="0" stop-color="#fdfbff"/><stop offset="1" stop-color="#fbf9ff" stop-opacity="0"/></radialGradient><linearGradient id="a" x1="0" y1="0" x2="1" y2="0" gradientUnits="userSpaceOnUse" gradientTransform="translate(5.188 26.25) scale(22.3125)"><stop offset="0" stop-color="#6f6a72"/><stop offset=".22" stop-color="#726681"/><stop offset=".53" stop-color="#8d7ea3"/><stop offset="1" stop-color="#c4bbd1"/></linearGradient><linearGradient id="c" x1="0" y1="0" x2="1" y2="0" gradientUnits="userSpaceOnUse" gradientTransform="rotate(90 2.48 13.54) scale(16.04)"><stop offset="0" stop-color="#b4b3b3"/><stop offset=".02" stop-color="#d3d1d2"/><stop offset=".65" stop-color="#dddbdd"/><stop offset=".91" stop-color="#d8d3df"/><stop offset=".96" stop-color="#c9beda"/><stop offset="1" stop-color="#a28fbe"/></linearGradient><linearGradient id="h" x1="0" y1="0" x2="1" y2="0" gradientUnits="userSpaceOnUse" gradientTransform="matrix(24.655 -3.25 3.25 24.655 4.22 19.688)"><stop offset="0" stop-color="#2e1102"/><stop offset="1" stop-color="#381800"/></linearGradient><linearGradient id="j" x1="0" y1="0" x2="1" y2="0" gradientUnits="userSpaceOnUse" gradientTransform="rotate(-90 13.766 4.328) scale(5.2812)"><stop offset="0" stop-color="#863b1f"/><stop offset=".31" stop-color="#863b1f"/><stop offset=".76" stop-color="#6b605d"/><stop offset="1" stop-color="#6b605d"/></linearGradient><linearGradient id="o" x1="0" y1="0" x2="1" y2="0" gradientUnits="userSpaceOnUse" gradientTransform="translate(21.563 18.563) scale(4.4974)"><stop offset="0" stop-color="#a62323"/><stop offset=".51" stop-color="#e11700"/><stop offset="1" stop-color="#8f0000"/></linearGradient><linearGradient id="r" x1="0" y1="0" x2="1" y2="0" gradientUnits="userSpaceOnUse" gradientTransform="matrix(-2.2812 -.5156 .5156 -2.2812 25.796 17.742)"><stop offset="0" stop-color="#ff7272"/><stop offset=".6" stop-color="#ff7272"/><stop offset="1" stop-color="#fff16e" stop-opacity="0"/></linearGradient><linearGradient id="s" x1="0" y1="0" x2="1" y2="0" gradientUnits="userSpaceOnUse" gradientTransform="translate(18.891 23.818) scale(4.4974)"><stop offset="0" stop-color="#a62323"/><stop offset=".51" stop-color="#e11700"/><stop offset="1" stop-color="#8f0000"/></linearGradient><linearGradient id="v" x1="0" y1="0" x2="1" y2="0" gradientUnits="userSpaceOnUse" gradientTransform="matrix(-2.2812 -.5156 .5156 -2.2812 23.124 22.998)"><stop offset="0" stop-color="#ff7272"/><stop offset=".6" stop-color="#ff7272"/><stop offset="1" stop-color="#fff16e" stop-opacity="0"/></linearGradient><linearGradient id="w" x1="0" y1="0" x2="1" y2="0" gradientUnits="userSpaceOnUse" gradientTransform="translate(14.024 20.39) scale(4.4974)"><stop offset="0" stop-color="#a62323"/><stop offset=".51" stop-color="#e11700"/><stop offset="1" stop-color="#8f0000"/></linearGradient><linearGradient id="z" x1="0" y1="0" x2="1" y2="0" gradientUnits="userSpaceOnUse" gradientTransform="matrix(-2.2812 -.5156 .5156 -2.2812 18.258 19.57)"><stop offset="0" stop-color="#ff7272"/><stop offset=".6" stop-color="#ff7272"/><stop offset="1" stop-color="#fff16e" stop-opacity="0"/></linearGradient><linearGradient id="A" x1="0" y1="0" x2="1" y2="0" gradientUnits="userSpaceOnUse" gradientTransform="translate(7.688 23.304) scale(4.4974)"><stop offset="0" stop-color="#a62323"/><stop offset=".51" stop-color="#e11700"/><stop offset="1" stop-color="#8f0000"/></linearGradient><linearGradient id="D" x1="0" y1="0" x2="1" y2="0" gradientUnits="userSpaceOnUse" gradientTransform="matrix(-2.2812 -.5156 .5156 -2.2812 11.922 22.484)"><stop offset="0" stop-color="#ff7272"/><stop offset=".6" stop-color="#ff7272"/><stop offset="1" stop-color="#fff16e" stop-opacity="0"/></linearGradient></defs></svg>