<svg viewBox="0 0 66 21" xmlns="http://www.w3.org/2000/svg" fill-rule="evenodd" clip-rule="evenodd" stroke-linejoin="round" stroke-miterlimit="2"><path d="M0 0h14v7H7L0 0zm0 7h7l7 7H7v7l-7-7V7z" fill-rule="nonzero" fill="#fff" /><g><path d="M89.795 8.986V.397h2.596l1.558 5.859L95.49.397h2.602v8.589h-1.611V2.225l-1.705 6.761h-1.67l-1.699-6.761v6.761h-1.612zM99.422 5.787c0-.547.135-1.076.404-1.588.27-.511.652-.902 1.146-1.172a3.405 3.405 0 011.655-.404c.942 0 1.713.306 2.315.917.601.612.902 1.384.902 2.318 0 .941-.304 1.721-.911 2.34-.608.62-1.372.929-2.294.929-.57 0-1.114-.129-1.632-.387a2.653 2.653 0 01-1.181-1.133c-.269-.498-.404-1.105-.404-1.82zm1.688.088c0 .617.146 1.09.439 1.418.293.328.654.492 1.084.492.43 0 .79-.164 1.081-.492.291-.328.437-.805.437-1.43 0-.609-.146-1.078-.437-1.406a1.387 1.387 0 00-1.081-.492c-.43 0-.791.164-1.084.492-.293.328-.439.801-.439 1.418zM109.987 2.764v1.312h-1.125v2.508c0 .508.01.804.032.888a.36.36 0 00.146.208.463.463 0 00.279.082c.152 0 .373-.053.662-.158l.14 1.277a3.269 3.269 0 01-1.3.246c-.297 0-.565-.05-.803-.149-.238-.1-.413-.229-.525-.387-.111-.158-.188-.372-.231-.642-.035-.191-.053-.578-.053-1.16V4.076h-.756V2.764h.756V1.527l1.653-.96v2.197h1.125zM111.129 1.92V.397h1.647V1.92h-1.647zm0 7.066V2.764h1.647v6.222h-1.647zM114.082 5.787c0-.547.135-1.076.405-1.588a2.779 2.779 0 011.145-1.172 3.405 3.405 0 011.655-.404c.942 0 1.713.306 2.315.917.601.612.902 1.384.902 2.318 0 .941-.304 1.721-.911 2.34-.607.62-1.372.929-2.294.929-.57 0-1.114-.129-1.632-.387a2.646 2.646 0 01-1.18-1.133c-.27-.498-.405-1.105-.405-1.82zm1.688.088c0 .617.146 1.09.439 1.418.293.328.655.492 1.084.492.43 0 .79-.164 1.081-.492.291-.328.437-.805.437-1.43 0-.609-.146-1.078-.437-1.406a1.387 1.387 0 00-1.081-.492c-.429 0-.791.164-1.084.492-.293.328-.439.801-.439 1.418zM127.453 8.986h-1.646V5.811c0-.672-.035-1.107-.106-1.304a.912.912 0 00-.342-.46.986.986 0 00-.572-.164c-.285 0-.541.078-.767.234a1.185 1.185 0 00-.466.621c-.084.258-.126.735-.126 1.43v2.818h-1.646V2.764h1.529v.914c.543-.703 1.226-1.055 2.051-1.055.363 0 .695.066.996.196.3.131.528.298.682.501.155.204.262.434.323.692.06.258.09.627.09 1.107v3.867z" fill-rule="nonzero" fill="#fff" transform="translate(-88.346 4.74) scale(1.20976)"/></g></svg>
