<svg xmlns="http://www.w3.org/2000/svg" height="24" width="24" fill="#fff"><path d="M12 2.247c-9.32 0-13.264 12.558-5.906 18.07a9.717 9.717 0 002.745 1.419c1.181.22.67-2.14.669-2.343-2.782.605-3.369-1.18-3.369-1.18-.455-1.156-1.11-1.463-1.11-1.463-.907-.621.068-.608.068-.608 1.005.071 1.533 1.031 1.533 1.031.892 1.528 2.34 1.086 2.91.831.09-.646.349-1.088.635-1.337-1.041-.119-2.29-.403-3.111-1.129-1.78-1.576-2.036-4.72-.415-6.498-.103-.251-.446-1.268.097-2.646 0 0 .84-.269 2.751 1.025a9.498 9.498 0 015.008 0c1.909-1.294 2.747-1.025 2.747-1.025.545 1.378.202 2.395.099 2.646 1.624 1.776 1.365 4.928-.419 6.499-.823.725-2.076 1.004-3.118 1.12 1.238 1.072.611 3.313.666 4.596.018.418.326.55.687.48a9.709 9.709 0 002.743-1.42C25.263 14.801 21.319 2.247 12 2.247"/></svg>
