<svg viewBox="0 0 100 18" xmlns="http://www.w3.org/2000/svg" fill-rule="evenodd" clip-rule="evenodd" stroke-linejoin="round" stroke-miterlimit="2"><g><path d="M409.832 344.333l-105.148-86.63 105.148-83.863h-76.839l-98.975 83.863V173.84h-54.702v170.493h54.702v-86.63l98.975 86.63h76.839z" transform="matrix(.09866 0 0 .09866 -.564 -.451) translate(-174.111 -168.577)" fill="url(#a)" fill-rule="nonzero"/><path d="M428.989 106.367c0 21.71-8.089 28.096-30.438 28.096h-54.064c-22.349 0-30.437-6.386-30.437-28.096V5.263h-54.49v110.895c0 42.357 22.775 62.578 72.795 62.578h78.116c50.232.212 73.007-20.008 73.007-62.578V5.263h-54.489v101.104z" fill="url(#b)" fill-rule="nonzero" transform="matrix(.09866 0 0 .09866 -.564 -.451)"/><path d="M911.732 5.263h-48.104l-107.063 170.28L651.63 89.126 756.777 5.263h-76.838l-99.188 83.863 99.188 86.63h139.203l18.093-29.587h100.891l18.092 29.587h62.582L911.732 5.263zm-55.766 106.85l31.714-54.276 31.715 54.276h-63.429z" fill="url(#c)" fill-rule="nonzero" transform="matrix(.09866 0 0 .09866 -.564 -.451)"/><path d="M5.204 5.263H59.906V175.756H5.204z" fill="url(#d)" transform="matrix(.09866 0 0 .09866 -.564 -.451)"/><path d="M526.048 5.263H580.75V175.756H526.048z" fill="url(#e)" transform="matrix(.09866 0 0 .09866 -.564 -.451)"/></g><defs><linearGradient id="a" x1="0" y1="0" x2="1" y2="0" gradientUnits="userSpaceOnUse" gradientTransform="rotate(-10.5 1955.815 -776.652) scale(941.603)"><stop offset="0" stop-color="rgb(255,96,0)"/><stop offset="1" stop-color="rgb(255,88,0)"/></linearGradient><linearGradient id="b" x1="0" y1="0" x2="1" y2="0" gradientUnits="userSpaceOnUse" gradientTransform="rotate(-10.5 951.452 86.483) scale(941.603)"><stop offset="0" stop-color="rgb(255,96,0)"/><stop offset="1" stop-color="rgb(255,88,0)"/></linearGradient><linearGradient id="c" x1="0" y1="0" x2="1" y2="0" gradientUnits="userSpaceOnUse" gradientTransform="rotate(-10.5 951.452 86.483) scale(941.603)"><stop offset="0" stop-color="rgb(255,96,0)"/><stop offset="1" stop-color="rgb(255,88,0)"/></linearGradient><linearGradient id="d" x1="0" y1="0" x2="1" y2="0" gradientUnits="userSpaceOnUse" gradientTransform="scale(80.1637) rotate(10.5 -5.673 -.151)"><stop offset="0" stop-color="rgb(255,96,0)"/><stop offset="1" stop-color="rgb(255,88,0)"/></linearGradient><linearGradient id="e" x1="0" y1="0" x2="1" y2="0" gradientUnits="userSpaceOnUse" gradientTransform="scale(80.1637) rotate(10.5 -2.424 35.21)"><stop offset="0" stop-color="rgb(255,96,0)"/><stop offset="1" stop-color="rgb(255,88,0)"/></linearGradient></defs></svg>