<svg xmlns="http://www.w3.org/2000/svg" height="24" width="24" fill="#fff"><path d="M20.527 2c.814.003 1.473.643 1.473 1.433v17.135c0 .791-.662 1.432-1.478 1.432H3.478C2.662 22 2 21.359 2 20.568V3.433C2 2.642 2.662 2 3.478 2h17.049zm-7.8 9.008V9.734H9.735c.039.844-.001 9.004-.001 9.004v-.001h2.993V13.71c0-.269.019-.539.099-.731.216-.537.708-1.094 1.535-1.094 1.083 0 1.516.825 1.516 2.036v4.816h2.993v-5.162c0-2.766-1.477-4.053-3.446-4.053-1.587 0-2.299.873-2.697 1.486v.031h-.02l.02-.031zM5.085 9.733v9.004h2.993V9.733H5.085zm1.497-1.229c1.043 0 1.693-.691 1.693-1.555-.019-.884-.65-1.556-1.673-1.556-1.024 0-1.693.672-1.693 1.556 0 .864.649 1.555 1.653 1.555h.02z"/></svg>
