<svg viewBox="0 0 100 51" xmlns="http://www.w3.org/2000/svg" fill-rule="evenodd" clip-rule="evenodd" stroke-linejoin="round" stroke-miterlimit="2"><path d="M.007 45.925c0-1.74 1.026-2.548 2.363-2.548.859 0 1.532.362 1.926 1.035.393-.673 1.067-1.035 1.926-1.035 1.337 0 2.363.807 2.363 2.548v4.361H7.258v-4.36c0-.932-.498-1.317-1.151-1.317s-1.15.394-1.15 1.316v4.362H3.628v-4.362c0-.922-.498-1.316-1.15-1.316-.654 0-1.152.385-1.152 1.316v4.362H0v-4.362h.007zm11.361.396c0-1.813 1.036-2.942 2.95-2.942 1.918 0 2.974 1.129 2.974 2.942v3.968h-1.325v-2.03h-3.303v2.03h-1.296V46.32zm4.599.735v-.735c0-1.088-.538-1.71-1.657-1.71-1.108 0-1.646.622-1.646 1.71v.735h3.303zm4.25-3.64h1.346v6.873h-1.345v-6.874zm4.342 0h3.29c1.302 0 1.985.746 1.985 1.786 0 .694-.326 1.23-.893 1.512v.02c.757.243 1.21.873 1.21 1.692 0 1.072-.695 1.86-2.029 1.86H24.56v-6.87zm3.12 2.783c.556 0 .82-.337.82-.767 0-.44-.21-.766-.83-.766h-1.765V46.2h1.775v-.002zm.21 2.849c.631 0 .882-.369.882-.819 0-.463-.314-.83-.873-.83h-1.996v1.65h1.987v-.001zm4.468-2.205c0-2.019 1.483-3.502 3.586-3.502 2.103 0 3.586 1.483 3.586 3.502 0 2.019-1.483 3.502-3.586 3.502-2.103 0-3.586-1.48-3.586-3.502zm5.831 0c0-1.318-.907-2.277-2.245-2.277-1.339 0-2.245.959-2.245 2.277s.906 2.288 2.245 2.288c1.338 0 2.245-.967 2.245-2.288zm4.124-3.428h2.88c1.746 0 2.512.957 2.512 2.27 0 1.084-.515 1.83-1.44 2.135l1.691 2.469h-1.598l-1.46-2.322h-1.242v2.322H42.31v-6.874h.002zm2.899 3.3c.85 0 1.135-.442 1.135-1.03 0-.587-.285-1.02-1.135-1.02h-1.556v2.05h1.556zm5.098-.51c0-1.74 1.04-2.828 2.921-2.828 1.881 0 2.921 1.088 2.921 2.829v4.08h-1.345v-4.08c0-1.004-.524-1.597-1.576-1.597-1.051 0-1.576.59-1.576 1.597v4.08H50.31v-4.08zm8.662 1.576v-4.366h1.327v4.366c0 .934.498 1.319 1.151 1.319s1.15-.394 1.15-1.319v-4.366h1.328v4.366c0 .923.497 1.319 1.15 1.319.654 0 1.152-.385 1.152-1.319v-4.366h1.327v4.366c0 1.744-1.027 2.55-2.365 2.55-.861 0-1.535-.363-1.929-1.037-.393.674-1.07 1.038-1.928 1.038-1.337 0-2.363-.807-2.363-2.55zm11.036-.938c0-2.023 1.488-3.511 3.595-3.511s3.595 1.488 3.595 3.511c0 2.024-1.488 3.511-3.595 3.511s-3.595-1.487-3.595-3.51zm5.844 0c0-1.323-.909-2.283-2.251-2.283-1.343 0-2.252.96-2.252 2.283s.909 2.293 2.252 2.293c1.342 0 2.251-.973 2.251-2.293zm4.109-3.428h1.345v5.633H84.9v1.24h-4.94v-6.873zm7.495 0h4.98v1.25H88.8v1.513h3.028v1.22H88.8v2.889h-1.345v-6.872zm7.565 0h4.981v1.25h-3.636v1.513h3.028v1.22h-3.028v2.889H95.02v-6.872z" fill="white"/><path d="M199.749 49.33h.009c.09-16.8 8.54-31.61 21.4-40.52-8-5.54-17.7-8.809-28.17-8.809-27.299 0-49.429 22.059-49.569 49.329h-.01v87.469l42.82.001V49.57c0-3.708 3.052-6.76 6.76-6.76 3.705 0 6.755 3.045 6.76 6.75v-.23z" transform="scale(.2261)" fill="url(#a)"/><path d="M298.888 49.33C298.748 22.07 276.618 0 249.318 0s-49.43 22.06-49.57 49.33h-.009v87.469h42.819V49.56c0-2.62 1.44-5.12 3.85-6.14 4.93-2.08 9.67 1.48 9.67 6.15v87.219h42.819V49.32h-.009v.01z" transform="scale(.2261)" fill="url(#b)"/><defs><linearGradient id="a" x1="0" y1="0" x2="1" y2="0" gradientUnits="userSpaceOnUse" gradientTransform="matrix(53.9998 13 -13 53.9998 143.849 61.19)"><stop offset="0" stop-color="rgb(255,44,164)"/><stop offset=".25" stop-color="rgb(255,33,157)"/><stop offset=".68" stop-color="rgb(255,2,140)"/><stop offset="1" stop-color="rgb(255,0,139)"/></linearGradient><linearGradient id="b" x1="0" y1="0" x2="1" y2="0" gradientUnits="userSpaceOnUse" gradientTransform="translate(202.848 68.19) scale(96.9992)"><stop offset="0" stop-color="rgb(55,212,255)"/><stop offset=".15" stop-color="rgb(49,217,236)"/><stop offset=".43" stop-color="rgb(34,228,188)"/><stop offset=".84" stop-color="rgb(10,247,112)"/><stop offset="1" stop-color="rgb(0,255,79)"/></linearGradient></defs></svg>