<svg width="956" height="778" fill="none" xmlns="http://www.w3.org/2000/svg"><g filter="url(#a)"><path d="M223.18 298.207c-51.941-28.023-.607-51.417 31.552-59.611 25.687 2.459 87.983.246 131.671-28.268 54.61-35.644 124.649 37.016 161.056 113.833 36.407 76.818 55.692 204.383-43.213 245.557-98.905 41.174-203.307-103.587-236.416-150.907-54.042-77.237 20.275-85.576-44.65-120.604z" fill="#00F0FF" fill-opacity=".3"/><path d="M223.18 298.207c-51.941-28.023-.607-51.417 31.552-59.611 25.687 2.459 87.983.246 131.671-28.268 54.61-35.644 124.649 37.016 161.056 113.833 36.407 76.818 55.692 204.383-43.213 245.557-98.905 41.174-203.307-103.587-236.416-150.907-54.042-77.237 20.275-85.576-44.65-120.604z" fill="#000" fill-opacity=".2"/><path d="M223.18 298.207c-51.941-28.023-.607-51.417 31.552-59.611 25.687 2.459 87.983.246 131.671-28.268 54.61-35.644 124.649 37.016 161.056 113.833 36.407 76.818 55.692 204.383-43.213 245.557-98.905 41.174-203.307-103.587-236.416-150.907-54.042-77.237 20.275-85.576-44.65-120.604z" stroke="#000"/></g><g filter="url(#b)"><path d="M387.662 330.877c-60.095-27.479-.702-50.417 36.505-58.452 29.72 2.41 101.796.241 152.342-27.72 63.183-34.95 127.069 56.042 169.191 131.367 42.122 75.324-65.992 119.314-180.423 159.688-114.432 40.374 33.697-166.92-69.502-131.366-103.199 35.553-32.996-39.169-108.113-73.517z" fill="#8F00FF" fill-opacity=".3"/><path d="M387.662 330.877c-60.095-27.479-.702-50.417 36.505-58.452 29.72 2.41 101.796.241 152.342-27.72 63.183-34.95 127.069 56.042 169.191 131.367 42.122 75.324-65.992 119.314-180.423 159.688-114.432 40.374 33.697-166.92-69.502-131.366-103.199 35.553-32.996-39.169-108.113-73.517z" fill="#000" fill-opacity=".2"/><path d="M387.662 330.877c-60.095-27.479-.702-50.417 36.505-58.452 29.72 2.41 101.796.241 152.342-27.72 63.183-34.95 127.069 56.042 169.191 131.367 42.122 75.324-65.992 119.314-180.423 159.688-114.432 40.374 33.697-166.92-69.502-131.366-103.199 35.553-32.996-39.169-108.113-73.517z" stroke="#000"/></g><defs><filter id="a" x=".499" y=".498" width="777.001" height="777.003" filterUnits="userSpaceOnUse" color-interpolation-filters="sRGB"><feFlood flood-opacity="0" result="BackgroundImageFix"/><feBlend in="SourceGraphic" in2="BackgroundImageFix" result="shape"/><feGaussianBlur stdDeviation="100" result="effect1_foregroundBlur_125_157"/></filter><filter id="b" x="161.498" y="36.5" width="794.002" height="705" filterUnits="userSpaceOnUse" color-interpolation-filters="sRGB"><feFlood flood-opacity="0" result="BackgroundImageFix"/><feBlend in="SourceGraphic" in2="BackgroundImageFix" result="shape"/><feGaussianBlur stdDeviation="100" result="effect1_foregroundBlur_125_157"/></filter></defs></svg>