<svg width="899" height="891" fill="none" xmlns="http://www.w3.org/2000/svg"><g filter="url(#a)"><path d="M230.317 327.42c-68.655-36.444-.802-66.868 41.707-77.525 33.953 3.197 116.296.32 174.044-36.764 72.184-46.355 164.761 48.141 212.884 148.044 48.123 99.904 73.614 265.806-57.119 319.355-130.734 53.548-268.732-134.719-312.497-196.26-71.433-100.449 26.8-111.294-59.019-156.85z" fill="#00F0FF" fill-opacity=".3"/><path d="M230.317 327.42c-68.655-36.444-.802-66.868 41.707-77.525 33.953 3.197 116.296.32 174.044-36.764 72.184-46.355 164.761 48.141 212.884 148.044 48.123 99.904 73.614 265.806-57.119 319.355-130.734 53.548-268.732-134.719-312.497-196.26-71.433-100.449 26.8-111.294-59.019-156.85z" fill="#000" fill-opacity=".2"/><path d="M230.317 327.42c-68.655-36.444-.802-66.868 41.707-77.525 33.953 3.197 116.296.32 174.044-36.764 72.184-46.355 164.761 48.141 212.884 148.044 48.123 99.904 73.614 265.806-57.119 319.355-130.734 53.548-268.732-134.719-312.497-196.26-71.433-100.449 26.8-111.294-59.019-156.85z" stroke="#000"/></g><defs><filter id="a" x=".499" y=".498" width="898.001" height="890.003" filterUnits="userSpaceOnUse" color-interpolation-filters="sRGB"><feFlood flood-opacity="0" result="BackgroundImageFix"/><feBlend in="SourceGraphic" in2="BackgroundImageFix" result="shape"/><feGaussianBlur stdDeviation="100" result="effect1_foregroundBlur_103_332"/></filter></defs></svg>