<svg width="1004" height="944" fill="none" xmlns="http://www.w3.org/2000/svg"><g filter="url(#a)"><path d="M240.309 368.372c-92.053-48.991-1.076-89.888 55.919-104.213 45.525 4.297 155.931.43 233.359-49.421 96.784-62.313 194.644 99.916 259.167 234.212 64.523 134.296-101.086 212.724-276.373 284.707-175.288 71.982 51.618-297.6-106.463-234.212-158.081 63.388-50.544-69.834-165.609-131.073z" fill="#8F00FF" fill-opacity=".3"/><path d="M240.309 368.372c-92.053-48.991-1.076-89.888 55.919-104.213 45.525 4.297 155.931.43 233.359-49.421 96.784-62.313 194.644 99.916 259.167 234.212 64.523 134.296-101.086 212.724-276.373 284.707-175.288 71.982 51.618-297.6-106.463-234.212-158.081 63.388-50.544-69.834-165.609-131.073z" fill="#000" fill-opacity=".2"/><path d="M240.309 368.372c-92.053-48.991-1.076-89.888 55.919-104.213 45.525 4.297 155.931.43 233.359-49.421 96.784-62.313 194.644 99.916 259.167 234.212 64.523 134.296-101.086 212.724-276.373 284.707-175.288 71.982 51.618-297.6-106.463-234.212-158.081 63.388-50.544-69.834-165.609-131.073z" stroke="#000"/></g><defs><filter id="a" x=".499" y=".5" width="1003" height="943" filterUnits="userSpaceOnUse" color-interpolation-filters="sRGB"><feFlood flood-opacity="0" result="BackgroundImageFix"/><feBlend in="SourceGraphic" in2="BackgroundImageFix" result="shape"/><feGaussianBlur stdDeviation="100" result="effect1_foregroundBlur_103_331"/></filter></defs></svg>