<svg width="1477" height="1526" fill="none" xmlns="http://www.w3.org/2000/svg"><g filter="url(#a)"><path d="M524.577 750.15c-77.269-46.88 56.063-166.849 103.905-180.556 47.841-13.708 133.717-97.541 203.323-58.166 47.84 27.063 10.873 110.213 65.033 238.722 54.161 128.508 147.132 86.631 0 155.512-147.136 68.88-114.41 143.428-197.717 111.888-257.144-97.347-77.958-208.801-174.544-267.4z" fill="#06F" fill-opacity=".5"/><path d="M524.577 750.15c-77.269-46.88 56.063-166.849 103.905-180.556 47.841-13.708 133.717-97.541 203.323-58.166 47.84 27.063 10.873 110.213 65.033 238.722 54.161 128.508 147.132 86.631 0 155.512-147.136 68.88-114.41 143.428-197.717 111.888-257.144-97.347-77.958-208.801-174.544-267.4z" fill="#000" fill-opacity=".2"/><path d="M524.577 750.15c-77.269-46.88 56.063-166.849 103.905-180.556 47.841-13.708 133.717-97.541 203.323-58.166 47.84 27.063 10.873 110.213 65.033 238.722 54.161 128.508 147.132 86.631 0 155.512-147.136 68.88-114.41 143.428-197.717 111.888-257.144-97.347-77.958-208.801-174.544-267.4z" stroke="#000"/></g><defs><filter id="a" x=".5" y=".5" width="1476" height="1525" filterUnits="userSpaceOnUse" color-interpolation-filters="sRGB"><feFlood flood-opacity="0" result="BackgroundImageFix"/><feBlend in="SourceGraphic" in2="BackgroundImageFix" result="shape"/><feGaussianBlur stdDeviation="250" result="effect1_foregroundBlur_123_154"/></filter></defs></svg>