<svg viewBox="0 0 30 26" xmlns="http://www.w3.org/2000/svg" fill-rule="evenodd" clip-rule="evenodd" stroke-linejoin="round" stroke-miterlimit="2"><path d="M25.286 17.707a.836.836 0 00.418-.72l.015-4.823a.836.836 0 01.418-.72l2.615-1.5a.827.827 0 01.415-.112c.457 0 .833.376.833.833v8.768c0 .298-.16.574-.418.722l-9.866 5.667a.837.837 0 01-.829.001l-7.742-4.429a.834.834 0 01-.42-.723v-4.42c0-.006.006-.009.011-.007.004.003.01 0 .01-.005v-.005c0-.004.001-.007.005-.009l6.376-3.663c.006-.003.004-.013-.003-.013a.006.006 0 01-.006-.006l.012-4.334v-.004a.837.837 0 00-.833-.833.835.835 0 00-.417.112l-4.739 2.73a.83.83 0 01-.832 0L5.555 7.477a.837.837 0 00-1.249.722v7.834a.837.837 0 01-1.247.723L.421 15.248a.834.834 0 01-.42-.725L.024.831a.837.837 0 011.248-.72L10.31 5.3a.831.831 0 00.83 0l9.035-5.19a.837.837 0 011.248.723V14.53a.834.834 0 01-.417.722l-4.732 2.725a.835.835 0 00.004 1.446l2.61 1.486a.833.833 0 00.827-.002l5.571-3.199zm.547-12.285a.838.838 0 00.834.833.827.827 0 00.428-.119l2.5-1.5A.833.833 0 0030 3.922V.865a.833.833 0 00-1.262-.713l-2.5 1.5a.837.837 0 00-.405.714v3.057z" fill="rgb(0,127,255)"/></svg>