<svg viewBox="0 0 32 32" xmlns="http://www.w3.org/2000/svg" fill-rule="evenodd" clip-rule="evenodd" stroke-linecap="round"><path d="M8.391 5.423c-.241-.032-.455.025-.616.172-.642.589-1.39 1.348-1.946 1.912l-.444.448c-.374.374-.377.654-.331.839.058.233.229.435.351.545l.006.005 1.533 1.468a.5.5 0 11-.691.722L4.73 10.077c-.191-.174-.521-.537-.646-1.041-.139-.555-.005-1.189.594-1.788l.424-.429c.557-.564 1.334-1.353 1.998-1.961.419-.385.946-.488 1.419-.427.466.06.913.281 1.231.597.237.235.511.499.778.755l.042.041c.249.24.49.472.679.659a.5.5 0 01-.704.71 69.504 69.504 0 00-.672-.651l-.039-.038a75.992 75.992 0 01-.788-.766 1.175 1.175 0 00-.655-.315z" fill="rgb(102,102,102)"/><path d="M8.391 5.423c-.241-.032-.455.025-.616.172-.642.589-1.39 1.348-1.946 1.912l-.444.448c-.374.374-.377.654-.331.839.058.233.229.435.351.545l.006.005 1.533 1.468a.5.5 0 11-.691.722L4.73 10.077c-.191-.174-.521-.537-.646-1.041-.139-.555-.005-1.189.594-1.788l.424-.429c.557-.564 1.334-1.353 1.998-1.961.419-.385.946-.488 1.419-.427.466.06.913.281 1.231.597.237.235.511.499.778.755l.042.041c.249.24.49.472.679.659a.5.5 0 01-.704.71 69.504 69.504 0 00-.672-.651l-.039-.038a75.992 75.992 0 01-.788-.766 1.175 1.175 0 00-.655-.315z" fill="url(#a)"/><path d="M5.5 9.859s.148.157-.477-.476-.316-1.182 0-1.563c.344-.414 1.753-1.755 2.555-2.547.248-.244.969-.713 1.719-.085.433.363.663.61.871.808" fill="none" stroke="url(#b)" stroke-width="0.25px"/><path d="M25.701 24.694l.445-.448c.373-.374.376-.654.33-.84-.058-.232-.229-.434-.351-.544l-.006-.005-1.533-1.468a.5.5 0 01.692-.722l1.522 1.457c.192.174.521.537.647 1.041.138.555.005 1.189-.594 1.788l-.425.429a59.883 59.883 0 01-1.997 1.961c-.42.384-.946.488-1.42.427a2.18 2.18 0 01-1.231-.597c-.237-.235-.511-.499-.777-.756l-.042-.04c-.25-.24-.491-.472-.679-.659a.5.5 0 11.704-.71c.183.181.419.408.671.651l.039.038c.266.255.545.525.788.766.162.16.406.283.655.315.242.031.455-.025.616-.172a57.487 57.487 0 001.946-1.912z" fill="rgb(89,89,89)"/><path d="M25.797 21.594s.304.267.929.9c.625.632.379 1.267.063 1.648-.344.414-1.752 1.755-2.555 2.547a1.335 1.335 0 01-1.781 0c-.434-.363-.663-.611-.871-.809" fill="none" stroke="url(#c)" stroke-width="0.25px"/><circle cx="16.049" cy="15.763" r="11.487" fill="url(#d)"/><circle cx="16.05" cy="15.763" r="10.951" fill="url(#e)"/><circle cx="16.049" cy="15.763" r="8.951" fill="url(#f)"/><path d="M15.69 22.656c.764 0 1.532.445 2.234.227.718-.234 1.126-1.134 1.735-1.57.608-.437 1.461-.541 1.906-1.141.549-.742.362-1.787.596-2.504.226-.694.896-1.185.896-1.965 0-.764-.75-1.614-.977-2.308-.233-.717.036-1.461-.414-2.09-.514-.72-1.415-.806-2.023-1.242-.593-.437-.886-1.257-1.758-1.541-.872-.285-1.54.197-2.32.197-.764 0-1.283-.514-2.254-.197-.717.233-1.185 1.104-1.793 1.541-.608.436-1.45.533-1.895 1.133-.511.691-.277 1.555-.511 2.273-.226.694-.953 1.447-.953 2.226 0 .764.646 1.392.872 2.086.234.718 0 1.649.628 2.407.436.608 1.251.625 1.859 1.062.593.437 1.064 1.399 1.781 1.633.71.226 1.627-.227 2.391-.227z" fill="rgb(53,53,53)" fill-rule="nonzero"/><g fill-rule="nonzero"><path d="M13.703 22.883c.71.226 3.923.218 4.625 0 .718-.234 3.196-2.111 3.641-2.711.549-.742 1.492-3.689 1.492-4.469 0-.764-.941-3.769-1.391-4.398-.514-.72-2.909-2.499-3.781-2.783-.872-.285-3.603-.317-4.574 0-.717.233-3.243 2.074-3.688 2.674-.511.691-1.464 3.72-1.464 4.499 0 .764.872 3.735 1.5 4.493.436.608 2.923 2.461 3.64 2.695z" fill="url(#g)" transform="translate(-4.887 -4.994) scale(1.31696)"/><path d="M13.828 22.492c.671.214 3.711.207 4.375 0 .678-.221 3.022-1.996 3.443-2.564.519-.702 1.411-3.489 1.411-4.226 0-.723-.89-3.564-1.315-4.16-.486-.681-2.752-2.363-3.576-2.632-.825-.269-3.408-.299-4.326 0-.678.221-3.068 1.961-3.488 2.529-.484.654-1.386 3.518-1.386 4.256 0 .722.825 3.532 1.419 4.248.413.575 2.765 2.328 3.443 2.549z" fill="url(#h)" transform="translate(-4.887 -4.994) scale(1.31696)"/><path d="M16.911 12.433a.737.737 0 101.041-1.043.737.737 0 00-1.041 1.043zM10.216 17.667a.736.736 0 101.042-1.04.736.736 0 00-1.042 1.04zM18.18 20.61a.738.738 0 001.042 0 .736.736 0 10-1.042 0z" fill="rgb(179,109,49)" transform="translate(-4.887 -4.994) scale(1.31696)"/><path d="M17.138 12.316a.738.738 0 001.042 0 .736.736 0 10-1.042 0z" fill="rgb(201,67,62)" transform="translate(-4.887 -4.994) scale(1.31696)"/><path d="M17.138 12.316a.738.738 0 001.042 0 .736.736 0 10-1.042 0z" fill="url(#i)" transform="translate(-4.887 -4.994) scale(1.31696)"/><path d="M18.384 20.488a.736.736 0 101.043-1.042.736.736 0 00-1.043 1.042z" fill="rgb(201,67,62)" transform="translate(-4.887 -4.994) scale(1.31696)"/><path d="M18.384 20.488a.736.736 0 101.043-1.042.736.736 0 00-1.043 1.042z" fill="url(#j)" transform="translate(-4.887 -4.994) scale(1.31696)"/><path d="M10.4 17.581a.736.736 0 101.041-1.042.736.736 0 00-1.041 1.042z" fill="rgb(201,67,62)" transform="translate(-4.887 -4.994) scale(1.31696)"/><path d="M10.4 17.581a.736.736 0 101.041-1.042.736.736 0 00-1.041 1.042z" fill="url(#k)" transform="translate(-4.887 -4.994) scale(1.31696)"/><path d="M19.175 14.146a.663.663 0 01.594.729l-.257 2.522c-.038.365-.481.657-.847.62a.664.664 0 01-.594-.73l.257-2.521c.038-.366.481-.658.847-.62z" fill="rgb(157,123,48)" transform="translate(-4.887 -4.994) scale(1.31696)"/><path d="M19.343 14.044a.664.664 0 01.594.73l-.257 2.521a.666.666 0 01-1.324-.135l.257-2.522a.666.666 0 01.73-.594z" fill="url(#l)" transform="translate(-4.887 -4.994) scale(1.31696)"/><path d="M19.343 14.044a.664.664 0 01.594.73l-.257 2.521a.666.666 0 01-1.324-.135l.257-2.522a.666.666 0 01.73-.594z" fill="url(#m)" transform="translate(-4.887 -4.994) scale(1.31696)"/><path d="M15.227 12.018a.675.675 0 01-.423.857l-2.44.827a.676.676 0 01-.434-1.281l2.44-.826a.675.675 0 01.857.423z" fill="url(#n)" transform="translate(-4.887 -4.994) scale(1.31696)"/><path d="M15.251 12.06c.12.354-.093.691-.447.811l-3.187 1.051c-.353.12-.714-.023-.834-.377a.676.676 0 01.424-.857l3.187-1.051c.353-.12.737.07.857.423z" fill="url(#o)" transform="translate(-4.887 -4.994) scale(1.31696)"/><path d="M15.251 11.978c.12.354-.044.599-.397.719l-2.44.826c-.354.12-.81.104-.93-.25-.119-.353.16-.615.514-.735l2.44-.827c.353-.12.693-.086.813.267z" fill="rgb(162,121,50)" transform="translate(-4.887 -4.994) scale(1.31696)"/><path d="M15.505 11.901a.675.675 0 01-.423.857l-2.44.827a.676.676 0 01-.434-1.281l2.44-.826a.675.675 0 01.857.423z" fill="url(#p)" transform="translate(-4.887 -4.994) scale(1.31696)"/><path d="M15.505 11.901a.675.675 0 01-.423.857l-2.44.827a.676.676 0 01-.434-1.281l2.44-.826a.675.675 0 01.857.423z" fill="url(#q)" transform="translate(-4.887 -4.994) scale(1.31696)"/><path d="M15.505 11.901a.675.675 0 01-.423.857l-2.44.827a.676.676 0 01-.434-1.281l2.44-.826a.675.675 0 01.857.423z" fill="url(#r)" transform="translate(-4.887 -4.994) scale(1.31696)"/><path d="M15.035 12.044l-2.564.865" fill="none" stroke="url(#s)" stroke-width="0.25px" transform="translate(-4.887 -4.994) scale(1.31696)"/><path d="M15.802 20.536a.677.677 0 01-.956-.005l-1.813-1.83a.677.677 0 01.961-.952l1.813 1.83a.677.677 0 01-.005.957z" fill="rgb(160,122,52)" transform="translate(-4.887 -4.994) scale(1.31696)"/><path d="M16.081 20.361a.675.675 0 01-.956-.005l-1.812-1.83a.676.676 0 11.961-.952l1.812 1.831a.675.675 0 01-.005.956z" fill="url(#t)" transform="translate(-4.887 -4.994) scale(1.31696)"/><path d="M16.081 20.361a.675.675 0 01-.956-.005l-1.812-1.83a.676.676 0 11.961-.952l1.812 1.831a.675.675 0 01-.005.956z" fill="url(#u)" transform="translate(-4.887 -4.994) scale(1.31696)"/><path d="M19.594 14.625l-.313 2.688" fill="none" stroke="url(#v)" stroke-width="0.25px" transform="translate(-4.887 -4.994) scale(1.31696)"/><path d="M14.906 12.063l-2.672.906" fill="none" stroke="url(#w)" stroke-width="0.25px" transform="translate(-4.887 -4.994) scale(1.31696)"/><path d="M13.915 17.797l1.945 1.881" fill="none" stroke="url(#x)" stroke-width="0.25px" transform="translate(-4.887 -4.994) scale(1.31696)"/><path d="M11.731 13.122c-.104-.313.39-.813.39-.813-.094.75.477 1.3.477 1.3-.158.044-.763-.174-.867-.487z" fill="url(#y)" transform="translate(-4.887 -4.994) scale(1.31696)"/><path d="M13.296 17.58c.229-.237.902-.033.902-.033-1.05.133-.929 1.027-.929 1.027-.113-.119-.202-.756.027-.994z" fill="url(#z)" transform="translate(-4.887 -4.994) scale(1.31696)"/><path d="M18.915 17.866c-.328-.034-.58-.691-.58-.691.749.747 1.382.103 1.382.103-.025.162-.473.623-.802.588z" fill="url(#A)" transform="translate(-4.887 -4.994) scale(1.31696)"/><path d="M18.406 9c.547.25 2.718 1.882 3.141 2.406.328.407 1.031 3.313 1.391 3.719" fill="none" stroke="url(#B)" stroke-width="0.25px" transform="translate(-4.887 -4.994) scale(1.31696)"/></g><defs><linearGradient id="b" x1="0" y1="0" x2="1" y2="0" gradientUnits="userSpaceOnUse" gradientTransform="rotate(-46.192 12.736 -1.028) scale(6.01909)"><stop offset="0" stop-color="rgb(134,134,134)"/><stop offset=".28" stop-color="rgb(126,126,126)"/><stop offset=".83" stop-color="rgb(109,109,109)"/><stop offset="1" stop-color="rgb(134,134,134)"/></linearGradient><linearGradient id="c" x1="0" y1="0" x2="1" y2="0" gradientUnits="userSpaceOnUse" gradientTransform="scale(-6.019) rotate(-46.191 -6.73 3.366)"><stop offset="0" stop-color="rgb(134,134,134)"/><stop offset=".28" stop-color="rgb(126,126,126)"/><stop offset=".83" stop-color="rgb(109,109,109)"/><stop offset="1" stop-color="rgb(134,134,134)"/></linearGradient><linearGradient id="d" x1="0" y1="0" x2="1" y2="0" gradientUnits="userSpaceOnUse" gradientTransform="rotate(142.459 10.917 8.59) scale(22.712)"><stop offset="0" stop-color="rgb(154,154,154)"/><stop offset=".51" stop-color="rgb(97,97,97)"/><stop offset="1" stop-color="rgb(80,80,80)"/></linearGradient><linearGradient id="e" x1="0" y1="0" x2="1" y2="0" gradientUnits="userSpaceOnUse" gradientTransform="scale(-22.4292) rotate(-41.368 -1.073 1.292)"><stop offset="0" stop-color="rgb(121,121,121)"/><stop offset=".45" stop-color="rgb(175,175,175)"/><stop offset="1" stop-color="rgb(94,94,94)"/></linearGradient><linearGradient id="g" x1="0" y1="0" x2="1" y2="0" gradientUnits="userSpaceOnUse" gradientTransform="scale(-13.5742) rotate(-34.495 -2.151 2.137)"><stop offset="0" stop-color="rgb(198,148,59)"/><stop offset=".16" stop-color="rgb(223,169,48)"/><stop offset=".64" stop-color="rgb(244,197,46)"/><stop offset="1" stop-color="rgb(228,192,60)"/></linearGradient><linearGradient id="h" x1="0" y1="0" x2="1" y2="0" gradientUnits="userSpaceOnUse" gradientTransform="matrix(-10.3125 8.25 -8.25 -10.3125 21.063 11.563)"><stop offset="0" stop-color="rgb(249,185,63)"/><stop offset=".52" stop-color="rgb(255,217,65)"/><stop offset="1" stop-color="rgb(255,222,66)"/></linearGradient><linearGradient id="l" x1="0" y1="0" x2="1" y2="0" gradientUnits="userSpaceOnUse" gradientTransform="scale(-3.9503) rotate(-83.956 -4.446 .98)"><stop offset="0" stop-color="rgb(83,146,83)"/><stop offset="1" stop-color="rgb(114,171,66)"/></linearGradient><linearGradient id="n" x1="0" y1="0" x2="1" y2="0" gradientUnits="userSpaceOnUse" gradientTransform="rotate(164.511 7.233 6.993) scale(5.383)"><stop offset="0" stop-color="rgb(158,120,48)"/><stop offset=".79" stop-color="rgb(158,120,48)"/><stop offset="1" stop-color="rgb(158,120,48)" stop-opacity="0"/></linearGradient><linearGradient id="o" x1="0" y1="0" x2="1" y2="0" gradientUnits="userSpaceOnUse" gradientTransform="rotate(164.511 7.242 7.016) scale(5.3829)"><stop offset="0" stop-color="rgb(213,171,62)"/><stop offset=".79" stop-color="rgb(213,171,62)"/><stop offset="1" stop-color="rgb(211,171,62)" stop-opacity="0"/></linearGradient><linearGradient id="p" x1="0" y1="0" x2="1" y2="0" gradientUnits="userSpaceOnUse" gradientTransform="matrix(-3.8066 1.2743 -1.2743 -3.8066 15.636 12.086)"><stop offset="0" stop-color="rgb(83,146,83)"/><stop offset="1" stop-color="rgb(114,171,66)"/></linearGradient><linearGradient id="s" x1="0" y1="0" x2="1" y2="0" gradientUnits="userSpaceOnUse" gradientTransform="rotate(159.458 6.406 7.308) scale(2.7695)"><stop offset="0" stop-color="rgb(116,173,120)"/><stop offset="1" stop-color="rgb(185,242,112)"/></linearGradient><linearGradient id="t" x1="0" y1="0" x2="1" y2="0" gradientUnits="userSpaceOnUse" gradientTransform="rotate(-134.506 12.296 6.932) scale(4.0142)"><stop offset="0" stop-color="rgb(83,146,83)"/><stop offset="1" stop-color="rgb(114,171,66)"/></linearGradient><linearGradient id="v" x1="0" y1="0" x2="1" y2="0" gradientUnits="userSpaceOnUse" gradientTransform="rotate(90 2.406 17.031) scale(2.6875)"><stop offset="0" stop-color="rgb(137,209,142)"/><stop offset="1" stop-color="rgb(185,242,112)"/></linearGradient><linearGradient id="w" x1="0" y1="0" x2="1" y2="0" gradientUnits="userSpaceOnUse" gradientTransform="scale(-2.6876) rotate(-26.032 -12.337 9.74)"><stop offset="0" stop-color="rgb(103,179,91)"/><stop offset="1" stop-color="rgb(124,205,69)"/></linearGradient><linearGradient id="x" x1="0" y1="0" x2="1" y2="0" gradientUnits="userSpaceOnUse" gradientTransform="rotate(-133.523 12.147 6.437) scale(2.3144)"><stop offset="0" stop-color="rgb(137,209,142)"/><stop offset="1" stop-color="rgb(185,242,112)"/></linearGradient><linearGradient id="y" x1="0" y1="0" x2="1" y2="0" gradientUnits="userSpaceOnUse" gradientTransform="matrix(.7852 -.2023 .2023 .7852 11.813 13.164)"><stop offset="0" stop-color="rgb(107,145,52)"/><stop offset="1" stop-color="rgb(107,145,52)" stop-opacity="0"/></linearGradient><linearGradient id="z" x1="0" y1="0" x2="1" y2="0" gradientUnits="userSpaceOnUse" gradientTransform="rotate(47.803 -13.29 23.837) scale(.8108)"><stop offset="0" stop-color="rgb(121,165,59)"/><stop offset="1" stop-color="rgb(107,145,52)" stop-opacity="0"/></linearGradient><linearGradient id="A" x1="0" y1="0" x2="1" y2="0" gradientUnits="userSpaceOnUse" gradientTransform="rotate(-80.086 20.09 -2.392) scale(.8108)"><stop offset="0" stop-color="rgb(121,165,59)"/><stop offset="1" stop-color="rgb(107,145,52)" stop-opacity="0"/></linearGradient><linearGradient id="B" x1="0" y1="0" x2="1" y2="0" gradientUnits="userSpaceOnUse" gradientTransform="rotate(54.053 .381 22.541) scale(8.1448)"><stop offset="0" stop-color="rgb(248,192,91)" stop-opacity="0"/><stop offset=".19" stop-color="rgb(255,216,116)"/><stop offset=".45" stop-color="rgb(231,176,82)"/><stop offset=".73" stop-color="rgb(255,208,124)"/><stop offset="1" stop-color="rgb(245,191,95)" stop-opacity="0"/></linearGradient><radialGradient id="a" cx="0" cy="0" r="1" gradientUnits="userSpaceOnUse" gradientTransform="matrix(-3.17185 3.15627 -.77936 -.78321 8.297 8.281)"><stop offset="0" stop-color="rgb(63,55,73)"/><stop offset=".44" stop-color="rgb(51,45,59)"/><stop offset="1" stop-color="black" stop-opacity="0"/></radialGradient><radialGradient id="f" cx="0" cy="0" r="1" gradientUnits="userSpaceOnUse" gradientTransform="rotate(-3.391 281.167 -179.895) scale(16.81174)"><stop offset="0" stop-color="rgb(101,101,101)"/><stop offset=".47" stop-color="rgb(76,76,76)"/><stop offset="1" stop-color="rgb(28,28,28)"/></radialGradient><radialGradient id="i" cx="0" cy="0" r="1" gradientUnits="userSpaceOnUse" gradientTransform="matrix(-.3258 .8595 -.8595 -.3258 17.984 11.672)"><stop offset="0" stop-color="rgb(255,137,129)"/><stop offset=".47" stop-color="rgb(255,78,60)"/><stop offset="1" stop-color="rgb(198,69,61)"/></radialGradient><radialGradient id="j" cx="0" cy="0" r="1" gradientUnits="userSpaceOnUse" gradientTransform="matrix(-.3258 .8595 -.8595 -.3258 19.23 19.844)"><stop offset="0" stop-color="rgb(255,137,129)"/><stop offset=".47" stop-color="rgb(255,78,60)"/><stop offset="1" stop-color="rgb(198,69,61)"/></radialGradient><radialGradient id="k" cx="0" cy="0" r="1" gradientUnits="userSpaceOnUse" gradientTransform="matrix(-.3258 .8595 -.8595 -.3258 11.246 16.938)"><stop offset="0" stop-color="rgb(255,137,129)"/><stop offset=".47" stop-color="rgb(255,78,60)"/><stop offset="1" stop-color="rgb(198,69,61)"/></radialGradient><radialGradient id="m" cx="0" cy="0" r="1" gradientUnits="userSpaceOnUse" gradientTransform="matrix(-.19713 2.625 -1.08146 -.08122 19.344 17.5)"><stop offset="0" stop-color="rgb(144,228,60)"/><stop offset="1" stop-color="rgb(150,232,57)" stop-opacity="0"/></radialGradient><radialGradient id="q" cx="0" cy="0" r="1" gradientUnits="userSpaceOnUse" gradientTransform="matrix(-2.46606 .7791 -.32098 -1.01598 12.331 12.738)"><stop offset="0" stop-color="rgb(144,228,60)"/><stop offset="1" stop-color="rgb(150,232,57)" stop-opacity="0"/></radialGradient><radialGradient id="r" cx="0" cy="0" r="1" gradientUnits="userSpaceOnUse" gradientTransform="matrix(-.29688 .14062 -.12991 -.27426 15.094 12.055)"><stop offset="0" stop-color="rgb(138,210,145)"/><stop offset="1" stop-color="rgb(136,207,144)" stop-opacity="0"/></radialGradient><radialGradient id="u" cx="0" cy="0" r="1" gradientUnits="userSpaceOnUse" gradientTransform="matrix(-1.78124 -1.87501 .77248 -.73385 13.938 17.875)"><stop offset="0" stop-color="rgb(144,228,60)"/><stop offset="1" stop-color="rgb(150,232,57)" stop-opacity="0"/></radialGradient></defs></svg>