<?xml version="1.0" encoding="UTF-8" standalone="no"?><!DOCTYPE svg PUBLIC "-//W3C//DTD SVG 1.1//EN" "http://www.w3.org/Graphics/SVG/1.1/DTD/svg11.dtd"><svg width="100%" height="100%" viewBox="0 0 32 32" version="1.1" xmlns="http://www.w3.org/2000/svg" xmlns:xlink="http://www.w3.org/1999/xlink" xml:space="preserve" xmlns:serif="http://www.serif.com/" style="fill-rule:evenodd;clip-rule:evenodd;stroke-miterlimit:10;"><path d="M22.05,30l-12.1,0c-3.29,0 -5.95,-2.66 -5.95,-5.95l-0,-12.02c-0,-3.33 2.7,-6.03 6.03,-6.03l11.95,-0c3.32,-0 6.02,2.7 6.02,6.03l-0,12.03c-0,3.28 -2.66,5.94 -5.95,5.94Z" style="fill:url(#_Radial1);fill-rule:nonzero;"/><path d="M4,12c0,-3.314 2.686,-6 6,-6l2,0l0,24l-2,0c-3.314,0 -6,-2.686 -6,-6l0,-12Z" style="fill:url(#_Linear2);fill-rule:nonzero;"/><path d="M4,24l24,0c0,3.314 -2.686,6 -6,6l-12,0c-3.314,0 -6,-2.686 -6,-6Z" style="fill:url(#_Linear3);fill-rule:nonzero;"/><path d="M20,6l2,0c3.314,0 6,2.686 6,6l0,12c0,3.314 -2.686,6 -6,6l-2,0l0,-24Z" style="fill:url(#_Radial4);fill-rule:nonzero;"/><path d="M3.5,3.95l0,9.1" style="fill:none;fill-rule:nonzero;stroke:url(#_Linear5);stroke-width:1px;"/><path d="M4,12l0,11c-1.1,0 -2,-0.899 -2,-1.998l0,-7.004c0,-1.099 0.9,-1.998 2,-1.998Z" style="fill:url(#_Linear6);fill-rule:nonzero;"/><path d="M11.648,23.389c0,0 1.402,2 4.672,2c3.27,0 4.672,-2 4.672,-2" style="fill:none;fill-rule:nonzero;stroke:url(#_Radial7);stroke-width:2px;stroke-linecap:round;stroke-linejoin:round;stroke-miterlimit:4;"/><path d="M3.5,5c0.828,0 1.5,-0.672 1.5,-1.5c0,-0.828 -0.672,-1.5 -1.5,-1.5c-0.828,0 -1.5,0.672 -1.5,1.5c0,0.828 0.672,1.5 1.5,1.5Z" style="fill:url(#_Radial8);fill-rule:nonzero;"/><path d="M28.5,4l0,9.09" style="fill:none;fill-rule:nonzero;stroke:url(#_Linear9);stroke-width:1px;"/><path d="M28.5,5.1c0.856,-0 1.55,-0.694 1.55,-1.55c0,-0.856 -0.694,-1.55 -1.55,-1.55c-0.856,-0 -1.55,0.694 -1.55,1.55c0,0.856 0.694,1.55 1.55,1.55Z" style="fill:url(#_Radial10);fill-rule:nonzero;"/><path d="M21,4.5c0,-0.828 -0.672,-1.5 -1.5,-1.5l-7,0c-0.828,0 -1.5,0.672 -1.5,1.5c0,0.828 0.672,1.5 1.5,1.5l7,0c0.828,0 1.5,-0.672 1.5,-1.5Z" style="fill:url(#_Linear11);"/><path d="M21,4.5c0,-0.828 -0.672,-1.5 -1.5,-1.5l-7,0c-0.828,0 -1.5,0.672 -1.5,1.5c0,0.828 0.672,1.5 1.5,1.5l7,0c0.828,0 1.5,-0.672 1.5,-1.5Z" style="fill:url(#_Radial12);"/><path d="M28,22.94l0,-11.01c1.1,0 2,0.9 2,2l0,7.01c0,1.1 -0.9,2 -2,2Z" style="fill:url(#_Linear13);fill-rule:nonzero;"/><g><path d="M3.625,5l0,6" style="fill:none;fill-rule:nonzero;stroke:url(#_Linear14);stroke-width:0.25px;stroke-miterlimit:4;"/></g><g><path d="M28.625,5l0,6" style="fill:none;fill-rule:nonzero;stroke:url(#_Linear15);stroke-width:0.25px;stroke-miterlimit:4;"/></g><ellipse cx="29" cy="13.5" rx="1" ry="1.5" style="fill:url(#_Radial16);"/><ellipse cx="29" cy="16.5" rx="1" ry="4.5" style="fill:url(#_Radial17);"/><path d="M19.776,3.025c0.607,0.113 1.086,0.592 1.199,1.199c-0.102,0.445 -0.5,0.776 -0.975,0.776c-0.552,0 -1,-0.448 -1,-1c0,-0.475 0.331,-0.873 0.776,-0.975Z" style="fill:url(#_Radial18);"/><g><path d="M13.352,10.81c0.456,0.182 0.848,0.462 1.158,0.815c0.203,0.231 0.489,0.386 0.797,0.374c0.418,-0.017 0.884,-0.02 1.38,0.002c0.309,0.014 0.598,-0.141 0.802,-0.374c0.31,-0.354 0.702,-0.635 1.159,-0.817c0.167,-0.071 0.454,-0.177 1.166,-0.31c0.43,-0.08 1.455,-0.125 2.146,-0.14c0.714,-0.016 1.481,-0.016 2.055,-0.015l0.26,-0c0.983,-0 1.954,0.31 2.338,0.542c0.866,0.44 1.667,1.279 1.725,2.725c0.002,0.021 0.003,0.043 0.004,0.065c0.068,2.223 -1.312,5.402 -4.831,6.273c-0.248,0.062 -0.491,0.106 -0.735,0.14c-0.011,0.001 -0.023,0.003 -0.035,0.004c-3.561,0.333 -5.912,-2.675 -6.028,-5.949c-0.009,-0.27 -0.217,-0.499 -0.487,-0.504c-0.155,-0.002 -0.305,-0.002 -0.449,-0.001c-0.271,0.004 -0.48,0.233 -0.49,0.505c-0.115,3.273 -2.468,6.282 -6.028,5.949c-0.012,-0.001 -0.024,-0.003 -0.035,-0.004c-0.244,-0.034 -0.487,-0.078 -0.735,-0.14c-3.519,-0.871 -4.899,-4.05 -4.831,-6.273c0.001,-0.022 0.002,-0.044 0.005,-0.065c0.057,-1.446 0.858,-2.285 1.724,-2.725c0.384,-0.232 1.355,-0.542 2.338,-0.542l0.26,-0c0.574,-0.001 1.341,-0.001 2.055,0.015c0.691,0.015 1.716,0.06 2.146,0.14c0.712,0.133 0.999,0.239 1.166,0.31Zm-8.522,2.066c0.206,-0.503 0.59,-0.915 1.106,-1.226c0.29,-0.175 0.992,-0.478 1.789,-0.478l0.257,-0.001c1.152,-0 3.038,-0.002 3.745,0.13c0.685,0.128 0.906,0.221 1.001,0.261c0.388,0.153 0.727,0.405 0.985,0.724l0.282,1.5c0.068,-0.012 0.151,-0.026 0.248,-0.039c-0,0.013 0,0.027 0,0.041l-0,0.026c0.148,3.481 -2.503,5.58 -4.984,5.348c-0.219,-0.031 -0.433,-0.07 -0.648,-0.123c-2.613,-0.647 -3.71,-2.706 -3.919,-4.528c-0.032,-0.28 -0.043,-0.555 -0.036,-0.819l0.001,-0.007l0.001,-0l0.001,-0.008c0.011,-0.288 0.07,-0.556 0.171,-0.801Zm12.927,0.876c0,0.012 -0,0.024 -0,0.036l0,0.026c-0.148,3.481 2.503,5.58 4.984,5.348c0.219,-0.031 0.433,-0.07 0.648,-0.123c2.613,-0.647 3.71,-2.706 3.919,-4.528c0.032,-0.28 0.043,-0.555 0.036,-0.819l-0.001,-0.007l-0.001,-0l-0.001,-0.008c-0.011,-0.288 -0.07,-0.556 -0.171,-0.801c-0.206,-0.503 -0.59,-0.915 -1.106,-1.226c-0.29,-0.175 -0.992,-0.478 -1.789,-0.478l-0.257,-0.001c-1.152,-0 -3.038,-0.002 -3.745,0.13c-0.685,0.128 -0.906,0.221 -1.001,0.261c-0.403,0.159 -0.753,0.424 -1.014,0.761l-0.226,1.468c-0.092,-0.014 -0.184,-0.027 -0.275,-0.039Z" style="fill:url(#_Radial19);"/><path d="M13.352,10.81c0.456,0.182 0.848,0.462 1.158,0.815c0.203,0.231 0.489,0.386 0.797,0.374c0.418,-0.017 0.884,-0.02 1.38,0.002c0.309,0.014 0.598,-0.141 0.802,-0.374c0.31,-0.354 0.702,-0.635 1.159,-0.817c0.167,-0.071 0.454,-0.177 1.166,-0.31c0.43,-0.08 1.455,-0.125 2.146,-0.14c0.714,-0.016 1.481,-0.016 2.055,-0.015l0.26,-0c0.983,-0 1.954,0.31 2.338,0.542c0.866,0.44 1.667,1.279 1.725,2.725c0.002,0.021 0.003,0.043 0.004,0.065c0.068,2.223 -1.312,5.402 -4.831,6.273c-0.248,0.062 -0.491,0.106 -0.735,0.14c-0.011,0.001 -0.023,0.003 -0.035,0.004c-3.561,0.333 -5.912,-2.675 -6.028,-5.949c-0.009,-0.27 -0.217,-0.499 -0.487,-0.504c-0.155,-0.002 -0.305,-0.002 -0.449,-0.001c-0.271,0.004 -0.48,0.233 -0.49,0.505c-0.115,3.273 -2.468,6.282 -6.028,5.949c-0.012,-0.001 -0.024,-0.003 -0.035,-0.004c-0.244,-0.034 -0.487,-0.078 -0.735,-0.14c-3.519,-0.871 -4.899,-4.05 -4.831,-6.273c0.001,-0.022 0.002,-0.044 0.005,-0.065c0.057,-1.446 0.858,-2.285 1.724,-2.725c0.384,-0.232 1.355,-0.542 2.338,-0.542l0.26,-0c0.574,-0.001 1.341,-0.001 2.055,0.015c0.691,0.015 1.716,0.06 2.146,0.14c0.712,0.133 0.999,0.239 1.166,0.31Zm-8.522,2.066c0.206,-0.503 0.59,-0.915 1.106,-1.226c0.29,-0.175 0.992,-0.478 1.789,-0.478l0.257,-0.001c1.152,-0 3.038,-0.002 3.745,0.13c0.685,0.128 0.906,0.221 1.001,0.261c0.388,0.153 0.727,0.405 0.985,0.724l0.282,1.5c0.068,-0.012 0.151,-0.026 0.248,-0.039c-0,0.013 0,0.027 0,0.041l-0,0.026c0.148,3.481 -2.503,5.58 -4.984,5.348c-0.219,-0.031 -0.433,-0.07 -0.648,-0.123c-2.613,-0.647 -3.71,-2.706 -3.919,-4.528c-0.032,-0.28 -0.043,-0.555 -0.036,-0.819l0.001,-0.007l0.001,-0l0.001,-0.008c0.011,-0.288 0.07,-0.556 0.171,-0.801Zm12.927,0.876c0,0.012 -0,0.024 -0,0.036l0,0.026c-0.148,3.481 2.503,5.58 4.984,5.348c0.219,-0.031 0.433,-0.07 0.648,-0.123c2.613,-0.647 3.71,-2.706 3.919,-4.528c0.032,-0.28 0.043,-0.555 0.036,-0.819l-0.001,-0.007l-0.001,-0l-0.001,-0.008c-0.011,-0.288 -0.07,-0.556 -0.171,-0.801c-0.206,-0.503 -0.59,-0.915 -1.106,-1.226c-0.29,-0.175 -0.992,-0.478 -1.789,-0.478l-0.257,-0.001c-1.152,-0 -3.038,-0.002 -3.745,0.13c-0.685,0.128 -0.906,0.221 -1.001,0.261c-0.403,0.159 -0.753,0.424 -1.014,0.761l-0.226,1.468c-0.092,-0.014 -0.184,-0.027 -0.275,-0.039Z" style="fill:url(#_Radial20);"/><path d="M13.352,10.81c0.456,0.182 0.848,0.462 1.158,0.815c0.203,0.231 0.489,0.386 0.797,0.374c0.418,-0.017 0.884,-0.02 1.38,0.002c0.309,0.014 0.598,-0.141 0.802,-0.374c0.31,-0.354 0.702,-0.635 1.159,-0.817c0.167,-0.071 0.454,-0.177 1.166,-0.31c0.43,-0.08 1.455,-0.125 2.146,-0.14c0.714,-0.016 1.481,-0.016 2.055,-0.015l0.26,-0c0.983,-0 1.954,0.31 2.338,0.542c0.866,0.44 1.667,1.279 1.725,2.725c0.002,0.021 0.003,0.043 0.004,0.065c0.068,2.223 -1.312,5.402 -4.831,6.273c-0.248,0.062 -0.491,0.106 -0.735,0.14c-0.011,0.001 -0.023,0.003 -0.035,0.004c-3.561,0.333 -5.912,-2.675 -6.028,-5.949c-0.009,-0.27 -0.217,-0.499 -0.487,-0.504c-0.155,-0.002 -0.305,-0.002 -0.449,-0.001c-0.271,0.004 -0.48,0.233 -0.49,0.505c-0.115,3.273 -2.468,6.282 -6.028,5.949c-0.012,-0.001 -0.024,-0.003 -0.035,-0.004c-0.244,-0.034 -0.487,-0.078 -0.735,-0.14c-3.519,-0.871 -4.899,-4.05 -4.831,-6.273c0.001,-0.022 0.002,-0.044 0.005,-0.065c0.057,-1.446 0.858,-2.285 1.724,-2.725c0.384,-0.232 1.355,-0.542 2.338,-0.542l0.26,-0c0.574,-0.001 1.341,-0.001 2.055,0.015c0.691,0.015 1.716,0.06 2.146,0.14c0.712,0.133 0.999,0.239 1.166,0.31Zm-8.522,2.066c0.206,-0.503 0.59,-0.915 1.106,-1.226c0.29,-0.175 0.992,-0.478 1.789,-0.478l0.257,-0.001c1.152,-0 3.038,-0.002 3.745,0.13c0.685,0.128 0.906,0.221 1.001,0.261c0.388,0.153 0.727,0.405 0.985,0.724l0.282,1.5c0.068,-0.012 0.151,-0.026 0.248,-0.039c-0,0.013 0,0.027 0,0.041l-0,0.026c0.148,3.481 -2.503,5.58 -4.984,5.348c-0.219,-0.031 -0.433,-0.07 -0.648,-0.123c-2.613,-0.647 -3.71,-2.706 -3.919,-4.528c-0.032,-0.28 -0.043,-0.555 -0.036,-0.819l0.001,-0.007l0.001,-0l0.001,-0.008c0.011,-0.288 0.07,-0.556 0.171,-0.801Zm12.927,0.876c0,0.012 -0,0.024 -0,0.036l0,0.026c-0.148,3.481 2.503,5.58 4.984,5.348c0.219,-0.031 0.433,-0.07 0.648,-0.123c2.613,-0.647 3.71,-2.706 3.919,-4.528c0.032,-0.28 0.043,-0.555 0.036,-0.819l-0.001,-0.007l-0.001,-0l-0.001,-0.008c-0.011,-0.288 -0.07,-0.556 -0.171,-0.801c-0.206,-0.503 -0.59,-0.915 -1.106,-1.226c-0.29,-0.175 -0.992,-0.478 -1.789,-0.478l-0.257,-0.001c-1.152,-0 -3.038,-0.002 -3.745,0.13c-0.685,0.128 -0.906,0.221 -1.001,0.261c-0.403,0.159 -0.753,0.424 -1.014,0.761l-0.226,1.468c-0.092,-0.014 -0.184,-0.027 -0.275,-0.039Z" style="fill:url(#_Radial21);"/><path d="M5.936,11.65c0.29,-0.175 0.992,-0.478 1.789,-0.478c0.081,-0 0.167,-0 0.257,-0.001c1.152,-0 3.038,-0.002 3.745,0.13c0.685,0.128 0.906,0.221 1.001,0.261c0.887,0.35 1.515,1.215 1.515,2.226l-0,0.026c0.148,3.481 -2.503,5.58 -4.984,5.348c-0.219,-0.031 -0.433,-0.07 -0.648,-0.123c-3.02,-0.748 -4.015,-3.38 -3.954,-5.354l0.001,-0c0.033,-0.883 0.508,-1.57 1.278,-2.035Z" style="fill:url(#_Radial22);fill-rule:nonzero;"/><path d="M5.936,11.65c0.29,-0.175 0.992,-0.478 1.789,-0.478c0.081,-0 0.167,-0 0.257,-0.001c1.152,-0 3.038,-0.002 3.745,0.13c0.685,0.128 0.906,0.221 1.001,0.261c0.887,0.35 1.515,1.215 1.515,2.226l-0,0.026c0.148,3.481 -2.503,5.58 -4.984,5.348c-0.219,-0.031 -0.433,-0.07 -0.648,-0.123c-3.02,-0.748 -4.015,-3.38 -3.954,-5.354l0.001,-0c0.033,-0.883 0.508,-1.57 1.278,-2.035Z" style="fill:url(#_Radial23);fill-rule:nonzero;"/><path d="M5.936,11.65c0.29,-0.175 0.992,-0.478 1.789,-0.478c0.081,-0 0.167,-0 0.257,-0.001c1.152,-0 3.038,-0.002 3.745,0.13c0.685,0.128 0.906,0.221 1.001,0.261c0.887,0.35 1.515,1.215 1.515,2.226l-0,0.026c0.148,3.481 -2.503,5.58 -4.984,5.348c-0.219,-0.031 -0.433,-0.07 -0.648,-0.123c-3.02,-0.748 -4.015,-3.38 -3.954,-5.354l0.001,-0c0.033,-0.883 0.508,-1.57 1.278,-2.035Z" style="fill:url(#_Radial24);fill-rule:nonzero;"/><path d="M5.936,11.65c0.29,-0.175 0.992,-0.478 1.789,-0.478c0.081,-0 0.167,-0 0.257,-0.001c1.152,-0 3.038,-0.002 3.745,0.13c0.685,0.128 0.906,0.221 1.001,0.261c0.887,0.35 1.515,1.215 1.515,2.226l-0,0.026c0.148,3.481 -2.503,5.58 -4.984,5.348c-0.219,-0.031 -0.433,-0.07 -0.648,-0.123c-3.02,-0.748 -4.015,-3.38 -3.954,-5.354l0.001,-0c0.033,-0.883 0.508,-1.57 1.278,-2.035Z" style="fill:url(#_Radial25);fill-rule:nonzero;"/><path d="M11.302,12.287c0.614,-0.298 1.416,0.087 1.79,0.858c0.375,0.772 0.181,1.64 -0.433,1.937c-0.613,0.298 -1.415,-0.087 -1.79,-0.858c-0.374,-0.772 -0.18,-1.64 0.433,-1.937Z" style="fill:url(#_Linear26);"/><path d="M26.064,11.65c-0.29,-0.175 -0.992,-0.478 -1.789,-0.478c-0.081,-0 -0.167,-0 -0.257,-0.001c-1.152,-0 -3.038,-0.002 -3.745,0.13c-0.685,0.128 -0.906,0.221 -1.001,0.261c-0.887,0.35 -1.515,1.215 -1.515,2.226l0,0.026c-0.148,3.481 2.503,5.58 4.984,5.348c0.219,-0.031 0.433,-0.07 0.648,-0.123c3.02,-0.748 4.015,-3.38 3.954,-5.354l-0.001,-0c-0.033,-0.883 -0.508,-1.57 -1.278,-2.035Z" style="fill:url(#_Radial27);fill-rule:nonzero;"/><path d="M26.064,11.65c-0.29,-0.175 -0.992,-0.478 -1.789,-0.478c-0.081,-0 -0.167,-0 -0.257,-0.001c-1.152,-0 -3.038,-0.002 -3.745,0.13c-0.685,0.128 -0.906,0.221 -1.001,0.261c-0.887,0.35 -1.515,1.215 -1.515,2.226l0,0.026c-0.148,3.481 2.503,5.58 4.984,5.348c0.219,-0.031 0.433,-0.07 0.648,-0.123c3.02,-0.748 4.015,-3.38 3.954,-5.354l-0.001,-0c-0.033,-0.883 -0.508,-1.57 -1.278,-2.035Z" style="fill:url(#_Radial28);fill-rule:nonzero;"/><path d="M26.064,11.65c-0.29,-0.175 -0.992,-0.478 -1.789,-0.478c-0.081,-0 -0.167,-0 -0.257,-0.001c-1.152,-0 -3.038,-0.002 -3.745,0.13c-0.685,0.128 -0.906,0.221 -1.001,0.261c-0.887,0.35 -1.515,1.215 -1.515,2.226l0,0.026c-0.148,3.481 2.503,5.58 4.984,5.348c0.219,-0.031 0.433,-0.07 0.648,-0.123c3.02,-0.748 4.015,-3.38 3.954,-5.354l-0.001,-0c-0.033,-0.883 -0.508,-1.57 -1.278,-2.035Z" style="fill:url(#_Radial29);fill-rule:nonzero;"/><path d="M26.064,11.65c-0.29,-0.175 -0.992,-0.478 -1.789,-0.478c-0.081,-0 -0.167,-0 -0.257,-0.001c-1.152,-0 -3.038,-0.002 -3.745,0.13c-0.685,0.128 -0.906,0.221 -1.001,0.261c-0.887,0.35 -1.515,1.215 -1.515,2.226l0,0.026c-0.148,3.481 2.503,5.58 4.984,5.348c0.219,-0.031 0.433,-0.07 0.648,-0.123c3.02,-0.748 4.015,-3.38 3.954,-5.354l-0.001,-0c-0.033,-0.883 -0.508,-1.57 -1.278,-2.035Z" style="fill:url(#_Radial30);fill-rule:nonzero;"/><path d="M24.561,12.287c0.613,-0.298 1.415,0.087 1.789,0.858c0.375,0.772 0.181,1.64 -0.433,1.937c-0.613,0.298 -1.415,-0.087 -1.79,-0.858c-0.374,-0.772 -0.18,-1.64 0.434,-1.937Z" style="fill:url(#_Linear31);"/></g><defs><radialGradient id="_Radial1" cx="0" cy="0" r="1" gradientUnits="userSpaceOnUse" gradientTransform="matrix(-18.4999,14.5001,-14.5001,-18.4999,25,11.5)"><stop offset="0" style="stop-color:#eeebf0;stop-opacity:1"/><stop offset="0.49" style="stop-color:#d1bee3;stop-opacity:1"/><stop offset="1" style="stop-color:#d0bce2;stop-opacity:1"/></radialGradient><linearGradient id="_Linear2" x1="0" y1="0" x2="1" y2="0" gradientUnits="userSpaceOnUse" gradientTransform="matrix(-8,9.79717e-16,-9.79717e-16,-8,12,18)"><stop offset="0" style="stop-color:#d5b2c0;stop-opacity:0"/><stop offset="1" style="stop-color:#b4878d;stop-opacity:1"/></linearGradient><linearGradient id="_Linear3" x1="0" y1="0" x2="1" y2="0" gradientUnits="userSpaceOnUse" gradientTransform="matrix(2.44929e-16,4,-4,2.44929e-16,16,27)"><stop offset="0" style="stop-color:#b17edb;stop-opacity:0"/><stop offset="1" style="stop-color:#a56bd6;stop-opacity:1"/></linearGradient><radialGradient id="_Radial4" cx="0" cy="0" r="1" gradientUnits="userSpaceOnUse" gradientTransform="matrix(5,-0.5,1.91111,19.1111,25,13.5)"><stop offset="0" style="stop-color:#f0eaf6;stop-opacity:1"/><stop offset="1" style="stop-color:#e7e0ef;stop-opacity:0"/></radialGradient><linearGradient id="_Linear5" x1="0" y1="0" x2="1" y2="0" gradientUnits="userSpaceOnUse" gradientTransform="matrix(5.57217e-16,9.10005,-9.10005,5.57217e-16,4,3.94995)"><stop offset="0" style="stop-color:#ea248a;stop-opacity:1"/><stop offset="1" style="stop-color:#df2232;stop-opacity:1"/></linearGradient><linearGradient id="_Linear6" x1="0" y1="0" x2="1" y2="0" gradientUnits="userSpaceOnUse" gradientTransform="matrix(6.73556e-16,11,-11,6.73556e-16,3,12)"><stop offset="0" style="stop-color:#e93273;stop-opacity:1"/><stop offset="1" style="stop-color:#d21844;stop-opacity:1"/></linearGradient><radialGradient id="_Radial7" cx="0" cy="0" r="1" gradientUnits="userSpaceOnUse" gradientTransform="matrix(-4.1875e-15,10.9375,-16.8684,-6.45818e-15,16.3199,22.2038)"><stop offset="0" style="stop-color:#2e1529;stop-opacity:1"/><stop offset="0.15" style="stop-color:#2e1529;stop-opacity:1"/><stop offset="0.28" style="stop-color:#503a4a;stop-opacity:1"/><stop offset="0.34" style="stop-color:#4b2744;stop-opacity:1"/><stop offset="1" style="stop-color:#4b2744;stop-opacity:1"/></radialGradient><radialGradient id="_Radial8" cx="0" cy="0" r="1" gradientUnits="userSpaceOnUse" gradientTransform="matrix(-0.499991,2,-2,-0.499991,4,3)"><stop offset="0" style="stop-color:#ff6c82;stop-opacity:1"/><stop offset="0.44" style="stop-color:#ff2455;stop-opacity:1"/><stop offset="1" style="stop-color:#d9206c;stop-opacity:1"/></radialGradient><linearGradient id="_Linear9" x1="0" y1="0" x2="1" y2="0" gradientUnits="userSpaceOnUse" gradientTransform="matrix(5.56602e-16,9.09,-9.09,5.56602e-16,29,4)"><stop offset="0" style="stop-color:#ea248a;stop-opacity:1"/><stop offset="1" style="stop-color:#df2232;stop-opacity:1"/></linearGradient><radialGradient id="_Radial10" cx="0" cy="0" r="1" gradientUnits="userSpaceOnUse" gradientTransform="matrix(-0.516658,2.06667,-2.06667,-0.516658,29.0167,3.03333)"><stop offset="0" style="stop-color:#ff6c82;stop-opacity:1"/><stop offset="0.44" style="stop-color:#ff2455;stop-opacity:1"/><stop offset="1" style="stop-color:#d9206c;stop-opacity:1"/></radialGradient><linearGradient id="_Linear11" x1="0" y1="0" x2="1" y2="0" gradientUnits="userSpaceOnUse" gradientTransform="matrix(-1.5,3.5,-3.5,-1.5,16,3)"><stop offset="0" style="stop-color:#ffce2b;stop-opacity:1"/><stop offset="1" style="stop-color:#d9862d;stop-opacity:1"/></linearGradient><radialGradient id="_Radial12" cx="0" cy="0" r="1" gradientUnits="userSpaceOnUse" gradientTransform="matrix(-1.14857e-15,3,-10,-3.82857e-15,16,4)"><stop offset="0" style="stop-color:#ca7e29;stop-opacity:0"/><stop offset="0.43" style="stop-color:#ca7e29;stop-opacity:0"/><stop offset="1" style="stop-color:#673f13;stop-opacity:1"/></radialGradient><linearGradient id="_Linear13" x1="0" y1="0" x2="1" y2="0" gradientUnits="userSpaceOnUse" gradientTransform="matrix(6.74168e-16,11.01,-11.01,6.74168e-16,29,11.9301)"><stop offset="0" style="stop-color:#ff30aa;stop-opacity:1"/><stop offset="1" style="stop-color:#ff2353;stop-opacity:1"/></linearGradient><linearGradient id="_Linear14" x1="0" y1="0" x2="1" y2="0" gradientUnits="userSpaceOnUse" gradientTransform="matrix(1.22465e-16,2,-2,1.22465e-16,3.5,7)"><stop offset="0" style="stop-color:#ff96cb;stop-opacity:1"/><stop offset="1" style="stop-color:#ff6db7;stop-opacity:0"/></linearGradient><linearGradient id="_Linear15" x1="0" y1="0" x2="1" y2="0" gradientUnits="userSpaceOnUse" gradientTransform="matrix(1.22465e-16,2,-2,1.22465e-16,28.5,7)"><stop offset="0" style="stop-color:#ff96cb;stop-opacity:1"/><stop offset="1" style="stop-color:#ff6db7;stop-opacity:0"/></linearGradient><radialGradient id="_Radial16" cx="0" cy="0" r="1" gradientUnits="userSpaceOnUse" gradientTransform="matrix(-5.74285e-16,1.5,-1,-3.82857e-16,29,13.5)"><stop offset="0" style="stop-color:#ff72c1;stop-opacity:1"/><stop offset="1" style="stop-color:#ff6ebf;stop-opacity:0"/></radialGradient><radialGradient id="_Radial17" cx="0" cy="0" r="1" gradientUnits="userSpaceOnUse" gradientTransform="matrix(-1.72286e-15,4.5,-0.55944,-2.14185e-16,29,16.5)"><stop offset="0" style="stop-color:#ff4b9c;stop-opacity:1"/><stop offset="1" style="stop-color:#ff73c1;stop-opacity:0"/></radialGradient><radialGradient id="_Radial18" cx="0" cy="0" r="1" gradientUnits="userSpaceOnUse" gradientTransform="matrix(-3.82857e-16,1,-1,-3.82857e-16,20,4)"><stop offset="0" style="stop-color:#ffea60;stop-opacity:1"/><stop offset="1" style="stop-color:#ffef66;stop-opacity:0"/></radialGradient><radialGradient id="_Radial19" cx="0" cy="0" r="1" gradientUnits="userSpaceOnUse" gradientTransform="matrix(1.9638,9.97399,-20.6684,4.06944,20.2375,10.8809)"><stop offset="0" style="stop-color:#5f5b9b;stop-opacity:1"/><stop offset="1" style="stop-color:#5c3085;stop-opacity:1"/></radialGradient><radialGradient id="_Radial20" cx="0" cy="0" r="1" gradientUnits="userSpaceOnUse" gradientTransform="matrix(0.943034,4.46097,-5.01146,1.05941,22.5245,15.2312)"><stop offset="0" style="stop-color:#77579c;stop-opacity:1"/><stop offset="0.78" style="stop-color:#77579c;stop-opacity:1"/><stop offset="0.94" style="stop-color:#77579c;stop-opacity:0"/><stop offset="1" style="stop-color:#77579c;stop-opacity:0"/></radialGradient><radialGradient id="_Radial21" cx="0" cy="0" r="1" gradientUnits="userSpaceOnUse" gradientTransform="matrix(-2.09297,-3.25576,2.38991,-1.53636,20.8577,14.3951)"><stop offset="0" style="stop-color:#4e3d92;stop-opacity:1"/><stop offset="0.77" style="stop-color:#4e3d92;stop-opacity:1"/><stop offset="1" style="stop-color:#534687;stop-opacity:0"/></radialGradient><radialGradient id="_Radial22" cx="0" cy="0" r="1" gradientUnits="userSpaceOnUse" gradientTransform="matrix(-2.58392,4.16014,-4.72601,-2.93539,11.6074,13.6199)"><stop offset="0" style="stop-color:#4c3d70;stop-opacity:1"/><stop offset="1" style="stop-color:#361c5d;stop-opacity:1"/></radialGradient><radialGradient id="_Radial23" cx="0" cy="0" r="1" gradientUnits="userSpaceOnUse" gradientTransform="matrix(0.310072,6.20144,-9.20872,0.460435,10.5997,13.7491)"><stop offset="0" style="stop-color:#5b2b84;stop-opacity:0"/><stop offset="0.65" style="stop-color:#5b2b84;stop-opacity:0"/><stop offset="1" style="stop-color:#5b2b84;stop-opacity:1"/></radialGradient><radialGradient id="_Radial24" cx="0" cy="0" r="1" gradientUnits="userSpaceOnUse" gradientTransform="matrix(-1.5762,-9.4055,9.31417,-1.5609,9.20439,20.0022)"><stop offset="0" style="stop-color:#2e1d57;stop-opacity:0"/><stop offset="0.86" style="stop-color:#2e1d57;stop-opacity:0"/><stop offset="1" style="stop-color:#20143d;stop-opacity:1"/></radialGradient><radialGradient id="_Radial25" cx="0" cy="0" r="1" gradientUnits="userSpaceOnUse" gradientTransform="matrix(-1.34363,6.20144,-5.82017,-1.26102,10.0054,13.129)"><stop offset="0" style="stop-color:#2e1d57;stop-opacity:0"/><stop offset="0.87" style="stop-color:#2e1d57;stop-opacity:0"/><stop offset="1" style="stop-color:#20143d;stop-opacity:0.6"/></radialGradient><linearGradient id="_Linear26" x1="0" y1="0" x2="1" y2="0" gradientUnits="userSpaceOnUse" gradientTransform="matrix(0.10468,2.85521,-2.85521,0.10468,11.9808,12.4461)"><stop offset="0" style="stop-color:#fff;stop-opacity:1"/><stop offset="0.97" style="stop-color:#fff;stop-opacity:0"/><stop offset="1" style="stop-color:#fff;stop-opacity:0"/></linearGradient><radialGradient id="_Radial27" cx="0" cy="0" r="1" gradientUnits="userSpaceOnUse" gradientTransform="matrix(-2.84237,4.6769,-7.02509,-4.26947,23.1575,13.284)"><stop offset="0" style="stop-color:#4c3d70;stop-opacity:1"/><stop offset="1" style="stop-color:#361c5d;stop-opacity:1"/></radialGradient><radialGradient id="_Radial28" cx="0" cy="0" r="1" gradientUnits="userSpaceOnUse" gradientTransform="matrix(-0.310072,6.20144,-9.20872,-0.460435,21.4003,13.7491)"><stop offset="0" style="stop-color:#5b2b84;stop-opacity:0"/><stop offset="0.65" style="stop-color:#5b2b84;stop-opacity:0"/><stop offset="1" style="stop-color:#5b2b84;stop-opacity:1"/></radialGradient><radialGradient id="_Radial29" cx="0" cy="0" r="1" gradientUnits="userSpaceOnUse" gradientTransform="matrix(1.82331,-8.29446,8.21387,1.80559,22.5485,18.8912)"><stop offset="0" style="stop-color:#2e1d57;stop-opacity:0"/><stop offset="0.86" style="stop-color:#2e1d57;stop-opacity:0"/><stop offset="1" style="stop-color:#20143d;stop-opacity:1"/></radialGradient><radialGradient id="_Radial30" cx="0" cy="0" r="1" gradientUnits="userSpaceOnUse" gradientTransform="matrix(1.34364,6.20144,-5.82017,1.26103,21.9946,13.129)"><stop offset="0" style="stop-color:#2e1d57;stop-opacity:0"/><stop offset="0.87" style="stop-color:#2e1d57;stop-opacity:0"/><stop offset="1" style="stop-color:#20143d;stop-opacity:0.6"/></radialGradient><linearGradient id="_Linear31" x1="0" y1="0" x2="1" y2="0" gradientUnits="userSpaceOnUse" gradientTransform="matrix(0.10468,2.85521,-2.85521,0.10468,25.2388,12.4461)"><stop offset="0" style="stop-color:#fff;stop-opacity:1"/><stop offset="0.97" style="stop-color:#fff;stop-opacity:0"/><stop offset="1" style="stop-color:#fff;stop-opacity:0"/></linearGradient></defs></svg>