<?xml version="1.0" encoding="UTF-8" standalone="no"?><!DOCTYPE svg PUBLIC "-//W3C//DTD SVG 1.1//EN" "http://www.w3.org/Graphics/SVG/1.1/DTD/svg11.dtd"><svg width="100%" height="100%" viewBox="0 0 32 32" version="1.1" xmlns="http://www.w3.org/2000/svg" xmlns:xlink="http://www.w3.org/1999/xlink" xml:space="preserve" xmlns:serif="http://www.serif.com/" style="fill-rule:evenodd;clip-rule:evenodd;stroke-linejoin:round;stroke-miterlimit:2;"><g><path d="M10.582,13.718c1.2,-0.442 2.367,0.725 1.925,1.926l-2.618,7.114c-0.253,0.685 -1.13,0.878 -1.646,0.362l-5.138,-5.138c-0.516,-0.516 -0.323,-1.393 0.362,-1.645l7.114,-2.619l0.001,0Z" style="fill:url(#_Linear1);fill-rule:nonzero;"/><path d="M10.582,13.718c1.2,-0.442 2.367,0.725 1.925,1.926l-2.618,7.114c-0.253,0.685 -1.13,0.878 -1.646,0.362l-5.138,-5.138c-0.516,-0.516 -0.323,-1.393 0.362,-1.645l7.114,-2.619l0.001,0Z" style="fill:url(#_Radial2);fill-rule:nonzero;"/><path d="M10.582,13.718c1.2,-0.442 2.367,0.725 1.925,1.926l-2.618,7.114c-0.253,0.685 -1.13,0.878 -1.646,0.362l-5.138,-5.138c-0.516,-0.516 -0.323,-1.393 0.362,-1.645l7.114,-2.619l0.001,0Z" style="fill:url(#_Linear3);fill-rule:nonzero;"/><path d="M16.581,19.718c1.201,-0.442 2.368,0.725 1.926,1.926l-2.618,7.114c-0.253,0.685 -1.13,0.878 -1.646,0.362l-5.138,-5.138c-0.516,-0.516 -0.323,-1.393 0.362,-1.645l7.115,-2.619l-0.001,0Z" style="fill:url(#_Linear4);fill-rule:nonzero;"/><path d="M16.581,19.718c1.201,-0.442 2.368,0.725 1.926,1.926l-2.618,7.114c-0.253,0.685 -1.13,0.878 -1.646,0.362l-5.138,-5.138c-0.516,-0.516 -0.323,-1.393 0.362,-1.645l7.115,-2.619l-0.001,0Z" style="fill:url(#_Radial5);fill-rule:nonzero;"/><path d="M16.581,19.718c1.201,-0.442 2.368,0.725 1.926,1.926l-2.618,7.114c-0.253,0.685 -1.13,0.878 -1.646,0.362l-5.138,-5.138c-0.516,-0.516 -0.323,-1.393 0.362,-1.645l7.115,-2.619l-0.001,0Z" style="fill:url(#_Radial6);fill-rule:nonzero;"/><g><path d="M22.399,3.551c0.056,-0.023 0.12,-0.01 0.162,0.033l5.886,5.931c0.043,0.042 0.056,0.106 0.033,0.161c-1.409,3.46 -3.353,7.14 -5.954,9.742c-2.534,2.534 -6.82,4.693 -10.69,6.281l-5.491,-5.491c1.588,-3.87 3.747,-8.156 6.281,-10.69c2.61,-2.61 6.304,-4.557 9.773,-5.967Z" style="fill:url(#_Linear7);fill-rule:nonzero;"/><path d="M22.399,3.551c0.056,-0.023 0.12,-0.01 0.162,0.033l5.886,5.931c0.043,0.042 0.056,0.106 0.033,0.161c-1.409,3.46 -3.353,7.14 -5.954,9.742c-2.534,2.534 -6.82,4.693 -10.69,6.281l-5.491,-5.491c1.588,-3.87 3.747,-8.156 6.281,-10.69c2.61,-2.61 6.304,-4.557 9.773,-5.967Z" style="fill:url(#_Radial8);fill-rule:nonzero;"/><path d="M22.399,3.551c0.056,-0.023 0.12,-0.01 0.162,0.033l5.886,5.931c0.043,0.042 0.056,0.106 0.033,0.161c-1.409,3.46 -3.353,7.14 -5.954,9.742c-2.534,2.534 -6.82,4.693 -10.69,6.281l-5.491,-5.491c1.588,-3.87 3.747,-8.156 6.281,-10.69c2.61,-2.61 6.304,-4.557 9.773,-5.967Z" style="fill:url(#_Radial9);fill-rule:nonzero;"/><path d="M22.399,3.551c0.056,-0.023 0.12,-0.01 0.162,0.033l5.886,5.931c0.043,0.042 0.056,0.106 0.033,0.161c-1.409,3.46 -3.353,7.14 -5.954,9.742c-2.534,2.534 -6.82,4.693 -10.69,6.281l-5.491,-5.491c1.588,-3.87 3.747,-8.156 6.281,-10.69c2.61,-2.61 6.304,-4.557 9.773,-5.967Z" style="fill:url(#_Radial10);fill-rule:nonzero;"/><path d="M22.399,3.551c0.056,-0.023 0.12,-0.01 0.162,0.033l5.886,5.931c0.043,0.042 0.056,0.106 0.033,0.161c-1.409,3.46 -3.353,7.14 -5.954,9.742c-2.534,2.534 -6.82,4.693 -10.69,6.281l-5.491,-5.491c1.588,-3.87 3.747,-8.156 6.281,-10.69c2.61,-2.61 6.304,-4.557 9.773,-5.967Z" style="fill:url(#_Radial11);fill-rule:nonzero;"/></g><g><path d="M2.423,29.533c-0.707,-0.707 -0.423,-5.611 2.077,-6.611c0,0 2.5,-1 4.111,0.6c1.611,1.601 0.889,3.4 0.889,3.4c-0.707,2.121 -3.717,2.964 -4.071,2.611c-0.195,-0.196 0.156,-0.551 0,-0.707c-0.156,-0.157 -0.398,0.022 -1.061,0.353c-0.471,0.236 -1.662,0.636 -1.945,0.354Z" style="fill:url(#_Radial12);fill-rule:nonzero;"/><path d="M2.423,29.533c-0.707,-0.707 -0.423,-5.611 2.077,-6.611c0,0 2.5,-1 4.111,0.6c1.611,1.601 0.889,3.4 0.889,3.4c-0.707,2.121 -3.717,2.964 -4.071,2.611c-0.195,-0.196 0.156,-0.551 0,-0.707c-0.156,-0.157 -0.398,0.022 -1.061,0.353c-0.471,0.236 -1.662,0.636 -1.945,0.354Z" style="fill:url(#_Radial13);fill-rule:nonzero;"/></g><path d="M6.061,20.982c0.585,-0.585 1.535,-0.585 2.121,0l3.535,3.536c0.586,0.586 0.586,1.535 0,2.121c-0.585,0.586 -1.535,0.586 -2.121,0l-3.535,-3.535c-0.586,-0.586 -0.586,-1.536 0,-2.122Z" style="fill:url(#_Linear14);fill-rule:nonzero;"/><path d="M6.061,20.982c0.585,-0.585 1.535,-0.585 2.121,0l3.535,3.536c0.586,0.586 0.586,1.535 0,2.121c-0.585,0.586 -1.535,0.586 -2.121,0l-3.535,-3.535c-0.586,-0.586 -0.586,-1.536 0,-2.122Z" style="fill:url(#_Radial15);fill-rule:nonzero;"/><path d="M6.061,20.982c0.585,-0.585 1.535,-0.585 2.121,0l3.535,3.536c0.586,0.586 0.586,1.535 0,2.121c-0.585,0.586 -1.535,0.586 -2.121,0l-3.535,-3.535c-0.586,-0.586 -0.586,-1.536 0,-2.122Z" style="fill:url(#_Radial16);fill-rule:nonzero;"/><path d="M29.172,2.871c-0.947,-0.947 -2.608,-0.839 -3.818,-0.424c-0.869,0.299 -1.782,0.633 -2.714,1.007c-0.067,0.026 -0.084,0.112 -0.034,0.163l5.809,5.849c0.051,0.051 0.137,0.033 0.163,-0.033c0.379,-0.942 0.717,-1.865 1.019,-2.743c0.41,-1.194 0.739,-2.654 -0.425,-3.819Z" style="fill:url(#_Linear17);fill-rule:nonzero;"/><path d="M29.172,2.871c-0.947,-0.947 -2.608,-0.839 -3.818,-0.424c-0.869,0.299 -1.782,0.633 -2.714,1.007c-0.067,0.026 -0.084,0.112 -0.034,0.163l5.809,5.849c0.051,0.051 0.137,0.033 0.163,-0.033c0.379,-0.942 0.717,-1.865 1.019,-2.743c0.41,-1.194 0.739,-2.654 -0.425,-3.819Z" style="fill:url(#_Radial18);fill-rule:nonzero;"/><path d="M29.172,2.871c-0.947,-0.947 -2.608,-0.839 -3.818,-0.424c-0.869,0.299 -1.782,0.633 -2.714,1.007c-0.067,0.026 -0.084,0.112 -0.034,0.163l5.809,5.849c0.051,0.051 0.137,0.033 0.163,-0.033c0.379,-0.942 0.717,-1.865 1.019,-2.743c0.41,-1.194 0.739,-2.654 -0.425,-3.819Z" style="fill:url(#_Linear19);fill-rule:nonzero;"/><path d="M13.582,16.718c1.2,-0.442 2.367,0.725 1.925,1.926l-2.619,7.114c-0.252,0.685 -1.129,0.878 -1.645,0.362l-5.138,-5.138c-0.516,-0.516 -0.323,-1.393 0.362,-1.645l7.114,-2.619l0.001,0Z" style="fill:url(#_Linear20);fill-rule:nonzero;"/><path d="M13.582,16.718c1.2,-0.442 2.367,0.725 1.925,1.926l-2.619,7.114c-0.252,0.685 -1.129,0.878 -1.645,0.362l-5.138,-5.138c-0.516,-0.516 -0.323,-1.393 0.362,-1.645l7.114,-2.619l0.001,0Z" style="fill:url(#_Radial21);fill-rule:nonzero;"/><path d="M13.582,16.718c1.2,-0.442 2.367,0.725 1.925,1.926l-2.619,7.114c-0.252,0.685 -1.129,0.878 -1.645,0.362l-5.138,-5.138c-0.516,-0.516 -0.323,-1.393 0.362,-1.645l7.114,-2.619l0.001,0Z" style="fill:url(#_Radial22);fill-rule:nonzero;"/><path d="M13.582,16.718c1.2,-0.442 2.367,0.725 1.925,1.926l-2.619,7.114c-0.252,0.685 -1.129,0.878 -1.645,0.362l-5.138,-5.138c-0.516,-0.516 -0.323,-1.393 0.362,-1.645l7.114,-2.619l0.001,0Z" style="fill:url(#_Radial23);fill-rule:nonzero;"/><g><path d="M9.205,22.047l5.625,-4.407l-3.625,6.438l-2,-2.031Z" style="fill:url(#_Linear24);fill-rule:nonzero;"/></g></g><g><g><path d="M21.135,8.616c0.143,0.309 0.206,0.638 0.193,0.964c-0.008,0.213 0.062,0.428 0.223,0.569c0.218,0.192 0.454,0.413 0.694,0.662c0.149,0.154 0.368,0.215 0.582,0.195c0.326,-0.03 0.658,0.016 0.975,0.143c0.118,0.044 0.313,0.128 0.735,0.402c0.255,0.165 0.793,0.633 1.148,0.956c0.367,0.333 0.753,0.7 1.042,0.975l0.131,0.125c0.495,0.47 0.835,1.09 0.918,1.391c0.225,0.636 0.227,1.441 -0.435,2.197c-0.009,0.012 -0.019,0.023 -0.029,0.035c-1.03,1.152 -3.245,2.092 -5.434,0.848c-0.154,-0.088 -0.298,-0.182 -0.437,-0.282c-0.006,-0.004 -0.013,-0.009 -0.019,-0.014c-1.953,-1.536 -1.698,-4.175 -0.19,-5.879c0.125,-0.141 0.13,-0.355 -0.004,-0.487c-0.077,-0.075 -0.153,-0.147 -0.226,-0.215c-0.138,-0.128 -0.353,-0.113 -0.488,0.019c-1.623,1.593 -4.248,1.983 -5.881,0.112c-0.006,-0.006 -0.011,-0.013 -0.016,-0.018c-0.106,-0.134 -0.208,-0.273 -0.303,-0.422c-1.355,-2.122 -0.529,-4.383 0.568,-5.47c0.011,-0.011 0.022,-0.021 0.034,-0.03c0.72,-0.701 1.525,-0.741 2.172,-0.548c0.304,0.067 0.941,0.375 1.436,0.846l0.131,0.124c0.29,0.274 0.676,0.641 1.028,0.991c0.34,0.338 0.835,0.851 1.013,1.097c0.295,0.407 0.389,0.598 0.439,0.714Zm-5.279,-3.037c0.344,-0.155 0.735,-0.178 1.143,-0.088c0.23,0.051 0.728,0.234 1.13,0.615l0.129,0.123c0.581,0.551 1.531,1.452 1.824,1.856c0.284,0.393 0.35,0.545 0.379,0.611c0.122,0.262 0.173,0.551 0.15,0.835l-0.576,0.891c0.04,0.026 0.089,0.059 0.144,0.099c-0.006,0.006 -0.032,0.033 -0.032,0.033c-1.591,1.824 -3.93,1.613 -5.068,0.309c-0.096,-0.12 -0.185,-0.242 -0.268,-0.372c-1.006,-1.576 -0.573,-3.137 0.193,-4.155c0.118,-0.156 0.244,-0.3 0.374,-0.429l0.004,-0.003l0,0l0.004,-0.003c0.144,-0.14 0.302,-0.247 0.47,-0.322Zm6.09,6.625c-0.006,0.006 -0.03,0.031 -0.03,0.031c-1.74,1.682 -1.409,4.007 -0.049,5.077c0.126,0.09 0.252,0.172 0.386,0.248c1.625,0.925 3.162,0.413 4.139,-0.405c0.15,-0.126 0.287,-0.259 0.41,-0.395l0.003,-0.004l-0.001,-0l0.004,-0.005c0.132,-0.15 0.23,-0.313 0.297,-0.485c0.137,-0.352 0.14,-0.743 0.029,-1.147c-0.062,-0.226 -0.271,-0.715 -0.672,-1.096l-0.129,-0.123c-0.58,-0.552 -1.529,-1.455 -1.948,-1.726c-0.406,-0.264 -0.562,-0.323 -0.629,-0.348c-0.279,-0.113 -0.582,-0.147 -0.874,-0.102l-0.816,0.631c-0.04,-0.051 -0.08,-0.101 -0.12,-0.151Z" style="fill:url(#_Radial25);"/><path d="M21.135,8.616c0.143,0.309 0.206,0.638 0.193,0.964c-0.008,0.213 0.062,0.428 0.223,0.569c0.218,0.192 0.454,0.413 0.694,0.662c0.149,0.154 0.368,0.215 0.582,0.195c0.326,-0.03 0.658,0.016 0.975,0.143c0.118,0.044 0.313,0.128 0.735,0.402c0.255,0.165 0.793,0.633 1.148,0.956c0.367,0.333 0.753,0.7 1.042,0.975l0.131,0.125c0.495,0.47 0.835,1.09 0.918,1.391c0.225,0.636 0.227,1.441 -0.435,2.197c-0.009,0.012 -0.019,0.023 -0.029,0.035c-1.03,1.152 -3.245,2.092 -5.434,0.848c-0.154,-0.088 -0.298,-0.182 -0.437,-0.282c-0.006,-0.004 -0.013,-0.009 -0.019,-0.014c-1.953,-1.536 -1.698,-4.175 -0.19,-5.879c0.125,-0.141 0.13,-0.355 -0.004,-0.487c-0.077,-0.075 -0.153,-0.147 -0.226,-0.215c-0.138,-0.128 -0.353,-0.113 -0.488,0.019c-1.623,1.593 -4.248,1.983 -5.881,0.112c-0.006,-0.006 -0.011,-0.013 -0.016,-0.018c-0.106,-0.134 -0.208,-0.273 -0.303,-0.422c-1.355,-2.122 -0.529,-4.383 0.568,-5.47c0.011,-0.011 0.022,-0.021 0.034,-0.03c0.72,-0.701 1.525,-0.741 2.172,-0.548c0.304,0.067 0.941,0.375 1.436,0.846l0.131,0.124c0.29,0.274 0.676,0.641 1.028,0.991c0.34,0.338 0.835,0.851 1.013,1.097c0.295,0.407 0.389,0.598 0.439,0.714Zm-5.279,-3.037c0.344,-0.155 0.735,-0.178 1.143,-0.088c0.23,0.051 0.728,0.234 1.13,0.615l0.129,0.123c0.581,0.551 1.531,1.452 1.824,1.856c0.284,0.393 0.35,0.545 0.379,0.611c0.122,0.262 0.173,0.551 0.15,0.835l-0.576,0.891c0.04,0.026 0.089,0.059 0.144,0.099c-0.006,0.006 -0.032,0.033 -0.032,0.033c-1.591,1.824 -3.93,1.613 -5.068,0.309c-0.096,-0.12 -0.185,-0.242 -0.268,-0.372c-1.006,-1.576 -0.573,-3.137 0.193,-4.155c0.118,-0.156 0.244,-0.3 0.374,-0.429l0.004,-0.003l0,0l0.004,-0.003c0.144,-0.14 0.302,-0.247 0.47,-0.322Zm6.09,6.625c-0.006,0.006 -0.03,0.031 -0.03,0.031c-1.74,1.682 -1.409,4.007 -0.049,5.077c0.126,0.09 0.252,0.172 0.386,0.248c1.625,0.925 3.162,0.413 4.139,-0.405c0.15,-0.126 0.287,-0.259 0.41,-0.395l0.003,-0.004l-0.001,-0l0.004,-0.005c0.132,-0.15 0.23,-0.313 0.297,-0.485c0.137,-0.352 0.14,-0.743 0.029,-1.147c-0.062,-0.226 -0.271,-0.715 -0.672,-1.096l-0.129,-0.123c-0.58,-0.552 -1.529,-1.455 -1.948,-1.726c-0.406,-0.264 -0.562,-0.323 -0.629,-0.348c-0.279,-0.113 -0.582,-0.147 -0.874,-0.102l-0.816,0.631c-0.04,-0.051 -0.08,-0.101 -0.12,-0.151Z" style="fill:url(#_Radial26);"/><path d="M21.135,8.616c0.143,0.309 0.206,0.638 0.193,0.964c-0.008,0.213 0.062,0.428 0.223,0.569c0.218,0.192 0.454,0.413 0.694,0.662c0.149,0.154 0.368,0.215 0.582,0.195c0.326,-0.03 0.658,0.016 0.975,0.143c0.118,0.044 0.313,0.128 0.735,0.402c0.255,0.165 0.793,0.633 1.148,0.956c0.367,0.333 0.753,0.7 1.042,0.975l0.131,0.125c0.495,0.47 0.835,1.09 0.918,1.391c0.225,0.636 0.227,1.441 -0.435,2.197c-0.009,0.012 -0.019,0.023 -0.029,0.035c-1.03,1.152 -3.245,2.092 -5.434,0.848c-0.154,-0.088 -0.298,-0.182 -0.437,-0.282c-0.006,-0.004 -0.013,-0.009 -0.019,-0.014c-1.953,-1.536 -1.698,-4.175 -0.19,-5.879c0.125,-0.141 0.13,-0.355 -0.004,-0.487c-0.077,-0.075 -0.153,-0.147 -0.226,-0.215c-0.138,-0.128 -0.353,-0.113 -0.488,0.019c-1.623,1.593 -4.248,1.983 -5.881,0.112c-0.006,-0.006 -0.011,-0.013 -0.016,-0.018c-0.106,-0.134 -0.208,-0.273 -0.303,-0.422c-1.355,-2.122 -0.529,-4.383 0.568,-5.47c0.011,-0.011 0.022,-0.021 0.034,-0.03c0.72,-0.701 1.525,-0.741 2.172,-0.548c0.304,0.067 0.941,0.375 1.436,0.846l0.131,0.124c0.29,0.274 0.676,0.641 1.028,0.991c0.34,0.338 0.835,0.851 1.013,1.097c0.295,0.407 0.389,0.598 0.439,0.714Zm-5.279,-3.037c0.344,-0.155 0.735,-0.178 1.143,-0.088c0.23,0.051 0.728,0.234 1.13,0.615l0.129,0.123c0.581,0.551 1.531,1.452 1.824,1.856c0.284,0.393 0.35,0.545 0.379,0.611c0.122,0.262 0.173,0.551 0.15,0.835l-0.576,0.891c0.04,0.026 0.089,0.059 0.144,0.099c-0.006,0.006 -0.032,0.033 -0.032,0.033c-1.591,1.824 -3.93,1.613 -5.068,0.309c-0.096,-0.12 -0.185,-0.242 -0.268,-0.372c-1.006,-1.576 -0.573,-3.137 0.193,-4.155c0.118,-0.156 0.244,-0.3 0.374,-0.429l0.004,-0.003l0,0l0.004,-0.003c0.144,-0.14 0.302,-0.247 0.47,-0.322Zm6.09,6.625c-0.006,0.006 -0.03,0.031 -0.03,0.031c-1.74,1.682 -1.409,4.007 -0.049,5.077c0.126,0.09 0.252,0.172 0.386,0.248c1.625,0.925 3.162,0.413 4.139,-0.405c0.15,-0.126 0.287,-0.259 0.41,-0.395l0.003,-0.004l-0.001,-0l0.004,-0.005c0.132,-0.15 0.23,-0.313 0.297,-0.485c0.137,-0.352 0.14,-0.743 0.029,-1.147c-0.062,-0.226 -0.271,-0.715 -0.672,-1.096l-0.129,-0.123c-0.58,-0.552 -1.529,-1.455 -1.948,-1.726c-0.406,-0.264 -0.562,-0.323 -0.629,-0.348c-0.279,-0.113 -0.582,-0.147 -0.874,-0.102l-0.816,0.631c-0.04,-0.051 -0.08,-0.101 -0.12,-0.151Z" style="fill:url(#_Radial27);"/><path d="M16.999,5.491c0.23,0.051 0.728,0.234 1.13,0.615c0.04,0.039 0.084,0.08 0.129,0.123c0.581,0.551 1.531,1.452 1.824,1.856c0.284,0.393 0.35,0.545 0.379,0.611c0.279,0.6 0.182,1.336 -0.302,1.845l-0.012,0.013c-1.591,1.824 -3.93,1.613 -5.068,0.309c-0.096,-0.12 -0.185,-0.242 -0.268,-0.372c-1.162,-1.821 -0.404,-3.622 0.571,-4.587l0,0c0.439,-0.429 1.007,-0.547 1.617,-0.413Z" style="fill:url(#_Radial28);fill-rule:nonzero;"/><path d="M16.999,5.491c0.23,0.051 0.728,0.234 1.13,0.615c0.04,0.039 0.084,0.08 0.129,0.123c0.581,0.551 1.531,1.452 1.824,1.856c0.284,0.393 0.35,0.545 0.379,0.611c0.279,0.6 0.182,1.336 -0.302,1.845l-0.012,0.013c-1.591,1.824 -3.93,1.613 -5.068,0.309c-0.096,-0.12 -0.185,-0.242 -0.268,-0.372c-1.162,-1.821 -0.404,-3.622 0.571,-4.587l0,0c0.439,-0.429 1.007,-0.547 1.617,-0.413Z" style="fill:url(#_Radial29);fill-rule:nonzero;"/><path d="M16.999,5.491c0.23,0.051 0.728,0.234 1.13,0.615c0.04,0.039 0.084,0.08 0.129,0.123c0.581,0.551 1.531,1.452 1.824,1.856c0.284,0.393 0.35,0.545 0.379,0.611c0.279,0.6 0.182,1.336 -0.302,1.845l-0.012,0.013c-1.591,1.824 -3.93,1.613 -5.068,0.309c-0.096,-0.12 -0.185,-0.242 -0.268,-0.372c-1.162,-1.821 -0.404,-3.622 0.571,-4.587l0,0c0.439,-0.429 1.007,-0.547 1.617,-0.413Z" style="fill:url(#_Radial30);fill-rule:nonzero;"/><path d="M16.999,5.491c0.23,0.051 0.728,0.234 1.13,0.615c0.04,0.039 0.084,0.08 0.129,0.123c0.581,0.551 1.531,1.452 1.824,1.856c0.284,0.393 0.35,0.545 0.379,0.611c0.279,0.6 0.182,1.336 -0.302,1.845l-0.012,0.013c-1.591,1.824 -3.93,1.613 -5.068,0.309c-0.096,-0.12 -0.185,-0.242 -0.268,-0.372c-1.162,-1.821 -0.404,-3.622 0.571,-4.587l0,0c0.439,-0.429 1.007,-0.547 1.617,-0.413Z" style="fill:url(#_Radial31);fill-rule:nonzero;"/><path d="M19.396,8.379c0.452,0.143 0.672,0.721 0.491,1.288c-0.18,0.568 -0.693,0.912 -1.144,0.768c-0.452,-0.143 -0.671,-0.721 -0.491,-1.288c0.181,-0.568 0.694,-0.912 1.144,-0.768Z" style="fill:url(#_Linear32);"/><path d="M27.134,15.119c-0.062,-0.226 -0.271,-0.715 -0.672,-1.096c-0.041,-0.039 -0.084,-0.08 -0.129,-0.123c-0.58,-0.552 -1.529,-1.455 -1.948,-1.726c-0.406,-0.264 -0.562,-0.323 -0.629,-0.348c-0.614,-0.248 -1.344,-0.113 -1.827,0.396l-0.013,0.013c-1.74,1.682 -1.409,4.007 -0.049,5.077c0.126,0.09 0.252,0.172 0.386,0.248c1.878,1.068 3.638,0.219 4.552,-0.804l-0.001,-0c0.406,-0.461 0.495,-1.034 0.33,-1.637Z" style="fill:url(#_Radial33);fill-rule:nonzero;"/><path d="M27.134,15.119c-0.062,-0.226 -0.271,-0.715 -0.672,-1.096c-0.041,-0.039 -0.084,-0.08 -0.129,-0.123c-0.58,-0.552 -1.529,-1.455 -1.948,-1.726c-0.406,-0.264 -0.562,-0.323 -0.629,-0.348c-0.614,-0.248 -1.344,-0.113 -1.827,0.396l-0.013,0.013c-1.74,1.682 -1.409,4.007 -0.049,5.077c0.126,0.09 0.252,0.172 0.386,0.248c1.878,1.068 3.638,0.219 4.552,-0.804l-0.001,-0c0.406,-0.461 0.495,-1.034 0.33,-1.637Z" style="fill:url(#_Radial34);fill-rule:nonzero;"/><path d="M27.134,15.119c-0.062,-0.226 -0.271,-0.715 -0.672,-1.096c-0.041,-0.039 -0.084,-0.08 -0.129,-0.123c-0.58,-0.552 -1.529,-1.455 -1.948,-1.726c-0.406,-0.264 -0.562,-0.323 -0.629,-0.348c-0.614,-0.248 -1.344,-0.113 -1.827,0.396l-0.013,0.013c-1.74,1.682 -1.409,4.007 -0.049,5.077c0.126,0.09 0.252,0.172 0.386,0.248c1.878,1.068 3.638,0.219 4.552,-0.804l-0.001,-0c0.406,-0.461 0.495,-1.034 0.33,-1.637Z" style="fill:url(#_Radial35);fill-rule:nonzero;"/><path d="M27.134,15.119c-0.062,-0.226 -0.271,-0.715 -0.672,-1.096c-0.041,-0.039 -0.084,-0.08 -0.129,-0.123c-0.58,-0.552 -1.529,-1.455 -1.948,-1.726c-0.406,-0.264 -0.562,-0.323 -0.629,-0.348c-0.614,-0.248 -1.344,-0.113 -1.827,0.396l-0.013,0.013c-1.74,1.682 -1.409,4.007 -0.049,5.077c0.126,0.09 0.252,0.172 0.386,0.248c1.878,1.068 3.638,0.219 4.552,-0.804l-0.001,-0c0.406,-0.461 0.495,-1.034 0.33,-1.637Z" style="fill:url(#_Radial36);fill-rule:nonzero;"/><path d="M26.073,14.721c0.451,0.143 0.671,0.721 0.49,1.288c-0.18,0.568 -0.693,0.912 -1.145,0.768c-0.451,-0.143 -0.67,-0.72 -0.49,-1.288c0.181,-0.568 0.693,-0.912 1.145,-0.768Z" style="fill:url(#_Linear37);"/></g></g><defs><linearGradient id="_Linear1" x1="0" y1="0" x2="1" y2="0" gradientUnits="userSpaceOnUse" gradientTransform="matrix(-5,-0.8236,0.8236,-5,8.1109,17.3079)"><stop offset="0" style="stop-color:#ee2452;stop-opacity:1"/><stop offset="1" style="stop-color:#f63e7a;stop-opacity:1"/></linearGradient><radialGradient id="_Radial2" cx="0" cy="0" r="1" gradientUnits="userSpaceOnUse" gradientTransform="matrix(7.52114,-2.73117,0.464355,1.27875,2.39755,17.0631)"><stop offset="0" style="stop-color:#ff8db0;stop-opacity:1"/><stop offset="0.16" style="stop-color:#ff8db0;stop-opacity:1"/><stop offset="1" style="stop-color:#ff8db0;stop-opacity:0"/></radialGradient><linearGradient id="_Linear3" x1="0" y1="0" x2="1" y2="0" gradientUnits="userSpaceOnUse" gradientTransform="matrix(0.81527,-0.7949,0.7949,0.81527,4.90476,19.7332)"><stop offset="0" style="stop-color:#dd467c;stop-opacity:1"/><stop offset="0.49" style="stop-color:#dd467c;stop-opacity:1"/><stop offset="1" style="stop-color:#dd467c;stop-opacity:0"/></linearGradient><linearGradient id="_Linear4" x1="0" y1="0" x2="1" y2="0" gradientUnits="userSpaceOnUse" gradientTransform="matrix(-6.2179,4.8792,-4.8792,-6.2179,17.8921,21.6718)"><stop offset="0" style="stop-color:#f83267;stop-opacity:1"/><stop offset="1" style="stop-color:#ff3190;stop-opacity:1"/></linearGradient><radialGradient id="_Radial5" cx="0" cy="0" r="1" gradientUnits="userSpaceOnUse" gradientTransform="matrix(0.468749,7.62467,-6.57365,0.404135,14.5796,22.203)"><stop offset="0" style="stop-color:#e76cbe;stop-opacity:0"/><stop offset="0.76" style="stop-color:#e76cbe;stop-opacity:0"/><stop offset="0.95" style="stop-color:#e76cbe;stop-opacity:1"/><stop offset="1" style="stop-color:#e76cbe;stop-opacity:1"/></radialGradient><radialGradient id="_Radial6" cx="0" cy="0" r="1" gradientUnits="userSpaceOnUse" gradientTransform="matrix(2.84375,-4.4375,1.94917,1.24912,13.4546,26.2343)"><stop offset="0" style="stop-color:#ff5898;stop-opacity:1"/><stop offset="1" style="stop-color:#ff5898;stop-opacity:0"/></radialGradient><linearGradient id="_Linear7" x1="0" y1="0" x2="1" y2="0" gradientUnits="userSpaceOnUse" gradientTransform="matrix(8.8125,8.875,-8.875,8.8125,13.4859,8.6717)"><stop offset="0" style="stop-color:#ccbbc0;stop-opacity:1"/><stop offset="1" style="stop-color:#ead2ec;stop-opacity:1"/></linearGradient><radialGradient id="_Radial8" cx="0" cy="0" r="1" gradientUnits="userSpaceOnUse" gradientTransform="matrix(-13.2213,-10.1645,19.1066,-24.8526,23.9694,21.5771)"><stop offset="0" style="stop-color:#e7e5e5;stop-opacity:0"/><stop offset="0.81" style="stop-color:#e7e5e5;stop-opacity:0"/><stop offset="1" style="stop-color:#e7e5e5;stop-opacity:1"/></radialGradient><radialGradient id="_Radial9" cx="0" cy="0" r="1" gradientUnits="userSpaceOnUse" gradientTransform="matrix(5.34968,-8.21557,3.86124,2.5143,9.18137,21.3096)"><stop offset="0" style="stop-color:#b5a3a5;stop-opacity:1"/><stop offset="0.28" style="stop-color:#b5a3a5;stop-opacity:1"/><stop offset="1" style="stop-color:#b5a3a5;stop-opacity:0"/></radialGradient><radialGradient id="_Radial10" cx="0" cy="0" r="1" gradientUnits="userSpaceOnUse" gradientTransform="matrix(2.45025,-8.33865,1.41296,0.415188,6.34463,20.091)"><stop offset="0" style="stop-color:#b28f96;stop-opacity:1"/><stop offset="0.21" style="stop-color:#b28f96;stop-opacity:1"/><stop offset="1" style="stop-color:#b28f96;stop-opacity:0"/></radialGradient><radialGradient id="_Radial11" cx="0" cy="0" r="1" gradientUnits="userSpaceOnUse" gradientTransform="matrix(-9.68,8.93746,-2.77498,-3.00553,27.1109,7.10921)"><stop offset="0" style="stop-color:#faecf1;stop-opacity:1"/><stop offset="1" style="stop-color:#faecf1;stop-opacity:0"/></radialGradient><radialGradient id="_Radial12" cx="0" cy="0" r="1" gradientUnits="userSpaceOnUse" gradientTransform="matrix(-4.10578,4.10578,-3.22724,-3.22724,8.19114,24.2458)"><stop offset="0" style="stop-color:#d46213;stop-opacity:1"/><stop offset="1" style="stop-color:#ff9542;stop-opacity:1"/></radialGradient><radialGradient id="_Radial13" cx="0" cy="0" r="1" gradientUnits="userSpaceOnUse" gradientTransform="matrix(-4.72447,-5.39938,5.69005,-4.9788,8.30362,28.9703)"><stop offset="0" style="stop-color:#ffc484;stop-opacity:0"/><stop offset="0.87" style="stop-color:#ffc484;stop-opacity:0"/><stop offset="1" style="stop-color:#ffc484;stop-opacity:1"/></radialGradient><linearGradient id="_Linear14" x1="0" y1="0" x2="1" y2="0" gradientUnits="userSpaceOnUse" gradientTransform="matrix(5.5,5.4063,-5.4063,5.5,5.7984,21.953)"><stop offset="0" style="stop-color:#452860;stop-opacity:1"/><stop offset="1" style="stop-color:#51509f;stop-opacity:1"/></linearGradient><radialGradient id="_Radial15" cx="0" cy="0" r="1" gradientUnits="userSpaceOnUse" gradientTransform="matrix(0.343751,1.59375,-1.40812,0.303713,6.82965,21.453)"><stop offset="0" style="stop-color:#8e839a;stop-opacity:1"/><stop offset="1" style="stop-color:#8e839a;stop-opacity:0"/></radialGradient><radialGradient id="_Radial16" cx="0" cy="0" r="1" gradientUnits="userSpaceOnUse" gradientTransform="matrix(4.16202,4.61197,-2.41751,2.18165,7.20687,22.4179)"><stop offset="0" style="stop-color:#6175b9;stop-opacity:0"/><stop offset="0.86" style="stop-color:#6175b9;stop-opacity:0"/><stop offset="1" style="stop-color:#6175b9;stop-opacity:1"/></radialGradient><linearGradient id="_Linear17" x1="0" y1="0" x2="1" y2="0" gradientUnits="userSpaceOnUse" gradientTransform="matrix(-3.6761,3.67609,-3.67609,-3.6761,29.1767,2.87587)"><stop offset="0" style="stop-color:#ff3745;stop-opacity:1"/><stop offset="1" style="stop-color:#ed224b;stop-opacity:1"/></linearGradient><radialGradient id="_Radial18" cx="0" cy="0" r="1" gradientUnits="userSpaceOnUse" gradientTransform="matrix(-5.83135,5.83135,-1.39986,-1.39986,28.7385,4.34743)"><stop offset="0" style="stop-color:#ff5971;stop-opacity:1"/><stop offset="0.19" style="stop-color:#ff5971;stop-opacity:1"/><stop offset="1" style="stop-color:#ff5971;stop-opacity:0"/></radialGradient><linearGradient id="_Linear19" x1="0" y1="0" x2="1" y2="0" gradientUnits="userSpaceOnUse" gradientTransform="matrix(0.3672,-0.38281,0.38281,0.3672,25.8218,6.79677)"><stop offset="0" style="stop-color:#d2575e;stop-opacity:1"/><stop offset="1" style="stop-color:#f93251;stop-opacity:0"/></linearGradient><linearGradient id="_Linear20" x1="0" y1="0" x2="1" y2="0" gradientUnits="userSpaceOnUse" gradientTransform="matrix(-6.48607,6.4861,-6.4861,-6.48607,15.1603,17.0649)"><stop offset="0" style="stop-color:#ff2644;stop-opacity:1"/><stop offset="1" style="stop-color:#ff2982;stop-opacity:1"/></linearGradient><radialGradient id="_Radial21" cx="0" cy="0" r="1" gradientUnits="userSpaceOnUse" gradientTransform="matrix(6.96875,-2.65624,0.695381,1.82436,6.2359,19.4218)"><stop offset="0" style="stop-color:#ff95af;stop-opacity:1"/><stop offset="1" style="stop-color:#ff95af;stop-opacity:0"/></radialGradient><radialGradient id="_Radial22" cx="0" cy="0" r="1" gradientUnits="userSpaceOnUse" gradientTransform="matrix(3.27669,3.24305,-0.957971,0.967907,5.39755,20.3079)"><stop offset="0" style="stop-color:#e14678;stop-opacity:1"/><stop offset="0.38" style="stop-color:#e14678;stop-opacity:1"/><stop offset="1" style="stop-color:#e14678;stop-opacity:0"/></radialGradient><radialGradient id="_Radial23" cx="0" cy="0" r="1" gradientUnits="userSpaceOnUse" gradientTransform="matrix(0.687495,7.37501,-7.85914,0.732626,11.5796,19.1405)"><stop offset="0" style="stop-color:#e67bc7;stop-opacity:0"/><stop offset="0.83" style="stop-color:#e67bc7;stop-opacity:0"/><stop offset="1" style="stop-color:#e67bc7;stop-opacity:1"/></radialGradient><linearGradient id="_Linear24" x1="0" y1="0" x2="1" y2="0" gradientUnits="userSpaceOnUse" gradientTransform="matrix(-4.125,4.3125,-4.3125,-4.125,13.9859,18.1093)"><stop offset="0" style="stop-color:#ff5970;stop-opacity:1"/><stop offset="1" style="stop-color:#ff5794;stop-opacity:1"/></linearGradient><radialGradient id="_Radial25" cx="0" cy="0" r="1" gradientUnits="userSpaceOnUse" gradientTransform="matrix(-3.78236,5.96162,-12.3539,-7.83793,24.5683,11.945)"><stop offset="0" style="stop-color:#5f5b9b;stop-opacity:1"/><stop offset="1" style="stop-color:#5c3085;stop-opacity:1"/></radialGradient><radialGradient id="_Radial26" cx="0" cy="0" r="1" gradientUnits="userSpaceOnUse" gradientTransform="matrix(-1.65912,2.69735,-3.03021,-1.86386,23.6388,15.2295)"><stop offset="0" style="stop-color:#77579c;stop-opacity:1"/><stop offset="0.78" style="stop-color:#77579c;stop-opacity:1"/><stop offset="0.94" style="stop-color:#77579c;stop-opacity:0"/><stop offset="1" style="stop-color:#77579c;stop-opacity:0"/></radialGradient><radialGradient id="_Radial27" cx="0" cy="0" r="1" gradientUnits="userSpaceOnUse" gradientTransform="matrix(0.503563,-2.64058,1.93833,0.369642,23.1995,14.0112)"><stop offset="0" style="stop-color:#4e3d92;stop-opacity:1"/><stop offset="0.77" style="stop-color:#4e3d92;stop-opacity:1"/><stop offset="1" style="stop-color:#534687;stop-opacity:0"/></radialGradient><radialGradient id="_Radial28" cx="0" cy="0" r="1" gradientUnits="userSpaceOnUse" gradientTransform="matrix(-3.29114,0.858705,-0.975507,-3.73881,18.9125,9.19586)"><stop offset="0" style="stop-color:#4c3d70;stop-opacity:1"/><stop offset="1" style="stop-color:#361c5d;stop-opacity:1"/></radialGradient><radialGradient id="_Radial29" cx="0" cy="0" r="1" gradientUnits="userSpaceOnUse" gradientTransform="matrix(-2.81041,3.27094,-4.85713,-4.17328,18.3433,8.77887)"><stop offset="0" style="stop-color:#5b2b84;stop-opacity:0"/><stop offset="0.65" style="stop-color:#5b2b84;stop-opacity:0"/><stop offset="1" style="stop-color:#5b2b84;stop-opacity:1"/></radialGradient><radialGradient id="_Radial30" cx="0" cy="0" r="1" gradientUnits="userSpaceOnUse" gradientTransform="matrix(3.70559,-5.48996,5.43665,3.6696,14.6495,11.26)"><stop offset="0" style="stop-color:#2e1d57;stop-opacity:0"/><stop offset="0.86" style="stop-color:#2e1d57;stop-opacity:0"/><stop offset="1" style="stop-color:#20143d;stop-opacity:1"/></radialGradient><radialGradient id="_Radial31" cx="0" cy="0" r="1" gradientUnits="userSpaceOnUse" gradientTransform="matrix(-3.6431,2.47987,-2.32741,-3.41912,18.3407,8.18234)"><stop offset="0" style="stop-color:#2e1d57;stop-opacity:0"/><stop offset="0.87" style="stop-color:#2e1d57;stop-opacity:0"/><stop offset="1" style="stop-color:#20143d;stop-opacity:0.6"/></radialGradient><linearGradient id="_Linear32" x1="0" y1="0" x2="1" y2="0" gradientUnits="userSpaceOnUse" gradientTransform="matrix(-1.31312,1.48776,-1.48776,-1.31312,19.662,8.78344)"><stop offset="0" style="stop-color:#fff;stop-opacity:1"/><stop offset="0.97" style="stop-color:#fff;stop-opacity:0"/><stop offset="1" style="stop-color:#fff;stop-opacity:0"/></linearGradient><radialGradient id="_Radial33" cx="0" cy="0" r="1" gradientUnits="userSpaceOnUse" gradientTransform="matrix(-3.66848,0.995276,-1.49499,-5.51036,24.889,14.5519)"><stop offset="0" style="stop-color:#4c3d70;stop-opacity:1"/><stop offset="1" style="stop-color:#361c5d;stop-opacity:1"/></radialGradient><radialGradient id="_Radial34" cx="0" cy="0" r="1" gradientUnits="userSpaceOnUse" gradientTransform="matrix(-3.12268,2.97429,-4.41662,-4.63696,23.7817,13.9455)"><stop offset="0" style="stop-color:#5b2b84;stop-opacity:0"/><stop offset="0.65" style="stop-color:#5b2b84;stop-opacity:0"/><stop offset="1" style="stop-color:#5b2b84;stop-opacity:1"/></radialGradient><radialGradient id="_Radial35" cx="0" cy="0" r="1" gradientUnits="userSpaceOnUse" gradientTransform="matrix(4.88586,-3.30431,3.27221,4.83839,21.9001,17.084)"><stop offset="0" style="stop-color:#2e1d57;stop-opacity:0"/><stop offset="0.86" style="stop-color:#2e1d57;stop-opacity:0"/><stop offset="1" style="stop-color:#20143d;stop-opacity:1"/></radialGradient><radialGradient id="_Radial36" cx="0" cy="0" r="1" gradientUnits="userSpaceOnUse" gradientTransform="matrix(-2.28998,3.76537,-3.53387,-2.14919,24.3776,13.9175)"><stop offset="0" style="stop-color:#2e1d57;stop-opacity:0"/><stop offset="0.87" style="stop-color:#2e1d57;stop-opacity:0"/><stop offset="1" style="stop-color:#20143d;stop-opacity:0.6"/></radialGradient><linearGradient id="_Linear37" x1="0" y1="0" x2="1" y2="0" gradientUnits="userSpaceOnUse" gradientTransform="matrix(-1.31312,1.48776,-1.48776,-1.31312,26.3378,15.1256)"><stop offset="0" style="stop-color:#fff;stop-opacity:1"/><stop offset="0.97" style="stop-color:#fff;stop-opacity:0"/><stop offset="1" style="stop-color:#fff;stop-opacity:0"/></linearGradient></defs></svg>