<svg viewBox="0 0 141 120" xmlns="http://www.w3.org/2000/svg" fill-rule="evenodd" clip-rule="evenodd" stroke-linejoin="round" stroke-miterlimit="2"><path d="M103.161 57.27v8.255H37.637V13.68h8.154v43.69h49.216v-.1h8.154zm0-5.498h-8.154V8.155H45.791v.026h-8.154V0h65.524v51.772z" fill="white"/><path transform="translate(-.01) scale(.9882)" d="M60.043 22.691H81.739V44.387H60.043z" fill="rgb(179,179,179)"/><path d="M24.76 108.923c0 3.408-1.225 6.124-3.675 8.095-2.503 1.97-5.912 2.983-10.332 2.983-4.048 0-7.67-.8-10.759-2.29v-7.51c2.557 1.172 4.74 1.97 6.498 2.45 1.81.426 3.409.692 4.9.692 1.757 0 3.089-.373 4.047-1.012.96-.692 1.438-1.704 1.438-3.035a3.231 3.231 0 00-.639-1.971 7.002 7.002 0 00-1.81-1.704c-.8-.533-2.45-1.385-4.953-2.557-2.29-1.118-4.048-2.13-5.22-3.142a11.697 11.697 0 01-2.77-3.515C.794 95.075.422 93.53.422 91.72c0-3.355 1.171-6.018 3.408-7.935 2.29-1.918 5.432-2.876 9.48-2.876 1.97 0 3.835.213 5.646.692 1.81.48 3.674 1.118 5.645 1.97l-2.61 6.285a35.992 35.992 0 00-5.006-1.757 16.96 16.96 0 00-3.941-.48c-1.545 0-2.716.373-3.515 1.065-.8.693-1.225 1.651-1.225 2.77 0 .692.16 1.331.48 1.864a5.558 5.558 0 001.597 1.544c.692.48 2.397 1.385 5.113 2.663 3.568 1.705 5.965 3.409 7.296 5.113 1.332 1.704 1.97 3.782 1.97 6.285z" fill="rgb(179,179,179)" fill-rule="nonzero"/><path d="M47.81 87.62c-3.035 0-5.378 1.118-7.03 3.408-1.704 2.29-2.503 5.485-2.503 9.533 0 8.468 3.196 12.729 9.534 12.729 2.663 0 5.912-.692 9.693-2.024v6.764c-3.09 1.331-6.604 1.97-10.439 1.97-5.539 0-9.746-1.704-12.675-5.059-2.93-3.355-4.42-8.149-4.42-14.433 0-3.941.745-7.403 2.183-10.386 1.438-2.982 3.462-5.272 6.178-6.817 2.716-1.597 5.858-2.396 9.48-2.396 3.675 0 7.403.905 11.13 2.663l-2.609 6.55a42.773 42.773 0 00-4.26-1.757 13.557 13.557 0 00-4.261-.746zm33.883 31.848l-9.16-29.825h-.213c.32 6.072.48 10.12.48 12.143v17.682h-7.19V81.44h10.97l9.001 29.08h.16l9.533-29.08h10.972v38.027h-7.51v-18.002c0-.852 0-1.81.053-2.929 0-1.118.107-4.047.32-8.84h-.213l-9.8 29.77h-7.403zm48.779 0h-8.042V88.152h-10.333v-6.71h28.707v6.71h-10.332v31.316z" fill="white" fill-rule="nonzero"/></svg>