<svg viewBox="0 0 280 50" xmlns="http://www.w3.org/2000/svg" fill-rule="evenodd" clip-rule="evenodd" stroke-linejoin="round" stroke-miterlimit="2"><path d="M13.046 40.685c1.303-.362 2.658-.572 3.907-1.087 1.4-.581 2.701-1.376 3.985-2.181.934-.584 1.85-1.211 2.653-1.965 1.353-1.274 2.411-2.847 3.79-4.098 1.014-.915 2.422-1.367 3.351-2.377.245-.263.104-.833-.168-1.068-.28-.245-.772-.189-1.108-.036-.512.234-.808.787-1.264 1.114-.405.296-.93.41-1.305.735-2.165 1.903-4.126 4.022-6.286 5.926-.729.643-1.483 1.296-2.366 1.698-1.678.767-3.426 1.446-5.24 1.784-1.259.229-2.58.127-3.837-.114-.543-.102-.983-.524-1.397-.892-.729-.641-1.43-1.33-2.009-2.113-.435-.584-.844-1.233-1.006-1.944-.459-2.032-.943-4.107-.835-6.187.128-2.49.908-4.902 1.534-7.313.292-1.125.756-2.19 1.212-3.257.295-.688.615-1.37 1.039-1.99.92-1.339 1.853-2.689 2.977-3.866.621-.646 1.418-1.12 2.206-1.557 1.34-.739 2.721-1.418 4.154-1.955 1.055-.401 2.163-.667 3.277-.846.547-.087 1.118-.05 1.663.058.169.031.302.192.38.345.309.608.446 1.286.76 1.883.08.154.25.407.398.325.218-.124.254-.446.277-.694.067-.721.08-1.455-.01-2.17-.022-.168-.165-.323-.316-.392-.817-.385-1.634-.98-2.536-.946-1.62.057-3.169.715-4.712 1.216-1.318.433-2.599.974-3.853 1.564a8.13 8.13 0 00-1.627 1.012 23.412 23.412 0 00-2.389 2.248 13.968 13.968 0 00-1.562 2.012c-.647 1.023-1.287 2.063-1.734 3.184-.694 1.745-1.219 3.554-1.672 5.376-.467 1.881-1.041 3.781-1.084 5.717-.048 2.125.403 4.243.817 6.327.152.77.407 1.55.869 2.183a19.102 19.102 0 003.178 3.366 4.218 4.218 0 001.953.929m174.778 1.857c.855-.44 1.811-.72 2.565-1.32.541-.433 1.007-1.024 1.217-1.682.925-2.899 1.817-5.847 2.15-8.87.551-5.015.592-10.081.49-15.125-.023-1.123-.496-2.189-.864-3.246-.292-.84-.232-2.273-1.107-2.417-1.336-.221-2.436 1.2-3.722 1.622a86.203 86.203 0 01-7.978 2.23 3.286 3.286 0 01-1.68-.053c-.528-.16-.962-.55-1.397-.892-.44-.341-.67-1.023-1.214-1.157-.32-.079-.55.4-.72.682-.052.085.087.186.154.258.39.442.76.906 1.21 1.28a6.96 6.96 0 001.398.893c.172.085.378.08.57.086 1.267.036 2.554.256 3.804.043 1.933-.334 3.782-1.049 5.646-1.654 1.027-.338 1.973-.91 3.021-1.172.166-.044.342.16.4.319.371 1.02.833 2.047.86 3.132.124 4.85.049 9.721-.41 14.55-.242 2.54-1.04 5-1.682 7.464-.179.691-.341 1.426-.778 1.986a4.48 4.48 0 01-1.873 1.415c-.517.201-1.12.07-1.666-.037a29.509 29.509 0 01-3.828-1.02c-.826-.282-1.653-.608-2.382-1.087-.492-.321-.953-.755-1.216-1.281-.12-.246.267-.538.184-.794-.105-.32-.353-.83-.685-.753-.577.13-1.013.69-1.3 1.21-.138.244-.004.604.166.83.655.872 1.343 1.76 2.244 2.368.868.586 1.935.816 2.935 1.13 1.26.403 2.538.763 3.837 1.015M48.973 34.02c.163-.173.39-.302.49-.52.085-.176.047-.393.031-.587-.232-2.91-.283-5.842-.773-8.716-.266-1.562-.635-3.17-1.481-4.505-.247-.385-.94-.135-1.378.004-.59.188-1.15.523-1.601.948a48.246 48.246 0 00-4.35 4.648c-.541.659-.806 1.51-1.278 2.22-.201.307-.504 1.097-.732.815-.35-.436-.067-1.13.04-1.677.515-2.646 1.342-5.224 1.822-7.871.524-2.889 1.008-5.79 1.188-8.72.019-.307-.526-.992-.61-.697-.803 2.853-1.011 5.843-1.654 8.739-.912 4.108-2.092 8.155-3.01 12.263-.106.472-.272 1.017-.056 1.45.233.47.732.89 1.251.947.368.043.65-.397.857-.704 1.35-2.002 2.381-4.218 3.785-6.18.531-.746 1.37-1.225 1.982-1.903.467-.522.796-1.15 1.244-1.687.149-.18.323-.352.536-.444.177-.075.412-.144.58-.048.349.199.664.505.84.866.402.831.774 1.722.855 2.641.172 1.98.06 3.985-.106 5.966-.032.382-.392.674-.481 1.05-.085.359-.156.762-.03 1.11.113.317.37.637.694.733m38.853.557c.508-.455 1.119-.82 1.524-1.376.427-.576.676-1.27.924-1.95.07-.186.091-.418.015-.603-.219-.535-.372-1.214-.873-1.509-1.894-1.117-4.142-1.515-6.069-2.568-.3-.165-.356-.614-.377-.955-.016-.28.128-.552.274-.79.365-.6.748-1.205 1.245-1.698 1.217-1.212 2.722-2.125 3.874-3.398.15-.169-.434-.223-.651-.17-.707.18-1.418.435-2.016.855-.853.597-1.563 1.38-2.27 2.143-.717.774-1.457 1.551-1.994 2.46-.186.312-.128.724-.103 1.092.02.276.093.564.238.805.167.28.38.561.67.704 1.98.963 4.085 1.649 6.08 2.58.164.074.288.25.346.42.062.184.088.417-.008.582-.358.632-.613 1.537-1.308 1.744-1.381.414-2.892.096-4.327-.052-.564-.054-1.044-.483-1.605-.558-.276-.04-.566.086-.805.23-.2.119-.418.296-.457.527-.028.167.152.323.298.413.62.369 1.239.823 1.952.93m15.129-.647c.14-.104.381-.14.42-.312.672-2.949-.538-6.858 1.682-8.91 2.915-2.698 7.806-1.696 11.462-3.244.514-.218-.728-1.041-1.285-1.073-1.328-.075-2.621.466-3.913.78-1.782.44-3.516 1.061-5.301 1.486-.084.019-.194-.087-.193-.173.04-4.678.076-9.361.316-14.034.03-.56.556-1.058.489-1.621-.03-.25-.461-.25-.714-.258-.248-.001-.603.005-.708.229-.094.202.352.355.33.576-.282 2.879-.953 5.704-1.228 8.583-.215 2.245.547 4.646-.241 6.761-.362.967-1.9.832-2.791 1.357-.714.417-1.692.697-2.007 1.465-.198.48.521.905.876 1.282.077.083.249.078.337.01.163-.13.173-.39.327-.525a10.656 10.656 0 011.63-1.233c.124-.078.402-.14.437.001.131.538.09 1.12-.03 1.662-.21.944-.164 2.18-.95 2.741-.453.328-.805-.81-1.022-1.324-.066-.158.247-.257.287-.423.017-.075-.067-.175-.143-.177-.25-.012-.556-.032-.738.141-.142.136-.102.402-.03.587a82.78 82.78 0 002.463 5.65m-39.645-1.087c1.073-1.011 2.27-1.895 3.217-3.023 1.156-1.376 1.934-3.032 3.056-4.436.668-.834 1.667-1.378 2.29-2.245.148-.207.066-.614-.148-.744-.314-.198-.775-.2-1.108-.037-.558.27-.984.771-1.382 1.246-1.312 1.56-2.263 3.438-3.735 4.848-.291.284-.127-.813-.054-1.21.07-.376.458-.667.473-1.05.016-.382-.472-.715-.384-1.09.107-.45.81-.603.893-1.054.053-.29-.442-.935-.575-.67-1.1 2.182-1.644 4.606-2.551 6.874-.172.433-.546.773-.679 1.217-.107.359-.188.788-.02 1.122m144.308 1.65c1.167-.41 2.374-.71 3.5-1.219.658-.3 1.25-.73 1.816-1.179.564-.443 1.155-.896 1.562-1.488.992-1.446 2.06-2.91 2.598-4.585.39-1.214.346-2.575.108-3.828-.178-.939-.761-1.765-1.317-2.536-.552-.771-1.087-1.71-1.974-2.036-1.194-.444-2.555-.267-3.82-.12-.716.089-1.36.497-2.003.819-.57.291-1.106.643-1.627 1.017-.147.104-.297.229-.363.394a.812.812 0 00-.016.572c.086.218.229.47.453.536.256.078.518-.169.785-.161.246.007.865.008.71.198-1.142 1.436-2.78 2.42-3.933 3.845-.853 1.05-1.526 2.261-2.028 3.52a2.53 2.53 0 00-.047 1.672c.313.975.928 1.824 1.455 2.697.11.18.26.352.444.455.969.545 1.953 1.075 2.99 1.471m.639-1.617c-.83-.364-1.757-.562-2.49-1.101-.548-.399-.882-1.04-1.234-1.622a1.761 1.761 0 01-.237-.805c-.028-.551-.083-1.13.113-1.643.34-.892.83-1.741 1.458-2.458 1.229-1.406 2.474-2.876 4.064-3.846.349-.217.572.62.95.772.174.07.5.02.54-.163.072-.327-.039-.74-.292-.958-.566-.486-1.369-.6-1.997-1.001-.067-.04.109-.116.176-.157.475-.283.9-.73 1.447-.812 1.08-.164 2.216-.164 3.279.098.423.104.687.56.924.927.518.798 1.1 1.607 1.318 2.536.21.891.163 1.867-.078 2.75-.296 1.088-.938 2.046-1.497 3.024-.332.578-.684 1.168-1.17 1.629-.406.388-.998.522-1.447.86-.46.343-.752.913-1.264 1.179M71.45 31.04c.325-.1.796-.005.975-.297.892-1.432 1.492-3.034 2.08-4.615.088-.235.024-.522-.083-.747-.136-.295-.33-.91-.615-.756-.598.333-.802 1.11-1.126 1.71-.504.931-.99 1.883-1.352 2.877-.127.347-.12.736-.095 1.109m60.868.667c.073-.738.053-1.494.22-2.212.456-1.968 1.174-3.863 1.642-5.825.088-.365.198-.799.018-1.128-.12-.22-.52-.322-.734-.188-2.534 1.59-4.786 3.605-7.295 5.24-.604.393-1.314.605-2.003.812-.188.06-.429.09-.587-.028-.477-.348-.985-.74-1.217-1.28-.213-.503-.194-1.118-.026-1.631.35-1.08.921-2.084 1.54-3.027.288-.44.694-.817 1.145-1.085.62-.371 1.297-.72 2.015-.796.39-.043.694.414 1.084.462.246.029.843-.02.708-.228-.392-.605-.996-1.248-1.713-1.327-1.077-.117-2.16.36-3.154.79-.477.208-.858.629-1.132 1.075-.798 1.283-1.527 2.633-2.045 4.054-.192.529-.179 1.134-.046 1.677.131.538.484 1.002.81 1.448.258.353.501.818.924.922 1.062.257 2.224.386 3.278.098 1.158-.318 2.111-1.155 3.094-1.845.54-.379.92-.95 1.452-1.34.446-.328.909-.779 1.462-.79.258-.01.248.498.186.75-.22.906-.811 1.693-1.007 2.605-.192.89-.163 1.814-.14 2.727.006.254.002.604.225.724.244.136.571-.027.819-.155m90.63 2.008c1.35-.577 2.756-1.045 4.052-1.737.383-.205.69-.558.92-.923.101-.165.144-.434.013-.572-.178-.183-.501-.279-.745-.2-1.487.498-2.78 1.541-4.31 1.892-1.172.264-2.457.265-3.608-.086-.501-.154-.784-.777-.897-1.293-.196-.885-.226-1.847.01-2.72.296-1.098.852-2.13 1.541-3.027.79-1.03 1.813-1.87 2.83-2.678.676-.531 1.581-.743 2.22-1.324.139-.126-.024-.411-.165-.534-.14-.123-.375-.145-.55-.086-1.067.375-2.16.744-3.107 1.359-.874.569-1.618 1.341-2.275 2.154-.5.617-.823 1.358-1.155 2.083-.38.826-.79 1.656-.972 2.547a5.52 5.52 0 00.003 2.185c.15.728.412 1.464.864 2.049.331.435.844.784 1.38.875m-103.397-5.116c.432-1.617.95-3.21 1.296-4.852.075-.355.084-.748-.042-1.092-.101-.278-.446-.908-.6-.654-1.123 1.858-2.201 3.83-2.611 5.96-.111.58.655 1.109 1.217 1.292m24.582-1.62c.35-.498.608-1.074 1.05-1.493.41-.383 1.007-.511 1.449-.86.665-.521 1.158-1.252 1.853-1.734.786-.545 1.614-1.12 2.55-1.32.32-.067.67.293.774.604.514 1.536.437 3.24 1.016 4.756.095.246.555.075.79-.042.305-.159.755-.39.725-.73-.155-1.79-.65-3.553-1.243-5.254-.142-.403-.507-.759-.909-.91a2.653 2.653 0 00-1.66-.053c-.913.271-1.742.793-2.536 1.316-1.216.807-2.18 1.989-3.473 2.66-.226.117-.23-.466-.252-.72a6.473 6.473 0 01.045-1.618c.091-.553.508-1.054.488-1.621-.008-.195-.482-.365-.555-.183-.745 1.846-1.063 3.84-1.684 5.732-.1.305-.41.523-.472.84-.05.252-.056.608.155.754.3.208.725.134 1.089.106m118.176 4.832c.249-.074.65.013.747-.228.162-.4.16-.972-.135-1.282-.253-.272-.743-.102-1.107-.037-.38.065-.694.39-1.08.417-.905.072-1.842.089-2.72-.141-.563-.146-1.06-.532-1.46-.953-.375-.4-.585-.929-.798-1.437-.075-.175-.055-.38-.05-.573.01-.367-.013-.75.094-1.104.306-1.017.512-2.117 1.134-2.974.607-.841 1.453-1.589 2.427-1.94.855-.31 1.84-.13 2.725.078.326.08.589.41.69.732.082.266-.035.592-.207.809a8.553 8.553 0 01-1.683 1.598c-.525.38-1.344.362-1.734.88-.173.227.348.495.615.605.223.093.495.025.72-.06a5.707 5.707 0 001.309-.724c.43-.312.823-.684 1.161-1.096.351-.427.73-.87.891-1.4.161-.529.316-1.178.04-1.655-.36-.63-1.047-1.098-1.741-1.312-.878-.273-1.891-.393-2.755-.078-1.378.496-2.72 1.294-3.682 2.4-.846.97-1.174 2.31-1.511 3.552-.193.707-.137 1.475-.055 2.206.023.205.332.311.36.517.034.25.046.644-.19.734-.515.196-1.133.152-1.647-.04-.547-.2-.972-.66-1.378-1.076-.693-.716-1.1-1.715-1.9-2.31-.93-.69-2.894-.313-3.156-1.438-.239-1.021 1.34-1.76 2.326-2.12.433-.155.594.88 1.054.893.432.013.71-.508.988-.84.984-1.182 1.958-2.38 2.781-3.678.603-.955 1.05-2 1.476-3.04.032-.075-.075-.175-.157-.199a3.52 3.52 0 00-1.086-.106c-.28.02-.578.075-.808.236-.482.332-.897.763-1.277 1.21-.368.433-.558 1.005-.953 1.41a74.855 74.855 0 01-4.898 4.616c-.429.37-1.026.51-1.46.876-1.233 1.034-2.273 2.283-3.515 3.3-.427.355-.944.595-1.462.79-.077.03-.201-.08-.184-.167.223-1.051.533-2.084.879-3.1 1.347-3.966 2.694-7.938 4.197-11.846.291-.758.85-1.384 1.175-2.125.123-.283-.032-.665.154-.908.394-.512 1.302-.622 1.492-1.242.105-.337-.722-.404-1.036-.24-.542.287-.895.865-1.18 1.408-1.07 2.036-2 4.142-2.86 6.27-.966 2.402-1.654 4.908-2.612 7.315-.525 1.318-1.354 2.504-1.83 3.84-.163.454-.27 1.017-.058 1.45.23.47.755.766 1.237.968.349.15.773.14 1.136.032.53-.157 1.017-.462 1.446-.811 1.232-.996 1.966-2.86 3.514-3.199 1.266-.277 2.466.906 3.514 1.67.756.55 1.103 1.52 1.77 2.176.495.49 1.033.99 1.686 1.224 2.048.744 4.178 1.263 6.316 1.685.88.17 1.798.158 2.691.07m4.937-3.714c.373.01.786.206 1.117.037 1.429-.731 2.643-1.82 4.011-2.66 1.319-.805 2.733-1.456 4.045-2.277.881-.547 1.618-1.32 2.525-1.834.93-.524 2.018-.725 2.951-1.244.851-.472 1.673-1.027 2.369-1.703a.881.881 0 00.22-.825c-.096-.321-.401-.556-.689-.726-.163-.097-.411-.125-.569-.017-.675.456-1.123 1.215-1.82 1.638-1.454.882-3.119 1.385-4.58 2.256-.569.34-.915.973-1.459 1.351-.985.685-2 1.358-3.104 1.829-.226.096-.603.02-.71-.199-.093-.191.292-.32.36-.518.063-.182.143-.433.013-.572-.173-.183-.532-.344-.73-.188-1.667 1.302-3.232 2.753-4.61 4.355-.182.21.033.573.16.82M74.301 14.421c-.412-.319-.727-.851-1.236-.952-.287-.062-.845.316-.678.558.362.523 1.062.77 1.686.9m41.207-.066c-.05-.277-.022-.578-.148-.83-.106-.208-.286-.424-.515-.479-.27-.067-.57.033-.817.16-.208.108-.42.286-.48.51-.064.247-.06.604.148.744.301.209.725.129 1.09.107m94.478-3.185c.248-.23.614-.377.744-.686.097-.235.084-.646-.149-.744-.395-.168-.97-.162-1.282.131-.269.257-.204.782-.031 1.111m-3.283-2.257c-.42-.438-.727-1.024-1.26-1.32-.248-.136-.583.038-.832.171-.205.108-.544.308-.457.527.218.546.68 1.007 1.19 1.302.32.187.777.194 1.107.026" fill="white" fill-rule="nonzero"/><path d="M8.065 44.023c8.738-.898 17.453-1.996 26.213-2.695 14.16-1.13 28.341-2.063 42.534-2.785 10.084-.52 20.187-.712 30.285-.947 15.823-.37 31.645-.997 47.474-.873 28.892.229 57.78 1.01 86.659 1.935 8.39.269 16.755 1.019 25.122 1.651 1.58.122 3.132.478 4.71.62.587.051 1.208.13 1.769-.04.2-.06.39-.469.199-.548-1.256-.543-2.62-.885-3.99-1.087-2.567-.38-5.17-.512-7.764-.656-13.693-.747-27.388-1.51-41.094-2.015a1322.161 1322.161 0 00-35.711-.8c-14.167-.129-28.335-.087-42.5.073-15.06.173-30.118.549-45.174.92-6.656.167-13.31.41-19.96.695-4.263.178-8.522.426-12.779.706-9.85.642-19.7 1.27-29.537 2.052-6.085.48-12.157 1.095-18.222 1.742-2.79.302-5.547.836-8.34 1.111a5.932 5.932 0 01-1.767-.114c-.224-.043-.335-.378-.564-.362-.172.013-.387.335-.241.419" fill="white" fill-rule="nonzero"/></svg>