<svg viewBox="0 0 76 90" xmlns="http://www.w3.org/2000/svg" fill-rule="evenodd" clip-rule="evenodd" stroke-linejoin="round" stroke-miterlimit="2"><g fill-rule="nonzero"><path d="M71.826 74.898V50.787h8.003V82.9H7.6V50.787h8.002v24.11h56.224z" fill="rgb(188,187,187)" transform="translate(-7.6 7.1)"/><path d="M24.436 48.5l39.284 8.21 1.663-7.898-39.284-8.21-1.663 7.898zm5.196-18.706l36.374 16.94 3.326-7.275-36.374-17.044-3.326 7.379zm10.081-17.876l30.866 25.67 5.093-6.131-30.867-25.67-5.092 6.131zM59.667-7.1l-6.444 4.78 23.903 32.218 6.444-4.781L59.667-7.1zM23.605 66.791H63.72V58.79H23.605v8.002z" fill="rgb(244,128,35)" transform="translate(-7.6 7.1)"/></g></svg>