<?xml version="1.0" encoding="UTF-8" standalone="no"?><!DOCTYPE svg PUBLIC "-//W3C//DTD SVG 1.1//EN" "http://www.w3.org/Graphics/SVG/1.1/DTD/svg11.dtd"><svg width="100%" height="100%" viewBox="0 0 32 32" version="1.1" xmlns="http://www.w3.org/2000/svg" xmlns:xlink="http://www.w3.org/1999/xlink" xml:space="preserve" xmlns:serif="http://www.serif.com/" style="fill-rule:evenodd;clip-rule:evenodd;stroke-linecap:round;stroke-linejoin:round;stroke-miterlimit:1.5;"><g><path d="M5.072,4.635c0,-0.883 0.717,-1.6 1.6,-1.6l18.656,0c0.883,0 1.6,0.717 1.6,1.6l0,23.734c0,0.883 -0.717,1.6 -1.6,1.6l-18.656,0c-0.883,0 -1.6,-0.717 -1.6,-1.6l0,-23.734Z" style="fill:url(#_Linear1);fill-rule:nonzero;"/><path d="M5.072,4.635c0,-0.883 0.717,-1.6 1.6,-1.6l18.656,0c0.883,0 1.6,0.717 1.6,1.6l0,23.734c0,0.883 -0.717,1.6 -1.6,1.6l-18.656,0c-0.883,0 -1.6,-0.717 -1.6,-1.6l0,-23.734Z" style="fill:url(#_Radial2);fill-rule:nonzero;"/></g><path d="M24.574,6.849c0,-0.689 -0.56,-1.249 -1.249,-1.249l-15.576,0c-0.689,0 -1.249,0.56 -1.249,1.249l0,20.113c0,0.69 0.56,1.249 1.249,1.249l15.576,0c0.689,0 1.249,-0.559 1.249,-1.249l0,-20.113Z" style="fill:#cd7d52;"/><path d="M24.913,6.421c0,-0.689 -0.559,-1.249 -1.249,-1.249l-15.576,0c-0.689,0 -1.249,0.56 -1.249,1.249l0,20.114c0,0.689 0.56,1.248 1.249,1.248l15.576,0c0.69,0 1.249,-0.559 1.249,-1.248l0,-20.114Z" style="fill:url(#_Linear3);"/><g><path d="M10.779,5.656c0,-0.276 0.224,-0.5 0.5,-0.5l9.188,0l0,2.657c0,0.276 -0.224,0.5 -0.5,0.5l-8.688,0c-0.276,0 -0.5,-0.224 -0.5,-0.5l0,-2.157Z" style="fill:#cabfd5;fill-rule:nonzero;"/></g><g><path d="M15.99,1.984c1.079,0 1.957,0.862 1.984,1.935c0.001,0.027 0.023,0.05 0.051,0.05l0.942,0c1.104,0 2,0.895 2,2l0,1.566c0,0.278 -0.226,0.504 -0.504,0.504l-8.93,0c-0.278,0 -0.504,-0.226 -0.504,-0.504l0,-1.566c0,-1.105 0.896,-2 2,-2l0.927,0c0.028,0 0.05,-0.023 0.051,-0.05c0.026,-1.073 0.904,-1.935 1.983,-1.935Zm0,2.883c0.497,-0 0.899,-0.402 0.899,-0.898c0,-0.496 -0.402,-0.899 -0.899,-0.899c-0.496,-0 -0.898,0.403 -0.898,0.899c0,0.496 0.402,0.898 0.898,0.898Z" style="fill:url(#_Linear4);"/></g><g><path d="M13.228,18.787c-0,0 0.353,-1.433 1.818,-1.904" style="fill:none;stroke:url(#_Linear5);stroke-width:1px;"/><path d="M13.671,16.101c0,0 1.092,-0.209 1.636,0.19c0.544,0.399 0.316,1.45 0.144,1.995" style="fill:none;stroke:url(#_Linear6);stroke-width:1px;"/></g><g><g id="Layer1"><path d="M12.214,26.974c2.414,0 3.619,-1.62 3.619,-3.619c0,-1.998 -1.205,-3.618 -3.619,-3.618c-2.412,-0 -3.617,1.62 -3.617,3.618c-0,1.999 1.205,3.619 3.617,3.619Z" style="fill:url(#_Radial7);fill-rule:nonzero;"/><path d="M12.214,26.974c2.414,0 3.619,-1.62 3.619,-3.619c0,-1.998 -1.205,-3.618 -3.619,-3.618c-2.412,-0 -3.617,1.62 -3.617,3.618c-0,1.999 1.205,3.619 3.617,3.619Z" style="fill:url(#_Radial8);fill-rule:nonzero;"/><path d="M12.214,26.974c2.414,0 3.619,-1.62 3.619,-3.619c0,-1.998 -1.205,-3.618 -3.619,-3.618c-2.412,-0 -3.617,1.62 -3.617,3.618c-0,1.999 1.205,3.619 3.617,3.619Z" style="fill:url(#_Radial9);fill-rule:nonzero;"/><path d="M12.214,26.974c2.414,0 3.619,-1.62 3.619,-3.619c0,-1.998 -1.205,-3.618 -3.619,-3.618c-2.412,-0 -3.617,1.62 -3.617,3.618c-0,1.999 1.205,3.619 3.617,3.619Z" style="fill:url(#_Radial10);fill-rule:nonzero;"/><path d="M12.214,26.974c2.414,0 3.619,-1.62 3.619,-3.619c0,-1.998 -1.205,-3.618 -3.619,-3.618c-2.412,-0 -3.617,1.62 -3.617,3.618c-0,1.999 1.205,3.619 3.617,3.619Z" style="fill:url(#_Radial11);fill-rule:nonzero;"/><path d="M12.214,26.974c2.414,0 3.619,-1.62 3.619,-3.619c0,-1.998 -1.205,-3.618 -3.619,-3.618c-2.412,-0 -3.617,1.62 -3.617,3.618c-0,1.999 1.205,3.619 3.617,3.619Z" style="fill:url(#_Radial12);fill-rule:nonzero;"/><path d="M12.214,26.974c2.414,0 3.619,-1.62 3.619,-3.619c0,-1.998 -1.205,-3.618 -3.619,-3.618c-2.412,-0 -3.617,1.62 -3.617,3.618c-0,1.999 1.205,3.619 3.617,3.619Z" style="fill:url(#_Radial13);fill-rule:nonzero;"/><path d="M12.214,26.974c2.414,0 3.619,-1.62 3.619,-3.619c0,-1.998 -1.205,-3.618 -3.619,-3.618c-2.412,-0 -3.617,1.62 -3.617,3.618c-0,1.999 1.205,3.619 3.617,3.619Z" style="fill:url(#_Radial14);fill-rule:nonzero;"/><path d="M12.87,25.477c-0,0 -0.772,-0.406 -1.569,0.01" style="fill:none;fill-rule:nonzero;stroke:url(#_Radial15);stroke-width:0.55px;stroke-miterlimit:4;"/><path d="M10.535,23.872c0.643,0 1.164,-0.52 1.164,-1.163c-0,-0.642 -0.521,-1.163 -1.164,-1.163c-0.642,-0 -1.163,0.521 -1.163,1.163c-0,0.643 0.521,1.163 1.163,1.163Z" style="fill:#fff;fill-rule:nonzero;"/><path d="M13.895,23.872c0.642,0 1.163,-0.52 1.163,-1.163c0,-0.642 -0.521,-1.163 -1.163,-1.163c-0.642,-0 -1.163,0.521 -1.163,1.163c-0,0.643 0.521,1.163 1.163,1.163Z" style="fill:#fff;fill-rule:nonzero;"/><path d="M10.793,22.063c-0.357,0 -0.646,0.289 -0.646,0.646c0,0.357 0.289,0.646 0.646,0.646c0.357,0 0.646,-0.289 0.646,-0.646c0,-0.357 -0.289,-0.646 -0.646,-0.646Zm2.844,0c-0.357,0 -0.646,0.289 -0.646,0.646c-0,0.357 0.289,0.646 0.646,0.646c0.357,0 0.646,-0.289 0.646,-0.646c-0,-0.357 -0.289,-0.646 -0.646,-0.646Z" style="fill:#402a32;"/><path d="M8.338,22.58c-0,-0.143 0.116,-0.259 0.259,-0.259l0.646,0l-0,0.517l-0.646,0c-0.143,0 -0.259,-0.115 -0.259,-0.258Zm7.473,0.258l-0.623,0l0,-0.517l0.623,0c0.155,0 0.281,0.116 0.281,0.259c0,0.142 -0.126,0.258 -0.281,0.258Zm-4.112,-0.517l1.033,0l-0,0.517l-1.033,0l-0,-0.517Z" style="fill:url(#_Linear16);"/><path d="M10.535,21.546c-0.642,-0 -1.163,0.521 -1.163,1.163c-0,0.643 0.521,1.163 1.163,1.163c0.643,0 1.164,-0.52 1.164,-1.163c-0,-0.642 -0.521,-1.163 -1.164,-1.163Zm-1.422,1.163c-0,-0.785 0.637,-1.421 1.422,-1.421c0.785,-0 1.421,0.636 1.421,1.421c0,0.786 -0.636,1.421 -1.421,1.421c-0.785,0 -1.422,-0.635 -1.422,-1.421Z" style="fill:url(#_Radial17);"/><path d="M13.895,21.548c-0.642,0 -1.161,0.52 -1.161,1.161c-0,0.642 0.519,1.161 1.161,1.161c0.641,0 1.162,-0.519 1.162,-1.161c-0,-0.641 -0.521,-1.161 -1.162,-1.161Zm-1.421,1.161c-0,-0.785 0.636,-1.421 1.421,-1.421c0.785,-0 1.422,0.636 1.422,1.421c0,0.786 -0.637,1.421 -1.422,1.421c-0.785,0 -1.421,-0.635 -1.421,-1.421Z" style="fill:url(#_Radial18);"/><path d="M10.535,21.546c-0.642,-0 -1.163,0.521 -1.163,1.163c-0,0.643 0.521,1.163 1.163,1.163c0.643,0 1.164,-0.52 1.164,-1.163c-0,-0.642 -0.521,-1.163 -1.164,-1.163Zm-1.422,1.163c-0,-0.785 0.637,-1.421 1.422,-1.421c0.785,-0 1.421,0.636 1.421,1.421c0,0.786 -0.636,1.421 -1.421,1.421c-0.785,0 -1.422,-0.635 -1.422,-1.421Z" style="fill:url(#_Radial19);"/><path d="M13.895,21.546c-0.642,-0 -1.163,0.521 -1.163,1.163c-0,0.643 0.521,1.163 1.163,1.163c0.642,0 1.163,-0.52 1.163,-1.163c0,-0.642 -0.521,-1.163 -1.163,-1.163Zm-1.421,1.163c-0,-0.785 0.636,-1.421 1.421,-1.421c0.785,-0 1.422,0.636 1.422,1.421c0,0.786 -0.637,1.421 -1.422,1.421c-0.785,0 -1.421,-0.635 -1.421,-1.421Z" style="fill:url(#_Radial20);"/></g></g><g><g><path d="M19.904,17.096c2.6,0 3.899,-1.744 3.899,-3.897c0,-2.153 -1.299,-3.897 -3.899,-3.897c-2.598,-0 -3.897,1.744 -3.897,3.897c-0,2.153 1.299,3.897 3.897,3.897Z" style="fill:url(#_Radial21);fill-rule:nonzero;"/><path d="M19.904,17.096c2.6,0 3.899,-1.744 3.899,-3.897c0,-2.153 -1.299,-3.897 -3.899,-3.897c-2.598,-0 -3.897,1.744 -3.897,3.897c-0,2.153 1.299,3.897 3.897,3.897Z" style="fill:url(#_Radial22);fill-rule:nonzero;"/><path d="M19.904,17.096c2.6,0 3.899,-1.744 3.899,-3.897c0,-2.153 -1.299,-3.897 -3.899,-3.897c-2.598,-0 -3.897,1.744 -3.897,3.897c-0,2.153 1.299,3.897 3.897,3.897Z" style="fill:url(#_Radial23);fill-rule:nonzero;"/><path d="M19.904,17.096c2.6,0 3.899,-1.744 3.899,-3.897c0,-2.153 -1.299,-3.897 -3.899,-3.897c-2.598,-0 -3.897,1.744 -3.897,3.897c-0,2.153 1.299,3.897 3.897,3.897Z" style="fill:url(#_Radial24);fill-rule:nonzero;"/><path d="M19.904,17.096c2.6,0 3.899,-1.744 3.899,-3.897c0,-2.153 -1.299,-3.897 -3.899,-3.897c-2.598,-0 -3.897,1.744 -3.897,3.897c-0,2.153 1.299,3.897 3.897,3.897Z" style="fill:url(#_Radial25);fill-rule:nonzero;"/><path d="M19.904,17.096c2.6,0 3.899,-1.744 3.899,-3.897c0,-2.153 -1.299,-3.897 -3.899,-3.897c-2.598,-0 -3.897,1.744 -3.897,3.897c-0,2.153 1.299,3.897 3.897,3.897Z" style="fill:url(#_Radial26);fill-rule:nonzero;"/><path d="M19.904,17.096c2.6,0 3.899,-1.744 3.899,-3.897c0,-2.153 -1.299,-3.897 -3.899,-3.897c-2.598,-0 -3.897,1.744 -3.897,3.897c-0,2.153 1.299,3.897 3.897,3.897Z" style="fill:url(#_Radial27);fill-rule:nonzero;"/><path d="M19.904,17.096c2.6,0 3.899,-1.744 3.899,-3.897c0,-2.153 -1.299,-3.897 -3.899,-3.897c-2.598,-0 -3.897,1.744 -3.897,3.897c-0,2.153 1.299,3.897 3.897,3.897Z" style="fill:url(#_Radial28);fill-rule:nonzero;"/><path d="M18.276,14.472c0,-0 0.608,0.64 1.508,0.501" style="fill:none;fill-rule:nonzero;stroke:url(#_Radial29);stroke-width:0.55px;stroke-miterlimit:4;"/><g><path d="M16.439,12.808c0.061,0.252 0.235,0.732 0.794,0.87c0.083,0.021 0.166,0.036 0.248,0.047c0.004,0.001 0.007,0.001 0.012,0.001c1.199,0.113 1.99,-0.9 2.029,-2.002c0.004,-0.092 0.074,-0.17 0.165,-0.171c0.049,0 0.1,0 0.152,0.001c0.09,0.002 0.161,0.078 0.163,0.17c0.04,1.102 0.832,2.115 2.031,2.002c0.003,0 0.008,0 0.011,-0.001c0.083,-0.011 0.164,-0.026 0.247,-0.047c0.74,-0.182 1.2,-0.67 1.434,-1.192c-0.036,-0.22 -0.088,-0.434 -0.155,-0.64c-0.07,0.614 -0.399,0.692 -1.279,0.91c-0.071,0.017 -0.32,0.19 -0.394,0.201c-0.835,0.077 -1.069,-0.471 -1.543,-1.345l-0,-0.021c0.03,0.005 0.062,0.008 0.093,0.013l0.076,-0.494c0.087,-0.113 0.205,-0.203 0.341,-0.257c0.032,-0.013 0.106,-0.044 0.337,-0.087c0.239,-0.044 0.874,-0.044 1.261,-0.043l0.087,-0c0.205,-0 0.391,0.059 0.511,0.113c-0.098,-0.136 -0.206,-0.263 -0.324,-0.381c-0.061,-0.008 -0.125,-0.011 -0.187,-0.011l-0.087,-0c-0.194,-0 -0.452,-0 -0.693,0.005c-0.233,0.006 -0.578,0.02 -0.722,0.047c-0.24,0.044 -0.337,0.081 -0.393,0.104c-0.153,0.062 -0.286,0.157 -0.391,0.276c-0.068,0.078 -0.164,0.13 -0.269,0.126c-0.167,-0.008 -0.325,-0.006 -0.465,-0.002c-0.103,0.005 -0.2,-0.047 -0.268,-0.126c-0.105,-0.118 -0.237,-0.212 -0.391,-0.274c-0.055,-0.023 -0.153,-0.06 -0.391,-0.104c-0.146,-0.027 -0.491,-0.041 -0.724,-0.047c-0.24,-0.005 -0.499,-0.005 -0.692,-0.005l-0.003,-0c-0.092,0.092 -0.179,0.189 -0.259,0.292c0.057,-0.009 0.114,-0.013 0.175,-0.013l0.086,-0c0.388,-0.001 1.024,-0.001 1.261,0.043c0.231,0.043 0.306,0.074 0.338,0.087c0.131,0.052 0.245,0.137 0.332,0.245l0.095,0.505c0.022,-0.005 0.051,-0.009 0.082,-0.013l0,0.022c0.051,1.172 -0.842,1.879 -1.677,1.801c-0.074,-0.01 -0.146,-0.023 -0.219,-0.042c-0.64,-0.158 -0.593,-0.628 -0.774,-1.077c-0.033,0.165 -0.047,0.343 -0.061,0.514Z" style="fill:url(#_Linear30);fill-rule:nonzero;"/></g><path d="M19.014,10.322c0.153,0.061 0.285,0.156 0.389,0.275c0.069,0.077 0.165,0.129 0.268,0.126c0.142,-0.006 0.298,-0.007 0.465,-0c0.105,0.004 0.203,-0.047 0.271,-0.126c0.104,-0.119 0.236,-0.214 0.39,-0.275c0.056,-0.024 0.153,-0.059 0.392,-0.104c0.146,-0.027 0.491,-0.042 0.724,-0.047c0.24,-0.006 0.498,-0.006 0.691,-0.006l0.087,0c0.332,0 0.659,0.105 0.789,0.184c0.29,0.147 0.561,0.43 0.579,0.916c0.002,0.007 0.002,0.015 0.003,0.022c0.022,0.749 -0.442,1.819 -1.627,2.113c-0.084,0.02 -0.166,0.036 -0.248,0.047c-0.004,0 -0.007,0 -0.012,0.001c-1.199,0.112 -1.991,-0.901 -2.029,-2.003c-0.004,-0.091 -0.073,-0.168 -0.165,-0.169c-0.052,-0.002 -0.102,-0.002 -0.151,-0c-0.091,0.001 -0.162,0.077 -0.164,0.169c-0.039,1.102 -0.832,2.115 -2.031,2.003c-0.003,-0.001 -0.008,-0.001 -0.012,-0.001c-0.082,-0.011 -0.163,-0.027 -0.247,-0.047c-1.185,-0.294 -1.65,-1.364 -1.627,-2.113c0,-0.007 0.002,-0.015 0.002,-0.022c0.02,-0.486 0.289,-0.769 0.581,-0.916c0.129,-0.079 0.456,-0.184 0.787,-0.184l0.088,0c0.193,0 0.45,0 0.692,0.006c0.233,0.005 0.577,0.02 0.722,0.047c0.24,0.045 0.336,0.08 0.393,0.104Zm-2.871,0.696c0.07,-0.169 0.199,-0.308 0.373,-0.413c0.098,-0.059 0.334,-0.161 0.603,-0.161l0.087,-0c0.387,-0 1.022,-0.001 1.261,0.043c0.23,0.043 0.305,0.075 0.336,0.089c0.131,0.05 0.245,0.136 0.332,0.243l0.095,0.505c0.023,-0.004 0.051,-0.008 0.084,-0.013l-0,0.022c0.049,1.173 -0.844,1.88 -1.679,1.801c-0.074,-0.01 -0.146,-0.023 -0.218,-0.041c-0.879,-0.217 -1.249,-0.912 -1.319,-1.524c-0.011,-0.096 -0.016,-0.187 -0.012,-0.277l-0,-0.005c0.005,-0.097 0.023,-0.187 0.057,-0.269Zm4.354,0.295l0,0.02c-0.05,1.173 0.843,1.88 1.678,1.801c0.074,-0.01 0.146,-0.023 0.219,-0.041c0.88,-0.217 1.249,-0.912 1.32,-1.524c0.01,-0.096 0.014,-0.187 0.011,-0.277l0,-0.002l-0.001,-0l0,-0.003c-0.003,-0.097 -0.023,-0.187 -0.057,-0.269c-0.07,-0.169 -0.199,-0.308 -0.373,-0.413c-0.098,-0.059 -0.333,-0.161 -0.603,-0.161l-0.086,-0c-0.388,-0 -1.023,-0.001 -1.261,0.043c-0.23,0.043 -0.306,0.075 -0.337,0.089c-0.136,0.053 -0.253,0.142 -0.341,0.255l-0.077,0.495c-0.03,-0.004 -0.061,-0.009 -0.092,-0.013Z" style="fill:url(#_Radial31);"/><path d="M19.014,10.322c0.153,0.061 0.285,0.156 0.389,0.275c0.069,0.077 0.165,0.129 0.268,0.126c0.142,-0.006 0.298,-0.007 0.465,-0c0.105,0.004 0.203,-0.047 0.271,-0.126c0.104,-0.119 0.236,-0.214 0.39,-0.275c0.056,-0.024 0.153,-0.059 0.392,-0.104c0.146,-0.027 0.491,-0.042 0.724,-0.047c0.24,-0.006 0.498,-0.006 0.691,-0.006l0.087,0c0.332,0 0.659,0.105 0.789,0.184c0.29,0.147 0.561,0.43 0.579,0.916c0.002,0.007 0.002,0.015 0.003,0.022c0.022,0.749 -0.442,1.819 -1.627,2.113c-0.084,0.02 -0.166,0.036 -0.248,0.047c-0.004,0 -0.007,0 -0.012,0.001c-1.199,0.112 -1.991,-0.901 -2.029,-2.003c-0.004,-0.091 -0.073,-0.168 -0.165,-0.169c-0.052,-0.002 -0.102,-0.002 -0.151,-0c-0.091,0.001 -0.162,0.077 -0.164,0.169c-0.039,1.102 -0.832,2.115 -2.031,2.003c-0.003,-0.001 -0.008,-0.001 -0.012,-0.001c-0.082,-0.011 -0.163,-0.027 -0.247,-0.047c-1.185,-0.294 -1.65,-1.364 -1.627,-2.113c0,-0.007 0.002,-0.015 0.002,-0.022c0.02,-0.486 0.289,-0.769 0.581,-0.916c0.129,-0.079 0.456,-0.184 0.787,-0.184l0.088,0c0.193,0 0.45,0 0.692,0.006c0.233,0.005 0.577,0.02 0.722,0.047c0.24,0.045 0.336,0.08 0.393,0.104Zm-2.871,0.696c0.07,-0.169 0.199,-0.308 0.373,-0.413c0.098,-0.059 0.334,-0.161 0.603,-0.161l0.087,-0c0.387,-0 1.022,-0.001 1.261,0.043c0.23,0.043 0.305,0.075 0.336,0.089c0.131,0.05 0.245,0.136 0.332,0.243l0.095,0.505c0.023,-0.004 0.051,-0.008 0.084,-0.013l-0,0.022c0.049,1.173 -0.844,1.88 -1.679,1.801c-0.074,-0.01 -0.146,-0.023 -0.218,-0.041c-0.879,-0.217 -1.249,-0.912 -1.319,-1.524c-0.011,-0.096 -0.016,-0.187 -0.012,-0.277l-0,-0.005c0.005,-0.097 0.023,-0.187 0.057,-0.269Zm4.354,0.295l0,0.02c-0.05,1.173 0.843,1.88 1.678,1.801c0.074,-0.01 0.146,-0.023 0.219,-0.041c0.88,-0.217 1.249,-0.912 1.32,-1.524c0.01,-0.096 0.014,-0.187 0.011,-0.277l0,-0.002l-0.001,-0l0,-0.003c-0.003,-0.097 -0.023,-0.187 -0.057,-0.269c-0.07,-0.169 -0.199,-0.308 -0.373,-0.413c-0.098,-0.059 -0.333,-0.161 -0.603,-0.161l-0.086,-0c-0.388,-0 -1.023,-0.001 -1.261,0.043c-0.23,0.043 -0.306,0.075 -0.337,0.089c-0.136,0.053 -0.253,0.142 -0.341,0.255l-0.077,0.495c-0.03,-0.004 -0.061,-0.009 -0.092,-0.013Z" style="fill:url(#_Radial32);"/><path d="M19.014,10.322c0.153,0.061 0.285,0.156 0.389,0.275c0.069,0.077 0.165,0.129 0.268,0.126c0.142,-0.006 0.298,-0.007 0.465,-0c0.105,0.004 0.203,-0.047 0.271,-0.126c0.104,-0.119 0.236,-0.214 0.39,-0.275c0.056,-0.024 0.153,-0.059 0.392,-0.104c0.146,-0.027 0.491,-0.042 0.724,-0.047c0.24,-0.006 0.498,-0.006 0.691,-0.006l0.087,0c0.332,0 0.659,0.105 0.789,0.184c0.29,0.147 0.561,0.43 0.579,0.916c0.002,0.007 0.002,0.015 0.003,0.022c0.022,0.749 -0.442,1.819 -1.627,2.113c-0.084,0.02 -0.166,0.036 -0.248,0.047c-0.004,0 -0.007,0 -0.012,0.001c-1.199,0.112 -1.991,-0.901 -2.029,-2.003c-0.004,-0.091 -0.073,-0.168 -0.165,-0.169c-0.052,-0.002 -0.102,-0.002 -0.151,-0c-0.091,0.001 -0.162,0.077 -0.164,0.169c-0.039,1.102 -0.832,2.115 -2.031,2.003c-0.003,-0.001 -0.008,-0.001 -0.012,-0.001c-0.082,-0.011 -0.163,-0.027 -0.247,-0.047c-1.185,-0.294 -1.65,-1.364 -1.627,-2.113c0,-0.007 0.002,-0.015 0.002,-0.022c0.02,-0.486 0.289,-0.769 0.581,-0.916c0.129,-0.079 0.456,-0.184 0.787,-0.184l0.088,0c0.193,0 0.45,0 0.692,0.006c0.233,0.005 0.577,0.02 0.722,0.047c0.24,0.045 0.336,0.08 0.393,0.104Zm-2.871,0.696c0.07,-0.169 0.199,-0.308 0.373,-0.413c0.098,-0.059 0.334,-0.161 0.603,-0.161l0.087,-0c0.387,-0 1.022,-0.001 1.261,0.043c0.23,0.043 0.305,0.075 0.336,0.089c0.131,0.05 0.245,0.136 0.332,0.243l0.095,0.505c0.023,-0.004 0.051,-0.008 0.084,-0.013l-0,0.022c0.049,1.173 -0.844,1.88 -1.679,1.801c-0.074,-0.01 -0.146,-0.023 -0.218,-0.041c-0.879,-0.217 -1.249,-0.912 -1.319,-1.524c-0.011,-0.096 -0.016,-0.187 -0.012,-0.277l-0,-0.005c0.005,-0.097 0.023,-0.187 0.057,-0.269Zm4.354,0.295l0,0.02c-0.05,1.173 0.843,1.88 1.678,1.801c0.074,-0.01 0.146,-0.023 0.219,-0.041c0.88,-0.217 1.249,-0.912 1.32,-1.524c0.01,-0.096 0.014,-0.187 0.011,-0.277l0,-0.002l-0.001,-0l0,-0.003c-0.003,-0.097 -0.023,-0.187 -0.057,-0.269c-0.07,-0.169 -0.199,-0.308 -0.373,-0.413c-0.098,-0.059 -0.333,-0.161 -0.603,-0.161l-0.086,-0c-0.388,-0 -1.023,-0.001 -1.261,0.043c-0.23,0.043 -0.306,0.075 -0.337,0.089c-0.136,0.053 -0.253,0.142 -0.341,0.255l-0.077,0.495c-0.03,-0.004 -0.061,-0.009 -0.092,-0.013Z" style="fill:url(#_Radial33);"/><path d="M16.516,10.605c0.098,-0.059 0.334,-0.161 0.603,-0.161l0.087,-0c0.387,-0 1.022,-0.001 1.261,0.043c0.23,0.043 0.305,0.075 0.336,0.089c0.299,0.117 0.511,0.408 0.511,0.749l-0,0.008c0.049,1.173 -0.844,1.88 -1.679,1.801c-0.074,-0.01 -0.146,-0.023 -0.218,-0.041c-1.017,-0.252 -1.352,-1.139 -1.331,-1.803c0.012,-0.297 0.17,-0.528 0.43,-0.685Z" style="fill:url(#_Radial34);fill-rule:nonzero;"/><path d="M16.516,10.605c0.098,-0.059 0.334,-0.161 0.603,-0.161l0.087,-0c0.387,-0 1.022,-0.001 1.261,0.043c0.23,0.043 0.305,0.075 0.336,0.089c0.299,0.117 0.511,0.408 0.511,0.749l-0,0.008c0.049,1.173 -0.844,1.88 -1.679,1.801c-0.074,-0.01 -0.146,-0.023 -0.218,-0.041c-1.017,-0.252 -1.352,-1.139 -1.331,-1.803c0.012,-0.297 0.17,-0.528 0.43,-0.685Z" style="fill:url(#_Radial35);fill-rule:nonzero;"/><path d="M16.516,10.605c0.098,-0.059 0.334,-0.161 0.603,-0.161l0.087,-0c0.387,-0 1.022,-0.001 1.261,0.043c0.23,0.043 0.305,0.075 0.336,0.089c0.299,0.117 0.511,0.408 0.511,0.749l-0,0.008c0.049,1.173 -0.844,1.88 -1.679,1.801c-0.074,-0.01 -0.146,-0.023 -0.218,-0.041c-1.017,-0.252 -1.352,-1.139 -1.331,-1.803c0.012,-0.297 0.17,-0.528 0.43,-0.685Z" style="fill:url(#_Radial36);fill-rule:nonzero;"/><path d="M16.516,10.605c0.098,-0.059 0.334,-0.161 0.603,-0.161l0.087,-0c0.387,-0 1.022,-0.001 1.261,0.043c0.23,0.043 0.305,0.075 0.336,0.089c0.299,0.117 0.511,0.408 0.511,0.749l-0,0.008c0.049,1.173 -0.844,1.88 -1.679,1.801c-0.074,-0.01 -0.146,-0.023 -0.218,-0.041c-1.017,-0.252 -1.352,-1.139 -1.331,-1.803c0.012,-0.297 0.17,-0.528 0.43,-0.685Z" style="fill:url(#_Radial37);fill-rule:nonzero;"/><path d="M18.323,10.819c0.207,-0.1 0.477,0.03 0.603,0.29c0.127,0.26 0.061,0.551 -0.146,0.651c-0.206,0.101 -0.477,-0.029 -0.603,-0.288c-0.125,-0.26 -0.061,-0.553 0.146,-0.653Z" style="fill:url(#_Linear38);"/><path d="M23.294,10.605c-0.098,-0.059 -0.333,-0.161 -0.603,-0.161l-0.086,-0c-0.388,-0 -1.023,-0.001 -1.261,0.043c-0.23,0.043 -0.306,0.075 -0.337,0.089c-0.299,0.117 -0.51,0.408 -0.51,0.749l0,0.008c-0.05,1.173 0.843,1.88 1.678,1.801c0.074,-0.01 0.146,-0.023 0.219,-0.041c1.016,-0.252 1.351,-1.139 1.331,-1.803l-0.001,-0c-0.01,-0.297 -0.17,-0.528 -0.43,-0.685Z" style="fill:url(#_Radial39);fill-rule:nonzero;"/><path d="M23.294,10.605c-0.098,-0.059 -0.333,-0.161 -0.603,-0.161l-0.086,-0c-0.388,-0 -1.023,-0.001 -1.261,0.043c-0.23,0.043 -0.306,0.075 -0.337,0.089c-0.299,0.117 -0.51,0.408 -0.51,0.749l0,0.008c-0.05,1.173 0.843,1.88 1.678,1.801c0.074,-0.01 0.146,-0.023 0.219,-0.041c1.016,-0.252 1.351,-1.139 1.331,-1.803l-0.001,-0c-0.01,-0.297 -0.17,-0.528 -0.43,-0.685Z" style="fill:url(#_Radial40);fill-rule:nonzero;"/><path d="M23.294,10.605c-0.098,-0.059 -0.333,-0.161 -0.603,-0.161l-0.086,-0c-0.388,-0 -1.023,-0.001 -1.261,0.043c-0.23,0.043 -0.306,0.075 -0.337,0.089c-0.299,0.117 -0.51,0.408 -0.51,0.749l0,0.008c-0.05,1.173 0.843,1.88 1.678,1.801c0.074,-0.01 0.146,-0.023 0.219,-0.041c1.016,-0.252 1.351,-1.139 1.331,-1.803l-0.001,-0c-0.01,-0.297 -0.17,-0.528 -0.43,-0.685Z" style="fill:url(#_Radial41);fill-rule:nonzero;"/><path d="M23.294,10.605c-0.098,-0.059 -0.333,-0.161 -0.603,-0.161l-0.086,-0c-0.388,-0 -1.023,-0.001 -1.261,0.043c-0.23,0.043 -0.306,0.075 -0.337,0.089c-0.299,0.117 -0.51,0.408 -0.51,0.749l0,0.008c-0.05,1.173 0.843,1.88 1.678,1.801c0.074,-0.01 0.146,-0.023 0.219,-0.041c1.016,-0.252 1.351,-1.139 1.331,-1.803l-0.001,-0c-0.01,-0.297 -0.17,-0.528 -0.43,-0.685Z" style="fill:url(#_Radial42);fill-rule:nonzero;"/><path d="M22.788,10.819c0.207,-0.1 0.476,0.03 0.602,0.29c0.127,0.26 0.061,0.551 -0.146,0.651c-0.206,0.101 -0.476,-0.029 -0.602,-0.288c-0.126,-0.26 -0.06,-0.553 0.146,-0.653Z" style="fill:url(#_Linear43);"/></g></g><defs><linearGradient id="_Linear1" x1="0" y1="0" x2="1" y2="0" gradientUnits="userSpaceOnUse" gradientTransform="matrix(1.64921e-15,26.9336,-26.9336,1.64921e-15,16,3.03516)"><stop offset="0" style="stop-color:#e8a874;stop-opacity:1"/><stop offset="1" style="stop-color:#db925d;stop-opacity:1"/></linearGradient><radialGradient id="_Radial2" cx="0" cy="0" r="1" gradientUnits="userSpaceOnUse" gradientTransform="matrix(-9.57142e-16,-2.5,2.02864,-7.76679e-16,15.6855,5.3125)"><stop offset="0" style="stop-color:#d79769;stop-opacity:1"/><stop offset="1" style="stop-color:#d79769;stop-opacity:0"/></radialGradient><linearGradient id="_Linear3" x1="0" y1="0" x2="1" y2="0" gradientUnits="userSpaceOnUse" gradientTransform="matrix(1.38275e-15,22.582,-22.582,1.38275e-15,15.8762,5.17205)"><stop offset="0" style="stop-color:#eae2f4;stop-opacity:1"/><stop offset="1" style="stop-color:#e4daef;stop-opacity:1"/></linearGradient><linearGradient id="_Linear4" x1="0" y1="0" x2="1" y2="0" gradientUnits="userSpaceOnUse" gradientTransform="matrix(-3.0625,4.4375,-4.4375,-3.0625,18.7168,3.78125)"><stop offset="0" style="stop-color:#948a94;stop-opacity:1"/><stop offset="1" style="stop-color:#8d8291;stop-opacity:1"/></linearGradient><linearGradient id="_Linear5" x1="0" y1="0" x2="1" y2="0" gradientUnits="userSpaceOnUse" gradientTransform="matrix(1.58878,0,0,1.52886,13.3194,17.5584)"><stop offset="0" style="stop-color:#4b4b4b;stop-opacity:1"/><stop offset="0.09" style="stop-color:#2b2b2b;stop-opacity:1"/><stop offset="0.19" style="stop-color:#0d0d0d;stop-opacity:1"/><stop offset="0.47" style="stop-color:#000;stop-opacity:1"/><stop offset="0.79" style="stop-color:#0b0b0b;stop-opacity:1"/><stop offset="0.9" style="stop-color:#242424;stop-opacity:1"/><stop offset="1" style="stop-color:#3d3d3d;stop-opacity:1"/></linearGradient><linearGradient id="_Linear6" x1="0" y1="0" x2="1" y2="0" gradientUnits="userSpaceOnUse" gradientTransform="matrix(3.08716,0.72798,-0.0918192,0.389379,12.2199,15.5626)"><stop offset="0" style="stop-color:#4b4b4b;stop-opacity:1"/><stop offset="0.09" style="stop-color:#2b2b2b;stop-opacity:1"/><stop offset="0.19" style="stop-color:#0d0d0d;stop-opacity:1"/><stop offset="0.47" style="stop-color:#000;stop-opacity:1"/><stop offset="0.79" style="stop-color:#0b0b0b;stop-opacity:1"/><stop offset="0.9" style="stop-color:#242424;stop-opacity:1"/><stop offset="1" style="stop-color:#3d3d3d;stop-opacity:1"/></linearGradient><radialGradient id="_Radial7" cx="0" cy="0" r="1" gradientUnits="userSpaceOnUse" gradientTransform="matrix(-6.59126,7.1082,-7.1082,-6.59126,14.6708,21.5461)"><stop offset="0" style="stop-color:#fff478;stop-opacity:1"/><stop offset="0.47" style="stop-color:#ffb02e;stop-opacity:1"/><stop offset="1" style="stop-color:#f70a8d;stop-opacity:1"/></radialGradient><radialGradient id="_Radial8" cx="0" cy="0" r="1" gradientUnits="userSpaceOnUse" gradientTransform="matrix(-6.72052,7.49594,-7.49594,-6.72052,14.6708,21.5461)"><stop offset="0" style="stop-color:#fff478;stop-opacity:1"/><stop offset="0.47" style="stop-color:#ffb02e;stop-opacity:1"/><stop offset="1" style="stop-color:#f70a8d;stop-opacity:1"/></radialGradient><radialGradient id="_Radial9" cx="0" cy="0" r="1" gradientUnits="userSpaceOnUse" gradientTransform="matrix(-0.90469,4.52342,-5.79365,-1.15874,12.2152,22.4507)"><stop offset="0" style="stop-color:#f59639;stop-opacity:0"/><stop offset="0.79" style="stop-color:#f59639;stop-opacity:0"/><stop offset="0.97" style="stop-color:#ff7dce;stop-opacity:1"/><stop offset="1" style="stop-color:#ff7dce;stop-opacity:1"/></radialGradient><radialGradient id="_Radial10" cx="0" cy="0" r="1" gradientUnits="userSpaceOnUse" gradientTransform="matrix(-7.49595,7.49595,-7.49595,-7.49595,12.7321,22.8384)"><stop offset="0" style="stop-color:#000;stop-opacity:0"/><stop offset="0.31" style="stop-color:#000;stop-opacity:0"/><stop offset="1" style="stop-color:#000;stop-opacity:0.6"/></radialGradient><radialGradient id="_Radial11" cx="0" cy="0" r="1" gradientUnits="userSpaceOnUse" gradientTransform="matrix(1.55088,7.10822,-7.10822,1.55088,12.2152,23.6139)"><stop offset="0" style="stop-color:#7d6133;stop-opacity:0"/><stop offset="0.51" style="stop-color:#7d6133;stop-opacity:0"/><stop offset="1" style="stop-color:#715b32;stop-opacity:1"/></radialGradient><radialGradient id="_Radial12" cx="0" cy="0" r="1" gradientUnits="userSpaceOnUse" gradientTransform="matrix(1.9386,2.84328,-2.06096,1.4052,12.3444,23.4847)"><stop offset="0" style="stop-color:#ffb849;stop-opacity:1"/><stop offset="1" style="stop-color:#ffb847;stop-opacity:0"/></radialGradient><radialGradient id="_Radial13" cx="0" cy="0" r="1" gradientUnits="userSpaceOnUse" gradientTransform="matrix(2.97253,0.516961,-0.516961,2.97253,13.3783,23.8723)"><stop offset="0" style="stop-color:#ffa64b;stop-opacity:1"/><stop offset="0.9" style="stop-color:#ffae46;stop-opacity:0"/><stop offset="1" style="stop-color:#ffae46;stop-opacity:0"/></radialGradient><radialGradient id="_Radial14" cx="0" cy="0" r="1" gradientUnits="userSpaceOnUse" gradientTransform="matrix(10.9854,10.5977,-10.5977,10.9854,12.6028,23.097)"><stop offset="0" style="stop-color:#000;stop-opacity:0"/><stop offset="0.19" style="stop-color:#000;stop-opacity:0"/><stop offset="1" style="stop-color:#000;stop-opacity:0.4"/></radialGradient><radialGradient id="_Radial15" cx="0" cy="0" r="1" gradientUnits="userSpaceOnUse" gradientTransform="matrix(-1.39084,-2.6675,4.11396,-2.14502,11.8818,26.3606)"><stop offset="0" style="stop-color:#2e1529;stop-opacity:1"/><stop offset="0.15" style="stop-color:#2e1529;stop-opacity:1"/><stop offset="0.28" style="stop-color:#503a4a;stop-opacity:1"/><stop offset="0.34" style="stop-color:#4b2744;stop-opacity:1"/><stop offset="1" style="stop-color:#4b2744;stop-opacity:1"/></radialGradient><linearGradient id="_Linear16" x1="0" y1="0" x2="1" y2="0" gradientUnits="userSpaceOnUse" gradientTransform="matrix(3.16548e-17,0.516961,-0.516961,3.16548e-17,12.2152,22.3215)"><stop offset="0" style="stop-color:#5f5253;stop-opacity:1"/><stop offset="1" style="stop-color:#4d2c4f;stop-opacity:1"/></linearGradient><radialGradient id="_Radial17" cx="0" cy="0" r="1" gradientUnits="userSpaceOnUse" gradientTransform="matrix(-1.80937,2.06784,-2.06784,-1.80937,11.4397,22.0629)"><stop offset="0" style="stop-color:#54424a;stop-opacity:1"/><stop offset="1" style="stop-color:#52394d;stop-opacity:1"/></radialGradient><radialGradient id="_Radial18" cx="0" cy="0" r="1" gradientUnits="userSpaceOnUse" gradientTransform="matrix(-1.80937,2.06784,-2.06784,-1.80937,14.8,22.0629)"><stop offset="0" style="stop-color:#54424a;stop-opacity:1"/><stop offset="1" style="stop-color:#52394d;stop-opacity:1"/></radialGradient><radialGradient id="_Radial19" cx="0" cy="0" r="1" gradientUnits="userSpaceOnUse" gradientTransform="matrix(-1.55088,0.258473,-0.258473,-1.55088,10.6643,22.7092)"><stop offset="0" style="stop-color:#3b2131;stop-opacity:0"/><stop offset="0.9" style="stop-color:#3b2131;stop-opacity:0"/><stop offset="1" style="stop-color:#422833;stop-opacity:1"/></radialGradient><radialGradient id="_Radial20" cx="0" cy="0" r="1" gradientUnits="userSpaceOnUse" gradientTransform="matrix(-1.55088,0.258473,-0.258473,-1.55088,14.0245,22.7092)"><stop offset="0" style="stop-color:#3b2131;stop-opacity:0"/><stop offset="0.9" style="stop-color:#3b2131;stop-opacity:0"/><stop offset="1" style="stop-color:#422833;stop-opacity:1"/></radialGradient><radialGradient id="_Radial21" cx="0" cy="0" r="1" gradientUnits="userSpaceOnUse" gradientTransform="matrix(-7.10008,7.65692,-7.65692,-7.10008,22.5504,11.2502)"><stop offset="0" style="stop-color:#fff478;stop-opacity:1"/><stop offset="0.47" style="stop-color:#ffb02e;stop-opacity:1"/><stop offset="1" style="stop-color:#f70a8d;stop-opacity:1"/></radialGradient><radialGradient id="_Radial22" cx="0" cy="0" r="1" gradientUnits="userSpaceOnUse" gradientTransform="matrix(-7.23931,8.07458,-8.07458,-7.23931,22.5504,11.2502)"><stop offset="0" style="stop-color:#fff478;stop-opacity:1"/><stop offset="0.47" style="stop-color:#ffb02e;stop-opacity:1"/><stop offset="1" style="stop-color:#f70a8d;stop-opacity:1"/></radialGradient><radialGradient id="_Radial23" cx="0" cy="0" r="1" gradientUnits="userSpaceOnUse" gradientTransform="matrix(-0.974528,4.8726,-6.24088,-1.24818,19.9052,12.2248)"><stop offset="0" style="stop-color:#f59639;stop-opacity:0"/><stop offset="0.79" style="stop-color:#f59639;stop-opacity:0"/><stop offset="0.97" style="stop-color:#ff7dce;stop-opacity:1"/><stop offset="1" style="stop-color:#ff7dce;stop-opacity:1"/></radialGradient><radialGradient id="_Radial24" cx="0" cy="0" r="1" gradientUnits="userSpaceOnUse" gradientTransform="matrix(-8.07459,8.07459,-8.07459,-8.07459,20.4622,12.6424)"><stop offset="0" style="stop-color:#000;stop-opacity:0"/><stop offset="0.31" style="stop-color:#000;stop-opacity:0"/><stop offset="1" style="stop-color:#000;stop-opacity:0.6"/></radialGradient><radialGradient id="_Radial25" cx="0" cy="0" r="1" gradientUnits="userSpaceOnUse" gradientTransform="matrix(1.6706,7.65693,-7.65693,1.6706,19.9052,13.4776)"><stop offset="0" style="stop-color:#7d6133;stop-opacity:0"/><stop offset="0.51" style="stop-color:#7d6133;stop-opacity:0"/><stop offset="1" style="stop-color:#715b32;stop-opacity:1"/></radialGradient><radialGradient id="_Radial26" cx="0" cy="0" r="1" gradientUnits="userSpaceOnUse" gradientTransform="matrix(2.08825,3.06277,-2.22005,1.51368,20.0445,13.3385)"><stop offset="0" style="stop-color:#ffb849;stop-opacity:1"/><stop offset="1" style="stop-color:#ffb847;stop-opacity:0"/></radialGradient><radialGradient id="_Radial27" cx="0" cy="0" r="1" gradientUnits="userSpaceOnUse" gradientTransform="matrix(3.20199,0.556868,-0.556868,3.20199,21.1582,13.7561)"><stop offset="0" style="stop-color:#ffa64b;stop-opacity:1"/><stop offset="0.9" style="stop-color:#ffae46;stop-opacity:0"/><stop offset="1" style="stop-color:#ffae46;stop-opacity:0"/></radialGradient><radialGradient id="_Radial28" cx="0" cy="0" r="1" gradientUnits="userSpaceOnUse" gradientTransform="matrix(11.8335,11.4158,-11.4158,11.8335,20.3229,12.9208)"><stop offset="0" style="stop-color:#000;stop-opacity:0"/><stop offset="0.19" style="stop-color:#000;stop-opacity:0"/><stop offset="1" style="stop-color:#000;stop-opacity:0.4"/></radialGradient><radialGradient id="_Radial29" cx="0" cy="0" r="1" gradientUnits="userSpaceOnUse" gradientTransform="matrix(0.466433,3.00945,-4.64132,0.719358,19.5109,13.9462)"><stop offset="0" style="stop-color:#2e1529;stop-opacity:1"/><stop offset="0.15" style="stop-color:#2e1529;stop-opacity:1"/><stop offset="0.28" style="stop-color:#503a4a;stop-opacity:1"/><stop offset="0.34" style="stop-color:#4b2744;stop-opacity:1"/><stop offset="1" style="stop-color:#4b2744;stop-opacity:1"/></radialGradient><linearGradient id="_Linear30" x1="0" y1="0" x2="1" y2="0" gradientUnits="userSpaceOnUse" gradientTransform="matrix(-3.91549,1.49327,-1.49327,-3.91549,21.7673,12.0895)"><stop offset="0" style="stop-color:#e78f00;stop-opacity:1"/><stop offset="1" style="stop-color:#d07000;stop-opacity:1"/></linearGradient><radialGradient id="_Radial31" cx="0" cy="0" r="1" gradientUnits="userSpaceOnUse" gradientTransform="matrix(0.661285,3.35862,-6.95983,1.37034,21.3322,10.3459)"><stop offset="0" style="stop-color:#5f5b9b;stop-opacity:1"/><stop offset="1" style="stop-color:#5c3085;stop-opacity:1"/></radialGradient><radialGradient id="_Radial32" cx="0" cy="0" r="1" gradientUnits="userSpaceOnUse" gradientTransform="matrix(0.317554,1.50218,-1.68754,0.356742,22.1023,11.8108)"><stop offset="0" style="stop-color:#77579c;stop-opacity:1"/><stop offset="0.78" style="stop-color:#77579c;stop-opacity:1"/><stop offset="0.94" style="stop-color:#77579c;stop-opacity:0"/><stop offset="1" style="stop-color:#77579c;stop-opacity:0"/></radialGradient><radialGradient id="_Radial33" cx="0" cy="0" r="1" gradientUnits="userSpaceOnUse" gradientTransform="matrix(-0.704783,-1.09634,0.804772,-0.517349,21.541,11.5293)"><stop offset="0" style="stop-color:#4e3d92;stop-opacity:1"/><stop offset="0.77" style="stop-color:#4e3d92;stop-opacity:1"/><stop offset="1" style="stop-color:#534687;stop-opacity:0"/></radialGradient><radialGradient id="_Radial34" cx="0" cy="0" r="1" gradientUnits="userSpaceOnUse" gradientTransform="matrix(-0.870103,1.40088,-1.59142,-0.988455,18.4262,11.2682)"><stop offset="0" style="stop-color:#4c3d70;stop-opacity:1"/><stop offset="1" style="stop-color:#361c5d;stop-opacity:1"/></radialGradient><radialGradient id="_Radial35" cx="0" cy="0" r="1" gradientUnits="userSpaceOnUse" gradientTransform="matrix(0.104413,2.08826,-3.10092,0.155046,18.0868,11.3117)"><stop offset="0" style="stop-color:#5b2b84;stop-opacity:0"/><stop offset="0.65" style="stop-color:#5b2b84;stop-opacity:0"/><stop offset="1" style="stop-color:#5b2b84;stop-opacity:1"/></radialGradient><radialGradient id="_Radial36" cx="0" cy="0" r="1" gradientUnits="userSpaceOnUse" gradientTransform="matrix(-0.530766,-3.16718,3.13643,-0.525612,17.6169,13.4174)"><stop offset="0" style="stop-color:#2e1d57;stop-opacity:0"/><stop offset="0.86" style="stop-color:#2e1d57;stop-opacity:0"/><stop offset="1" style="stop-color:#20143d;stop-opacity:1"/></radialGradient><radialGradient id="_Radial37" cx="0" cy="0" r="1" gradientUnits="userSpaceOnUse" gradientTransform="matrix(-0.452452,2.08826,-1.95987,-0.424634,17.8867,11.1029)"><stop offset="0" style="stop-color:#2e1d57;stop-opacity:0"/><stop offset="0.87" style="stop-color:#2e1d57;stop-opacity:0"/><stop offset="1" style="stop-color:#20143d;stop-opacity:0.6"/></radialGradient><linearGradient id="_Linear38" x1="0" y1="0" x2="1" y2="0" gradientUnits="userSpaceOnUse" gradientTransform="matrix(0.0352496,0.961456,-0.961456,0.0352496,18.5518,10.8729)"><stop offset="0" style="stop-color:#fff;stop-opacity:1"/><stop offset="0.97" style="stop-color:#fff;stop-opacity:0"/><stop offset="1" style="stop-color:#fff;stop-opacity:0"/></linearGradient><radialGradient id="_Radial39" cx="0" cy="0" r="1" gradientUnits="userSpaceOnUse" gradientTransform="matrix(-0.957131,1.57489,-2.36561,-1.43769,22.3155,11.1551)"><stop offset="0" style="stop-color:#4c3d70;stop-opacity:1"/><stop offset="1" style="stop-color:#361c5d;stop-opacity:1"/></radialGradient><radialGradient id="_Radial40" cx="0" cy="0" r="1" gradientUnits="userSpaceOnUse" gradientTransform="matrix(-0.104413,2.08826,-3.10092,-0.155046,21.7237,11.3117)"><stop offset="0" style="stop-color:#5b2b84;stop-opacity:0"/><stop offset="0.65" style="stop-color:#5b2b84;stop-opacity:0"/><stop offset="1" style="stop-color:#5b2b84;stop-opacity:1"/></radialGradient><radialGradient id="_Radial41" cx="0" cy="0" r="1" gradientUnits="userSpaceOnUse" gradientTransform="matrix(0.613976,-2.79306,2.76592,0.60801,22.1104,13.0433)"><stop offset="0" style="stop-color:#2e1d57;stop-opacity:0"/><stop offset="0.86" style="stop-color:#2e1d57;stop-opacity:0"/><stop offset="1" style="stop-color:#20143d;stop-opacity:1"/></radialGradient><radialGradient id="_Radial42" cx="0" cy="0" r="1" gradientUnits="userSpaceOnUse" gradientTransform="matrix(0.452455,2.08826,-1.95987,0.424637,21.9238,11.1029)"><stop offset="0" style="stop-color:#2e1d57;stop-opacity:0"/><stop offset="0.87" style="stop-color:#2e1d57;stop-opacity:0"/><stop offset="1" style="stop-color:#20143d;stop-opacity:0.6"/></radialGradient><linearGradient id="_Linear43" x1="0" y1="0" x2="1" y2="0" gradientUnits="userSpaceOnUse" gradientTransform="matrix(0.0352496,0.961456,-0.961456,0.0352496,23.0164,10.8729)"><stop offset="0" style="stop-color:#fff;stop-opacity:1"/><stop offset="0.97" style="stop-color:#fff;stop-opacity:0"/><stop offset="1" style="stop-color:#fff;stop-opacity:0"/></linearGradient></defs></svg>