<svg xmlns="http://www.w3.org/2000/svg" height="24" width="24" fill="#fff"><path d="M8.29 20.13c7.547 0 11.675-6.255 11.675-11.679 0-.178-.004-.355-.012-.531A8.355 8.355 0 0022 5.795a8.165 8.165 0 01-2.356.646 4.118 4.118 0 001.804-2.271 8.24 8.24 0 01-2.606.997A4.104 4.104 0 0011.85 8.91a11.65 11.65 0 01-8.458-4.289 4.1 4.1 0 00-.556 2.064c0 1.424.725 2.681 1.826 3.416a4.065 4.065 0 01-1.858-.513l-.001.052a4.106 4.106 0 003.292 4.024 4.113 4.113 0 01-1.853.071 4.107 4.107 0 003.833 2.851 8.229 8.229 0 01-5.096 1.757c-.327 0-.654-.019-.979-.057a11.615 11.615 0 006.29 1.844"/></svg>
